<?xml version="1.0" encoding="UTF-8" standalone="no"?>
<?xml-stylesheet href="style.css" type="text/css" title="style" alternate="no" media="all"?><svg
   xmlns:dc="http://purl.org/dc/elements/1.1/"
   xmlns:cc="http://creativecommons.org/ns#"
   xmlns:rdf="http://www.w3.org/1999/02/22-rdf-syntax-ns#"
   xmlns:svg="http://www.w3.org/2000/svg"
   xmlns="http://www.w3.org/2000/svg"
   xmlns:xlink="http://www.w3.org/1999/xlink"
   xmlns:sodipodi="http://sodipodi.sourceforge.net/DTD/sodipodi-0.dtd"
   xmlns:inkscape="http://www.inkscape.org/namespaces/inkscape"
   height="600px"
   version="1.1"
   width="800px"
   id="svg2"
   inkscape:version="0.48.5 r10040"
   sodipodi:docname="imramma.svg">
  <metadata
     id="metadata71">
    <rdf:RDF>
      <cc:Work
         rdf:about="">
        <dc:format>image/svg+xml</dc:format>
        <dc:type
           rdf:resource="http://purl.org/dc/dcmitype/StillImage" />
      </cc:Work>
    </rdf:RDF>
  </metadata>
  <sodipodi:namedview
     pagecolor="#ffffff"
     bordercolor="#666666"
     borderopacity="1"
     objecttolerance="10"
     gridtolerance="10"
     guidetolerance="10"
     inkscape:pageopacity="0"
     inkscape:pageshadow="2"
     inkscape:window-width="434"
     inkscape:window-height="415"
     id="namedview69"
     showgrid="false"
     inkscape:zoom="0.295"
     inkscape:cx="400"
     inkscape:cy="300"
     inkscape:window-x="0"
     inkscape:window-y="27"
     inkscape:window-maximized="0"
     inkscape:current-layer="svg2" />
  <defs
     id="defs4">
    <style
       type="text/css"
       id="style6">@font-face {
  font-family: Bravura;
  src: local(&quot;Bravura Regular&quot;),
    local(&quot;BravuraRegular&quot;), 
    local(&quot;Bravura&quot;),
     url(Bravura.otf) format(&quot;opentype&quot;),
    url(Bravura.svg) format(&quot;svg&quot;);
}
</style>
  </defs>
  <image
     sodipodi:absref="/tmp/./data/Bravura.svg"
     xlink:href="./data/Bravura.svg"
     id="image8" />
  <path
     d="M 341 277 L 209 667"
     id="id1" />
  <g
     style="font-size:53px;stroke:#000000;stroke-width:1;font-family:Bravura"
     id="text13">
    <path
       d="m 356.10476,294.36619 c 1.12144,-3.31336 0.38076,-6.24982 -1.97875,-7.04843 -1.20486,-0.4078 -2.43134,0.2402 -2.82215,1.39486 -0.39081,1.15465 0.15679,2.34716 1.24425,2.77117 -0.017,0.0502 0.0834,0.0842 0.13361,0.10118 0.10041,0.034 0.2178,0.0178 0.26801,0.0347 0.2178,0.0178 0.4356,0.0355 0.63641,0.1035 1.00405,0.33983 1.31839,1.22957 1.06352,1.98261 -0.051,0.15061 -0.10195,0.30121 -0.20313,0.43483 -0.52288,0.71828 -1.46205,0.84804 -2.41589,0.52519 -0.50203,-0.16991 -1.02027,-0.45722 -1.50453,-0.84494 -1.6868,-1.29831 -1.76018,-3.56129 -1.45433,-4.46493 0.32284,-0.95384 0.79861,-2.35951 0.79861,-2.35951 0.22089,-0.65264 0.35914,-1.55705 -0.44256,-2.16412 -0.13361,-0.10117 -0.28422,-0.15215 -0.38463,-0.18613 -0.55222,-0.18691 -0.93994,0.29735 -1.24579,1.201 0,0 -0.30585,0.90364 -0.50975,1.50607 -0.3908,1.15465 -1.71538,1.26587 -2.97044,0.84108 -0.70283,-0.23788 -1.3879,-0.69356 -1.90537,-1.14847 -2.11932,-2.00424 -2.212,-3.71421 -1.82119,-4.86887 0.25487,-0.75304 0.72677,-1.32071 0.94535,-1.47054 0.15138,-0.11663 0.28577,-0.18305 0.43637,-0.13208 0.20081,0.068 0.35065,0.28654 0.38309,0.52134 0.0162,0.11739 0.0494,0.18459 0.0494,0.18459 0,0 -0.0494,-0.18459 -0.0494,-0.18459 0.11353,0.82177 0.64645,1.56168 1.49989,1.85054 1.20486,0.40779 2.48155,-0.22321 2.87235,-1.37787 0.32284,-0.95384 -0.008,-1.96098 -0.89283,-2.65223 -0.30044,-0.26955 -0.76848,-0.53987 -1.2203,-0.69279 -1.65668,-0.56073 -4.02238,-0.0185 -5.56861,4.54988 -1.75014,5.17085 0.63564,7.54504 2.37419,8.52515 0.23402,0.13516 0.48503,0.22012 0.73604,0.30508 1.60648,0.54373 2.96658,-0.003 3.16816,-0.10273 0.0672,-0.0332 0.20158,-0.0996 0.35219,-0.0487 0.15061,0.051 0.36764,0.23633 0.3993,0.63873 0.41784,3.8903 1.98725,5.20483 3.69413,5.78255 1.75708,0.5947 5.21333,-0.19387 6.33478,-3.50722"
       style=""
       id="path3055" />
  </g>
  <path
     d="M 485 181 L  491 175 488 163 491 157 488 145 491 139 497 130 497 130 503 127 512 115 521 109 521 103 530 97 536 85 533 79 542 70 548 70 551 70 560 64 566 55 566 43 569 40 575 31 578 22 581 10 590 7 590 -2 587 -14 587 -26 590 -26 596 -38 605 -44 605 -44 614 -50 611 -50 620 -53 620 -59 620 -65 623 -77 629 -86 638 -89 647 -101 644 -104 647 -116 650 -119 650 -119 656 -128 665 -140 671 -140 671 -146 671 -149 677 -155 674 -155 677 -158 686 -161 686 -161 695 -161 701 -164 701 -170 707 -176 710 -176 719 -185 716 -197 719 -197 719 -209 725 -218 728 -218 734 -218 734 -224 743 -224 749 -224 752 -227 761 -233 764 -245 767 -248 770 -260 779 -266 788 -266 785 -275 782 -278 788 -287 785 -296 791 -305 791 -305 800 -311 797 -314 797 -317 797 -323 806 -335 809 -347 809 -350 806 -350 815 -353 818 -359 815 -365 818 -365 824 -368 824 -380 824 -389 827 -401 830 -404 827 -404 833 -404 842 -413 845 -413 845 -419 854 -419 860 -428 857 -431 860 -431 869 -437 869 -443 866 -449 863 -458 863 -458 860 -464 857 -467 854 -470 851 -479 851 -485 857 -494 857 -500 866 -506 863 -512 872 -521 875 -530 875 -542 881 -548 884 -554 884 -566 893 -569 890 -572 899 -581 905 -593 905 -602 911 -605 908 -617 908 -623 908 -623 911 -629 911 -635 917 -638 917 -650 926 -662 932 -671 938 -677 944 -689 941 -701 941 -713 944 -716 947 -728 953 -734 950 -743 959 -743 965 -746 971 -758 980 -758 977 -770 983 -779 992 -779 989 -788 995 -788 1001 -794 1004 -800 1001 -812 1004 -815 1004 -818 1004 -818 1010 -824 1007 -824 1013 -830 1010 -830 1007 -830 1016 -836 1013 -845 1016 -857 1019 -860 1028 -860 1034 -866 1043 -878 1052 -878 1061 -887 1067 -893 1070 -902 1079 -902 1085 -905 1091 -905 1091 -914 1100 -926 1109 -926 1115 -929 1124 -932 1133 -938 1136 -941 1139 -950 1139 -959 1142 -962"
     fill="white"
     stroke="black"
     stroke-width="5"
     id="path17" />
  <path
     d="M 542 445 L 1088 147"
     id="id2" />
  <g
     style="font-size:89px;stroke:#000000;stroke-width:1;font-family:Bravura"
     id="text22">
    <path
       d="m 541.14037,444.35385 c 4.77544,8.74963 14.12403,12.87407 24.66445,11.37974 2.82182,7.58524 4.4,12.70609 4.4,12.70609 0.75346,2.12359 1.57789,4.00567 2.47328,5.64623 6.69415,12.2651 16.85113,11.18285 22.56832,8.46805 0.62498,-0.3411 1.29259,-0.60408 1.83944,-0.90255 12.89008,-7.03524 10.45143,-16.14774 8.10635,-20.44443 -0.89539,-1.64056 -1.76933,-2.68447 -1.84745,-2.64184 -2.38743,-3.25965 -6.96915,-4.40915 -10.69066,-2.68218 l -0.54686,0.29847 c -4.21857,2.30244 -5.74438,7.49511 -3.91782,11.77063 l 0.29847,0.54685 c 1.9187,3.51548 5.7192,5.09137 9.47648,4.3588 0.87365,-0.0713 1.4205,-0.36972 2.20888,-0.59722 0.47588,-0.057 0.87364,-0.0713 1.04419,0.24123 0.12792,0.23437 0.0641,0.67477 -0.23407,1.24308 -1.00099,2.06722 -2.97522,3.6517 -5.63135,5.10138 l -1.48432,0.81012 c -0.93746,0.51166 -10.5536,5.55722 -17.50357,-7.17661 -0.85275,-1.56243 -1.67718,-3.44451 -2.43064,-5.56811 l -4.17251,-11.91772 c 0.15625,-0.0853 0.39061,-0.21319 0.39061,-0.21319 1.84659,-0.70366 3.68604,-1.60622 5.48284,-2.58689 12.81195,-6.9926 24.29385,-21.06657 15.45981,-40.78213 -0.34826,-0.82386 -0.77464,-1.60508 -1.20102,-2.38629 -8.2291,-15.07749 -27.38699,-19.52616 -44.24325,-23.10173 l -1.74872,-5.43332 c -1.10172,-2.94745 -2.39516,-5.68887 -3.80221,-8.26689 -7.71745,-14.14002 -19.31183,-23.12232 -28.6023,-22.3102 0,0 -2.55656,2.0037 -1.80853,10.61941 0.58405,6.27177 2.14105,11.91114 4.82724,16.83281 5.79874,10.62455 16.69661,17.95914 32.45201,21.93275 1.52122,4.64495 2.87906,9.17631 4.79118,14.72324 -0.39776,0.0143 -0.78837,0.2275 -1.10086,0.39805 l -0.85934,0.46901 c -9.99958,5.45765 -14.1303,17.95285 -9.255,28.37166 l 0.59693,1.0937 m -23.41106,-81.72081 c 6.34217,-3.0559 16.87145,7.31885 21.26314,15.36538 0.5543,1.01558 1.06595,1.95305 1.37873,2.89766 0.25582,0.46873 0.75346,2.1236 1.46428,4.16907 -11.81269,-1.76561 -20.28047,-5.76241 -24.75688,-11.73486 -0.41922,-0.58234 -0.79581,-1.08655 -1.09427,-1.6334 -2.30245,-4.21857 -0.83301,-7.6568 1.745,-9.06385 m 69.70894,56.75618 c 6.9929,13.92713 -4.82352,25.34466 -13.33879,29.99218 -2.18741,1.19386 -4.11212,1.94017 -5.49714,2.18913 l -9.42555,-27.30141 c 5.62505,-1.95476 11.09444,-1.59391 14.07909,3.87461 l 0.42638,0.78121 c 1.59191,3.28827 0.16569,9.03495 -1.01301,10.5908 -0.45442,0.65359 -0.66017,1.57703 -0.40434,2.04576 0.17055,0.31248 0.65359,0.45442 1.27856,0.11332 0.39061,-0.21319 0.89483,-0.58978 1.47001,-1.20789 3.03215,-3.1758 4.41574,-9.0006 2.76631,-14.99508 -0.28444,-1.26426 -0.76777,-2.52136 -1.40734,-3.69319 -3.8374,-7.03095 -13.00828,-10.64402 -21.19045,-8.91589 l -4.69847,-13.25295 c 14.36981,1.99225 29.49312,6.10811 36.61364,19.15443 l 0.3411,0.62497 m -22.66418,33.1554 c -6.74765,0.641 -11.8127,-1.76562 -14.79735,-7.23414 l -0.46902,-0.85934 c -3.26909,-6.73277 -0.50106,-15.03687 6.06116,-18.61844 l 0.31249,-0.17056 c 3.17752,9.72315 6.26262,19.0912 8.89272,26.88248"
       style=""
       id="path3058" />
  </g>
  <path
     style="stroke:#000000;stroke-width:8"
     d="M 712,55 611,245"
     id="line26" />
  <path
     style=""
     d="m 647,212 c 0,2.20914 -1.79086,4 -4,4 -2.20914,0 -4,-1.79086 -4,-4 0,-2.20914 1.79086,-4 4,-4 2.20914,0 4,1.79086 4,4 z"
     id="circle28" />
  <path
     style=""
     d="m 601,291 c 0,2.20914 -1.79086,4 -4,4 -2.20914,0 -4,-1.79086 -4,-4 0,-2.20914 1.79086,-4 4,-4 2.20914,0 4,1.79086 4,4 z"
     id="circle30" />
  <path
     style=""
     d="m 638,255 c 0,2.20914 -1.79086,4 -4,4 -2.20914,0 -4,-1.79086 -4,-4 0,-2.20914 1.79086,-4 4,-4 2.20914,0 4,1.79086 4,4 z"
     id="circle32" />
  <path
     style=""
     d="m 610,125 c 0,2.20914 -1.79086,4 -4,4 -2.20914,0 -4,-1.79086 -4,-4 0,-2.20914 1.79086,-4 4,-4 2.20914,0 4,1.79086 4,4 z"
     id="circle34" />
  <path
     style=""
     d="m 619,276 c 0,1.65685 -1.34315,3 -3,3 -1.65685,0 -3,-1.34315 -3,-3 0,-1.65685 1.34315,-3 3,-3 1.65685,0 3,1.34315 3,3 z"
     id="circle36" />
  <path
     style=""
     d="m 648,405 c 0,2.20914 -1.79086,4 -4,4 -2.20914,0 -4,-1.79086 -4,-4 0,-2.20914 1.79086,-4 4,-4 2.20914,0 4,1.79086 4,4 z"
     id="circle38" />
  <path
     style=""
     d="m 633,187 c 0,2.20914 -1.79086,4 -4,4 -2.20914,0 -4,-1.79086 -4,-4 0,-2.20914 1.79086,-4 4,-4 2.20914,0 4,1.79086 4,4 z"
     id="circle40" />
  <path
     style=""
     d="m 644,397 c 0,2.20914 -1.79086,4 -4,4 -2.20914,0 -4,-1.79086 -4,-4 0,-2.20914 1.79086,-4 4,-4 2.20914,0 4,1.79086 4,4 z"
     id="circle42" />
  <path
     style=""
     d="m 622,305 c 0,1.65685 -1.34315,3 -3,3 -1.65685,0 -3,-1.34315 -3,-3 0,-1.65685 1.34315,-3 3,-3 1.65685,0 3,1.34315 3,3 z"
     id="circle44" />
  <path
     style=""
     d="m 602,264 c 0,1.65685 -1.34315,3 -3,3 -1.65685,0 -3,-1.34315 -3,-3 0,-1.65685 1.34315,-3 3,-3 1.65685,0 3,1.34315 3,3 z"
     id="circle46" />
  <path
     style=""
     d="m 620,324 c 0,2.20914 -1.79086,4 -4,4 -2.20914,0 -4,-1.79086 -4,-4 0,-2.20914 1.79086,-4 4,-4 2.20914,0 4,1.79086 4,4 z"
     id="circle48" />
  <path
     style=""
     d="m 619,410 c 0,1.65685 -1.34315,3 -3,3 -1.65685,0 -3,-1.34315 -3,-3 0,-1.65685 1.34315,-3 3,-3 1.65685,0 3,1.34315 3,3 z"
     id="circle50" />
  <path
     style=""
     d="m 651,118 c 0,2.20914 -1.79086,4 -4,4 -2.20914,0 -4,-1.79086 -4,-4 0,-2.20914 1.79086,-4 4,-4 2.20914,0 4,1.79086 4,4 z"
     id="circle52" />
  <path
     style=""
     d="m 634,135 c 0,1.65685 -1.34315,3 -3,3 -1.65685,0 -3,-1.34315 -3,-3 0,-1.65685 1.34315,-3 3,-3 1.65685,0 3,1.34315 3,3 z"
     id="circle54" />
  <path
     style=""
     d="m 625,78 c 0,2.209139 -1.79086,4 -4,4 -2.20914,0 -4,-1.790861 -4,-4 0,-2.209139 1.79086,-4 4,-4 2.20914,0 4,1.790861 4,4 z"
     id="circle56" />
  <path
     style=""
     d="m 621,333 c 0,1.65685 -1.34315,3 -3,3 -1.65685,0 -3,-1.34315 -3,-3 0,-1.65685 1.34315,-3 3,-3 1.65685,0 3,1.34315 3,3 z"
     id="circle58" />
  <path
     style=""
     d="m 586,214 c 0,1.65685 -1.34315,3 -3,3 -1.65685,0 -3,-1.34315 -3,-3 0,-1.65685 1.34315,-3 3,-3 1.65685,0 3,1.34315 3,3 z"
     id="circle60" />
  <path
     d="M 130 525 L 710 1012"
     id="id3" />
  <g
     style="font-size:255px;stroke:#000000;stroke-width:1;font-family:Bravura"
     id="text65">
    <path
       d="m 140.95296,617.43919 c 13.86543,11.64218 31.54103,17.16042 49.50414,15.59475 17.9631,-1.56567 34.05822,-10.02738 45.70039,-23.8928 11.64218,-13.86543 17.35571,-31.37706 15.79004,-49.34016 -1.56567,-17.96311 -10.22266,-34.2222 -24.08809,-45.86438 -13.67014,-11.4782 -31.18177,-17.19173 -49.14487,-15.62606 -17.96311,1.56567 -34.41749,10.05869 -46.05966,23.92412 -11.64218,13.86542 -16.99645,31.34574 -15.43078,49.30884 1.56567,17.96311 10.05869,34.41749 23.72883,45.89569 m 80.51148,-95.88636 c 11.91255,10.00243 19.07727,23.67665 20.42374,39.12492 1.34648,15.44827 -3.34448,30.15583 -13.34691,42.06838 -9.83846,11.71726 -23.67666,19.07727 -38.96095,20.22846 -15.44827,1.34648 -30.15583,-3.34448 -42.06838,-13.34691 -11.71726,-9.83846 -19.07727,-23.67666 -20.42375,-39.12493 -1.31516,-15.089 3.53977,-29.99185 13.37823,-41.70911 10.00244,-11.91255 23.67665,-19.07728 39.12492,-20.42375 15.25298,-1.51045 30.15583,3.34448 41.8731,13.18294"
       style=""
       id="path3079" />
  </g>
</svg>
