<?xml version="1.0" encoding="UTF-8" standalone="no"?>
<?xml-stylesheet href="style.css" type="text/css" title="style" alternate="no" media="all"?><svg
   xmlns:dc="http://purl.org/dc/elements/1.1/"
   xmlns:cc="http://creativecommons.org/ns#"
   xmlns:rdf="http://www.w3.org/1999/02/22-rdf-syntax-ns#"
   xmlns:svg="http://www.w3.org/2000/svg"
   xmlns="http://www.w3.org/2000/svg"
   xmlns:xlink="http://www.w3.org/1999/xlink"
   xmlns:sodipodi="http://sodipodi.sourceforge.net/DTD/sodipodi-0.dtd"
   xmlns:inkscape="http://www.inkscape.org/namespaces/inkscape"
   height="600px"
   version="1.1"
   width="800px"
   id="svg2"
   inkscape:version="0.48.5 r10040"
   sodipodi:docname="imramma.svg">
  <metadata
     id="metadata46">
    <rdf:RDF>
      <cc:Work
         rdf:about="">
        <dc:format>image/svg+xml</dc:format>
        <dc:type
           rdf:resource="http://purl.org/dc/dcmitype/StillImage" />
      </cc:Work>
    </rdf:RDF>
  </metadata>
  <sodipodi:namedview
     pagecolor="#ffffff"
     bordercolor="#666666"
     borderopacity="1"
     objecttolerance="10"
     gridtolerance="10"
     guidetolerance="10"
     inkscape:pageopacity="0"
     inkscape:pageshadow="2"
     inkscape:window-width="640"
     inkscape:window-height="480"
     id="namedview44"
     showgrid="false"
     inkscape:zoom="0.295"
     inkscape:cx="400"
     inkscape:cy="300"
     inkscape:window-x="0"
     inkscape:window-y="27"
     inkscape:window-maximized="0"
     inkscape:current-layer="svg2" />
  <defs
     id="defs4">
    <style
       type="text/css"
       id="style6">@font-face {
  font-family: Bravura;
  src: local(&quot;Bravura Regular&quot;),
    local(&quot;BravuraRegular&quot;), 
    local(&quot;Bravura&quot;),
     url(Bravura.otf) format(&quot;opentype&quot;),
    url(Bravura.svg) format(&quot;svg&quot;);
}
</style>
  </defs>
  <image
     sodipodi:absref="/tmp/./data/Bravura.svg"
     xlink:href="./data/Bravura.svg"
     id="image8" />
  <g
     style="font-size:44px;stroke:#000000;stroke-width:1;font-family:Bravura"
     id="text12">
    <path
       d="m 587.62891,88.705078 -10.95704,17.123052 10.95704,0 0,-17.123052 m -1.13868,-3.78125 5.45704,0 0,20.904302 4.57617,0 0,3.60937 -4.57617,0 0,7.5625 -4.31836,0 0,-7.5625 -14.48047,0 0,-4.18945 13.34179,-20.324222"
       style="font-size:44px;stroke:#000000;stroke-width:1;font-family:Bravura"
       id="path3032" />
    <path
       d="m 604.17187,111.54297 4.53321,0 0,5.45703 -4.53321,0 0,-5.45703 m 0,-17.294923 4.53321,0 0,5.457031 -4.53321,0 0,-5.457031"
       style="font-size:44px;stroke:#000000;stroke-width:1;font-family:Bravura"
       id="path3034" />
    <path
       d="m 647.87109,104.68945 c -2e-5,-2.86457 -0.59442,-5.084615 -1.7832,-6.660153 -1.1745,-1.5755 -2.82879,-2.36326 -4.96289,-2.363281 -2.1198,2.1e-5 -3.7741,0.787781 -4.96289,2.363281 -1.17449,1.575538 -1.76173,3.795583 -1.76172,6.660153 -10e-6,2.85027 0.58723,5.06316 1.76172,6.63868 1.18879,1.57552 2.84309,2.36328 4.96289,2.36328 2.1341,0 3.78839,-0.78776 4.96289,-2.36328 1.18878,-1.57552 1.78318,-3.78841 1.7832,-6.63868 m 3.95313,9.32422 c -3e-5,4.09635 -0.90953,7.13997 -2.72852,9.13086 -1.81903,2.0052 -4.60483,3.0078 -8.35742,3.00781 -1.38933,-10e-6 -2.69988,-0.10743 -3.93164,-0.32226 -1.23178,-0.20053 -2.42774,-0.51564 -3.58789,-0.94531 l 0,-3.84571 c 1.16015,0.63021 2.30598,1.0957 3.4375,1.39649 1.1315,0.30077 2.28449,0.45116 3.45898,0.45117 2.59244,-1e-5 4.53319,-0.68034 5.82227,-2.04102 1.28904,-1.34635 1.93357,-3.38737 1.93359,-6.12304 l 0,-1.95508 c -0.81642,1.41797 -1.86199,2.47786 -3.13672,3.17969 -1.27475,0.70182 -2.80014,1.05273 -4.57617,1.05273 -2.95053,0 -5.32813,-1.12435 -7.13281,-3.37305 -1.80469,-2.24869 -2.70703,-5.22785 -2.70703,-8.9375 0,-3.72394 0.90234,-6.710264 2.70703,-8.958981 1.80468,-2.248675 4.18228,-3.373022 7.13281,-3.373047 1.77603,2.5e-5 3.30142,0.350936 4.57617,1.052734 1.27473,0.701846 2.3203,1.761741 3.13672,3.179688 l 0,-3.652344 3.95313,0 0,21.07617"
       style="font-size:44px;stroke:#000000;stroke-width:1;font-family:Bravura"
       id="path3036" />
    <path
       d="m 659.9668,83.570312 3.95312,0 0,33.429688 -3.95312,0 0,-33.429688"
       style="font-size:44px;stroke:#000000;stroke-width:1;font-family:Bravura"
       id="path3038" />
    <path
       d="m 682.18164,119.23438 c -1.1172,2.86457 -2.20574,4.73371 -3.26562,5.60742 -1.05991,0.87369 -2.47788,1.31053 -4.25391,1.31054 l -3.1582,0 0,-3.30859 2.32031,0 c 1.08853,-1e-5 1.93358,-0.25782 2.53515,-0.77344 0.60156,-0.51563 1.26757,-1.73307 1.99805,-3.65234 l 0.70899,-1.80469 -9.73243,-23.67578 4.18946,0 7.51953,18.82031 7.51953,-18.82031 4.18945,0 -10.57031,26.29688"
       style="font-size:44px;stroke:#000000;stroke-width:1;font-family:Bravura"
       id="path3040" />
    <path
       d="m 702.0332,113.39063 0,12.76171 -3.97461,0 0,-33.21484 3.97461,0 0,3.652344 c 0.83072,-1.43227 1.8763,-2.492165 3.13672,-3.179688 1.27473,-0.701798 2.79296,-1.052709 4.55469,-1.052734 2.92186,2.5e-5 5.2923,1.16018 7.11133,3.480469 1.83331,2.320331 2.74997,5.371109 2.75,9.152339 -3e-5,3.78126 -0.91669,6.83204 -2.75,9.15235 -1.81903,2.32031 -4.18947,3.48047 -7.11133,3.48047 -1.76173,0 -3.27996,-0.34375 -4.55469,-1.03125 -1.26042,-0.70182 -2.306,-1.76888 -3.13672,-3.20117 m 13.44922,-8.4004 c -2e-5,-2.90753 -0.60158,-5.184874 -1.80469,-6.832027 -1.18882,-1.661438 -2.82879,-2.492166 -4.91992,-2.492187 -2.09116,2.1e-5 -3.73829,0.830749 -4.9414,2.492187 -1.18881,1.647153 -1.78321,3.924497 -1.78321,6.832027 0,2.90757 0.5944,5.19207 1.78321,6.85352 1.20311,1.64714 2.85024,2.47071 4.9414,2.4707 2.09113,1e-5 3.7311,-0.82356 4.91992,-2.4707 1.20311,-1.66145 1.80467,-3.94595 1.80469,-6.85352"
       style="font-size:44px;stroke:#000000;stroke-width:1;font-family:Bravura"
       id="path3042" />
    <path
       d="m 746.14062,102.47656 0,14.52344 -3.95312,0 0,-14.39453 c -2e-5,-2.27733 -0.44403,-3.981754 -1.33203,-5.113283 -0.88804,-1.131489 -2.22007,-1.697244 -3.9961,-1.697265 -2.13412,2.1e-5 -3.81706,0.680359 -5.04882,2.041015 -1.23178,1.360695 -1.84767,3.215513 -1.84766,5.564453 l 0,13.59961 -3.97461,0 0,-33.429688 3.97461,0 0,13.105469 c 0.9453,-1.446593 2.05533,-2.527972 3.33008,-3.24414 1.28905,-0.716122 2.77147,-1.074194 4.44726,-1.074219 2.76431,2.5e-5 4.85545,0.859399 6.27344,2.578125 1.41795,1.704447 2.12693,4.218117 2.12695,7.541013"
       style="font-size:44px;stroke:#000000;stroke-width:1;font-family:Bravura"
       id="path3044" />
    <path
       d="m 755.07812,111.54297 4.53321,0 0,3.69531 -3.52344,6.875 -2.77148,0 1.76171,-6.875 0,-3.69531"
       style="font-size:44px;stroke:#000000;stroke-width:1;font-family:Bravura"
       id="path3046" />
  </g>
  <g
     style="font-size:48px;stroke:#000000;stroke-width:1;font-family:Bravura"
     id="text16">
    <path
       d="m 126.17969,71.007812 18.58593,0 0,3.984375 -14.25,0 0,8.578125 c 0.68749,-0.234352 1.37499,-0.406227 2.0625,-0.515625 0.68749,-0.124976 1.37499,-0.187476 2.0625,-0.1875 3.90624,2.4e-5 6.99998,1.070335 9.28125,3.210938 2.28123,2.140643 3.42185,5.039077 3.42188,8.695312 -3e-5,3.765633 -1.1719,6.695313 -3.51563,8.789063 -2.34377,2.07813 -5.64845,3.11719 -9.91406,3.11719 -1.46876,0 -2.96876,-0.125 -4.5,-0.375 -1.51563,-0.25 -3.08594,-0.625 -4.71093,-1.125 l 0,-4.75781 c 1.40624,0.76562 2.85936,1.33594 4.35937,1.71093 1.49999,0.37501 3.08593,0.56251 4.75781,0.5625 2.70311,10e-6 4.84373,-0.71093 6.42188,-2.13281 1.5781,-1.421868 2.36716,-3.351554 2.36718,-5.789063 -2e-5,-2.437486 -0.78908,-4.367171 -2.36718,-5.789062 -1.57815,-1.421857 -3.71877,-2.132793 -6.42188,-2.132813 -1.26563,2e-5 -2.53126,0.140645 -3.79687,0.421875 -1.25001,0.281269 -2.53126,0.718769 -3.84375,1.3125 l 0,-17.578125"
       style="font-size:48px;stroke:#000000;stroke-width:1;font-family:Bravura"
       id="path3049" />
    <path
       d="m 157.1875,100.04688 4.94531,0 0,5.95312 -4.94531,0 0,-5.95312 m 0,-18.867193 4.94531,0 0,5.953125 -4.94531,0 0,-5.953125"
       style="font-size:48px;stroke:#000000;stroke-width:1;font-family:Bravura"
       id="path3051" />
    <path
       d="m 204.85937,92.570312 c -2e-5,-3.124983 -0.64845,-5.546856 -1.94531,-7.265625 -1.28127,-1.718727 -3.08595,-2.578101 -5.41406,-2.578125 -2.31251,2.4e-5 -4.1172,0.859398 -5.41406,2.578125 -1.28126,1.718769 -1.92188,4.140642 -1.92188,7.265625 0,3.109386 0.64062,5.523446 1.92188,7.242188 1.29686,1.71875 3.10155,2.57813 5.41406,2.57813 2.32811,0 4.13279,-0.85938 5.41406,-2.57813 1.29686,-1.718742 1.94529,-4.132802 1.94531,-7.242188 m 4.3125,10.171878 c -2e-5,4.46875 -0.99221,7.78906 -2.97656,9.96094 -1.98439,2.18749 -5.02345,3.28124 -9.11719,3.28125 -1.51563,-1e-5 -2.94532,-0.1172 -4.28906,-0.35157 -1.34376,-0.21876 -2.64844,-0.56251 -3.91406,-1.03125 l 0,-4.19531 c 1.26562,0.68749 2.51562,1.19531 3.75,1.52344 1.23436,0.32812 2.49218,0.49218 3.77344,0.49219 2.82811,-1e-5 4.94529,-0.7422 6.35156,-2.22657 1.40623,-1.46875 2.10935,-3.69531 2.10937,-6.67968 l 0,-2.13282 c -0.89064,1.54688 -2.03126,2.70313 -3.42187,3.46875 -1.39064,0.76563 -3.0547,1.14844 -4.99219,1.14844 -3.21876,0 -5.81251,-1.22656 -7.78125,-3.67969 -1.96875,-2.453116 -2.95313,-5.703113 -2.95312,-9.749998 -1e-5,-4.062482 0.98437,-7.320291 2.95312,-9.773437 1.96874,-2.453099 4.56249,-3.679661 7.78125,-3.679688 1.93749,2.7e-5 3.60155,0.38284 4.99219,1.148438 1.39061,0.76565 2.53123,1.921899 3.42187,3.46875 l 0,-3.984375 4.3125,0 0,22.99219"
       style="font-size:48px;stroke:#000000;stroke-width:1;font-family:Bravura"
       id="path3053" />
    <path
       d="m 218.05469,69.53125 4.3125,0 0,36.46875 -4.3125,0 0,-36.46875"
       style="font-size:48px;stroke:#000000;stroke-width:1;font-family:Bravura"
       id="path3055" />
    <path
       d="m 242.28906,108.4375 c -1.21876,3.12499 -2.40626,5.16405 -3.5625,6.11719 -1.15626,0.95311 -2.70313,1.42968 -4.64062,1.42969 l -3.44532,0 0,-3.60938 2.53125,0 c 1.1875,-1e-5 2.10937,-0.28126 2.76563,-0.84375 0.65624,-0.5625 1.3828,-1.89063 2.17969,-3.98437 l 0.77343,-1.96875 -10.61718,-25.82813 4.57031,0 8.20312,20.53125 L 249.25,79.75 l 4.57031,0 -11.53125,28.6875"
       style="font-size:48px;stroke:#000000;stroke-width:1;font-family:Bravura"
       id="path3057" />
    <path
       d="m 263.94531,102.0625 0,13.92188 -4.33594,0 0,-36.23438 4.33594,0 0,3.984375 c 0.90624,-1.562476 2.04687,-2.718725 3.42188,-3.46875 1.39061,-0.765598 3.04686,-1.148411 4.96875,-1.148438 3.18748,2.7e-5 5.77341,1.265651 7.75781,3.796875 1.99997,2.531271 2.99997,5.859393 3,9.984375 -3e-5,4.125009 -1.00003,7.453133 -3,9.984373 -1.9844,2.53125 -4.57033,3.79688 -7.75781,3.79688 -1.92189,0 -3.57814,-0.375 -4.96875,-1.125 -1.37501,-0.76563 -2.51564,-1.92969 -3.42188,-3.49219 m 14.67188,-9.164063 c -3e-5,-3.171858 -0.65628,-5.656231 -1.96875,-7.453125 -1.2969,-1.812477 -3.08596,-2.718726 -5.36719,-2.71875 -2.28126,2.4e-5 -4.07814,0.906273 -5.39063,2.71875 -1.29688,1.796894 -1.94532,4.281267 -1.94531,7.453125 -1e-5,3.171885 0.64843,5.66407 1.94531,7.476563 1.31249,1.79688 3.10937,2.69532 5.39063,2.69531 2.28123,10e-6 4.07029,-0.89843 5.36719,-2.69531 1.31247,-1.812493 1.96872,-4.304678 1.96875,-7.476563"
       style="font-size:48px;stroke:#000000;stroke-width:1;font-family:Bravura"
       id="path3059" />
    <path
       d="m 312.0625,90.15625 0,15.84375 -4.3125,0 0,-15.703125 c -2e-5,-2.484357 -0.4844,-4.34373 -1.45313,-5.578125 -0.96876,-1.234352 -2.42189,-1.851539 -4.35937,-1.851563 -2.32814,2.4e-5 -4.16407,0.74221 -5.50781,2.226563 -1.34376,1.484394 -2.01564,3.50783 -2.01563,6.070312 l 0,14.835938 -4.33594,0 0,-36.46875 4.33594,0 0,14.296875 c 1.03124,-1.578101 2.24218,-2.757788 3.63281,-3.539063 1.40624,-0.781223 3.02343,-1.171848 4.85157,-1.171875 3.0156,2.7e-5 5.29685,0.937526 6.84375,2.8125 1.54685,1.859398 2.32028,4.601582 2.32031,8.226563"
       style="font-size:48px;stroke:#000000;stroke-width:1;font-family:Bravura"
       id="path3061" />
    <path
       d="m 321.8125,100.04688 4.94531,0 0,4.03125 -3.84375,7.5 -3.02344,0 1.92188,-7.5 0,-4.03125"
       style="font-size:48px;stroke:#000000;stroke-width:1;font-family:Bravura"
       id="path3063" />
  </g>
  <path
     d="M 447 115 L 865 639"
     id="id1" />
  <g
     style="font-size:42px;stroke:#000000;stroke-width:1;font-family:Bravura"
     id="text21">
    <path
       d="m 468.90348,115.26122 c -1.15953,-1.45355 -2.5773,-2.21139 -4.25332,-2.27352 -1.66753,-0.0514 -3.367,0.61343 -5.09842,1.99462 -1.72076,1.37265 -2.74669,2.88186 -3.0778,4.52763 -0.31192,1.64793 0.11189,3.19867 1.27141,4.65223 1.1595,1.45354 2.57301,2.20603 4.24053,2.25748 1.68671,0.0536 3.39045,-0.60593 5.11121,-1.97858 1.73141,-1.38119 2.75308,-2.89575 3.06501,-4.54367 0.32041,-1.63725 -0.0991,-3.18264 -1.25862,-4.63619 m 15.27642,-1.66651 -2.94986,2.35312 c -0.26323,-1.1192 -0.6258,-2.17663 -1.08771,-3.17227 -0.45345,-0.98496 -1.00414,-1.88357 -1.65207,-2.69586 -1.7052,-2.13756 -3.73108,-3.19731 -6.07765,-3.17925 -2.33809,0.0288 -5.02997,1.12676 -8.07562,3.29399 1.43285,-0.11116 2.7745,0.11277 4.02496,0.6718 1.26111,0.55051 2.3478,1.39757 3.26009,2.54116 1.91828,2.40477 2.69949,4.88589 2.34364,7.44335 -0.3367,2.55962 -1.76085,4.84121 -4.27248,6.84479 -2.45823,1.96092 -5.00989,2.80716 -7.655,2.53871 -2.64514,-0.26847 -4.93112,-1.61043 -6.85794,-4.02588 -2.20819,-2.76816 -2.83821,-5.72842 -1.89004,-8.88076 0.95884,-3.16088 3.45293,-6.34843 7.48226,-9.56267 3.78349,-3.01813 7.51364,-4.52462 11.19045,-4.5195 3.68745,-0.003 6.73759,1.50727 9.15043,4.53193 0.64792,0.81228 1.21999,1.69384 1.71619,2.64469 0.50466,0.96155 0.95478,2.01909 1.35035,3.17265"
       style=""
       id="path3066" />
    <path
       d="m 470.81789,136.50477 2.69842,3.38271 -4.07208,3.24834 -2.69842,-3.38272 4.07208,-3.24833 m 12.9056,-10.29493 2.69842,3.38271 -4.07208,3.24834 -2.69842,-3.38271 4.07208,-3.24834"
       style=""
       id="path3068" />
    <path
       d="m 507.9883,160.21251 9.71527,-7.74997 2.35313,2.94985 -24.94549,19.89926 -2.35313,-2.94985 2.69335,-2.1485 c -1.5633,0.23267 -2.9862,0.0823 -4.26869,-0.45116 -1.2633,-0.5313 -2.42354,-1.4596 -3.48073,-2.78488 -1.73075,-2.16965 -2.27606,-4.62908 -1.63592,-7.3783 0.64865,-2.73855 2.38377,-5.23322 5.20538,-7.48404 2.82158,-2.25081 5.63949,-3.38813 8.45372,-3.41196 2.82271,-0.0131 5.09945,1.06512 6.83022,3.23475 1.05717,1.3253 1.69906,2.6671 1.92565,4.02539 0.24575,1.36046 0.0815,2.77693 -0.49276,4.24941 m -14.28697,-5.05155 c -2.16965,1.73074 -3.52054,3.53416 -4.05268,5.41025 -0.51295,1.87824 -0.14703,3.59758 1.09775,5.15802 1.24475,1.56041 2.83978,2.29928 4.78506,2.21661 1.95595,-0.0912 4.01874,-1.00221 6.1884,-2.73294 2.16962,-1.73074 3.5109,-3.53524 4.02386,-5.41349 0.5236,-1.88677 0.16303,-3.61037 -1.08172,-5.1708 -1.24479,-1.56043 -2.84515,-2.29503 -4.80109,-2.20383 -1.93677,0.0934 -3.98996,1.00544 -6.15958,2.73618"
       style=""
       id="path3070" />
    <path
       d="m 523.45616,179.66863 c -0.0719,-0.48479 -0.22288,-0.95902 -0.45281,-1.42267 -0.21076,-0.4615 -0.5037,-0.92738 -0.87881,-1.39765 -1.33005,-1.6673 -2.89823,-2.51503 -4.70454,-2.54318 -1.78713,-0.026 -3.69604,0.77098 -5.72672,2.39088 l -9.45876,7.54535 -2.36592,-2.96588 17.95562,-14.32338 2.36592,2.96589 -2.78954,2.22523 c 1.58464,-0.24973 3.03528,-0.0865 4.35191,0.48971 1.32726,0.56768 2.55788,1.56227 3.69184,2.98375 0.16196,0.20307 0.32497,0.44031 0.48903,0.7117 0.17469,0.26288 0.35469,0.56526 0.54,0.90715 l -3.01722,2.4331"
       style=""
       id="path3072" />
    <path
       d="m 526.28719,195.87867 c -1.90127,-2.38339 -3.49105,-3.81726 -4.76934,-4.3016 -1.27831,-0.48434 -2.57476,-0.20217 -3.88936,0.84651 -1.04742,0.83552 -1.60825,1.84255 -1.68248,3.02107 -0.055,1.18068 0.39063,2.3642 1.337,3.55056 1.30444,1.63523 2.926,2.4841 4.86467,2.54661 1.95787,0.0646 3.89871,-0.67035 5.82255,-2.20499 l 0.6573,-0.52434 -2.34034,-2.93382 m 5.91189,4.91173 -10.24433,8.172 -2.35312,-2.94985 2.7254,-2.17409 c -1.6273,0.19629 -3.10351,9.9e-4 -4.42863,-0.58589 -1.31445,-0.59543 -2.55143,-1.61992 -3.71093,-3.07346 -1.46645,-1.83832 -2.12147,-3.71179 -1.96506,-5.62043 0.17561,-1.90648 1.12913,-3.55031 2.86057,-4.93149 2.02,-1.61138 4.08015,-2.15297 6.18045,-1.62478 2.1088,0.53888 4.23319,2.14965 6.37319,4.8323 l 3.29949,4.13621 0.28857,-0.2302 c 1.35734,-1.08278 2.04667,-2.3672 2.06798,-3.85326 0.0405,-1.4839 -0.58296,-3.03279 -1.87033,-4.64666 -0.8185,-1.02603 -1.73858,-1.9273 -2.76023,-2.7038 -1.02169,-0.7765 -2.13643,-1.41755 -3.34422,-1.92315 l 2.72541,-2.17408 c 1.27791,0.74698 2.42339,1.54714 3.43643,2.40049 1.02369,0.84483 1.91921,1.7482 2.68656,2.71011 2.07174,2.59715 2.94584,5.07412 2.6223,7.43092 -0.3236,2.35679 -1.85344,4.6265 -4.5895,6.80911"
       style=""
       id="path3074" />
    <path
       d="m 543.4017,199.01572 2.35313,2.94985 -11.07039,14.86466 16.94042,-7.50606 2.77515,3.4789 -11.07039,14.86466 16.94042,-7.50606 2.35313,2.94985 -21.70272,9.62606 -2.77516,-3.47891 11.63511,-15.60371 -17.81206,7.86035 -2.77516,-3.4789 14.20852,-19.02069"
       style=""
       id="path3076" />
    <path
       d="m 553.68077,259.91504 -2.29255,1.82879 -13.6072,-17.05784 2.29254,-1.82879 13.60721,17.05784"
       style=""
       id="path3078" />
    <path
       d="m 586.28951,238.44111 2.35312,2.94985 -24.94549,19.89926 -2.35312,-2.94985 24.94549,-19.89926"
       style=""
       id="path3080" />
    <path
       d="m 586.56368,253.12306 2.35312,2.94985 -17.95562,14.32338 -2.35312,-2.94986 17.95562,-14.32337 m 6.98986,-5.57589 2.35313,2.94985 -3.73541,2.97978 -2.35313,-2.94986 3.73541,-2.97977"
       style=""
       id="path3082" />
    <path
       d="m 598.61584,282.83291 -10.8375,8.64518 -2.35313,-2.94985 10.74131,-8.56845 c 1.69935,-1.35561 2.70691,-2.70151 3.02267,-4.03769 0.31572,-1.33619 -0.055,-2.66693 -1.11219,-3.99222 -1.27037,-1.59249 -2.77983,-2.44334 -4.52837,-2.55255 -1.74859,-0.1092 -3.49928,0.53532 -5.25207,1.93355 l -10.14813,8.09526 -2.36592,-2.96588 17.95562,-14.32338 2.36592,2.96589 -2.78954,2.22523 c 1.64216,-0.1557 3.10985,0.0289 4.40306,0.55384 1.30169,0.53562 2.45131,1.42867 3.44886,2.67914 1.64545,2.06276 2.24895,4.13474 1.81049,6.21594 -0.42783,2.07266 -1.88152,4.09799 -4.36108,6.07599"
       style=""
       id="path3084" />
    <path
       d="m 614.46428,305.00235 -1.44287,1.15099 -10.81926,-13.56291 c -1.9284,1.74816 -2.99217,3.59361 -3.19131,5.53636 -0.17995,1.9449 0.51019,3.89529 2.07043,5.85118 0.90372,1.1329 1.91656,2.11757 3.03852,2.95401 1.13045,0.8471 2.39133,1.57269 3.78264,2.17678 l -2.78953,2.22523 c -1.29296,-0.70003 -2.50034,-1.51202 -3.62215,-2.43597 -1.12183,-0.92399 -2.13887,-1.95777 -3.05112,-3.10136 -2.28492,-2.86436 -3.26301,-5.80054 -2.93425,-8.80856 0.33728,-2.99734 1.9274,-5.62993 4.77038,-7.89781 2.93915,-2.34459 5.90002,-3.41231 8.8826,-3.20318 3.00176,0.21132 5.5769,1.66365 7.72543,4.35698 1.92681,2.41546 2.66845,4.94563 2.22494,7.59051 -0.42436,2.64704 -1.97251,5.03629 -4.64445,7.16775 m -1.48741,-3.64044 c 1.59679,-1.30878 2.52233,-2.79038 2.77662,-4.44479 0.26277,-1.64373 -0.18559,-3.19237 -1.34508,-4.64592 -1.313,-1.64593 -2.83086,-2.59501 -4.55358,-2.84724 -1.71424,-0.24153 -3.47537,0.23643 -5.2834,1.43387 l 8.40544,10.50408"
       style=""
       id="path3086" />
    <path
       d="m 613.28432,315.09908 2.69842,3.38271 -2.75747,2.19966 -7.22753,1.46318 -1.64975,-2.0681 6.17886,-2.77779 2.75747,-2.19966"
       style=""
       id="path3088" />
  </g>
  <path
     d="M 427 258 L 172 441"
     id="id2" />
  <g
     style="font-size:44px;stroke:#000000;stroke-width:1;font-family:Bravura"
     id="text28">
    <path
       d="m 442.76945,286.16439 -16.75657,12.0253 -1.07726,-1.50111 -8.16411,-31.34813 3.68295,-2.64307 7.67045,29.4811 12.51506,-8.9814 2.12948,2.96731"
       style=""
       id="path3091" />
    <path
       d="m 403.23154,281.77422 -3.68296,2.64306 -3.18169,-4.43351 3.68295,-2.64306 3.1817,4.43351 m 10.08371,14.05108 -3.68295,2.64306 -3.1817,-4.43351 3.68296,-2.64306 3.18169,4.43351"
       style=""
       id="path3093" />
    <path
       d="m 376.4469,319.40134 7.59097,10.57758 -3.21167,2.30485 -19.49102,-27.15961 3.21168,-2.30485 2.10443,2.9324 c -0.16016,-1.64801 0.073,-3.12872 0.69942,-4.44213 0.62318,-1.29344 1.65623,-2.45791 3.09914,-3.49342 2.36222,-1.69524 4.96448,-2.13475 7.8068,-1.31855 2.83068,0.82454 5.34834,2.77283 7.55298,5.84488 2.20463,3.07202 3.24446,6.08088 3.11948,9.02658 -0.13664,2.954 -1.38606,5.27863 -3.74826,6.97389 -1.44293,1.03549 -2.881,1.63559 -4.3142,1.80031 -1.43649,0.18465 -2.90974,-0.0627 -4.41975,-0.74193 m 6.04633,-14.67884 c -1.69524,-2.36222 -3.51012,-3.87168 -5.44466,-4.52838 -1.93781,-0.63673 -3.75619,-0.34548 -5.45512,0.87376 -1.69892,1.21922 -2.55694,2.84867 -2.57407,4.88836 -0.009,2.0513 0.83449,4.25806 2.52971,6.62029 1.69524,2.36218 3.51177,3.86165 5.44958,4.4984 1.94618,0.64833 3.76873,0.36289 5.46766,-0.85631 1.69892,-1.21926 2.55277,-2.85453 2.56153,-4.90582 0.005,-2.03134 -0.8394,-4.22811 -2.53463,-6.5903"
       style=""
       id="path3095" />
    <path
       d="m 355.26667,334.54838 c 0.51105,-0.0495 1.01525,-0.1821 1.51261,-0.39797 0.49407,-0.19593 0.99711,-0.4776 1.50912,-0.84502 1.81529,-1.30276 2.78578,-2.89833 2.91145,-4.78671 0.12239,-1.86843 -0.60975,-3.9081 -2.19642,-6.11902 l -7.39055,-10.29831 3.22913,-2.31738 14.02952,19.54934 -3.22913,2.31737 -2.17959,-3.03713 c 0.17687,1.67126 -0.0712,3.18031 -0.74419,4.52715 -0.66465,1.35844 -1.7708,2.593 -3.31846,3.7037 -0.22109,0.15864 -0.47798,0.31655 -0.77067,0.47374 -0.28435,0.16877 -0.61031,0.34099 -0.97788,0.51666 l -2.38494,-3.28642"
       style=""
       id="path3097" />
    <path
       d="m 338.15588,336.64684 c 2.59494,-1.86227 4.17983,-3.44921 4.75468,-4.76084 0.57484,-1.31165 0.34868,-2.68311 -0.67848,-4.11439 -0.81839,-1.14039 -1.84213,-1.78081 -3.07122,-1.92126 -1.23237,-0.12048 -2.49438,0.28276 -3.78604,1.20972 -1.78037,1.27768 -2.7549,2.92903 -2.92357,4.95407 -0.17193,2.045 0.49367,4.11479 1.99683,6.20938 l 0.51358,0.71564 3.19422,-2.29232 m -5.4539,5.92374 -8.00434,-11.1536 3.21168,-2.30485 2.12948,2.96731 c -0.11868,-1.71304 0.16429,-3.24714 0.84892,-4.6023 0.693,-1.34355 1.83077,-2.58318 3.41333,-3.7189 2.00148,-1.43636 3.99652,-2.02188 5.98513,-1.75656 1.98533,0.2853 3.65441,1.3705 5.00726,3.25562 1.57832,2.19929 2.03522,4.3836 1.37071,6.55293 -0.67615,2.17765 -2.47461,4.31452 -5.39537,6.41062 l -4.50333,3.2318 0.22548,0.31419 c 1.06057,1.47781 2.36769,2.26745 3.92136,2.36892 1.5504,0.1214 3.20415,-0.44838 4.96126,-1.70934 1.1171,-0.80171 2.10908,-1.71634 2.97594,-2.74389 0.86684,-1.02759 1.59693,-2.15975 2.19026,-3.39649 l 2.12948,2.96731 c -0.84961,1.29724 -1.74781,2.45309 -2.6946,3.46754 -0.93846,1.02604 -1.93133,1.91487 -2.97861,2.66647 -2.82767,2.02924 -5.4658,2.81183 -7.9144,2.34777 -2.44858,-0.46412 -4.7418,-2.18564 -6.87964,-5.16455"
       style=""
       id="path3099" />
    <path
       d="m 333.96201,354.38603 -3.21168,2.30485 -14.96263,-12.3744 6.95089,18.124 -3.78768,2.71822 -14.96263,-12.3744 6.9509,18.124 -3.21168,2.30485 -8.91528,-23.21956 3.78769,-2.71822 15.70579,13.00462 -7.27514,-19.05485 3.78768,-2.71822 19.14377,15.87911"
       style=""
       id="path3101" />
    <path
       d="m 269.69768,361.8965 -1.79127,-2.49603 18.57187,-13.32805 1.79127,2.49603 -18.57187,13.32805"
       style=""
       id="path3103" />
    <path
       d="m 290.428,397.15779 -3.21168,2.30485 -19.49101,-27.15961 3.21168,-2.30485 19.49101,27.15961"
       style=""
       id="path3105" />
    <path
       d="m 275.0522,396.66248 -3.21167,2.30485 -14.02953,-19.54934 3.21168,-2.30485 14.02952,19.54934 m 5.46149,7.61027 -3.21167,2.30485 -2.91864,-4.06696 3.21167,-2.30485 2.91864,4.06696"
       style=""
       id="path3107" />
    <path
       d="m 243.32579,407.68956 -8.46782,-11.79942 3.21168,-2.30485 8.39266,11.69469 c 1.3278,1.85018 2.68229,2.97605 4.06347,3.3776 1.38119,0.4015 2.79324,0.0845 4.23617,-0.95097 1.73384,-1.24431 2.70446,-2.77828 2.91186,-4.6019 0.2074,-1.82367 -0.37367,-3.68968 -1.74321,-5.59805 l -7.92919,-11.04886 3.22913,-2.31738 14.02952,19.54933 -3.22913,2.31738 -2.17958,-3.03713 c 0.0754,1.72642 -0.19591,3.25217 -0.81401,4.57725 -0.62975,1.33338 -1.62535,2.48861 -2.98682,3.4657 -2.24584,1.61169 -4.44583,2.13273 -6.59995,1.56312 -2.14577,-0.55803 -4.18736,-2.18687 -6.12478,-4.88651"
       style=""
       id="path3109" />
    <path
       d="m 219.28649,423.09021 -1.12737,-1.57093 14.76673,-10.5973 c -1.72631,-2.11073 -3.60047,-3.32202 -5.62249,-3.63387 -2.02529,-0.29188 -4.10268,0.32629 -6.23217,1.85452 -1.23346,0.88518 -2.31764,1.89242 -3.25254,3.02172 -0.94651,1.13763 -1.77284,2.41819 -2.47899,3.84169 l -2.17958,-3.03713 c 0.80129,-1.31548 1.71517,-2.53547 2.74163,-3.65995 1.02649,-1.12451 2.16228,-2.13353 3.40737,-3.02707 3.11859,-2.23805 6.24272,-3.10497 9.37239,-2.60076 3.11803,0.51255 5.78772,2.31648 8.00906,5.4118 2.29649,3.20003 3.25589,6.35475 2.87819,9.46418 -0.381,3.12937 -2.03769,5.74628 -4.97009,7.85074 -2.62985,1.88727 -5.31658,2.52844 -8.0602,1.92351 -2.74689,-0.585 -5.1642,-2.33205 -7.25194,-5.24115 m 3.8881,-1.36229 c 1.28427,1.74038 2.7851,2.78767 4.50251,3.14186 1.70578,0.36248 3.34995,-0.0241 4.93251,-1.15982 1.79202,-1.28607 2.86586,-2.82359 3.22153,-4.61258 0.34403,-1.78067 -0.0622,-3.64874 -1.21875,-5.60421 l -11.4378,8.23475"
       style=""
       id="path3111" />
    <path
       d="m 208.78549,421.31783 -3.68295,2.64306 -2.15454,-3.00222 -1.14585,-7.63985 2.25166,-1.6159 2.57715,6.61269 2.15453,3.00222"
       style=""
       id="path3113" />
  </g>
  <g
     style="font-size:43px;stroke:#000000;stroke-width:1;font-family:Bravura"
     id="text34">
    <path
       d="m 157.66846,175.11377 c -2.01564,1e-5 -3.60434,0.53891 -4.76612,1.6167 -1.14779,1.07781 -1.72168,2.56153 -1.72168,4.45117 0,1.88966 0.57389,3.37338 1.72168,4.45117 1.16178,1.07781 2.75048,1.6167 4.76612,1.6167 2.01561,0 3.60431,-0.53889 4.76611,-1.6167 1.16176,-1.09179 1.74266,-2.57551 1.74268,-4.45117 -2e-5,-1.88964 -0.58092,-3.37336 -1.74268,-4.45117 -1.1478,-1.07779 -2.73651,-1.61669 -4.76611,-1.6167 m -4.24121,-1.80566 c -1.81967,-0.4479 -3.24041,-1.29475 -4.26221,-2.54053 -1.00782,-1.24575 -1.51172,-2.76447 -1.51172,-4.55615 0,-2.50551 0.88883,-4.48614 2.6665,-5.9419 1.79166,-1.4557 4.2412,-2.18356 7.34864,-2.18359 3.1214,3e-5 5.57094,0.72789 7.34863,2.18359 1.77765,1.45576 2.66648,3.43639 2.6665,5.9419 -2e-5,1.79168 -0.51092,3.3104 -1.53271,4.55615 -1.00783,1.24578 -2.41457,2.09263 -4.22022,2.54053 2.0436,0.47592 3.63231,1.40675 4.76612,2.79248 1.14776,1.38575 1.72165,3.07943 1.72168,5.08105 -3e-5,3.03744 -0.93085,5.36801 -2.79248,6.9917 -1.84768,1.6237 -4.50018,2.43555 -7.95752,2.43555 -3.45737,0 -6.11687,-0.81185 -7.97852,-2.43555 -1.84766,-1.62369 -2.77149,-3.95426 -2.77148,-6.9917 -1e-5,-2.00162 0.57389,-3.6953 1.72168,-5.08105 1.14778,-1.38573 2.74348,-2.31656 4.78711,-2.79248 m -1.55371,-6.69776 c -1e-5,1.62372 0.50389,2.89048 1.51171,3.80029 1.0218,0.90985 2.44954,1.36477 4.28321,1.36475 1.81964,2e-5 3.24038,-0.4549 4.2622,-1.36475 1.03579,-0.90981 1.5537,-2.17657 1.55371,-3.80029 -1e-5,-1.62367 -0.51792,-2.89043 -1.55371,-3.80029 -1.02182,-0.9098 -2.44256,-1.36472 -4.2622,-1.36475 -1.83367,3e-5 -3.26141,0.45495 -4.28321,1.36475 -1.00782,0.90986 -1.51172,2.17662 -1.51171,3.80029"
       style="font-size:43px;stroke:#000000;stroke-width:1;font-family:Bravura"
       id="path3116" />
    <path
       d="m 176.41797,184.66699 4.43017,0 0,5.33301 -4.43017,0 0,-5.33301 m 0,-16.90185 4.43017,0 0,5.333 -4.43017,0 0,-5.333"
       style="font-size:43px;stroke:#000000;stroke-width:1;font-family:Bravura"
       id="path3118" />
    <path
       d="m 218.64111,167.17725 0,3.65332 c -1.09181,-0.55988 -2.2256,-0.9798 -3.40136,-1.25977 -1.1758,-0.27993 -2.39357,-0.4199 -3.65332,-0.41992 -1.91766,2e-5 -3.35939,0.29396 -4.3252,0.88183 -0.95183,0.58791 -1.42774,1.46975 -1.42773,2.64551 -10e-6,0.89585 0.34293,1.60272 1.0288,2.12061 0.68587,0.50392 2.06461,0.98683 4.13624,1.44873 l 1.32275,0.29394 c 2.74347,0.58791 4.68911,1.42075 5.83691,2.49854 1.16177,1.06381 1.74266,2.55453 1.74268,4.47217 -2e-5,2.1836 -0.86786,3.91227 -2.60352,5.18603 -1.72169,1.27377 -4.09425,1.91065 -7.11767,1.91065 -1.25978,0 -2.57553,-0.12598 -3.94727,-0.37793 -1.35775,-0.23796 -2.79248,-0.60189 -4.3042,-1.0918 l 0,-3.98926 c 1.42773,0.74187 2.83447,1.30176 4.22022,1.67969 1.38573,0.36393 2.75748,0.5459 4.11523,0.5459 1.81965,0 3.21939,-0.30794 4.19922,-0.92383 0.9798,-0.62988 1.46971,-1.51171 1.46973,-2.64551 -2e-5,-1.0498 -0.35695,-1.85464 -1.0708,-2.41455 -0.69989,-0.55989 -2.2466,-1.09878 -4.64014,-1.6167 l -1.34375,-0.31494 c -2.39356,-0.50389 -4.12224,-1.27375 -5.18604,-2.30957 -1.0638,-1.04979 -1.5957,-2.48452 -1.5957,-4.3042 0,-2.21157 0.78385,-3.91925 2.35156,-5.12305 1.56771,-1.20375 3.79329,-1.80564 6.67676,-1.80566 1.42772,2e-5 2.77147,0.105 4.03125,0.31494 1.25975,0.20999 2.42153,0.52493 3.48535,0.94483"
       style="font-size:43px;stroke:#000000;stroke-width:1;font-family:Bravura"
       id="path3120" />
    <path
       d="m 228.3833,178.26318 c -1e-5,2.84148 0.58089,5.07407 1.74268,6.69776 1.17577,1.6097 2.78547,2.41455 4.8291,2.41455 2.0436,0 3.6533,-0.80485 4.8291,-2.41455 1.17576,-1.62369 1.76365,-3.85628 1.76367,-6.69776 -2e-5,-2.84145 -0.58791,-5.06704 -1.76367,-6.67675 -1.1758,-1.62368 -2.7855,-2.43553 -4.8291,-2.43555 -2.04363,2e-5 -3.65333,0.81187 -4.8291,2.43555 -1.16179,1.60971 -1.74269,3.8353 -1.74268,6.67675 m 13.16455,8.20948 c -0.81187,1.39974 -1.84067,2.44254 -3.08642,3.12841 -1.23179,0.67188 -2.71551,1.00782 -4.45118,1.00782 -2.84148,0 -5.15804,-1.13379 -6.9497,-3.40137 -1.77768,-2.26757 -2.66651,-5.24902 -2.66651,-8.94434 0,-3.69529 0.88883,-6.67674 2.66651,-8.94433 1.79166,-2.26756 4.10822,-3.40135 6.9497,-3.40137 1.73567,2e-5 3.21939,0.34296 4.45118,1.02881 1.24575,0.6719 2.27455,1.7077 3.08642,3.10742 l 0,-3.56934 3.86328,0 0,32.45997 -3.86328,0 0,-12.47168"
       style="font-size:43px;stroke:#000000;stroke-width:1;font-family:Bravura"
       id="path3122" />
    <path
       d="m 252.96973,180.71973 0,-14.23536 3.86328,0 0,14.08838 c -10e-6,2.2256 0.43391,3.89828 1.30176,5.01807 0.86782,1.1058 2.16958,1.65869 3.90527,1.65869 2.0856,0 3.73029,-0.66487 4.93408,-1.99463 1.21776,-1.32974 1.82664,-3.1424 1.82666,-5.43799 l 0,-13.33252 3.86328,0 0,23.51563 -3.86328,0 0,-3.61133 c -0.93784,1.42774 -2.02964,2.49154 -3.27539,3.19141 -1.23179,0.68587 -2.66652,1.02881 -4.3042,1.02881 -2.70151,0 -4.75212,-0.83985 -6.15185,-2.51953 -1.39975,-1.67969 -2.09962,-4.13623 -2.09961,-7.36963 m 9.72119,-14.80225 0,0"
       style="font-size:43px;stroke:#000000;stroke-width:1;font-family:Bravura"
       id="path3124" />
    <path
       d="m 280.66357,166.48437 3.86329,0 0,23.51563 -3.86329,0 0,-23.51563 m 0,-9.15429 3.86329,0 0,4.89209 -3.86329,0 0,-4.89209"
       style="font-size:43px;stroke:#000000;stroke-width:1;font-family:Bravura"
       id="path3126" />
    <path
       d="m 308.06348,177.96924 c -2e-5,-2.79947 -0.58091,-4.96906 -1.74268,-6.50879 -1.1478,-1.53969 -2.7645,-2.30955 -4.8501,-2.30957 -2.07162,2e-5 -3.68832,0.76988 -4.85009,2.30957 -1.1478,1.53973 -1.72169,3.70932 -1.72168,6.50879 -1e-5,2.78549 0.57388,4.94808 1.72168,6.48779 1.16177,1.53972 2.77847,2.30957 4.85009,2.30957 2.0856,0 3.7023,-0.76985 4.8501,-2.30957 1.16177,-1.53971 1.74266,-3.7023 1.74268,-6.48779 m 3.86328,9.1123 c -3e-5,4.00326 -0.88886,6.9777 -2.66651,8.92334 -1.77768,1.95963 -4.50018,2.93945 -8.16748,2.93946 -1.35776,-1e-5 -2.63852,-0.10499 -3.84228,-0.31495 -1.20379,-0.19597 -2.37257,-0.50391 -3.50635,-0.92382 l 0,-3.7583 c 1.13378,0.61588 2.25357,1.07079 3.35938,1.36474 1.10578,0.29394 2.23257,0.44091 3.38037,0.44092 2.53351,-1e-5 4.43016,-0.66488 5.68994,-1.99463 1.25974,-1.31576 1.88963,-3.31038 1.88965,-5.98389 l 0,-1.91064 c -0.79787,1.38574 -1.81968,2.42155 -3.06543,3.10742 -1.24579,0.68587 -2.73651,1.02881 -4.47217,1.02881 -2.88347,0 -5.20704,-1.09879 -6.9707,-3.29639 -1.76368,-2.19758 -2.64551,-5.10904 -2.64551,-8.73437 0,-3.63931 0.88183,-6.55776 2.64551,-8.75537 1.76366,-2.19757 4.08723,-3.29637 6.9707,-3.29639 1.73566,2e-5 3.22638,0.34296 4.47217,1.02881 1.24575,0.68589 2.26756,1.7217 3.06543,3.10742 l 0,-3.56934 3.86328,0 0,20.59717"
       style="font-size:43px;stroke:#000000;stroke-width:1;font-family:Bravura"
       id="path3128" />
    <path
       d="m 335.3584,177.96924 c -2e-5,-2.79947 -0.58091,-4.96906 -1.74268,-6.50879 -1.1478,-1.53969 -2.7645,-2.30955 -4.8501,-2.30957 -2.07162,2e-5 -3.68832,0.76988 -4.85009,2.30957 -1.1478,1.53973 -1.72169,3.70932 -1.72168,6.50879 -10e-6,2.78549 0.57388,4.94808 1.72168,6.48779 1.16177,1.53972 2.77847,2.30957 4.85009,2.30957 2.0856,0 3.7023,-0.76985 4.8501,-2.30957 1.16177,-1.53971 1.74266,-3.7023 1.74268,-6.48779 m 3.86328,9.1123 c -2e-5,4.00326 -0.88886,6.9777 -2.6665,8.92334 -1.77769,1.95963 -4.50018,2.93945 -8.16748,2.93946 -1.35776,-1e-5 -2.63852,-0.10499 -3.84229,-0.31495 -1.20378,-0.19597 -2.37256,-0.50391 -3.50635,-0.92382 l 0,-3.7583 c 1.13379,0.61588 2.25358,1.07079 3.35938,1.36474 1.10578,0.29394 2.23257,0.44091 3.38037,0.44092 2.53351,-1e-5 4.43016,-0.66488 5.68994,-1.99463 1.25975,-1.31576 1.88963,-3.31038 1.88965,-5.98389 l 0,-1.91064 c -0.79787,1.38574 -1.81968,2.42155 -3.06543,3.10742 -1.24578,0.68587 -2.73651,1.02881 -4.47217,1.02881 -2.88347,0 -5.20704,-1.09879 -6.9707,-3.29639 -1.76368,-2.19758 -2.64551,-5.10904 -2.64551,-8.73437 0,-3.63931 0.88183,-6.55776 2.64551,-8.75537 1.76366,-2.19757 4.08723,-3.29637 6.9707,-3.29639 1.73566,2e-5 3.22639,0.34296 4.47217,1.02881 1.24575,0.68589 2.26756,1.7217 3.06543,3.10742 l 0,-3.56934 3.86328,0 0,20.59717"
       style="font-size:43px;stroke:#000000;stroke-width:1;font-family:Bravura"
       id="path3130" />
  </g>
  <g
     style="font-size:41px;stroke:#000000;stroke-width:1;font-family:Bravura"
     id="text38">
    <path
       d="m 499.72168,106.57813 3.68359,0 4.6045,17.49707 4.58447,-17.49707 4.34424,0 4.60449,17.49707 4.58447,-17.49707 3.6836,0 -5.86573,22.42187 -4.34424,0 -4.8247,-18.37793 -4.84473,18.37793 -4.34424,0 -5.86572,-22.42187"
       style="font-size:41px;stroke:#000000;stroke-width:1;font-family:Bravura"
       id="path3133" />
    <path
       d="m 535.4165,106.57813 3.6836,0 0,22.42187 -3.6836,0 0,-22.42187 m 0,-8.728521 3.6836,0 0,4.664551 -3.6836,0 0,-4.664551"
       style="font-size:41px;stroke:#000000;stroke-width:1;font-family:Bravura"
       id="path3135" />
    <path
       d="m 561.54199,109.98145 0,-12.131841 3.6836,0 0,31.150391 -3.6836,0 0,-3.36328 c -0.7741,1.33464 -1.75506,2.32894 -2.94287,2.98291 -1.17449,0.64062 -2.5892,0.96094 -4.24414,0.96094 -2.70932,0 -4.91814,-1.08106 -6.62646,-3.24317 -1.69499,-2.1621 -2.54249,-5.00487 -2.54248,-8.52832 -1e-5,-3.52342 0.84749,-6.36619 2.54248,-8.52832 1.70832,-2.16209 3.91714,-3.24314 6.62646,-3.24316 1.65494,2e-5 3.06965,0.32701 4.24414,0.98095 1.18781,0.64065 2.16877,1.62828 2.94287,2.9629 m -12.55224,7.82763 c -10e-6,2.70932 0.55386,4.83806 1.66162,6.38623 1.12108,1.53484 2.65591,2.30225 4.60449,2.30225 1.94855,0 3.48338,-0.76741 4.60449,-2.30225 1.12108,-1.54817 1.68162,-3.67691 1.68164,-6.38623 -2e-5,-2.70929 -0.56056,-4.83136 -1.68164,-6.36621 -1.12111,-1.54816 -2.65594,-2.32224 -4.60449,-2.32226 -1.94858,2e-5 -3.48341,0.7741 -4.60449,2.32226 -1.10776,1.53485 -1.66163,3.65692 -1.66162,6.36621"
       style="font-size:41px;stroke:#000000;stroke-width:1;font-family:Bravura"
       id="path3137" />
    <path
       d="m 576.45654,100.21191 0,6.36622 7.58741,0 0,2.86279 -7.58741,0 0,12.17187 c 0,1.82846 0.2469,3.00294 0.74073,3.52344 0.50715,0.52051 1.52814,0.78077 3.06298,0.78076 l 3.7837,0 0,3.08301 -3.7837,0 c -2.84278,0 -4.80469,-0.52718 -5.88574,-1.58154 -1.08106,-1.06771 -1.62158,-3.00293 -1.62158,-5.80567 l 0,-12.17187 -2.70264,0 0,-2.86279 2.70264,0 0,-6.36622 3.70361,0"
       style="font-size:41px;stroke:#000000;stroke-width:1;font-family:Bravura"
       id="path3139" />
    <path
       d="m 607.54687,115.4668 0,13.5332 -3.68359,0 0,-13.41309 c -2e-5,-2.12205 -0.41375,-3.71027 -1.24121,-4.76464 -0.82749,-1.05435 -2.0687,-1.58153 -3.72363,-1.58155 -1.98862,2e-5 -3.55682,0.63397 -4.70459,1.90186 -1.1478,1.26792 -1.72169,2.99627 -1.72168,5.18506 l 0,12.67236 -3.70362,0 0,-31.150391 3.70362,0 0,12.211911 c 0.88085,-1.34796 1.91519,-2.35561 3.10303,-3.02295 1.20116,-0.66729 2.5825,-1.00095 4.14404,-1.00097 2.57583,2e-5 4.52439,0.8008 5.8457,2.40234 1.32127,1.58824 1.98191,3.93052 1.98193,7.02686"
       style="font-size:41px;stroke:#000000;stroke-width:1;font-family:Bravura"
       id="path3141" />
    <path
       d="m 628.46729,110.38184 25.66503,0 0,3.36328 -25.66503,0 0,-3.36328 m 0,8.16796 25.66503,0 0,3.40333 -25.66503,0 0,-3.40333"
       style="font-size:41px;stroke:#000000;stroke-width:1;font-family:Bravura"
       id="path3143" />
    <path
       d="m 684.56201,114.80615 c -1.92188,2e-5 -3.43669,0.51385 -4.54443,1.54151 -1.09441,1.02768 -1.64161,2.44239 -1.6416,4.24414 -10e-6,1.80176 0.54719,3.21647 1.6416,4.24414 1.10774,1.02767 2.62255,1.5415 4.54443,1.5415 1.92186,0 3.43667,-0.51383 4.54444,-1.5415 1.10772,-1.04101 1.6616,-2.45573 1.66162,-4.24414 -2e-5,-1.80175 -0.5539,-3.21646 -1.66162,-4.24414 -1.09442,-1.02766 -2.60923,-1.54149 -4.54444,-1.54151 m -4.04394,-1.72168 c -1.73504,-0.42706 -3.08969,-1.23452 -4.06397,-2.42236 -0.96094,-1.18781 -1.44141,-2.63588 -1.4414,-4.34424 -10e-6,-2.38897 0.84748,-4.27748 2.54248,-5.66553 1.70832,-1.387987 4.04393,-2.081997 7.00683,-2.082028 2.97622,3.1e-5 5.31183,0.694041 7.00684,2.082028 1.69496,1.38805 2.54246,3.27656 2.54248,5.66553 -2e-5,1.70836 -0.48717,3.15643 -1.46143,4.34424 -0.96096,1.18784 -2.30226,1.9953 -4.02392,2.42236 1.94855,0.45379 3.46335,1.34133 4.54443,2.6626 1.09438,1.3213 1.64158,2.93621 1.6416,4.84473 -2e-5,2.89616 -0.88755,5.11833 -2.6626,6.6665 -1.76173,1.54818 -4.29087,2.32227 -7.5874,2.32227 -3.29656,0 -5.83236,-0.77409 -7.60742,-2.32227 -1.76172,-1.54817 -2.64258,-3.77034 -2.64258,-6.6665 0,-1.90852 0.5472,-3.52343 1.6416,-4.84473 1.0944,-1.32127 2.61588,-2.20881 4.56446,-2.6626 m -1.48145,-6.38623 c -10e-6,1.5482 0.48046,2.75604 1.44141,3.62354 0.97427,0.86753 2.3356,1.30128 4.08398,1.30127 1.73501,10e-6 3.08967,-0.43374 4.06397,-1.30127 0.98761,-0.8675 1.48142,-2.07534 1.48144,-3.62354 -2e-5,-1.54815 -0.49383,-2.75599 -1.48144,-3.62353 -0.9743,-0.86749 -2.32896,-1.30125 -4.06397,-1.30127 -1.74838,2e-5 -3.10971,0.43378 -4.08398,1.30127 -0.96095,0.86754 -1.44142,2.07538 -1.44141,3.62353"
       style="font-size:41px;stroke:#000000;stroke-width:1;font-family:Bravura"
       id="path3145" />
    <path
       d="m 710.66748,101.77344 c -2.08204,2e-5 -3.65024,1.02769 -4.70459,3.08301 -1.04102,2.04201 -1.56153,5.11834 -1.56152,9.229 -1e-5,4.09734 0.5205,7.17367 1.56152,9.229 1.05435,2.042 2.62255,3.06299 4.70459,3.06299 2.09536,0 3.66356,-1.02099 4.70459,-3.06299 1.05434,-2.05533 1.58152,-5.13166 1.58154,-9.229 -2e-5,-4.11066 -0.5272,-7.18699 -1.58154,-9.229 -1.04103,-2.05532 -2.60923,-3.08299 -4.70459,-3.08301 m 0,-3.203128 c 3.34992,3.1e-5 5.90574,1.327992 7.66748,3.983888 1.77504,2.6426 2.66258,6.48635 2.6626,11.53125 -2e-5,5.03158 -0.88756,8.87533 -2.6626,11.53125 -1.76174,2.64258 -4.31756,3.96387 -7.66748,3.96387 -3.34994,0 -5.91244,-1.32129 -7.6875,-3.96387 -1.76172,-2.65592 -2.64258,-6.49967 -2.64258,-11.53125 0,-5.0449 0.88086,-8.88865 2.64258,-11.53125 1.77506,-2.655896 4.33756,-3.983857 7.6875,-3.983888"
       style="font-size:41px;stroke:#000000;stroke-width:1;font-family:Bravura"
       id="path3147" />
    <path
       d="m 736.77295,101.77344 c -2.08204,2e-5 -3.65024,1.02769 -4.70459,3.08301 -1.04102,2.04201 -1.56153,5.11834 -1.56152,9.229 -10e-6,4.09734 0.5205,7.17367 1.56152,9.229 1.05435,2.042 2.62255,3.06299 4.70459,3.06299 2.09536,0 3.66356,-1.02099 4.70459,-3.06299 1.05434,-2.05533 1.58152,-5.13166 1.58154,-9.229 -2e-5,-4.11066 -0.5272,-7.18699 -1.58154,-9.229 -1.04103,-2.05532 -2.60923,-3.08299 -4.70459,-3.08301 m 0,-3.203128 c 3.34992,3.1e-5 5.90574,1.327992 7.66748,3.983888 1.77504,2.6426 2.66257,6.48635 2.6626,11.53125 -3e-5,5.03158 -0.88756,8.87533 -2.6626,11.53125 -1.76174,2.64258 -4.31756,3.96387 -7.66748,3.96387 -3.34995,0 -5.91244,-1.32129 -7.6875,-3.96387 -1.76172,-2.65592 -2.64258,-6.49967 -2.64258,-11.53125 0,-5.0449 0.88086,-8.88865 2.64258,-11.53125 1.77506,-2.655896 4.33755,-3.983857 7.6875,-3.983888"
       style="font-size:41px;stroke:#000000;stroke-width:1;font-family:Bravura"
       id="path3149" />
  </g>
  <path
     d="M 643 562 L  637 574 637 577 631 589 628 589 622 595 619 604 613 613 613 625 601 634 592 640 589 643 586 655 586 667 586 667 580 676 574 679 574 682 574 691 568 700 559 706 547 715 541 721 532 733 523 736 511 736 499 736 493 745 484 748 484 748 478 760 478 772 466 772 454 781 445 790 436 799 427 811 424 814 415 820 412 829 406 838 406 844 397 844 385 847 373 850 367 859 367 862 361 868 352 877 346 877 343 889 343 889 337 898 331 910 328 913"
     fill="white"
     stroke="black"
     stroke-width="3"
     id="path40" />
  <path
     style="fill:#000000;stroke:#000000;stroke-width:7"
     d="m 354,261 c 0,39.7645 -32.2355,72 -72,72 -39.7645,0 -72,-32.2355 -72,-72 0,-39.7645 32.2355,-72 72,-72 39.7645,0 72,32.2355 72,72 z"
     id="circle42" />
</svg>
