<?xml version="1.0" encoding="UTF-8" standalone="no"?>
<?xml-stylesheet href="style.css" type="text/css" title="style" alternate="no" media="all"?><svg
   xmlns:dc="http://purl.org/dc/elements/1.1/"
   xmlns:cc="http://creativecommons.org/ns#"
   xmlns:rdf="http://www.w3.org/1999/02/22-rdf-syntax-ns#"
   xmlns:svg="http://www.w3.org/2000/svg"
   xmlns="http://www.w3.org/2000/svg"
   xmlns:xlink="http://www.w3.org/1999/xlink"
   xmlns:sodipodi="http://sodipodi.sourceforge.net/DTD/sodipodi-0.dtd"
   xmlns:inkscape="http://www.inkscape.org/namespaces/inkscape"
   height="600px"
   version="1.1"
   width="800px"
   id="svg2"
   inkscape:version="0.48.5 r10040"
   sodipodi:docname="imramma.svg">
  <metadata
     id="metadata32">
    <rdf:RDF>
      <cc:Work
         rdf:about="">
        <dc:format>image/svg+xml</dc:format>
        <dc:type
           rdf:resource="http://purl.org/dc/dcmitype/StillImage" />
      </cc:Work>
    </rdf:RDF>
  </metadata>
  <sodipodi:namedview
     pagecolor="#ffffff"
     bordercolor="#666666"
     borderopacity="1"
     objecttolerance="10"
     gridtolerance="10"
     guidetolerance="10"
     inkscape:pageopacity="0"
     inkscape:pageshadow="2"
     inkscape:window-width="434"
     inkscape:window-height="415"
     id="namedview30"
     showgrid="false"
     inkscape:zoom="0.295"
     inkscape:cx="400"
     inkscape:cy="300"
     inkscape:window-x="0"
     inkscape:window-y="27"
     inkscape:window-maximized="0"
     inkscape:current-layer="svg2" />
  <defs
     id="defs4">
    <style
       type="text/css"
       id="style6">@font-face {
  font-family: Bravura;
  src: local(&quot;Bravura Regular&quot;),
    local(&quot;BravuraRegular&quot;), 
    local(&quot;Bravura&quot;),
     url(Bravura.otf) format(&quot;opentype&quot;),
    url(Bravura.svg) format(&quot;svg&quot;);
}
</style>
  </defs>
  <image
     sodipodi:absref="/tmp/./data/Bravura.svg"
     xlink:href="./data/Bravura.svg"
     id="image8" />
  <path
     style="stroke:#000000;stroke-width:19"
     d="m 24,95 298,26"
     id="line10" />
  <path
     d="M 431 567 L  431 573 419 576 416 582 407 585 398 588 386 585 386 588 377 588 365 585 362 591 362 600 350 597 350 606 341 603 335 612 335 609 323 615 311 615 308 612 308 612 299 618 296 621 287 627 275 624 263 630 263 636 254 639 245 648 242 657 233 663 233 663 230 672 221 675 209 675 200 684 188 690 182 690 176 699 167 702 164 708 164 708 164 714 152 720 152 717 152 714 140 723 140 732 131 729 125 735 122 735 113 732 101 735 92 735 92 738 92 738 92 744 83 747 71 750 71 756 59 756 50 759 38 759 29 765 17 771 8 777 5 780 2 777 -7 786 -19 783 -19 783 -19 783 -25 789 -31 798 -40 795 -46 798 -52 795 -64 801 -67 810 -76 819 -76 825 -82 825 -85 825 -88 825 -94 822 -94 828 -94 828 -106 831 -112 834 -124 840 -127 840 -130 837 -133 840 -133 843 -136 840 -139 849 -139 858 -142 861 -154 870 -157 876 -157 882 -160 882 -163 879 -166 882 -178 882 -178 885 -190 888 -196 897 -208 903 -217 912 -220 918 -232 918 -244 921 -250 918 -262 927 -274 933 -277 942 -289 945 -298 951 -304 960 -304 966 -313 975 -313 975 -313 975 -316 978 -316 978 -328 987 -340 984 -343 987 -349 990 -361 987 -370 990 -376 990 -385 993 -394 996 -403 993 -415 990 -415 987 -424 987 -427 993 -439 1002 -451 1002 -454 1011 -460 1008 -460 1014 -472 1020 -481 1020 -481 1029 -487 1029 -496 1038 -496 1035 -505 1038 -508 1044 -514 1050 -526 1050 -526 1056 -529 1065 -541 1071 -547 1074 -547 1071 -553 1068 -559 1071 -568 1080 -574 1086 -586 1089 -598 1098 -607 1095 -619 1104 -619 1107 -619 1104 -622 1101 -628 1107 -637 1107 -649 1107 -655 1116 -667 1125 -670 1122 -670 1131 -670 1140 -679 1140 -685 1146 -691 1149 -697 1146 -697 1149 -706 1155 -712 1158 -724 1164 -736 1164 -736 1170 -745 1179 -754 1176 -760 1179 -772 1182 -772 1182 -775 1191 -778 1200 -784 1203 -787 1209 -799 1212 -808 1215 -820 1221 -832 1221 -838 1230 -847 1236 -853 1239 -853 1242 -865 1239 -877 1245 -877 1242 -883 1251 -889 1248 -898 1251 -910 1260 -910 1269 -919 1278 -919 1281 -919 1281 -931 1281 -943 1287 -943 1293 -946 1293 -949 1299 -958 1302 -958 1302 -964 1302 -973 1308 -973 1308 -973 1311 -976 1314 -976 1317 -985 1323 -997 1323 -1003 1320 -1015 1320 -1021 1326 -1030 1332"
     fill="white"
     stroke="black"
     stroke-width="3"
     id="path12" />
  <path
     d="M 705 195 L 1199 237"
     id="id1" />
  <g
     style="font-size:220px;stroke:#000000;stroke-width:1;font-family:Bravura"
     id="text17">
    <path
       d="m 767.67074,148.66256 c 15.56384,1.32324 30.77272,-3.56593 42.66503,-13.59452 11.8923,-10.02859 19.27887,-24.19379 20.60211,-39.75762 1.3046,-15.344625 -3.58457,-30.553508 -13.61316,-42.445815 -10.02858,-11.892306 -24.19378,-19.278869 -39.75761,-20.60211 -15.34463,-1.304604 -30.55351,3.584568 -42.44582,13.613155 -11.89231,10.028587 -19.27887,24.193783 -20.58347,39.538409 -1.32324,15.563831 3.56593,30.772721 13.59451,42.665021 10.02859,11.89231 24.19379,19.27887 39.53841,20.58348 m 9.00178,-105.878026 c 12.71412,1.080958 24.34199,7.147826 32.56543,16.899517 8.22344,9.751692 12.25885,22.017665 11.17789,34.731783 -1.08096,12.714116 -7.14783,24.341986 -16.89952,32.565426 -9.75169,8.22344 -22.23687,12.24021 -34.95099,11.15926 -12.71412,-1.08096 -24.12278,-7.12919 -32.34622,-16.88088 -8.22344,-9.75169 -12.24021,-22.236876 -11.15925,-34.950995 1.08095,-12.714118 7.12918,-24.122777 16.88088,-32.346219 9.75169,-8.223441 22.01766,-12.258849 34.73178,-11.177892 m -2.88877,33.977419 c -7.4531,-0.633664 -14.11281,4.982357 -14.74647,12.435461 -0.65231,7.672313 4.96371,14.332016 12.41682,14.965686 7.67231,0.6523 14.33202,-4.963722 14.98432,-12.636034 0.63366,-7.453104 -4.98236,-14.112811 -12.65467,-14.765113"
       style=""
       id="path3015" />
  </g>
  <path
     d="M 658 289 L 393 267"
     id="id2" />
  <g
     style="font-size:221px;stroke:#000000;stroke-width:1;font-family:Bravura"
     id="text24">
    <path
       d="m 540.97901,282.83322 c -2.68778,32.37559 21.36354,60.54005 53.51889,63.20955 32.15535,2.6695 60.52177,-21.1433 63.20955,-53.51889 2.6695,-32.15535 -21.36354,-60.54005 -53.51889,-63.20955 -32.15534,-2.6695 -60.54005,21.36354 -63.20955,53.51889"
       style=""
       id="path3018" />
  </g>
  <path
     style="fill:#ffffff;stroke:#000000;stroke-width:8"
     d="m 660,421 c 0,71.79702 -58.20298,130 -130,130 -71.79702,0 -130,-58.20298 -130,-130 0,-71.79702 58.20298,-130 130,-130 71.79702,0 130,58.20298 130,130 z"
     id="circle28" />
</svg>
