<?xml version="1.0" encoding="UTF-8" standalone="no"?>
<?xml-stylesheet href="style.css" type="text/css" title="style" alternate="no" media="all"?><svg
   xmlns:dc="http://purl.org/dc/elements/1.1/"
   xmlns:cc="http://creativecommons.org/ns#"
   xmlns:rdf="http://www.w3.org/1999/02/22-rdf-syntax-ns#"
   xmlns:svg="http://www.w3.org/2000/svg"
   xmlns="http://www.w3.org/2000/svg"
   xmlns:xlink="http://www.w3.org/1999/xlink"
   xmlns:sodipodi="http://sodipodi.sourceforge.net/DTD/sodipodi-0.dtd"
   xmlns:inkscape="http://www.inkscape.org/namespaces/inkscape"
   height="600px"
   version="1.1"
   width="800px"
   id="svg2"
   inkscape:version="0.48.5 r10040"
   sodipodi:docname="imramma.svg">
  <metadata
     id="metadata27">
    <rdf:RDF>
      <cc:Work
         rdf:about="">
        <dc:format>image/svg+xml</dc:format>
        <dc:type
           rdf:resource="http://purl.org/dc/dcmitype/StillImage" />
      </cc:Work>
    </rdf:RDF>
  </metadata>
  <sodipodi:namedview
     pagecolor="#ffffff"
     bordercolor="#666666"
     borderopacity="1"
     objecttolerance="10"
     gridtolerance="10"
     guidetolerance="10"
     inkscape:pageopacity="0"
     inkscape:pageshadow="2"
     inkscape:window-width="434"
     inkscape:window-height="415"
     id="namedview25"
     showgrid="false"
     inkscape:zoom="0.295"
     inkscape:cx="400"
     inkscape:cy="300"
     inkscape:window-x="0"
     inkscape:window-y="27"
     inkscape:window-maximized="0"
     inkscape:current-layer="svg2" />
  <defs
     id="defs4">
    <style
       type="text/css"
       id="style6">@font-face {
  font-family: Bravura;
  src: local(&quot;Bravura Regular&quot;),
    local(&quot;BravuraRegular&quot;), 
    local(&quot;Bravura&quot;),
     url(Bravura.otf) format(&quot;opentype&quot;),
    url(Bravura.svg) format(&quot;svg&quot;);
}
</style>
  </defs>
  <image
     sodipodi:absref="/tmp/./data/Bravura.svg"
     xlink:href="./data/Bravura.svg"
     id="image8" />
  <path
     style="fill:#ffffff;stroke:#000000;stroke-width:5"
     d="M 164,272 C 164,328.88533 117.88533,375 61,375 4.1146708,375 -42,328.88533 -42,272 -42,215.11467 4.1146708,169 61,169 c 56.88533,0 103,46.11467 103,103 z"
     id="circle10" />
  <path
     style="stroke:#000000;stroke-width:3"
     d="M 292,82 697,548"
     id="line12" />
  <path
     style="fill:#000000;stroke:#000000;stroke-width:4"
     d="m 527,303 c 0,35.89851 -29.10149,65 -65,65 -35.89851,0 -65,-29.10149 -65,-65 0,-35.89851 29.10149,-65 65,-65 35.89851,0 65,29.10149 65,65 z"
     id="circle14" />
  <path
     style="stroke:#000000;stroke-width:12"
     d="M 578,489 296,180"
     id="line16" />
  <path
     d="M 520 119 L 9 192"
     id="id1" />
  <g
     style="font-size:50px;stroke:#000000;stroke-width:1;font-family:Bravura"
     id="text21">
    <path
       d="m 511.41573,147.29841 c 4.25677,-0.60811 7.60847,-3.30926 9.07217,-6.49831 1.15259,-2.53851 1.58392,-7.29734 0.96874,-11.60362 -0.7566,-5.29622 -2.89207,-9.99142 -8.1883,-9.23481 -3.56381,0.50911 -7.38219,3.47896 -9.02268,6.84479 -1.15965,2.48901 -1.6122,7.09936 -1.00409,11.35613 0.76368,5.34573 2.87793,9.89243 8.17416,9.13582"
       style=""
       id="path3011" />
  </g>
</svg>
