<?xml version="1.0" encoding="UTF-8" standalone="no"?>
<?xml-stylesheet href="style.css" type="text/css" title="style" alternate="no" media="all"?><svg
   xmlns:dc="http://purl.org/dc/elements/1.1/"
   xmlns:cc="http://creativecommons.org/ns#"
   xmlns:rdf="http://www.w3.org/1999/02/22-rdf-syntax-ns#"
   xmlns:svg="http://www.w3.org/2000/svg"
   xmlns="http://www.w3.org/2000/svg"
   xmlns:xlink="http://www.w3.org/1999/xlink"
   xmlns:sodipodi="http://sodipodi.sourceforge.net/DTD/sodipodi-0.dtd"
   xmlns:inkscape="http://www.inkscape.org/namespaces/inkscape"
   height="600px"
   version="1.1"
   width="800px"
   id="svg2"
   inkscape:version="0.48.5 r10040"
   sodipodi:docname="imramma.svg">
  <metadata
     id="metadata33">
    <rdf:RDF>
      <cc:Work
         rdf:about="">
        <dc:format>image/svg+xml</dc:format>
        <dc:type
           rdf:resource="http://purl.org/dc/dcmitype/StillImage" />
      </cc:Work>
    </rdf:RDF>
  </metadata>
  <sodipodi:namedview
     pagecolor="#ffffff"
     bordercolor="#666666"
     borderopacity="1"
     objecttolerance="10"
     gridtolerance="10"
     guidetolerance="10"
     inkscape:pageopacity="0"
     inkscape:pageshadow="2"
     inkscape:window-width="434"
     inkscape:window-height="415"
     id="namedview31"
     showgrid="false"
     inkscape:zoom="0.295"
     inkscape:cx="400"
     inkscape:cy="300"
     inkscape:window-x="0"
     inkscape:window-y="27"
     inkscape:window-maximized="0"
     inkscape:current-layer="svg2" />
  <defs
     id="defs4">
    <style
       type="text/css"
       id="style6">@font-face {
  font-family: Bravura;
  src: local(&quot;Bravura Regular&quot;),
    local(&quot;BravuraRegular&quot;), 
    local(&quot;Bravura&quot;),
     url(Bravura.otf) format(&quot;opentype&quot;),
    url(Bravura.svg) format(&quot;svg&quot;);
}
</style>
  </defs>
  <image
     sodipodi:absref="/tmp/./data/Bravura.svg"
     xlink:href="./data/Bravura.svg"
     id="image8" />
  <g
     style="font-size:49px;stroke:#000000;stroke-width:1;font-family:Bravura"
     id="text12">
    <path
       d="m 236.70068,249.99268 0,4.16308 c -1.24416,-0.638 -2.53615,-1.11651 -3.87597,-1.43555 -1.33986,-0.31898 -2.72756,-0.47849 -4.16309,-0.47851 -2.18523,2e-5 -3.82813,0.33498 -4.92871,1.00488 -1.08464,0.66995 -1.62696,1.67483 -1.62695,3.01465 -1e-5,1.02085 0.39078,1.82635 1.17236,2.4165 0.78157,0.57424 2.35269,1.12453 4.71338,1.65088 l 1.50732,0.33496 c 3.12629,0.66994 5.34341,1.619 6.65137,2.84717 1.32387,1.21225 1.98582,2.91098 1.98584,5.09619 -2e-5,2.48829 -0.98895,4.45818 -2.9668,5.90967 -1.96193,1.4515 -4.66554,2.17725 -8.11084,2.17725 -1.43555,0 -2.9349,-0.14356 -4.49804,-0.43067 -1.54721,-0.27116 -3.18214,-0.68587 -4.90479,-1.24414 l 0,-4.5459 c 1.62695,0.84539 3.22998,1.48341 4.80908,1.91407 1.5791,0.41471 3.14225,0.62207 4.68946,0.62207 2.07355,0 3.6686,-0.35091 4.78515,-1.05274 1.11652,-0.71777 1.67479,-1.72265 1.67481,-3.01465 -2e-5,-1.19628 -0.40676,-2.11343 -1.22022,-2.75146 -0.79754,-0.63801 -2.56007,-1.25211 -5.28759,-1.84229 l -1.53125,-0.35888 c -2.72755,-0.57421 -4.69744,-1.45149 -5.90967,-2.63184 -1.21225,-1.19627 -1.81836,-2.8312 -1.81836,-4.90478 0,-2.52016 0.89322,-4.46613 2.67969,-5.83789 1.78645,-1.37172 4.32258,-2.05759 7.60839,-2.05762 1.62694,3e-5 3.15819,0.11966 4.59375,0.35889 1.43553,0.23928 2.75942,0.59817 3.97168,1.07666"
       style="font-size:49px;stroke:#000000;stroke-width:1;font-family:Bravura"
       id="path3016" />
    <path
       d="m 242.01221,249.20312 4.66552,0 8.37403,22.49024 8.37402,-22.49024 4.66553,0 L 258.04248,276 l -5.98144,0 -10.04883,-26.79688"
       style="font-size:49px;stroke:#000000;stroke-width:1;font-family:Bravura"
       id="path3018" />
    <path
       d="m 291.80176,262.29053 c -2e-5,-3.19009 -0.66197,-5.66242 -1.98584,-7.41699 -1.30796,-1.75454 -3.15025,-2.63182 -5.52686,-2.63184 -2.36069,2e-5 -4.20297,0.8773 -5.52685,2.63184 -1.30795,1.75457 -1.96192,4.2269 -1.96192,7.41699 0,3.17416 0.65397,5.63851 1.96192,7.39306 1.32388,1.75457 3.16616,2.63184 5.52685,2.63184 2.37661,0 4.2189,-0.87727 5.52686,-2.63184 1.32387,-1.75455 1.98582,-4.2189 1.98584,-7.39306 m 4.40234,10.38379 c -3e-5,4.56184 -1.01288,7.95133 -3.03857,10.16845 -2.02574,2.23307 -5.12811,3.3496 -9.30713,3.34961 -1.54721,-1e-5 -3.00669,-0.11964 -4.37842,-0.35888 -1.37175,-0.22332 -2.70362,-0.57423 -3.99561,-1.05274 l 0,-4.28271 c 1.29199,0.70181 2.56803,1.22021 3.82813,1.55517 1.26008,0.33496 2.5441,0.50244 3.85205,0.50244 2.88703,0 5.04832,-0.75765 6.48389,-2.27295 1.43552,-1.49935 2.1533,-3.77229 2.15332,-6.81884 l 0,-2.17725 c -0.9092,1.57911 -2.07359,2.75944 -3.49317,3.54102 -1.41961,0.78157 -3.11834,1.17236 -5.09619,1.17236 -3.28582,0 -5.9336,-1.25211 -7.94336,-3.75635 -2.00977,-2.50422 -3.01465,-5.82193 -3.01465,-9.95312 0,-4.14712 1.00488,-7.4728 3.01465,-9.97705 2.00976,-2.50421 4.65754,-3.75632 7.94336,-3.75635 1.97785,3e-5 3.67658,0.39081 5.09619,1.17236 1.41958,0.7816 2.58397,1.96194 3.49317,3.54102 l 0,-4.06739 4.40234,0 0,23.4712"
       style="font-size:49px;stroke:#000000;stroke-width:1;font-family:Bravura"
       id="path3020" />
    <path
       d="m 320.87158,249.20312 4.40235,0 0,26.79688 -4.40235,0 0,-26.79688 m 0,-10.43164 4.40235,0 0,5.57471 -4.40235,0 0,-5.57471"
       style="font-size:49px;stroke:#000000;stroke-width:1;font-family:Bravura"
       id="path3022" />
    <path
       d="m 355.32471,254.34717 c 1.10056,-1.97784 2.41647,-3.43731 3.94775,-4.37842 1.53122,-0.94105 3.33363,-1.41159 5.40723,-1.41162 2.7913,3e-5 4.94462,0.98098 6.45996,2.94287 1.51526,1.94599 2.2729,4.72137 2.27295,8.32617 l 0,16.17383 -4.42627,0 0,-16.03027 c -4e-5,-2.56802 -0.45463,-4.4741 -1.36377,-5.71827 -0.90922,-1.24411 -2.29691,-1.86618 -4.16309,-1.86621 -2.28095,3e-5 -4.08336,0.75768 -5.40722,2.27295 -1.32392,1.51532 -1.98587,3.58091 -1.98584,6.19678 l 0,15.14502 -4.42627,0 0,-16.03027 c -3e-5,-2.58397 -0.45461,-4.49005 -1.36377,-5.71827 -0.9092,-1.24411 -2.31285,-1.86618 -4.21094,-1.86621 -2.24904,3e-5 -4.03549,0.76565 -5.35938,2.29688 -1.3239,1.51532 -1.98584,3.57293 -1.98584,6.17285 l 0,15.14502 -4.42626,0 0,-26.79688 4.42626,0 0,4.16309 c 1.00488,-1.64288 2.20914,-2.85512 3.6128,-3.63672 1.40363,-0.78155 3.07046,-1.17233 5.00049,-1.17236 1.94594,3e-5 3.59682,0.49449 4.95263,1.4834 1.37172,0.98895 2.38458,2.4245 3.03858,4.30664"
       style="font-size:49px;stroke:#000000;stroke-width:1;font-family:Bravura"
       id="path3024" />
    <path
       d="m 397.74512,253.31836 c -0.49449,-0.28709 -1.03681,-0.49444 -1.62696,-0.62207 -0.57423,-0.14353 -1.21225,-0.21531 -1.91406,-0.21533 -2.48829,2e-5 -4.40235,0.8135 -5.74219,2.44043 -1.3239,1.61102 -1.98584,3.93182 -1.98584,6.9624 l 0,14.11621 -4.42627,0 0,-26.79688 4.42627,0 0,4.16309 c 0.92512,-1.62693 2.12939,-2.83119 3.6128,-3.61279 1.48338,-0.7975 3.28579,-1.19626 5.40722,-1.19629 0.30305,3e-5 0.63801,0.0239 1.00489,0.0718 0.36684,0.0319 0.77358,0.0877 1.22021,0.16748 l 0.0239,4.52197"
       style="font-size:49px;stroke:#000000;stroke-width:1;font-family:Bravura"
       id="path3026" />
    <path
       d="m 414.58887,262.52979 c -3.55698,1e-5 -6.02134,0.40675 -7.39307,1.22021 -1.37175,0.81349 -2.05762,2.20118 -2.05762,4.16309 0,1.56315 0.51041,2.80729 1.53125,3.73242 1.03678,0.90918 2.44042,1.36377 4.21094,1.36377 2.44042,0 4.39435,-0.86133 5.86182,-2.58399 1.48338,-1.7386 2.22507,-4.04344 2.2251,-6.91455 l 0,-0.98095 -4.37842,0 m 8.78076,-1.81836 0,15.28857 -4.40234,0 0,-4.06738 c -1.00491,1.62695 -2.25702,2.83122 -3.75635,3.61279 -1.49937,0.76562 -3.33368,1.14844 -5.50293,1.14844 -2.7435,0 -4.92872,-0.76563 -6.55567,-2.29688 -1.611,-1.54719 -2.4165,-3.61279 -2.4165,-6.19677 0,-3.01464 1.00488,-5.28759 3.01465,-6.81885 2.02571,-1.53124 5.04035,-2.29686 9.04394,-2.29688 l 6.17286,0 0,-0.43066 c -3e-5,-2.0257 -0.66995,-3.58885 -2.00977,-4.68945 -1.32391,-1.11652 -3.19012,-1.67479 -5.59863,-1.67481 -1.53127,2e-5 -3.02264,0.18346 -4.47412,0.55029 -1.45151,0.36689 -2.84718,0.91718 -4.18702,1.65088 l 0,-4.06738 c 1.611,-0.62204 3.17415,-1.08461 4.68946,-1.3877 1.51529,-0.31898 2.99071,-0.47848 4.42627,-0.47851 3.87596,3e-5 6.77097,1.00491 8.68506,3.01465 1.91403,2.00979 2.87106,5.05633 2.87109,9.13965"
       style="font-size:49px;stroke:#000000;stroke-width:1;font-family:Bravura"
       id="path3028" />
    <path
       d="m 453.32471,254.34717 c 1.10056,-1.97784 2.41647,-3.43731 3.94775,-4.37842 1.53122,-0.94105 3.33363,-1.41159 5.40723,-1.41162 2.7913,3e-5 4.94462,0.98098 6.45996,2.94287 1.51526,1.94599 2.2729,4.72137 2.27295,8.32617 l 0,16.17383 -4.42627,0 0,-16.03027 c -4e-5,-2.56802 -0.45463,-4.4741 -1.36377,-5.71827 -0.90922,-1.24411 -2.29691,-1.86618 -4.16309,-1.86621 -2.28095,3e-5 -4.08336,0.75768 -5.40722,2.27295 -1.32392,1.51532 -1.98587,3.58091 -1.98584,6.19678 l 0,15.14502 -4.42627,0 0,-16.03027 c -3e-5,-2.58397 -0.45461,-4.49005 -1.36377,-5.71827 -0.9092,-1.24411 -2.31285,-1.86618 -4.21094,-1.86621 -2.24904,3e-5 -4.03549,0.76565 -5.35938,2.29688 -1.3239,1.51532 -1.98584,3.57293 -1.98584,6.17285 l 0,15.14502 -4.42626,0 0,-26.79688 4.42626,0 0,4.16309 c 1.00488,-1.64288 2.20914,-2.85512 3.6128,-3.63672 1.40363,-0.78155 3.07046,-1.17233 5.00049,-1.17236 1.94594,3e-5 3.59682,0.49449 4.95263,1.4834 1.37172,0.98895 2.38458,2.4245 3.03858,4.30664"
       style="font-size:49px;stroke:#000000;stroke-width:1;font-family:Bravura"
       id="path3030" />
    <path
       d="m 501.08057,254.34717 c 1.10056,-1.97784 2.41647,-3.43731 3.94775,-4.37842 1.53122,-0.94105 3.33363,-1.41159 5.40723,-1.41162 2.7913,3e-5 4.94462,0.98098 6.45996,2.94287 1.51525,1.94599 2.2729,4.72137 2.27295,8.32617 l 0,16.17383 -4.42627,0 0,-16.03027 c -4e-5,-2.56802 -0.45463,-4.4741 -1.36377,-5.71827 -0.90922,-1.24411 -2.29691,-1.86618 -4.16309,-1.86621 -2.28095,3e-5 -4.08336,0.75768 -5.40722,2.27295 -1.32392,1.51532 -1.98587,3.58091 -1.98584,6.19678 l 0,15.14502 -4.42627,0 0,-16.03027 c -3e-5,-2.58397 -0.45462,-4.49005 -1.36377,-5.71827 -0.9092,-1.24411 -2.31285,-1.86618 -4.21094,-1.86621 -2.24904,3e-5 -4.03549,0.76565 -5.35938,2.29688 -1.3239,1.51532 -1.98584,3.57293 -1.98584,6.17285 l 0,15.14502 -4.42627,0 0,-26.79688 4.42627,0 0,4.16309 c 1.00488,-1.64288 2.20914,-2.85512 3.6128,-3.63672 1.40363,-0.78155 3.07046,-1.17233 5.00049,-1.17236 1.94594,3e-5 3.59682,0.49449 4.95263,1.4834 1.37172,0.98895 2.38458,2.4245 3.03858,4.30664"
       style="font-size:49px;stroke:#000000;stroke-width:1;font-family:Bravura"
       id="path3032" />
    <path
       d="m 540.15137,262.52979 c -3.55698,1e-5 -6.02134,0.40675 -7.39307,1.22021 -1.37175,0.81349 -2.05762,2.20118 -2.05762,4.16309 0,1.56315 0.51041,2.80729 1.53125,3.73242 1.03678,0.90918 2.44042,1.36377 4.21094,1.36377 2.44042,0 4.39435,-0.86133 5.86182,-2.58399 1.48338,-1.7386 2.22507,-4.04344 2.2251,-6.91455 l 0,-0.98095 -4.37842,0 m 8.78076,-1.81836 0,15.28857 -4.40234,0 0,-4.06738 c -1.00491,1.62695 -2.25702,2.83122 -3.75635,3.61279 -1.49937,0.76562 -3.33368,1.14844 -5.50293,1.14844 -2.7435,0 -4.92872,-0.76563 -6.55567,-2.29688 -1.611,-1.54719 -2.4165,-3.61279 -2.4165,-6.19677 0,-3.01464 1.00488,-5.28759 3.01465,-6.81885 2.02571,-1.53124 5.04035,-2.29686 9.04394,-2.29688 l 6.17286,0 0,-0.43066 c -3e-5,-2.0257 -0.66995,-3.58885 -2.00977,-4.68945 -1.32391,-1.11652 -3.19012,-1.67479 -5.59863,-1.67481 -1.53127,2e-5 -3.02264,0.18346 -4.47412,0.55029 -1.45151,0.36689 -2.84718,0.91718 -4.18702,1.65088 l 0,-4.06738 c 1.611,-0.62204 3.17415,-1.08461 4.68946,-1.3877 1.51529,-0.31898 2.99071,-0.47848 4.42627,-0.47851 3.87596,3e-5 6.77097,1.00491 8.68506,3.01465 1.91403,2.00979 2.87106,5.05633 2.87109,9.13965"
       style="font-size:49px;stroke:#000000;stroke-width:1;font-family:Bravura"
       id="path3034" />
    <path
       d="m 558.646,269.92285 5.04834,0 0,6.07715 -5.04834,0 0,-6.07715"
       style="font-size:49px;stroke:#000000;stroke-width:1;font-family:Bravura"
       id="path3036" />
    <path
       d="m 590.70654,249.99268 0,4.16308 c -1.24416,-0.638 -2.53615,-1.11651 -3.87597,-1.43555 -1.33986,-0.31898 -2.72756,-0.47849 -4.16309,-0.47851 -2.18523,2e-5 -3.82813,0.33498 -4.92871,1.00488 -1.08464,0.66995 -1.62696,1.67483 -1.62695,3.01465 -10e-6,1.02085 0.39078,1.82635 1.17236,2.4165 0.78157,0.57424 2.35269,1.12453 4.71338,1.65088 l 1.50732,0.33496 c 3.12629,0.66994 5.34341,1.619 6.65137,2.84717 1.32387,1.21225 1.98582,2.91098 1.98584,5.09619 -2e-5,2.48829 -0.98895,4.45818 -2.9668,5.90967 -1.96193,1.4515 -4.66554,2.17725 -8.11084,2.17725 -1.43555,0 -2.9349,-0.14356 -4.49804,-0.43067 -1.54721,-0.27116 -3.18214,-0.68587 -4.90479,-1.24414 l 0,-4.5459 c 1.62695,0.84539 3.22998,1.48341 4.80908,1.91407 1.5791,0.41471 3.14225,0.62207 4.68946,0.62207 2.07355,0 3.6686,-0.35091 4.78515,-1.05274 1.11652,-0.71777 1.67479,-1.72265 1.67481,-3.01465 -2e-5,-1.19628 -0.40676,-2.11343 -1.22022,-2.75146 -0.79754,-0.63801 -2.56007,-1.25211 -5.2876,-1.84229 l -1.53125,-0.35888 c -2.72754,-0.57421 -4.69743,-1.45149 -5.90966,-2.63184 -1.21225,-1.19627 -1.81837,-2.8312 -1.81836,-4.90478 -10e-6,-2.52016 0.89322,-4.46613 2.67968,-5.83789 1.78646,-1.37172 4.32259,-2.05759 7.6084,-2.05762 1.62694,3e-5 3.15819,0.11966 4.59375,0.35889 1.43553,0.23928 2.75942,0.59817 3.97168,1.07666"
       style="font-size:49px;stroke:#000000;stroke-width:1;font-family:Bravura"
       id="path3038" />
    <path
       d="m 596.01807,249.20312 4.66552,0 8.37403,22.49024 8.37402,-22.49024 4.66553,0 L 612.04834,276 l -5.98145,0 -10.04882,-26.79688"
       style="font-size:49px;stroke:#000000;stroke-width:1;font-family:Bravura"
       id="path3040" />
    <path
       d="m 645.80762,262.29053 c -3e-5,-3.19009 -0.66197,-5.66242 -1.98584,-7.41699 -1.30796,-1.75454 -3.15025,-2.63182 -5.52686,-2.63184 -2.36069,2e-5 -4.20297,0.8773 -5.52685,2.63184 -1.30795,1.75457 -1.96192,4.2269 -1.96192,7.41699 0,3.17416 0.65397,5.63851 1.96192,7.39306 1.32388,1.75457 3.16616,2.63184 5.52685,2.63184 2.37661,0 4.2189,-0.87727 5.52686,-2.63184 1.32387,-1.75455 1.98581,-4.2189 1.98584,-7.39306 m 4.40234,10.38379 c -3e-5,4.56184 -1.01288,7.95133 -3.03857,10.16845 -2.02574,2.23307 -5.12811,3.3496 -9.30713,3.34961 -1.54722,-1e-5 -3.00669,-0.11964 -4.37842,-0.35888 -1.37175,-0.22332 -2.70362,-0.57423 -3.99561,-1.05274 l 0,-4.28271 c 1.29199,0.70181 2.56803,1.22021 3.82813,1.55517 1.26008,0.33496 2.5441,0.50244 3.85205,0.50244 2.88703,0 5.04832,-0.75765 6.48389,-2.27295 1.43552,-1.49935 2.15329,-3.77229 2.15332,-6.81884 l 0,-2.17725 c -0.9092,1.57911 -2.07359,2.75944 -3.49317,3.54102 -1.41961,0.78157 -3.11834,1.17236 -5.09619,1.17236 -3.28582,0 -5.9336,-1.25211 -7.94336,-3.75635 -2.00977,-2.50422 -3.01465,-5.82193 -3.01465,-9.95312 0,-4.14712 1.00488,-7.4728 3.01465,-9.97705 2.00976,-2.50421 4.65754,-3.75632 7.94336,-3.75635 1.97785,3e-5 3.67658,0.39081 5.09619,1.17236 1.41958,0.7816 2.58397,1.96194 3.49317,3.54102 l 0,-4.06739 4.40234,0 0,23.4712"
       style="font-size:49px;stroke:#000000;stroke-width:1;font-family:Bravura"
       id="path3042" />
    <path
       d="m 663.44092,240.27881 0,13.27881 -4.06738,0 0,-13.27881 4.06738,0"
       style="font-size:49px;stroke:#000000;stroke-width:1;font-family:Bravura"
       id="path3044" />
    <path
       d="m 673.39404,269.92285 5.04834,0 0,6.07715 -5.04834,0 0,-6.07715"
       style="font-size:49px;stroke:#000000;stroke-width:1;font-family:Bravura"
       id="path3046" />
    <path
       d="m 701.9375,238.77148 0,3.66065 -4.21094,0 c -1.57911,3e-5 -2.6797,0.31904 -3.30176,0.95703 -0.60613,0.63805 -0.90918,1.78649 -0.90918,3.44531 l 0,2.36865 7.24952,0 0,3.42139 -7.24952,0 0,23.37549 -4.42626,0 0,-23.37549 -4.21094,0 0,-3.42139 4.21094,0 0,-1.86621 c -1e-5,-2.98271 0.69384,-5.15198 2.08154,-6.50781 1.38768,-1.37171 3.58885,-2.05758 6.60351,-2.05762 l 4.16309,0"
       style="font-size:49px;stroke:#000000;stroke-width:1;font-family:Bravura"
       id="path3048" />
    <path
       d="m 715.98193,252.28955 c -2.36069,2e-5 -4.2269,0.92515 -5.59863,2.77539 -1.37175,1.83433 -2.05762,4.35451 -2.05762,7.56055 0,3.20606 0.67789,5.73422 2.03369,7.58447 1.37174,1.83431 3.24592,2.75147 5.62256,2.75147 2.34471,0 4.20295,-0.92513 5.57471,-2.77539 1.37172,-1.85026 2.0576,-4.37044 2.05762,-7.56055 -2e-5,-3.17414 -0.6859,-5.68634 -2.05762,-7.53662 -1.37176,-1.86619 -3.23,-2.7993 -5.57471,-2.79932 m 0,-3.73242 c 3.82811,3e-5 6.83478,1.24417 9.02002,3.73242 2.1852,2.4883 3.27781,5.93361 3.27784,10.33594 -3e-5,4.3864 -1.09264,7.83171 -3.27784,10.33594 -2.18524,2.48828 -5.19191,3.73242 -9.02002,3.73242 -3.84408,0 -6.85873,-1.24414 -9.04394,-3.73242 -2.16928,-2.50423 -3.25391,-5.94954 -3.25391,-10.33594 0,-4.40233 1.08463,-7.84764 3.25391,-10.33594 2.18521,-2.48825 5.19986,-3.73239 9.04394,-3.73242"
       style="font-size:49px;stroke:#000000;stroke-width:1;font-family:Bravura"
       id="path3050" />
    <path
       d="m 751.08105,253.31836 c -0.49448,-0.28709 -1.0368,-0.49444 -1.62695,-0.62207 -0.57424,-0.14353 -1.21226,-0.21531 -1.91406,-0.21533 -2.4883,2e-5 -4.40236,0.8135 -5.74219,2.44043 -1.3239,1.61102 -1.98585,3.93182 -1.98584,6.9624 l 0,14.11621 -4.42627,0 0,-26.79688 4.42627,0 0,4.16309 c 0.92512,-1.62693 2.12939,-2.83119 3.61279,-3.61279 1.48339,-0.7975 3.2858,-1.19626 5.40723,-1.19629 0.30304,3e-5 0.638,0.0239 1.00488,0.0718 0.36685,0.0319 0.77358,0.0877 1.22022,0.16748 l 0.0239,4.52197"
       style="font-size:49px;stroke:#000000;stroke-width:1;font-family:Bravura"
       id="path3052" />
    <path
       d="m 775.74854,254.34717 c 1.10055,-1.97784 2.41647,-3.43731 3.94775,-4.37842 1.53122,-0.94105 3.33363,-1.41159 5.40723,-1.41162 2.7913,3e-5 4.94462,0.98098 6.45996,2.94287 1.51525,1.94599 2.2729,4.72137 2.27295,8.32617 l 0,16.17383 -4.42627,0 0,-16.03027 c -4e-5,-2.56802 -0.45463,-4.4741 -1.36377,-5.71827 -0.90922,-1.24411 -2.29691,-1.86618 -4.16309,-1.86621 -2.28096,3e-5 -4.08336,0.75768 -5.40723,2.27295 -1.32392,1.51532 -1.98586,3.58091 -1.98584,6.19678 l 0,15.14502 -4.42627,0 0,-16.03027 c -2e-5,-2.58397 -0.45461,-4.49005 -1.36376,-5.71827 -0.9092,-1.24411 -2.31285,-1.86618 -4.21094,-1.86621 -2.24904,3e-5 -4.0355,0.76565 -5.35938,2.29688 -1.3239,1.51532 -1.98585,3.57293 -1.98584,6.17285 l 0,15.14502 -4.42627,0 0,-26.79688 4.42627,0 0,4.16309 c 1.00488,-1.64288 2.20914,-2.85512 3.6128,-3.63672 1.40363,-0.78155 3.07046,-1.17233 5.00048,-1.17236 1.94595,3e-5 3.59683,0.49449 4.95264,1.4834 1.37172,0.98895 2.38458,2.4245 3.03858,4.30664"
       style="font-size:49px;stroke:#000000;stroke-width:1;font-family:Bravura"
       id="path3054" />
    <path
       d="m 814.81934,262.52979 c -3.55698,1e-5 -6.02134,0.40675 -7.39307,1.22021 -1.37175,0.81349 -2.05763,2.20118 -2.05762,4.16309 -10e-6,1.56315 0.51041,2.80729 1.53125,3.73242 1.03678,0.90918 2.44042,1.36377 4.21094,1.36377 2.44041,0 4.39435,-0.86133 5.86182,-2.58399 1.48337,-1.7386 2.22507,-4.04344 2.22509,-6.91455 l 0,-0.98095 -4.37841,0 m 8.78076,-1.81836 0,15.28857 -4.40235,0 0,-4.06738 c -1.0049,1.62695 -2.25701,2.83122 -3.75634,3.61279 -1.49937,0.76562 -3.33368,1.14844 -5.50293,1.14844 -2.7435,0 -4.92872,-0.76563 -6.55567,-2.29688 -1.611,-1.54719 -2.4165,-3.61279 -2.4165,-6.19677 0,-3.01464 1.00488,-5.28759 3.01465,-6.81885 2.02571,-1.53124 5.04035,-2.29686 9.04394,-2.29688 l 6.17285,0 0,-0.43066 c -2e-5,-2.0257 -0.66994,-3.58885 -2.00976,-4.68945 -1.32391,-1.11652 -3.19012,-1.67479 -5.59863,-1.67481 -1.53127,2e-5 -3.02264,0.18346 -4.47413,0.55029 -1.4515,0.36689 -2.84717,0.91718 -4.18701,1.65088 l 0,-4.06738 c 1.611,-0.62204 3.17415,-1.08461 4.68946,-1.3877 1.51528,-0.31898 2.99071,-0.47848 4.42627,-0.47851 3.87595,3e-5 6.77097,1.00491 8.68505,3.01465 1.91404,2.00979 2.87107,5.05633 2.8711,9.13965"
       style="font-size:49px;stroke:#000000;stroke-width:1;font-family:Bravura"
       id="path3056" />
    <path
       d="m 837.04639,241.59473 0,7.60839 9.06787,0 0,3.42139 -9.06787,0 0,14.54688 c -10e-6,2.18522 0.29507,3.58887 0.88525,4.21093 0.60611,0.62208 1.82632,0.93311 3.66065,0.93311 l 4.52197,0 0,3.68457 -4.52197,0 c -3.39748,0 -5.7422,-0.63004 -7.03418,-1.89014 -1.292,-1.27604 -1.938,-3.58886 -1.93799,-6.93847 l 0,-14.54688 -3.22998,0 0,-3.42139 3.22998,0 0,-7.60839 4.42627,0"
       style="font-size:49px;stroke:#000000;stroke-width:1;font-family:Bravura"
       id="path3058" />
    <path
       d="m 862.50342,238.81934 c -2.13738,3.66865 -3.72446,7.29739 -4.76123,10.88623 -1.0368,3.58889 -1.55519,7.2256 -1.55518,10.91015 -10e-6,3.68458 0.51838,7.33725 1.55518,10.95801 1.05272,3.60482 2.6398,7.23356 4.76123,10.88623 l -3.82813,0 c -2.39258,-3.74837 -4.18702,-7.43294 -5.3833,-11.05371 -1.18034,-3.62076 -1.77051,-7.2176 -1.77051,-10.79053 0,-3.55694 0.59017,-7.13783 1.77051,-10.74267 1.18033,-3.60479 2.97477,-7.28936 5.3833,-11.05371 l 3.82813,0"
       style="font-size:49px;stroke:#000000;stroke-width:1;font-family:Bravura"
       id="path3060" />
    <path
       d="m 892.72168,249.20312 0,26.79688 -4.42627,0 0,-23.37549 -12.08252,0 0,23.37549 -4.42627,0 0,-23.37549 -4.21094,0 0,-3.42139 4.21094,0 0,-1.86621 c 0,-2.91891 0.68587,-5.07223 2.05762,-6.45996 1.38768,-1.40361 3.5091,-2.10543 6.36426,-2.10547 l 4.42627,0 0,3.66065 -4.21094,0 c -1.57912,3e-5 -2.6797,0.31904 -3.30176,0.95703 -0.60613,0.63805 -0.90919,1.78649 -0.90918,3.44531 l 0,2.36865 16.50879,0 m -4.42627,-10.38378 4.42627,0 0,5.5747 -4.42627,0 0,-5.5747"
       style="font-size:49px;stroke:#000000;stroke-width:1;font-family:Bravura"
       id="path3062" />
    <path
       d="m 901.98096,238.77148 4.40234,0 0,37.22852 -4.40234,0 0,-37.22852"
       style="font-size:49px;stroke:#000000;stroke-width:1;font-family:Bravura"
       id="path3064" />
    <path
       d="m 938.4917,261.50098 0,2.15332 -20.24121,0 c 0.1914,3.03061 1.10058,5.34343 2.72754,6.93847 1.64289,1.57911 3.92381,2.36866 6.84277,2.36866 1.69074,0 3.32566,-0.20736 4.90479,-0.62207 1.59502,-0.41471 3.17412,-1.03678 4.7373,-1.86622 l 0,4.16309 c -1.57913,0.66992 -3.1981,1.18034 -4.85693,1.53125 -1.65888,0.35091 -3.34166,0.52637 -5.04834,0.52637 -4.27475,0 -7.66424,-1.24414 -10.16846,-3.73242 -2.48829,-2.48828 -3.73242,-5.85384 -3.73242,-10.09668 0,-4.38638 1.18033,-7.86359 3.54101,-10.43164 2.37662,-2.58396 5.5747,-3.87595 9.59424,-3.87598 3.6048,3e-5 6.45197,1.16441 8.54151,3.49316 2.10544,2.31285 3.15817,5.46307 3.1582,9.45069 m -4.40234,-1.292 c -0.0319,-2.40851 -0.70983,-4.33054 -2.0337,-5.76611 -1.30796,-1.43552 -3.04656,-2.1533 -5.21582,-2.15332 -2.45639,2e-5 -4.42628,0.69387 -5.90966,2.08154 -1.46746,1.38772 -2.31284,3.34166 -2.53614,5.86182 l 15.69532,-0.0239"
       style="font-size:49px;stroke:#000000;stroke-width:1;font-family:Bravura"
       id="path3066" />
    <path
       d="m 967.99219,259.82617 0,16.17383 -4.40235,0 0,-16.03027 c -2e-5,-2.53612 -0.49448,-4.43423 -1.48339,-5.69434 -0.98896,-1.26007 -2.47235,-1.89011 -4.4502,-1.89014 -2.37664,3e-5 -4.25083,0.75768 -5.62256,2.27295 -1.37175,1.51532 -2.05762,3.58091 -2.05762,6.19678 l 0,15.14502 -4.42627,0 0,-26.79688 4.42627,0 0,4.16309 c 1.05273,-1.61098 2.28889,-2.81524 3.7085,-3.61279 1.43553,-0.7975 3.08641,-1.19626 4.95264,-1.19629 3.07843,3e-5 5.4072,0.95706 6.98633,2.87109 1.57907,1.89814 2.36862,4.69745 2.36865,8.39795"
       style="font-size:49px;stroke:#000000;stroke-width:1;font-family:Bravura"
       id="path3068" />
    <path
       d="m 988.99902,262.52979 c -3.55698,1e-5 -6.02133,0.40675 -7.39306,1.22021 -1.37176,0.81349 -2.05763,2.20118 -2.05762,4.16309 -1e-5,1.56315 0.51041,2.80729 1.53125,3.73242 1.03677,0.90918 2.44042,1.36377 4.21094,1.36377 2.44041,0 4.39435,-0.86133 5.86181,-2.58399 1.48338,-1.7386 2.22508,-4.04344 2.2251,-6.91455 l 0,-0.98095 -4.37842,0 m 8.78077,-1.81836 0,15.28857 -4.40235,0 0,-4.06738 c -1.0049,1.62695 -2.25702,2.83122 -3.75635,3.61279 -1.49936,0.76562 -3.33367,1.14844 -5.50293,1.14844 -2.74349,0 -4.92871,-0.76563 -6.55566,-2.29688 -1.61101,-1.54719 -2.41651,-3.61279 -2.4165,-6.19677 -10e-6,-3.01464 1.00487,-5.28759 3.01464,-6.81885 2.02571,-1.53124 5.04036,-2.29686 9.04395,-2.29688 l 6.17285,0 0,-0.43066 c -2e-5,-2.0257 -0.66994,-3.58885 -2.00976,-4.68945 -1.32392,-1.11652 -3.19012,-1.67479 -5.59864,-1.67481 -1.53126,2e-5 -3.02263,0.18346 -4.47412,0.55029 -1.4515,0.36689 -2.84717,0.91718 -4.18701,1.65088 l 0,-4.06738 c 1.611,-0.62204 3.17415,-1.08461 4.68945,-1.3877 1.51529,-0.31898 2.99071,-0.47848 4.42627,-0.47851 3.87596,3e-5 6.77098,1.00491 8.68506,3.01465 1.91404,2.00979 2.87107,5.05633 2.8711,9.13965"
       style="font-size:49px;stroke:#000000;stroke-width:1;font-family:Bravura"
       id="path3070" />
    <path
       d="m 1027.7349,254.34717 c 1.1005,-1.97784 2.4164,-3.43731 3.9477,-4.37842 1.5312,-0.94105 3.3336,-1.41159 5.4072,-1.41162 2.7913,3e-5 4.9447,0.98098 6.46,2.94287 1.5153,1.94599 2.2729,4.72137 2.273,8.32617 l 0,16.17383 -4.4263,0 0,-16.03027 c -10e-5,-2.56802 -0.4546,-4.4741 -1.3638,-5.71827 -0.9092,-1.24411 -2.2969,-1.86618 -4.1631,-1.86621 -2.2809,3e-5 -4.0833,0.75768 -5.4072,2.27295 -1.3239,1.51532 -1.9859,3.58091 -1.9858,6.19678 l 0,15.14502 -4.4263,0 0,-16.03027 c 0,-2.58397 -0.4546,-4.49005 -1.3638,-5.71827 -0.9092,-1.24411 -2.3128,-1.86618 -4.2109,-1.86621 -2.2491,3e-5 -4.0355,0.76565 -5.3594,2.29688 -1.3239,1.51532 -1.9858,3.57293 -1.9858,6.17285 l 0,15.14502 -4.4263,0 0,-26.79688 4.4263,0 0,4.16309 c 1.0048,-1.64288 2.2091,-2.85512 3.6128,-3.63672 1.4036,-0.78155 3.0704,-1.17233 5.0005,-1.17236 1.9459,3e-5 3.5968,0.49449 4.9526,1.4834 1.3717,0.98895 2.3846,2.4245 3.0386,4.30664"
       style="font-size:49px;stroke:#000000;stroke-width:1;font-family:Bravura"
       id="path3072" />
    <path
       d="m 1077.5483,261.50098 0,2.15332 -20.2412,0 c 0.1914,3.03061 1.1006,5.34343 2.7276,6.93847 1.6429,1.57911 3.9238,2.36866 6.8427,2.36866 1.6908,0 3.3257,-0.20736 4.9048,-0.62207 1.5951,-0.41471 3.1742,-1.03678 4.7373,-1.86622 l 0,4.16309 c -1.5791,0.66992 -3.1981,1.18034 -4.8569,1.53125 -1.6589,0.35091 -3.3417,0.52637 -5.0483,0.52637 -4.2748,0 -7.6643,-1.24414 -10.1685,-3.73242 -2.4883,-2.48828 -3.7324,-5.85384 -3.7324,-10.09668 0,-4.38638 1.1803,-7.86359 3.541,-10.43164 2.3766,-2.58396 5.5747,-3.87595 9.5942,-3.87598 3.6048,3e-5 6.452,1.16441 8.5415,3.49316 2.1055,2.31285 3.1582,5.46307 3.1582,9.45069 m -4.4023,-1.292 c -0.032,-2.40851 -0.7098,-4.33054 -2.0337,-5.76611 -1.308,-1.43552 -3.0466,-2.1533 -5.2158,-2.15332 -2.4564,2e-5 -4.4263,0.69387 -5.9097,2.08154 -1.4674,1.38772 -2.3128,3.34166 -2.5361,5.86182 l 15.6953,-0.0239"
       style="font-size:49px;stroke:#000000;stroke-width:1;font-family:Bravura"
       id="path3074" />
    <path
       d="m 1084.0801,238.81934 3.8281,0 c 2.3926,3.76435 4.179,7.44892 5.3594,11.05371 1.1963,3.60484 1.7944,7.18573 1.7944,10.74267 0,3.57293 -0.5981,7.16977 -1.7944,10.79053 -1.1804,3.62077 -2.9668,7.30534 -5.3594,11.05371 l -3.8281,0 c 2.1214,-3.65267 3.7005,-7.28141 4.7373,-10.88623 1.0527,-3.62076 1.5791,-7.27343 1.5791,-10.95801 0,-3.68455 -0.5264,-7.32126 -1.5791,-10.91015 -1.0368,-3.58884 -2.6159,-7.21758 -4.7373,-10.88623"
       style="font-size:49px;stroke:#000000;stroke-width:1;font-family:Bravura"
       id="path3076" />
    <path
       d="m 1103.2207,238.81934 3.8281,0 c 2.3926,3.76435 4.1791,7.44892 5.3594,11.05371 1.1963,3.60484 1.7944,7.18573 1.7944,10.74267 0,3.57293 -0.5981,7.16977 -1.7944,10.79053 -1.1803,3.62077 -2.9668,7.30534 -5.3594,11.05371 l -3.8281,0 c 2.1214,-3.65267 3.7005,-7.28141 4.7373,-10.88623 1.0527,-3.62076 1.5791,-7.27343 1.5791,-10.95801 0,-3.68455 -0.5264,-7.32126 -1.5791,-10.91015 -1.0368,-3.58884 -2.6159,-7.21758 -4.7373,-10.88623"
       style="font-size:49px;stroke:#000000;stroke-width:1;font-family:Bravura"
       id="path3078" />
  </g>
  <g
     style="font-size:48px;stroke:#000000;stroke-width:1;font-family:Bravura"
     id="text16">
    <path
       d="m 240.41406,89.757812 0,4.03125 c -1.21877,-0.671853 -2.44533,-1.171852 -3.67969,-1.5 -1.21876,-0.343726 -2.45314,-0.515601 -3.70312,-0.515625 -2.79689,2.4e-5 -4.96876,0.890648 -6.51563,2.671875 -1.54688,1.765644 -2.32031,4.250017 -2.32031,7.453128 0,3.20313 0.77343,5.69532 2.32031,7.47656 1.54687,1.76563 3.71874,2.64844 6.51563,2.64844 1.24998,0 2.48436,-0.16406 3.70312,-0.49219 1.23436,-0.34375 2.46092,-0.85156 3.67969,-1.52344 l 0,3.98438 c -1.20314,0.5625 -2.45314,0.98437 -3.75,1.26562 -1.28127,0.28125 -2.64845,0.42188 -4.10156,0.42188 -3.95314,0 -7.09376,-1.24219 -9.42188,-3.72656 -2.32812,-2.48437 -3.49219,-5.83593 -3.49218,-10.05469 -1e-5,-4.281235 1.17187,-7.648419 3.51562,-10.101565 2.35937,-2.453099 5.58593,-3.679661 9.67969,-3.679688 1.32811,2.7e-5 2.62498,0.140652 3.89062,0.421875 1.26561,0.265652 2.49217,0.671901 3.67969,1.21875"
       style="font-size:48px;stroke:#000000;stroke-width:1;font-family:Bravura"
       id="path3081" />
    <path
       d="m 247.79687,78.53125 4.33594,0 0,21.53906 L 265,88.75 l 5.50781,0 -13.92187,12.28125 14.50781,13.96875 -5.625,0 -13.33594,-12.82031 0,12.82031 -4.33594,0 0,-36.46875"
       style="font-size:48px;stroke:#000000;stroke-width:1;font-family:Bravura"
       id="path3083" />
    <path
       d="m 293.07812,101.57031 c -2e-5,-3.124981 -0.64845,-5.546854 -1.94531,-7.265623 -1.28127,-1.718727 -3.08595,-2.578101 -5.41406,-2.578125 -2.31251,2.4e-5 -4.1172,0.859398 -5.41406,2.578125 -1.28126,1.718769 -1.92188,4.140642 -1.92188,7.265623 0,3.10939 0.64062,5.52345 1.92188,7.24219 1.29686,1.71875 3.10155,2.57813 5.41406,2.57813 2.32811,0 4.13279,-0.85938 5.41406,-2.57813 1.29686,-1.71874 1.94529,-4.1328 1.94531,-7.24219 m 4.3125,10.17188 c -2e-5,4.46875 -0.99221,7.78906 -2.97656,9.96094 -1.98439,2.18749 -5.02345,3.28124 -9.11719,3.28125 -1.51563,-1e-5 -2.94532,-0.1172 -4.28906,-0.35157 -1.34376,-0.21876 -2.64844,-0.56251 -3.91406,-1.03125 l 0,-4.19531 c 1.26562,0.68749 2.51562,1.19531 3.75,1.52344 1.23436,0.32812 2.49218,0.49218 3.77344,0.49219 2.82811,-1e-5 4.94529,-0.7422 6.35156,-2.22657 1.40623,-1.46875 2.10935,-3.69531 2.10937,-6.67968 l 0,-2.13282 c -0.89064,1.54688 -2.03126,2.70313 -3.42187,3.46875 -1.39064,0.76563 -3.0547,1.14844 -4.99219,1.14844 -3.21876,0 -5.81251,-1.22656 -7.78125,-3.67969 -1.96875,-2.45312 -2.95313,-5.70311 -2.95312,-9.75 -10e-6,-4.06248 0.98437,-7.320289 2.95312,-9.773435 1.96874,-2.453099 4.56249,-3.679661 7.78125,-3.679688 1.93749,2.7e-5 3.60155,0.38284 4.99219,1.148438 1.39061,0.76565 2.53123,1.921899 3.42187,3.46875 l 0,-3.984375 4.3125,0 0,22.99219"
       style="font-size:48px;stroke:#000000;stroke-width:1;font-family:Bravura"
       id="path3085" />
    <path
       d="m 321.48437,92.78125 c -0.48439,-0.281228 -1.01564,-0.484352 -1.59375,-0.609375 -0.56251,-0.140602 -1.18751,-0.210914 -1.875,-0.210938 -2.43751,2.4e-5 -4.31251,0.796898 -5.625,2.390625 -1.29688,1.578145 -1.94532,3.85158 -1.94531,6.820318 l 0,13.82812 -4.33594,0 0,-26.25 4.33594,0 0,4.078125 c 0.90624,-1.593726 2.08593,-2.773413 3.53906,-3.539063 1.45312,-0.781223 3.21874,-1.171848 5.29688,-1.171875 0.29686,2.7e-5 0.62498,0.02347 0.98437,0.07031 0.35936,0.03128 0.7578,0.08596 1.19532,0.164062 l 0.0234,4.429688"
       style="font-size:48px;stroke:#000000;stroke-width:1;font-family:Bravura"
       id="path3087" />
    <path
       d="m 335.19531,91.773437 c -2.31251,2.4e-5 -4.14063,0.906273 -5.48437,2.71875 -1.34376,1.796894 -2.01563,4.265642 -2.01563,7.406253 0,3.14063 0.66406,5.61719 1.99219,7.42969 1.34374,1.79687 3.17968,2.69531 5.50781,2.69531 2.29686,0 4.11717,-0.90625 5.46094,-2.71875 1.34373,-1.81249 2.0156,-4.28124 2.01562,-7.40625 -2e-5,-3.109361 -0.67189,-5.570296 -2.01562,-7.382815 -1.34377,-1.828103 -3.16408,-2.742164 -5.46094,-2.742188 m 0,-3.65625 c 3.74998,2.7e-5 6.69529,1.218776 8.83594,3.65625 2.1406,2.437521 3.21091,5.812518 3.21094,10.125003 -3e-5,4.29688 -1.07034,7.67188 -3.21094,10.125 -2.14065,2.4375 -5.08596,3.65625 -8.83594,3.65625 -3.76563,0 -6.71876,-1.21875 -8.85937,-3.65625 -2.12501,-2.45312 -3.18751,-5.82812 -3.1875,-10.125 -10e-6,-4.312485 1.06249,-7.687482 3.1875,-10.125003 2.14061,-2.437474 5.09374,-3.656223 8.85937,-3.65625"
       style="font-size:48px;stroke:#000000;stroke-width:1;font-family:Bravura"
       id="path3089" />
    <path
       d="m 353.92187,104.64063 0,-15.89063 4.3125,0 0,15.72656 c 0,2.48439 0.48437,4.35157 1.45313,5.60157 0.96874,1.23437 2.42186,1.85156 4.35937,1.85156 2.32811,0 4.16405,-0.74219 5.50782,-2.22656 1.35935,-1.48437 2.03904,-3.50781 2.03906,-6.07032 l 0,-14.88281 4.3125,0 0,26.25 -4.3125,0 0,-4.03125 c -1.0469,1.59375 -2.26564,2.78125 -3.65625,3.5625 -1.37502,0.76562 -2.97658,1.14844 -4.80469,1.14844 -3.01563,0 -5.30469,-0.9375 -6.86719,-2.8125 -1.5625,-1.875 -2.34375,-4.61718 -2.34375,-8.22656 m 10.85157,-16.523443 0,0"
       style="font-size:48px;stroke:#000000;stroke-width:1;font-family:Bravura"
       id="path3091" />
    <path
       d="m 406.65625,99.15625 0,15.84375 -4.3125,0 0,-15.703125 c -2e-5,-2.484357 -0.4844,-4.34373 -1.45313,-5.578125 -0.96876,-1.234352 -2.42189,-1.851539 -4.35937,-1.851563 -2.32814,2.4e-5 -4.16407,0.74221 -5.50781,2.226563 -1.34376,1.484394 -2.01564,3.50783 -2.01563,6.07031 l 0,14.83594 -4.33594,0 0,-26.25 4.33594,0 0,4.078125 c 1.03124,-1.578101 2.24218,-2.757788 3.63281,-3.539063 1.40624,-0.781223 3.02343,-1.171848 4.85157,-1.171875 3.0156,2.7e-5 5.29685,0.937526 6.84375,2.8125 1.54685,1.859398 2.32028,4.601582 2.32031,8.226563"
       style="font-size:48px;stroke:#000000;stroke-width:1;font-family:Bravura"
       id="path3093" />
    <path
       d="m 432.57812,92.734375 0,-14.203125 4.3125,0 0,36.46875 -4.3125,0 0,-3.9375 c -0.90627,1.5625 -2.0547,2.72656 -3.44531,3.49219 -1.37501,0.75 -3.03126,1.125 -4.96875,1.125 -3.17188,0 -5.75782,-1.26563 -7.75781,-3.79688 -1.98438,-2.53124 -2.97657,-5.85936 -2.97656,-9.98437 -10e-6,-4.124985 0.99218,-7.453107 2.97656,-9.984378 1.99999,-2.531224 4.58593,-3.796848 7.75781,-3.796875 1.93749,2.7e-5 3.59374,0.38284 4.96875,1.148438 1.39061,0.750025 2.53904,1.906274 3.44531,3.46875 m -14.69531,9.164065 c 0,3.17188 0.64843,5.66407 1.94531,7.47656 1.31249,1.79688 3.10937,2.69532 5.39063,2.69531 2.28123,10e-6 4.07811,-0.89843 5.39062,-2.69531 1.31248,-1.81249 1.96873,-4.30468 1.96875,-7.47656 -2e-5,-3.171861 -0.65627,-5.656234 -1.96875,-7.453128 -1.31251,-1.812477 -3.10939,-2.718726 -5.39062,-2.71875 -2.28126,2.4e-5 -4.07814,0.906273 -5.39063,2.71875 -1.29688,1.796894 -1.94531,4.281267 -1.94531,7.453128"
       style="font-size:48px;stroke:#000000;stroke-width:1;font-family:Bravura"
       id="path3095" />
    <path
       d="m 446.33594,93.203125 30.04687,0 0,3.9375 -30.04687,0 0,-3.9375 m 0,9.562505 30.04687,0 0,3.98437 -30.04687,0 0,-3.98437"
       style="font-size:48px;stroke:#000000;stroke-width:1;font-family:Bravura"
       id="path3097" />
    <path
       d="m 483.48437,88.75 4.3125,0 5.39063,20.48438 5.36719,-20.48438 5.08593,0 5.39063,20.48438 5.36719,-20.48438 4.3125,0 -6.86719,26.25 -5.08594,0 L 501.10937,93.484375 495.4375,115 l -5.08594,0 -6.86719,-26.25"
       style="font-size:48px;stroke:#000000;stroke-width:1;font-family:Bravura"
       id="path3099" />
    <path
       d="m 547.09375,99.15625 0,15.84375 -4.3125,0 0,-15.703125 c -2e-5,-2.484357 -0.4844,-4.34373 -1.45313,-5.578125 -0.96876,-1.234352 -2.42189,-1.851539 -4.35937,-1.851563 -2.32814,2.4e-5 -4.16407,0.74221 -5.50781,2.226563 -1.34376,1.484394 -2.01564,3.50783 -2.01563,6.07031 l 0,14.83594 -4.33594,0 0,-36.46875 4.33594,0 0,14.296875 c 1.03124,-1.578101 2.24218,-2.757788 3.63281,-3.539063 1.40624,-0.781223 3.02343,-1.171848 4.85157,-1.171875 3.0156,2.7e-5 5.29685,0.937526 6.84375,2.8125 1.54685,1.859398 2.32028,4.601582 2.32031,8.226563"
       style="font-size:48px;stroke:#000000;stroke-width:1;font-family:Bravura"
       id="path3101" />
    <path
       d="m 555.74219,88.75 4.3125,0 0,26.25 -4.3125,0 0,-26.25 m 0,-10.21875 4.3125,0 0,5.460937 -4.3125,0 0,-5.460937"
       style="font-size:48px;stroke:#000000;stroke-width:1;font-family:Bravura"
       id="path3103" />
    <path
       d="m 573.32031,81.296875 0,7.453125 8.88281,0 0,3.351562 -8.88281,0 0,14.249998 c -10e-6,2.14063 0.28906,3.51563 0.86719,4.125 0.59374,0.60938 1.78905,0.91407 3.58594,0.91407 l 4.42968,0 0,3.60937 -4.42968,0 c -3.32814,0 -5.62501,-0.61719 -6.89063,-1.85156 -1.26563,-1.25 -1.89844,-3.51562 -1.89844,-6.79688 l 0,-14.249998 -3.16406,0 0,-3.351562 3.16406,0 0,-7.453125 4.33594,0"
       style="font-size:48px;stroke:#000000;stroke-width:1;font-family:Bravura"
       id="path3105" />
    <path
       d="m 610.35156,100.79688 0,2.10937 -19.82812,0 c 0.18749,2.96876 1.07811,5.23438 2.67187,6.79688 1.60937,1.54687 3.84374,2.32031 6.70313,2.32031 1.65623,0 3.25779,-0.20312 4.80468,-0.60938 1.56248,-0.40624 3.10936,-1.01562 4.64063,-1.82812 l 0,4.07812 c -1.5469,0.65625 -3.13284,1.15625 -4.75781,1.5 -1.62502,0.34375 -3.27346,0.51563 -4.94532,0.51563 -4.18751,0 -7.50782,-1.21875 -9.96093,-3.65625 -2.43751,-2.4375 -3.65626,-5.73437 -3.65625,-9.89063 -1e-5,-4.296855 1.15624,-7.703102 3.46875,-10.218748 2.32811,-2.531224 5.46092,-3.796848 9.39843,-3.796875 3.53124,2.7e-5 6.3203,1.140651 8.36719,3.421875 2.06248,2.265647 3.09373,5.351581 3.09375,9.257818 m -4.3125,-1.26563 c -0.0313,-2.359357 -0.69533,-4.242168 -1.99219,-5.648438 -1.28126,-1.406227 -2.98439,-2.109351 -5.10937,-2.109375 -2.40626,2.4e-5 -4.33595,0.679711 -5.78906,2.039063 -1.43751,1.359395 -2.26564,3.273455 -2.48438,5.742187 l 15.375,-0.02344"
       style="font-size:48px;stroke:#000000;stroke-width:1;font-family:Bravura"
       id="path3107" />
  </g>
  <g
     style="font-size:49px;stroke:#000000;stroke-width:1;font-family:Bravura"
     id="text20">
    <path
       d="m 320.25098,116.27051 0,-14.49903 4.40234,0 0,37.22852 -4.40234,0 0,-4.01953 c -0.92515,1.59505 -2.09752,2.78337 -3.51709,3.56494 -1.40367,0.76562 -3.09442,1.14844 -5.07227,1.14844 -3.23797,0 -5.87777,-1.29199 -7.91943,-3.87598 -2.02572,-2.58398 -3.03858,-5.98144 -3.03858,-10.19238 0,-4.21092 1.01286,-7.60838 3.03858,-10.19238 2.04166,-2.58396 4.68146,-3.87595 7.91943,-3.87598 1.97785,3e-5 3.6686,0.39081 5.07227,1.17236 1.41957,0.76565 2.59194,1.94599 3.51709,3.54102 m -15.00147,9.35498 c -10e-6,3.23796 0.66194,5.78207 1.98584,7.63232 1.33983,1.83432 3.17414,2.75147 5.50293,2.75147 2.32876,0 4.16307,-0.91715 5.50293,-2.75147 1.33982,-1.85025 2.00974,-4.39436 2.00977,-7.63232 -3e-5,-3.23794 -0.66995,-5.77407 -2.00977,-7.6084 -1.33986,-1.85024 -3.17417,-2.77537 -5.50293,-2.77539 -2.32879,2e-5 -4.1631,0.92515 -5.50293,2.77539 -1.3239,1.83433 -1.98585,4.37046 -1.98584,7.6084"
       style="font-size:49px;stroke:#000000;stroke-width:1;font-family:Bravura"
       id="path3110" />
    <path
       d="m 345.89941,125.52979 c -3.55698,10e-6 -6.02133,0.40675 -7.39306,1.22021 -1.37176,0.81349 -2.05763,2.20118 -2.05762,4.16309 -1e-5,1.56315 0.51041,2.80729 1.53125,3.73242 1.03677,0.90918 2.44042,1.36377 4.21094,1.36377 2.44041,0 4.39435,-0.86133 5.86181,-2.58399 1.48338,-1.7386 2.22508,-4.04344 2.2251,-6.91455 l 0,-0.98095 -4.37842,0 m 8.78077,-1.81836 0,15.28857 -4.40235,0 0,-4.06738 c -1.0049,1.62695 -2.25702,2.83122 -3.75635,3.61279 -1.49936,0.76562 -3.33367,1.14844 -5.50293,1.14844 -2.74349,0 -4.92871,-0.76563 -6.55566,-2.29688 -1.61101,-1.54719 -2.41651,-3.61279 -2.4165,-6.19677 -10e-6,-3.01464 1.00488,-5.28759 3.01465,-6.81885 2.0257,-1.53124 5.04035,-2.29686 9.04394,-2.29688 l 6.17285,0 0,-0.43066 c -2e-5,-2.0257 -0.66994,-3.58885 -2.00976,-4.68945 -1.32391,-1.11652 -3.19012,-1.67479 -5.59864,-1.67481 -1.53126,2e-5 -3.02263,0.18346 -4.47412,0.55029 -1.4515,0.36689 -2.84717,0.91718 -4.18701,1.65088 l 0,-4.06738 c 1.611,-0.62204 3.17415,-1.08461 4.68945,-1.3877 1.51529,-0.31898 2.99071,-0.47848 4.42627,-0.47851 3.87596,3e-5 6.77098,1.00491 8.68506,3.01465 1.91404,2.00979 2.87107,5.05633 2.8711,9.13965"
       style="font-size:49px;stroke:#000000;stroke-width:1;font-family:Bravura"
       id="path3112" />
    <path
       d="m 368.12646,104.59473 0,7.6084 9.06788,0 0,3.42138 -9.06788,0 0,14.54688 c 0,2.18522 0.29508,3.58887 0.88526,4.21093 0.60611,0.62208 1.82632,0.93311 3.66064,0.93311 l 4.52198,0 0,3.68457 -4.52198,0 c -3.39747,0 -5.74219,-0.63004 -7.03418,-1.89014 -1.29199,-1.27604 -1.93799,-3.58886 -1.93798,-6.93847 l 0,-14.54688 -3.22999,0 0,-3.42138 3.22999,0 0,-7.6084 4.42626,0"
       style="font-size:49px;stroke:#000000;stroke-width:1;font-family:Bravura"
       id="path3114" />
  </g>
  <path
     d="M 301 228 L 115 710"
     id="id1" />
  <g
     style="font-size:252px;stroke:#000000;stroke-width:1;font-family:Bravura"
     id="text25">
    <path
       d="m 369.42747,389.46168 7.52328,2.90317 45.36208,-117.55118 -7.52328,-2.90318 -45.36208,117.55119"
       style=""
       id="path3117" />
  </g>
  <path
     style="fill:#ffffff;stroke:#000000;stroke-width:9"
     d="M 936,178 C 936,279.62039 853.62039,362 752,362 650.37961,362 568,279.62039 568,178 568,76.379606 650.37961,-6 752,-6 853.62039,-6 936,76.379606 936,178 z"
     id="circle29" />
</svg>
