<?xml version="1.0" encoding="UTF-8" standalone="no"?>
<?xml-stylesheet href="style.css" type="text/css" title="style" alternate="no" media="all"?><svg
   xmlns:dc="http://purl.org/dc/elements/1.1/"
   xmlns:cc="http://creativecommons.org/ns#"
   xmlns:rdf="http://www.w3.org/1999/02/22-rdf-syntax-ns#"
   xmlns:svg="http://www.w3.org/2000/svg"
   xmlns="http://www.w3.org/2000/svg"
   xmlns:xlink="http://www.w3.org/1999/xlink"
   xmlns:sodipodi="http://sodipodi.sourceforge.net/DTD/sodipodi-0.dtd"
   xmlns:inkscape="http://www.inkscape.org/namespaces/inkscape"
   height="600px"
   version="1.1"
   width="800px"
   id="svg2"
   inkscape:version="0.48.5 r10040"
   sodipodi:docname="imramma.svg">
  <metadata
     id="metadata32">
    <rdf:RDF>
      <cc:Work
         rdf:about="">
        <dc:format>image/svg+xml</dc:format>
        <dc:type
           rdf:resource="http://purl.org/dc/dcmitype/StillImage" />
      </cc:Work>
    </rdf:RDF>
  </metadata>
  <sodipodi:namedview
     pagecolor="#ffffff"
     bordercolor="#666666"
     borderopacity="1"
     objecttolerance="10"
     gridtolerance="10"
     guidetolerance="10"
     inkscape:pageopacity="0"
     inkscape:pageshadow="2"
     inkscape:window-width="434"
     inkscape:window-height="415"
     id="namedview30"
     showgrid="false"
     inkscape:zoom="0.295"
     inkscape:cx="400"
     inkscape:cy="300"
     inkscape:window-x="0"
     inkscape:window-y="27"
     inkscape:window-maximized="0"
     inkscape:current-layer="svg2" />
  <defs
     id="defs4">
    <style
       type="text/css"
       id="style6">@font-face {
  font-family: Bravura;
  src: local(&quot;Bravura Regular&quot;),
    local(&quot;BravuraRegular&quot;), 
    local(&quot;Bravura&quot;),
     url(Bravura.otf) format(&quot;opentype&quot;),
    url(Bravura.svg) format(&quot;svg&quot;);
}
</style>
  </defs>
  <image
     sodipodi:absref="/tmp/./data/Bravura.svg"
     xlink:href="./data/Bravura.svg"
     id="image8" />
  <path
     d="M 266 59 L  266 62 260 71 251 77 251 77 242 86 242 86 236 92 230 89 221 95 221 98 218 98 218 98 215 101 212 110 206 119 200 128 197 137 185 143 179 140 170 140 170 146 164 149 164 155 158 161 158 167 149 173 149 173 140 179 134 176 131 176 119 182 107 179 101 188 92 194 89 194 86 191 74 191 62 188 56 197 50 194 41 200 32 209 29 215 23 212 11 209 5 212 -7 212 -7 215 -7 218 -10 218 -22 224 -22 230 -31 239 -37 242 -40 239 -49 239 -61 236 -64 242 -73 248 -76 254 -76 263 -82 272 -85 272 -94 275 -100 272 -106 278 -118 281 -121 284 -133 293 -145 290 -157 290 -157 296 -160 299 -160 302 -163 311 -169 308 -178 305 -190 311 -199 314 -202 323 -211 329 -220 332 -223 329 -229 338 -238 338 -247 335 -247 341 -256 344 -259 344 -271 341 -277 344 -289 341"
     fill="white"
     stroke="black"
     stroke-width="5"
     id="path10" />
  <path
     d="M 694 376 L 516 636"
     id="id1" />
  <g
     style="font-size:247px;stroke:#000000;stroke-width:1;font-family:Bravura"
     id="text15">
    <path
       d="m 691.37395,444.54682 c 20.23229,-29.55277 20.35772,-56.40745 5.27561,-66.73289 -14.87829,-10.18591 -36.77719,-6.61917 -59.38154,26.39841 -24.83687,36.27858 -20.1539,56.54698 -4.66417,67.15149 15.69354,10.74404 44.67727,-6.23197 58.7701,-26.81701 m 2.04753,-32.72287 c 5.86666,7.60847 1.50821,16.59818 -3.23591,23.5278 -10.32544,15.0821 -35.00245,16.1482 -48.45406,6.93902 -1.42668,-0.97673 -2.71384,-2.15727 -3.79718,-3.19828 -4.80526,-4.78646 -6.44517,-10.6986 -4.10447,-17.17826 0.92343,-2.66053 2.25449,-5.042 3.78935,-7.28394 1.39533,-2.03812 2.85494,-3.7329 4.86171,-5.35243 3.73447,-2.83142 8.2842,-5.10471 13.02675,-6.34797 2.54295,-0.65377 5.28972,-1.168 8.10076,-1.33889 8.0255,-0.79173 17.93864,0.90619 24.86825,5.65031 1.83431,1.2558 3.52909,2.71541 4.9448,4.58264"
       style=""
       id="path3014" />
  </g>
  <path
     d="M 344 529 L 724 195"
     id="id2" />
  <g
     style="font-size:207px;stroke:#000000;stroke-width:1;font-family:Bravura"
     id="text22">
    <path
       d="m 324.58315,484.33338 c 0,0 -0.15057,2.3371 0.66938,3.26997 0.27331,0.31096 0.99424,0.50408 1.59734,0.24958 0.44761,-0.11783 0.91405,-0.52781 1.22501,-0.80112 1.24383,-1.09326 1.0458,-2.57277 1.0458,-2.57277 0,0 0.60718,-7.14794 0.7152,-11.10119 0.0941,-1.46068 0.44271,-2.31827 0.90914,-2.72824 0.62192,-0.54663 1.49833,-0.49017 2.04496,0.13175 0.13665,0.15548 0.11783,0.44761 0.25449,0.60309 l 14.42189,40.23793 c 1.39031,3.46308 -1.63417,9.42856 -3.96635,11.47843 -0.77739,0.68328 -1.74791,2.08751 -0.98442,3.89679 -0.0188,0.29213 0.25449,0.60309 0.39115,0.75857 0.54663,0.62191 1.734,0.40506 2.82235,-0.55154 l 24.72113,-21.72858 c 1.86575,-1.63989 0.98443,-3.89679 0.98443,-3.89679 0,0 -0.11784,-0.44761 -0.39115,-0.75857 -0.40997,-0.46644 -1.26756,-0.81504 -2.20044,0.005 -1.3993,1.22992 -3.71758,0.78721 -5.08415,-0.76758 -0.40998,-0.46643 -0.52781,-0.91405 -0.78231,-1.51714 0,0 -23.54113,-60.33316 -24.55911,-62.74553 -0.25449,-0.6031 -0.50899,-1.20619 -0.7823,-1.51715 -0.68329,-0.77739 -1.71518,-0.6972 -2.80353,0.2594 l -0.77739,0.68329 c -1.71027,1.50324 -3.76914,3.86406 -5.01297,4.95732 -2.33218,2.04987 -4.49007,3.67094 -6.18151,4.88204 -1.71027,1.50323 -1.66772,3.1194 -1.62516,4.73556 0,0 -0.0188,0.29217 3.34852,34.53757"
       style=""
       id="path3017" />
  </g>
  <path
     style="fill:#ff0000;stroke:#000000;stroke-width:3"
     d="m 437,159 c 0,93.33612 -75.66388,169 -169,169 -93.33612,0 -169,-75.66388 -169,-169 0,-93.336123 75.66388,-169 169,-169 93.33612,0 169,75.663877 169,169 z"
     id="circle26" />
  <path
     style="stroke:#000000;stroke-width:12"
     d="M 689,554 507,316"
     id="line28" />
</svg>
