<?xml version="1.0" encoding="UTF-8" standalone="no"?>
<?xml-stylesheet href="style.css" type="text/css" title="style" alternate="no" media="all"?><svg
   xmlns:dc="http://purl.org/dc/elements/1.1/"
   xmlns:cc="http://creativecommons.org/ns#"
   xmlns:rdf="http://www.w3.org/1999/02/22-rdf-syntax-ns#"
   xmlns:svg="http://www.w3.org/2000/svg"
   xmlns="http://www.w3.org/2000/svg"
   xmlns:xlink="http://www.w3.org/1999/xlink"
   xmlns:sodipodi="http://sodipodi.sourceforge.net/DTD/sodipodi-0.dtd"
   xmlns:inkscape="http://www.inkscape.org/namespaces/inkscape"
   height="600px"
   version="1.1"
   width="800px"
   id="svg2"
   inkscape:version="0.48.5 r10040"
   sodipodi:docname="imramma.svg">
  <metadata
     id="metadata105">
    <rdf:RDF>
      <cc:Work
         rdf:about="">
        <dc:format>image/svg+xml</dc:format>
        <dc:type
           rdf:resource="http://purl.org/dc/dcmitype/StillImage" />
      </cc:Work>
    </rdf:RDF>
  </metadata>
  <sodipodi:namedview
     pagecolor="#ffffff"
     bordercolor="#666666"
     borderopacity="1"
     objecttolerance="10"
     gridtolerance="10"
     guidetolerance="10"
     inkscape:pageopacity="0"
     inkscape:pageshadow="2"
     inkscape:window-width="434"
     inkscape:window-height="415"
     id="namedview103"
     showgrid="false"
     inkscape:zoom="0.295"
     inkscape:cx="400"
     inkscape:cy="300"
     inkscape:window-x="0"
     inkscape:window-y="27"
     inkscape:window-maximized="0"
     inkscape:current-layer="svg2" />
  <defs
     id="defs4">
    <style
       type="text/css"
       id="style6">@font-face {
  font-family: Bravura;
  src: local(&quot;Bravura Regular&quot;),
    local(&quot;BravuraRegular&quot;), 
    local(&quot;Bravura&quot;),
     url(Bravura.otf) format(&quot;opentype&quot;),
    url(Bravura.svg) format(&quot;svg&quot;);
}
</style>
  </defs>
  <image
     sodipodi:absref="/tmp/./data/Bravura.svg"
     xlink:href="./data/Bravura.svg"
     id="image8" />
  <g
     style="font-size:41px;stroke:#000000;stroke-width:1;font-family:Bravura"
     id="text12">
    <path
       d="m 570.50195,223.4668 0,13.5332 -3.68359,0 0,-13.41309 c -2e-5,-2.12205 -0.41376,-3.71027 -1.24121,-4.76464 -0.82749,-1.05435 -2.0687,-1.58153 -3.72363,-1.58155 -1.98862,2e-5 -3.55682,0.63397 -4.70459,1.90186 -1.1478,1.26792 -1.72169,2.99627 -1.72168,5.18506 l 0,12.67236 -3.70362,0 0,-22.42188 3.70362,0 0,3.4834 c 0.88085,-1.34796 1.91519,-2.35561 3.10302,-3.02295 1.20116,-0.66729 2.58251,-1.00095 4.14405,-1.00097 2.57583,2e-5 4.52439,0.8008 5.8457,2.40234 1.32127,1.58824 1.98191,3.93052 1.98193,7.02686"
       style="font-size:41px;stroke:#000000;stroke-width:1;font-family:Bravura"
       id="path3097" />
    <path
       d="m 581.53271,208.21191 0,6.36621 7.58741,0 0,2.8628 -7.58741,0 0,12.17187 c 0,1.82846 0.2469,3.00294 0.74073,3.52344 0.50715,0.52051 1.52815,0.78077 3.06299,0.78076 l 3.78369,0 0,3.08301 -3.78369,0 c -2.84279,0 -4.8047,-0.52718 -5.88575,-1.58154 -1.08106,-1.06771 -1.62158,-3.00293 -1.62158,-5.80567 l 0,-12.17187 -2.70264,0 0,-2.8628 2.70264,0 0,-6.36621 3.70361,0"
       style="font-size:41px;stroke:#000000;stroke-width:1;font-family:Bravura"
       id="path3099" />
    <path
       d="m 611.02148,243.80664 0,2.86279 -21.30078,0 0,-2.86279 21.30078,0"
       style="font-size:41px;stroke:#000000;stroke-width:1;font-family:Bravura"
       id="path3101" />
    <path
       d="m 614.10449,228.15137 0,-13.57325 3.6836,0 0,13.43311 c -10e-6,2.12208 0.41373,3.71697 1.24121,4.78467 0.82746,1.05436 2.06867,1.58154 3.72363,1.58154 1.98859,0 3.55679,-0.63395 4.70459,-1.90185 1.16111,-1.2679 1.74168,-2.99625 1.7417,-5.18506 l 0,-12.71241 3.68359,0 0,22.42188 -3.68359,0 0,-3.44336 c -0.89422,1.36133 -1.93524,2.37565 -3.12305,3.04297 -1.17449,0.65397 -2.54249,0.98096 -4.104,0.98096 -2.57586,0 -4.5311,-0.80078 -5.86572,-2.40235 -1.33464,-1.60156 -2.00196,-3.94384 -2.00196,-7.02685 m 9.26905,-14.11377 0,0"
       style="font-size:41px;stroke:#000000;stroke-width:1;font-family:Bravura"
       id="path3103" />
    <path
       d="m 659.14844,223.4668 0,13.5332 -3.6836,0 0,-13.41309 c -2e-5,-2.12205 -0.41375,-3.71027 -1.24121,-4.76464 -0.82749,-1.05435 -2.0687,-1.58153 -3.72363,-1.58155 -1.98862,2e-5 -3.55681,0.63397 -4.70459,1.90186 -1.14779,1.26792 -1.72169,2.99627 -1.72168,5.18506 l 0,12.67236 -3.70361,0 0,-22.42188 3.70361,0 0,3.4834 c 0.88085,-1.34796 1.91519,-2.35561 3.10303,-3.02295 1.20116,-0.66729 2.5825,-1.00095 4.14404,-1.00097 2.57583,2e-5 4.5244,0.8008 5.8457,2.40234 1.32127,1.58824 1.98191,3.93052 1.98194,7.02686"
       style="font-size:41px;stroke:#000000;stroke-width:1;font-family:Bravura"
       id="path3105" />
    <path
       d="m 666.53564,214.57812 3.6836,0 0,22.42188 -3.6836,0 0,-22.42188 m 0,-8.72851 3.6836,0 0,4.66455 -3.6836,0 0,-4.66455"
       style="font-size:41px;stroke:#000000;stroke-width:1;font-family:Bravura"
       id="path3107" />
    <path
       d="m 694.04248,215.43896 0,3.44336 c -1.04103,-0.57387 -2.08872,-1.00095 -3.14307,-1.28125 -1.04103,-0.2936 -2.09539,-0.44041 -3.16308,-0.44043 -2.38901,2e-5 -4.24415,0.76077 -5.56543,2.28223 -1.3213,1.50816 -1.98194,3.63022 -1.98194,6.36621 0,2.73601 0.66064,4.86475 1.98194,6.38623 1.32128,1.50814 3.17642,2.26221 5.56543,2.26221 1.06769,0 2.12205,-0.14013 3.16308,-0.42041 1.05435,-0.29362 2.10204,-0.72737 3.14307,-1.30127 l 0,3.40332 c -1.02769,0.48047 -2.0954,0.84082 -3.20312,1.08105 -1.09442,0.24024 -2.26223,0.36036 -3.50342,0.36036 -3.37664,0 -6.05925,-1.06104 -8.04785,-3.18311 -1.98861,-2.12206 -2.98292,-4.98485 -2.98291,-8.58838 -10e-6,-3.65688 1.00097,-6.53302 3.00293,-8.62842 2.01529,-2.09535 4.77131,-3.14304 8.26806,-3.14306 1.13443,2e-5 2.24217,0.12014 3.32324,0.36035 1.08104,0.22691 2.12873,0.57391 3.14307,1.04101"
       style="font-size:41px;stroke:#000000;stroke-width:1;font-family:Bravura"
       id="path3109" />
    <path
       d="m 709.17725,217.16064 c -1.97527,2e-5 -3.5368,0.77411 -4.68457,2.32227 -1.1478,1.53485 -1.72169,3.64357 -1.72168,6.32617 -10e-6,2.68263 0.56721,4.79802 1.70166,6.34619 1.14777,1.53484 2.71597,2.30225 4.70459,2.30225 1.9619,0 3.51674,-0.77409 4.66455,-2.32227 1.14776,-1.54817 1.72166,-3.65689 1.72168,-6.32617 -2e-5,-2.65591 -0.57392,-4.75796 -1.72168,-6.30615 -1.14781,-1.5615 -2.70265,-2.34227 -4.66455,-2.34229 m 0,-3.12304 c 3.20311,2e-5 5.71889,1.04104 7.54736,3.12304 1.82843,2.08205 2.74265,4.96486 2.74268,8.64844 -3e-5,3.67026 -0.91425,6.55307 -2.74268,8.64844 -1.82847,2.08203 -4.34425,3.12305 -7.54736,3.12305 -3.21648,0 -5.73894,-1.04102 -7.56739,-3.12305 -1.8151,-2.09537 -2.72266,-4.97818 -2.72265,-8.64844 -10e-6,-3.68358 0.90755,-6.56639 2.72265,-8.64844 1.82845,-2.082 4.35091,-3.12302 7.56739,-3.12304"
       style="font-size:41px;stroke:#000000;stroke-width:1;font-family:Bravura"
       id="path3111" />
    <path
       d="m 740.30762,217.98145 0,-12.13184 3.68359,0 0,31.15039 -3.68359,0 0,-3.36328 c -0.77411,1.33464 -1.75507,2.32894 -2.94287,2.98291 -1.1745,0.64062 -2.58921,0.96094 -4.24414,0.96094 -2.70932,0 -4.91814,-1.08106 -6.62647,-3.24317 -1.69499,-2.1621 -2.54248,-5.00487 -2.54248,-8.52832 0,-3.52342 0.84749,-6.36619 2.54248,-8.52832 1.70833,-2.16209 3.91715,-3.24314 6.62647,-3.24316 1.65493,2e-5 3.06964,0.32701 4.24414,0.98095 1.1878,0.64065 2.16876,1.62828 2.94287,2.9629 m -12.55225,7.82763 c 0,2.70932 0.55387,4.83806 1.66162,6.38623 1.12109,1.53484 2.65592,2.30225 4.60449,2.30225 1.94856,0 3.48339,-0.76741 4.6045,-2.30225 1.12107,-1.54817 1.68162,-3.67691 1.68164,-6.38623 -2e-5,-2.70929 -0.56057,-4.83136 -1.68164,-6.36621 -1.12111,-1.54816 -2.65594,-2.32224 -4.6045,-2.32226 -1.94857,2e-5 -3.4834,0.7741 -4.60449,2.32226 -1.10775,1.53485 -1.66162,3.65692 -1.66162,6.36621"
       style="font-size:41px;stroke:#000000;stroke-width:1;font-family:Bravura"
       id="path3113" />
    <path
       d="m 770.75732,224.86816 0,1.80176 -16.93652,0 c 0.16015,2.53582 0.92089,4.47104 2.28223,5.80567 1.37466,1.32129 3.28319,1.98193 5.72558,1.98193 1.4147,0 2.7827,-0.1735 4.10401,-0.52051 1.33461,-0.347 2.6559,-0.86751 3.96386,-1.56152 l 0,3.4834 c -1.32131,0.56054 -2.67596,0.98763 -4.06396,1.28125 -1.38804,0.29362 -2.79608,0.44043 -4.22412,0.44043 -3.57683,0 -6.41293,-1.04102 -8.5083,-3.12305 -2.08204,-2.08203 -3.12305,-4.89811 -3.12305,-8.44824 0,-3.67024 0.98763,-6.57974 2.96289,-8.72852 1.9886,-2.16209 4.66454,-3.24314 8.02783,-3.24316 3.01626,2e-5 5.39859,0.9743 7.14698,2.92285 1.76169,1.93524 2.64255,4.57114 2.64257,7.90771 m -3.68359,-1.08105 c -0.0267,-2.01528 -0.59393,-3.62352 -1.70166,-4.82471 -1.09442,-1.20115 -2.54917,-1.80174 -4.36426,-1.80176 -2.05535,2e-5 -3.70362,0.58059 -4.94482,1.7417 -1.22787,1.16115 -1.93523,2.79608 -2.12207,4.90479 l 13.13281,-0.02"
       style="font-size:41px;stroke:#000000;stroke-width:1;font-family:Bravura"
       id="path3115" />
    <path
       d="m 777.74414,231.91504 4.22412,0 0,5.08496 -4.22412,0 0,-5.08496 m 0,-16.11572 4.22412,0 0,5.08496 -4.22412,0 0,-5.08496"
       style="font-size:41px;stroke:#000000;stroke-width:1;font-family:Bravura"
       id="path3117" />
  </g>
  <g
     style="font-size:40px;stroke:#000000;stroke-width:1;font-family:Bravura"
     id="text16">
    <path
       d="m 176.48047,224.16406 0,1.75781 -16.52344,0 c 0.15625,2.47397 0.89843,4.36199 2.22656,5.66407 1.34114,1.28906 3.20312,1.93359 5.58594,1.93359 1.38019,0 2.71483,-0.16927 4.00391,-0.50781 1.30206,-0.33854 2.59112,-0.84635 3.86718,-1.52344 l 0,3.39844 c -1.28908,0.54687 -2.61069,0.96354 -3.96484,1.25 -1.35418,0.28646 -2.72788,0.42969 -4.12109,0.42969 -3.4896,0 -6.25652,-1.01563 -8.30078,-3.04688 -2.03126,-2.03124 -3.04688,-4.77864 -3.04688,-8.24219 0,-3.58071 0.96354,-6.41925 2.89063,-8.51562 1.94009,-2.10935 4.55077,-3.16404 7.83203,-3.16406 2.94269,2e-5 5.26691,0.95054 6.97265,2.85156 1.71873,1.88804 2.57811,4.45965 2.57813,7.71484 m -3.59375,-1.05469 c -0.0261,-1.96613 -0.57945,-3.53513 -1.66016,-4.70703 -1.06772,-1.17185 -2.48699,-1.75779 -4.25781,-1.75781 -2.00522,2e-5 -3.61329,0.56643 -4.82422,1.69922 -1.19792,1.13283 -1.88803,2.72788 -2.07031,4.78516 l 12.8125,-0.0195"
       style="font-size:40px;stroke:#000000;stroke-width:1;font-family:Bravura"
       id="path3120" />
    <path
       d="m 196.32422,214.76953 0,3.39844 c -1.01564,-0.52082 -2.07033,-0.91144 -3.16406,-1.17188 -1.09377,-0.26039 -2.22658,-0.3906 -3.39844,-0.39062 -1.78386,2e-5 -3.12501,0.27346 -4.02344,0.82031 -0.88542,0.54689 -1.32813,1.36721 -1.32812,2.46094 -1e-5,0.83335 0.319,1.4909 0.95703,1.97265 0.63801,0.46877 1.92056,0.91799 3.84765,1.34766 l 1.23047,0.27344 c 2.55207,0.54689 4.36197,1.32162 5.42969,2.32422 1.08071,0.98959 1.62107,2.37631 1.62109,4.16015 -2e-5,2.03126 -0.80731,3.63933 -2.42187,4.82422 -1.60158,1.1849 -3.80861,1.77735 -6.6211,1.77735 -1.17188,0 -2.39584,-0.11719 -3.67187,-0.35157 -1.26303,-0.22135 -2.59766,-0.55989 -4.00391,-1.01562 l 0,-3.71094 c 1.32813,0.69011 2.63672,1.21094 3.92578,1.5625 1.28906,0.33855 2.5651,0.50782 3.82813,0.50781 1.6927,1e-5 2.99478,-0.28645 3.90625,-0.85937 0.91144,-0.58593 1.36717,-1.40625 1.36719,-2.46094 -2e-5,-0.97655 -0.33205,-1.72525 -0.9961,-2.24609 -0.65105,-0.52083 -2.08985,-1.02213 -4.3164,-1.50391 l -1.25,-0.29297 c -2.22657,-0.46874 -3.83464,-1.18488 -4.82422,-2.14844 -0.98959,-0.97654 -1.48438,-2.31118 -1.48438,-4.0039 0,-2.05727 0.72917,-3.64581 2.1875,-4.76563 1.45833,-1.11977 3.52864,-1.67966 6.21094,-1.67968 1.32811,2e-5 2.57811,0.0977 3.75,0.29296 1.17186,0.19534 2.25259,0.48831 3.24219,0.87891"
       style="font-size:40px;stroke:#000000;stroke-width:1;font-family:Bravura"
       id="path3122" />
    <path
       d="m 216.44141,217.83594 25.03906,0 0,3.28125 -25.03906,0 0,-3.28125 m 0,7.96875 25.03906,0 0,3.32031 -25.03906,0 0,-3.32031"
       style="font-size:40px;stroke:#000000;stroke-width:1;font-family:Bravura"
       id="path3124" />
    <path
       d="m 261.85156,227.36719 0,-13.24219 3.59375,0 0,13.10547 c 0,2.07032 0.40364,3.62631 1.21094,4.66797 0.80728,1.02865 2.01822,1.54297 3.63281,1.54297 1.94009,0 3.47004,-0.61849 4.58985,-1.85547 1.13279,-1.23698 1.6992,-2.92317 1.69921,-5.0586 l 0,-12.40234 3.59375,0 0,21.875 -3.59375,0 0,-3.35938 c -0.87241,1.32813 -1.88803,2.31771 -3.04687,2.96875 -1.14585,0.63803 -2.48048,0.95704 -4.00391,0.95704 -2.51303,0 -4.42058,-0.78125 -5.72265,-2.34375 -1.30209,-1.5625 -1.95313,-3.84765 -1.95313,-6.85547 m 9.04297,-13.76953 0,0"
       style="font-size:40px;stroke:#000000;stroke-width:1;font-family:Bravura"
       id="path3126" />
    <path
       d="m 291.01172,206.83984 0,10.83985 -3.32031,0 0,-10.83985 3.32031,0 m 7.38281,0 0,10.83985 -3.32031,0 0,-10.83985 3.32031,0"
       style="font-size:40px;stroke:#000000;stroke-width:1;font-family:Bravura"
       id="path3128" />
    <path
       d="m 309.44922,206.83984 0,10.83985 -3.32031,0 0,-10.83985 3.32031,0 m 7.38281,0 0,10.83985 -3.32031,0 0,-10.83985 3.32031,0"
       style="font-size:40px;stroke:#000000;stroke-width:1;font-family:Bravura"
       id="path3130" />
  </g>
  <path
     d="M 149 213 L 240 349"
     id="id1" />
  <g
     style="font-size:42px;stroke:#000000;stroke-width:1;font-family:Bravura"
     id="text21">
    <path
       d="m 174.76059,216.53969 c -0.0312,-0.48911 -0.14197,-0.97429 -0.33236,-1.45553 -0.17147,-0.47749 -0.42446,-0.96622 -0.75897,-1.46618 -1.1861,-1.7726 -2.67797,-2.74838 -4.47561,-2.92735 -1.77872,-0.1752 -3.74753,0.45949 -5.90645,1.90407 l -10.0561,6.72871 -2.10985,-3.15318 19.08954,-12.77315 2.10985,3.15318 -2.9657,1.9844 c 1.59996,-0.11646 3.03189,0.1674 4.29577,0.85159 1.2752,0.67659 2.41842,1.77051 3.42965,3.28176 0.14443,0.2159 0.28705,0.46592 0.42786,0.75008 0.15212,0.27655 0.30623,0.59291 0.46233,0.94908 l -3.20996,2.17252"
       style=""
       id="path3133" />
    <path
       d="m 181.57916,239.3421 -1.53398,1.02641 -9.64829,-14.41941 c -2.0677,1.58093 -3.28194,3.33105 -3.6427,5.25037 -0.34181,1.92307 0.18297,3.9243 1.57434,6.0037 0.80591,1.20445 1.73294,2.2703 2.78109,3.19755 1.05572,0.93859 2.25158,1.76699 3.58756,2.4852 l -2.9657,1.9844 c -1.22995,-0.80561 -2.36527,-1.71564 -3.40596,-2.73009 -1.04071,-1.01448 -1.96782,-2.12962 -2.78134,-3.34543 -2.03763,-3.04524 -2.76698,-6.05288 -2.18806,-9.02291 0.58652,-2.95868 2.39103,-5.44922 5.41355,-7.47164 3.12476,-2.09083 6.16448,-2.90745 9.11916,-2.44985 2.97361,0.46137 5.41841,2.12376 7.33441,4.98719 1.71826,2.56799 2.24592,5.15128 1.58298,7.74986 -0.64403,2.60232 -2.38638,4.85387 -5.22706,6.75465 m -1.17806,-3.75199 c 1.70056,-1.17079 2.74665,-2.56988 3.13827,-4.19726 0.39918,-1.61603 0.0818,-3.19672 -0.95222,-4.74206 -1.17089,-1.74987 -2.60415,-2.82244 -4.29978,-3.21772 -1.68807,-0.38391 -3.48297,-0.0548 -5.38472,0.98743 l 7.49845,11.16961"
       style=""
       id="path3135" />
    <path
       d="m 201.27977,238.10288 -5.42006,3.62666 4.32234,6.45976 -2.43732,1.63086 -4.32234,-6.45976 -10.36289,6.93399 c -1.55672,1.04162 -2.41599,1.9209 -2.57782,2.63784 -0.15424,0.72831 0.20582,1.74582 1.08018,3.05255 l 2.15547,3.22136 -2.62481,1.75631 -2.15547,-3.22136 c -1.61946,-2.42029 -2.28828,-4.39094 -2.00646,-5.91197 0.29318,-1.52863 1.63286,-3.09127 4.01906,-4.68791 l 10.36289,-6.93399 -1.53962,-2.30097 2.43732,-1.63086 1.53962,2.30097 5.42006,-3.62666 2.10985,3.15318"
       style=""
       id="path3137" />
    <path
       d="m 191.1807,259.73953 11.55598,-7.73231 2.09845,3.13614 -11.43668,7.65248 c -1.8067,1.20888 -2.92886,2.46969 -3.36648,3.78244 -0.42628,1.30513 -0.16803,2.66219 0.77476,4.07119 1.13284,1.69305 2.56593,2.66703 4.29928,2.92195 1.74092,0.26627 3.54313,-0.22405 5.40665,-1.47094 l 10.82309,-7.24191 2.09844,3.13613 -19.08953,12.77315 -2.09845,-3.13614 2.93161,-1.96159 c -1.66843,0.0142 -3.12504,-0.29428 -4.36984,-0.9254 -1.22586,-0.62739 -2.28356,-1.60581 -3.17311,-2.93524 -1.46739,-2.19304 -1.89947,-4.31387 -1.29624,-6.36251 0.60323,-2.04865 2.21725,-3.95113 4.84207,-5.70744 m 17.2965,-0.14876 0,0"
       style=""
       id="path3139" />
    <path
       d="m 222.24932,287.51185 c -0.0312,-0.4891 -0.14198,-0.97428 -0.33237,-1.45552 -0.17147,-0.47749 -0.42446,-0.96622 -0.75896,-1.46618 -1.18611,-1.7726 -2.67798,-2.74838 -4.47562,-2.92735 -1.77872,-0.1752 -3.74753,0.45949 -5.90645,1.90407 l -10.05609,6.72871 -2.10985,-3.15319 19.08953,-12.77314 2.10985,3.15318 -2.96569,1.9844 c 1.59996,-0.11646 3.03188,0.1674 4.29577,0.85159 1.2752,0.67659 2.41841,1.77051 3.42965,3.28176 0.14443,0.2159 0.28705,0.46592 0.42786,0.75007 0.15211,0.27655 0.30622,0.59292 0.46232,0.94909 l -3.20995,2.17251"
       style=""
       id="path3141" />
    <path
       d="m 230.04429,309.1921 -11.5219,7.70951 -2.09844,-3.13614 11.41963,-7.64108 c 1.80666,-1.20889 2.92314,-2.4659 3.34944,-3.77103 0.42624,-1.30514 0.16799,-2.6622 -0.77476,-4.07119 -1.13288,-1.69306 -2.56597,-2.66704 -4.29928,-2.92196 -1.73335,-0.25491 -3.53177,0.24109 -5.39525,1.48799 l -10.789,7.2191 -2.10985,-3.15318 19.08954,-12.77314 2.10985,3.15318 -2.9657,1.9844 c 1.64942,-0.018 3.09655,0.28863 4.34139,0.91976 1.25239,0.64251 2.32338,1.62848 3.21296,2.95793 1.46736,2.19302 1.89564,4.30817 1.28484,6.34546 -0.5995,2.02968 -2.21733,3.92647 -4.85347,5.69039"
       style=""
       id="path3143" />
    <path
       d="m 251.42088,343.72094 -1.53398,1.02642 -9.64829,-14.41942 c -2.0677,1.58094 -3.28194,3.33106 -3.6427,5.25037 -0.34181,1.92307 0.18297,3.9243 1.57434,6.00371 0.80591,1.20444 1.73294,2.27029 2.78109,3.19754 1.05572,0.93859 2.25158,1.76699 3.58756,2.4852 l -2.9657,1.9844 c -1.22995,-0.80561 -2.36527,-1.71563 -3.40596,-2.73008 -1.04071,-1.01448 -1.96782,-2.12962 -2.78134,-3.34543 -2.03763,-3.04525 -2.76698,-6.05288 -2.18805,-9.02292 0.58651,-2.95867 2.39103,-5.44922 5.41354,-7.47163 3.12476,-2.09084 6.16448,-2.90746 9.11916,-2.44986 2.97361,0.46137 5.41841,2.12377 7.33441,4.98719 1.71826,2.568 2.24592,5.15128 1.58298,7.74986 -0.64403,2.60233 -2.38638,4.85388 -5.22706,6.75465 m -1.17806,-3.75198 c 1.70056,-1.1708 2.74665,-2.56989 3.13827,-4.19727 0.39918,-1.61603 0.0818,-3.19671 -0.95222,-4.74205 -1.17089,-1.74988 -2.60415,-2.82245 -4.29978,-3.21773 -1.68807,-0.38391 -3.48297,-0.0548 -5.38472,0.98744 l 7.49845,11.16961"
       style=""
       id="path3145" />
    <path
       d="m 186.43652,-22.291992 0,3.568359 c -1.06642,-0.546856 -2.17384,-0.957011 -3.32226,-1.230469 -1.14845,-0.273417 -2.33791,-0.410135 -3.56836,-0.410156 -1.87306,2.1e-5 -3.28126,0.28713 -4.22461,0.861328 -0.92969,0.574238 -1.39454,1.435565 -1.39453,2.583985 -1e-5,0.875016 0.33495,1.565445 1.00488,2.071289 0.66991,0.492202 2.01659,0.963881 4.04004,1.415039 l 1.29199,0.287109 c 2.67967,0.574232 4.58006,1.387707 5.70117,2.44043 1.13475,1.039072 1.70213,2.4951253 1.70215,4.3681639 -2e-5,2.1328167 -0.84767,3.8212916 -2.54297,5.0654297 -1.68165,1.24414068 -3.99903,1.86621037 -6.95215,1.86621096 -1.23047,-5.9e-7 -2.51563,-0.12304734 -3.85546,-0.36914062 -1.32618,-0.23242187 -2.72755,-0.58789027 -4.20411,-1.06640625 l 0,-3.89648439 c 1.39453,0.7246134 2.76855,1.2714879 4.12207,1.640625 1.35351,0.3554715 2.69336,0.5332057 4.01954,0.5332031 1.77733,2.6e-6 3.14451,-0.3007783 4.10156,-0.9023437 0.95701,-0.6152303 1.43553,-1.4765576 1.43555,-2.5839844 -2e-5,-1.0253835 -0.34865,-1.8115156 -1.0459,-2.3583984 -0.68361,-0.5468661 -2.19435,-1.0732327 -4.53223,-1.5791016 l -1.3125,-0.3076173 c -2.3379,-0.492177 -4.02637,-1.244129 -5.06543,-2.255859 -1.03906,-1.025377 -1.5586,-2.426743 -1.55859,-4.204102 -10e-6,-2.160137 0.76562,-3.828104 2.29687,-5.003906 1.53125,-1.175758 3.70507,-1.763648 6.52149,-1.763672 1.39452,2.4e-5 2.70701,0.102563 3.9375,0.307617 1.23045,0.205101 2.36521,0.512718 3.40429,0.922852"
       style=""
       id="path3147" />
    <path
       d="m 194.22949,-5.2089844 4.32715,0 0,5.2089844 -4.32715,0 0,-5.2089844"
       style=""
       id="path3149" />
    <path
       d="m 207.06738,-22.96875 3.77344,0 0,23.37890625 c -1e-5,2.92577795 -0.56055,5.04491645 -1.68164,6.35742185 -1.10743,1.3124919 -2.89844,1.9687413 -5.37305,1.96875 l -1.43554,0 0,-3.1992187 1.00488,0 c 1.43554,-5.6e-6 2.41308,-0.3349662 2.93262,-1.0048828 0.51952,-0.6562539 0.77929,-2.030276 0.77929,-4.12207035 l 0,-23.37890625 m 0,-8.941406 3.77344,0 0,4.77832 -3.77344,0 0,-4.77832"
       style=""
       id="path3151" />
    <path
       d="m 227.61621,-20.323242 c -2.02345,2e-5 -3.62306,0.792988 -4.79883,2.378906 -1.17579,1.572282 -1.76368,3.732436 -1.76367,6.480469 -1e-5,2.7480554 0.58105,4.9150454 1.74316,6.5009764 1.17578,1.572269 2.78222,2.358401 4.81934,2.3583984 2.00975,2.6e-6 3.60252,-0.7929653 4.77832,-2.3789062 1.17576,-1.585931 1.76365,-3.7460851 1.76367,-6.4804686 -2e-5,-2.720689 -0.58791,-4.874007 -1.76367,-6.459961 -1.1758,-1.59959 -2.76857,-2.399394 -4.77832,-2.399414 m 0,-3.199219 c 3.28123,2.4e-5 5.85838,1.066429 7.73145,3.199219 1.87302,2.132831 2.80954,5.085953 2.80957,8.859375 -3e-5,3.7597731 -0.93655,6.7128952 -2.80957,8.8593748 -1.87307,2.13281298 -4.45022,3.19921817 -7.73145,3.19921876 -3.29493,-5.9e-7 -5.87891,-1.06640578 -7.75195,-3.19921876 -1.85938,-2.1464796 -2.78907,-5.0996017 -2.78906,-8.8593748 -1e-5,-3.773422 0.92968,-6.726544 2.78906,-8.859375 1.87304,-2.13279 4.45702,-3.199195 7.75195,-3.199219"
       style=""
       id="path3153" />
    <path
       d="m 244.3916,-22.96875 3.77344,0 0,22.96875 -3.77344,0 0,-22.96875 m 0,-8.941406 3.77344,0 0,4.77832 -3.77344,0 0,-4.77832"
       style=""
       id="path3155" />
    <path
       d="m 275.13281,-13.863281 0,13.863281 -3.77344,0 0,-13.740234 c -1e-5,-2.173813 -0.42384,-3.800764 -1.27148,-4.88086 -0.84767,-1.080058 -2.11916,-1.620097 -3.81445,-1.620117 -2.03712,2e-5 -3.64357,0.649434 -4.81934,1.948242 -1.17579,1.298845 -1.76368,3.069351 -1.76367,5.311524 l 0,12.981445 -3.79395,0 0,-22.96875 3.79395,0 0,3.568359 c 0.90233,-1.380838 1.9619,-2.413064 3.17871,-3.096679 1.23046,-0.683571 2.6455,-1.025367 4.24512,-1.025391 2.63865,2.4e-5 4.63474,0.820335 5.98828,2.460938 1.35349,1.626972 2.03025,4.026384 2.03027,7.198242"
       style=""
       id="path3157" />
    <path
       d="m 291.76465,-31.869141 c -1.83204,3.14456 -3.19239,6.254909 -4.08106,9.331055 -0.88868,3.076191 -1.33301,6.193376 -1.333,9.351563 -1e-5,3.158213 0.44432,6.289069 1.333,9.3925777 0.90234,3.08984444 2.26269,6.2001929 4.08106,9.3310547 l -3.28125,0 c -2.05079,-3.212893 -3.58887,-6.37109294 -4.61426,-9.4746094 -1.01172,-3.1035086 -1.51758,-6.186513 -1.51758,-9.249023 0,-3.048812 0.50586,-6.118145 1.51758,-9.208008 1.01171,-3.089819 2.5498,-6.248018 4.61426,-9.47461 l 3.28125,0"
       style=""
       id="path3159" />
    <path
       d="m 299.10645,-31.910156 3.77343,0 0,31.910156 -3.77343,0 0,-31.910156"
       style=""
       id="path3161" />
    <path
       d="m 310.75488,-22.96875 3.77344,0 0,22.96875 -3.77344,0 0,-22.96875 m 0,-8.941406 3.77344,0 0,4.77832 -3.77344,0 0,-4.77832"
       style=""
       id="path3163" />
    <path
       d="m 337.0459,-22.291992 0,3.568359 c -1.06643,-0.546856 -2.17385,-0.957011 -3.32227,-1.230469 -1.14845,-0.273417 -2.3379,-0.410135 -3.56836,-0.410156 -1.87305,2.1e-5 -3.28125,0.28713 -4.22461,0.861328 -0.92969,0.574238 -1.39453,1.435565 -1.39453,2.583985 0,0.875016 0.33496,1.565445 1.00489,2.071289 0.66991,0.492202 2.01659,0.963881 4.04003,1.415039 l 1.292,0.287109 c 2.67967,0.574232 4.58006,1.387707 5.70117,2.44043 1.13475,1.039072 1.70213,2.4951253 1.70215,4.3681639 -2e-5,2.1328167 -0.84768,3.8212916 -2.54297,5.0654297 -1.68166,1.24414068 -3.99904,1.86621037 -6.95215,1.86621096 -1.23048,-5.9e-7 -2.51563,-0.12304734 -3.85547,-0.36914062 -1.32618,-0.23242187 -2.72754,-0.58789027 -4.2041,-1.06640625 l 0,-3.89648439 c 1.39453,0.7246134 2.76855,1.2714879 4.12207,1.640625 1.35351,0.3554715 2.69335,0.5332057 4.01953,0.5332031 1.77733,2.6e-6 3.14452,-0.3007783 4.10156,-0.9023437 0.95702,-0.6152303 1.43553,-1.4765576 1.43555,-2.5839844 -2e-5,-1.0253835 -0.34865,-1.8115156 -1.0459,-2.3583984 -0.68361,-0.5468661 -2.19435,-1.0732327 -4.53222,-1.5791016 l -1.3125,-0.3076173 c -2.3379,-0.492177 -4.02638,-1.244129 -5.06543,-2.255859 -1.03907,-1.025377 -1.5586,-2.426743 -1.5586,-4.204102 0,-2.160137 0.76562,-3.828104 2.29688,-5.003906 1.53124,-1.175758 3.70507,-1.763648 6.52148,-1.763672 1.39452,2.4e-5 2.70702,0.102563 3.9375,0.307617 1.23045,0.205101 2.36522,0.512718 3.4043,0.922852"
       style=""
       id="path3165" />
    <path
       d="m 348.03809,-29.490234 0,6.521484 7.77246,0 0,2.932617 -7.77246,0 0,12.4687502 c -1e-5,1.8730526 0.25292,3.0761764 0.75878,3.609375 0.51953,0.5332065 1.56542,0.7998078 3.1377,0.7998047 l 3.87598,0 0,3.1582031 -3.87598,0 c -2.91212,0 -4.92188,-0.54003852 -6.0293,-1.6201172 -1.10742,-1.0937473 -1.66113,-3.0761672 -1.66113,-5.9472656 l 0,-12.4687502 -2.76855,0 0,-2.932617 2.76855,0 0,-6.521484 3.79395,0"
       style=""
       id="path3167" />
    <path
       d="m 360.19922,-31.869141 3.28125,0 c 2.05077,3.226592 3.58202,6.384791 4.59375,9.47461 1.02538,3.089863 1.53807,6.159196 1.53808,9.208008 -1e-5,3.06251 -0.5127,6.1455144 -1.53808,9.249023 -1.01173,3.10351646 -2.54298,6.2617164 -4.59375,9.4746094 l -3.28125,0 c 1.81835,-3.1308618 3.17187,-6.24121026 4.06055,-9.3310547 0.90233,-3.1035087 1.3535,-6.2343647 1.35351,-9.3925777 -10e-6,-3.158187 -0.45118,-6.275372 -1.35351,-9.351563 -0.88868,-3.076146 -2.2422,-6.186495 -4.06055,-9.331055"
       style=""
       id="path3169" />
  </g>
  <g
     style="font-size:44px;stroke:#000000;stroke-width:1;font-family:Bravura"
     id="text27">
    <path
       d="m 132.98047,213.58984 0,-13.01953 3.95312,0 0,33.42969 -3.95312,0 0,-3.60938 c -0.83075,1.4323 -1.88348,2.49936 -3.1582,3.20118 -1.26044,0.6875 -2.77866,1.03125 -4.55469,1.03125 -2.90756,0 -5.278,-1.16016 -7.11133,-3.48047 -1.81901,-2.32031 -2.72852,-5.37109 -2.72852,-9.15235 0,-3.78123 0.90951,-6.83201 2.72852,-9.15234 1.83333,-2.32029 4.20377,-3.48044 7.11133,-3.48047 1.77603,3e-5 3.29425,0.35094 4.55469,1.05274 1.27472,0.68752 2.32745,1.74741 3.1582,3.17968 m -13.4707,8.40039 c -1e-5,2.90757 0.59439,5.19207 1.7832,6.85352 1.20311,1.64714 2.85025,2.47071 4.94141,2.4707 2.09113,1e-5 3.73826,-0.82356 4.9414,-2.4707 1.20311,-1.66145 1.80467,-3.94595 1.80469,-6.85352 -2e-5,-2.90753 -0.60158,-5.18487 -1.80469,-6.83203 -1.20314,-1.66143 -2.85027,-2.49216 -4.9414,-2.49218 -2.09116,2e-5 -3.7383,0.83075 -4.94141,2.49218 -1.18881,1.64716 -1.78321,3.9245 -1.7832,6.83203"
       style="font-size:44px;stroke:#000000;stroke-width:1;font-family:Bravura"
       id="path3172" />
    <path
       d="m 165.6582,220.98047 0,1.93359 -18.17578,0 c 0.17187,2.72137 0.98828,4.79819 2.44922,6.23047 1.47525,1.41797 3.52343,2.12696 6.14453,2.12695 1.51821,1e-5 2.98631,-0.18619 4.4043,-0.55859 1.43227,-0.37239 2.85024,-0.93098 4.2539,-1.67578 l 0,3.73828 c -1.41799,0.60156 -2.87176,1.0599 -4.36132,1.375 -1.4896,0.3151 -3.00067,0.47266 -4.53321,0.47266 -3.83855,0 -6.88217,-1.11719 -9.13086,-3.35157 -2.23437,-2.23437 -3.35156,-5.2565 -3.35156,-9.0664 0,-3.93879 1.05989,-7.06118 3.17969,-9.36719 2.13411,-2.32029 5.00585,-3.48044 8.61523,-3.48047 3.23697,3e-5 5.7936,1.0456 7.66993,3.13672 1.8906,2.07684 2.83591,4.90562 2.83593,8.48633 m -3.95312,-1.16016 c -0.0287,-2.16274 -0.63739,-3.88865 -1.82617,-5.17773 -1.1745,-1.28904 -2.7357,-1.93357 -4.6836,-1.9336 -2.20574,3e-5 -3.97462,0.62307 -5.30664,1.86914 -1.31771,1.24612 -2.07683,3.00067 -2.27734,5.26368 l 14.09375,-0.0215"
       style="font-size:44px;stroke:#000000;stroke-width:1;font-family:Bravura"
       id="path3174" />
    <path
       d="m 184.32812,200.57031 0,3.28711 -3.78125,0 c -1.41797,3e-5 -2.40626,0.28649 -2.96484,0.85938 -0.54428,0.57294 -0.81641,1.60419 -0.81641,3.09375 l 0,2.12695 6.50977,0 0,3.07227 -6.50977,0 0,20.99023 -3.9746,0 0,-20.99023 -3.78125,0 0,-3.07227 3.78125,0 0,-1.67578 c -1e-5,-2.67836 0.62304,-4.62627 1.86914,-5.84375 1.24608,-1.23174 3.22264,-1.84762 5.92968,-1.84766 l 3.73828,0"
       style="font-size:44px;stroke:#000000;stroke-width:1;font-family:Bravura"
       id="path3176" />
    <path
       d="m 215.56641,213.63281 c -0.44403,-0.25779 -0.93101,-0.44399 -1.46094,-0.55859 -0.51564,-0.12889 -1.08856,-0.19334 -1.71875,-0.19336 -2.23439,2e-5 -3.95314,0.73049 -5.15625,2.19141 -1.18881,1.44663 -1.78321,3.53061 -1.7832,6.25195 l 0,12.67578 -3.97461,0 0,-24.0625 3.97461,0 0,3.73828 c 0.83072,-1.46091 1.9121,-2.54229 3.24414,-3.24414 1.33201,-0.71612 2.9505,-1.07419 4.85546,-1.07422 0.27212,3e-5 0.57291,0.0215 0.90235,0.0645 0.32941,0.0287 0.69464,0.0788 1.0957,0.1504 l 0.0215,4.06054"
       style="font-size:44px;stroke:#000000;stroke-width:1;font-family:Bravura"
       id="path3178" />
    <path
       d="m 230.69141,221.9043 c -3.19403,1e-5 -5.40691,0.36524 -6.63868,1.0957 -1.23177,0.73048 -1.84766,1.97657 -1.84765,3.73828 -1e-5,1.40365 0.45832,2.52084 1.375,3.35156 0.93098,0.81641 2.19139,1.22462 3.78125,1.22461 2.19139,1e-5 3.94595,-0.77343 5.26367,-2.32031 1.33201,-1.56119 1.99803,-3.63085 1.99805,-6.20898 l 0,-0.88086 -3.93164,0 m 7.88476,-1.63282 0,13.72852 -3.95312,0 0,-3.65234 c -0.90236,1.46094 -2.02671,2.54232 -3.37305,3.24414 -1.34637,0.6875 -2.9935,1.03125 -4.94141,1.03125 -2.46355,0 -4.42578,-0.6875 -5.88672,-2.0625 -1.44661,-1.38932 -2.16992,-3.24414 -2.16992,-5.56446 0,-2.70702 0.90234,-4.74803 2.70703,-6.12304 1.81901,-1.37499 4.52604,-2.06249 8.1211,-2.0625 l 5.54297,0 0,-0.38672 c -2e-5,-1.81899 -0.60158,-3.22264 -1.80469,-4.21094 -1.18882,-1.00258 -2.8646,-1.50388 -5.02734,-1.50391 -1.37502,3e-5 -2.71421,0.16474 -4.01758,0.49414 -1.30339,0.32945 -2.55665,0.82359 -3.75977,1.48243 l 0,-3.65235 c 1.44661,-0.55857 2.85026,-0.97393 4.21094,-1.24609 1.36067,-0.28643 2.68553,-0.42966 3.97461,-0.42969 3.48045,3e-5 6.08006,0.90237 7.79883,2.70703 1.71872,1.80471 2.5781,4.54039 2.57812,8.20703"
       style="font-size:44px;stroke:#000000;stroke-width:1;font-family:Bravura"
       id="path3180" />
    <path
       d="m 266.74219,219.47656 0,14.52344 -3.95313,0 0,-14.39453 c -2e-5,-2.27733 -0.44403,-3.98175 -1.33203,-5.11328 -0.88804,-1.13149 -2.22007,-1.69725 -3.99609,-1.69727 -2.13413,2e-5 -3.81707,0.68036 -5.04883,2.04102 -1.23178,1.36069 -1.84766,3.21551 -1.84766,5.56445 l 0,13.59961 -3.97461,0 0,-24.0625 3.97461,0 0,3.73828 c 0.94531,-1.44659 2.05533,-2.52797 3.33008,-3.24414 1.28905,-0.71612 2.77147,-1.07419 4.44727,-1.07422 2.7643,3e-5 4.85545,0.8594 6.27343,2.57813 1.41795,1.70444 2.12693,4.21811 2.12696,7.54101"
       style="font-size:44px;stroke:#000000;stroke-width:1;font-family:Bravura"
       id="path3182" />
    <path
       d="m 290.50391,213.58984 0,-13.01953 3.95312,0 0,33.42969 -3.95312,0 0,-3.60938 c -0.83075,1.4323 -1.88349,2.49936 -3.15821,3.20118 -1.26043,0.6875 -2.77866,1.03125 -4.55468,1.03125 -2.90757,0 -5.27801,-1.16016 -7.11133,-3.48047 -1.81902,-2.32031 -2.72852,-5.37109 -2.72852,-9.15235 0,-3.78123 0.9095,-6.83201 2.72852,-9.15234 1.83332,-2.32029 4.20376,-3.48044 7.11133,-3.48047 1.77602,3e-5 3.29425,0.35094 4.55468,1.05274 1.27472,0.68752 2.32746,1.74741 3.15821,3.17968 m -13.47071,8.40039 c 0,2.90757 0.5944,5.19207 1.78321,6.85352 1.20311,1.64714 2.85025,2.47071 4.9414,2.4707 2.09113,1e-5 3.73827,-0.82356 4.94141,-2.4707 1.2031,-1.66145 1.80467,-3.94595 1.80469,-6.85352 -2e-5,-2.90753 -0.60159,-5.18487 -1.80469,-6.83203 -1.20314,-1.66143 -2.85028,-2.49216 -4.94141,-2.49218 -2.09115,2e-5 -3.73829,0.83075 -4.9414,2.49218 -1.18881,1.64716 -1.78321,3.9245 -1.78321,6.83203"
       style="font-size:44px;stroke:#000000;stroke-width:1;font-family:Bravura"
       id="path3184" />
    <path
       d="m 320.88281,241.30469 0,3.07226 -22.85937,0 0,-3.07226 22.85937,0"
       style="font-size:44px;stroke:#000000;stroke-width:1;font-family:Bravura"
       id="path3186" />
    <path
       d="m 344.60156,209.9375 -8.70117,11.70898 9.15234,12.35352 -4.66211,0 -7.0039,-9.45313 -7.00391,9.45313 -4.66211,0 9.34571,-12.58984 -8.55079,-11.47266 4.66211,0 6.38086,8.57227 6.38086,-8.57227 4.66211,0"
       style="font-size:44px;stroke:#000000;stroke-width:1;font-family:Bravura"
       id="path3188" />
    <path
       d="m 360.13477,200.61328 c -1.91929,3.2943 -3.34442,6.55276 -4.2754,9.77539 -0.93099,3.22268 -1.39649,6.4883 -1.39648,9.79688 -1e-5,3.3086 0.46549,6.58855 1.39648,9.83984 0.94531,3.23698 2.37044,6.49544 4.2754,9.77539 l -3.4375,0 c -2.14845,-3.36589 -3.75978,-6.67448 -4.83399,-9.92578 -1.0599,-3.25129 -1.58985,-6.48111 -1.58984,-9.68945 -10e-6,-3.194 0.52994,-6.40949 1.58984,-9.64649 1.05989,-3.23695 2.67122,-6.54554 4.83399,-9.92578 l 3.4375,0"
       style="font-size:44px;stroke:#000000;stroke-width:1;font-family:Bravura"
       id="path3190" />
    <path
       d="m 367.20312,200.61328 3.4375,0 c 2.14843,3.38024 3.7526,6.68883 4.8125,9.92578 1.07421,3.237 1.61132,6.45249 1.61133,9.64649 -1e-5,3.20834 -0.53712,6.43816 -1.61133,9.68945 -1.0599,3.2513 -2.66407,6.55989 -4.8125,9.92578 l -3.4375,0 c 1.90495,-3.27995 3.32291,-6.53841 4.25391,-9.77539 0.94531,-3.25129 1.41796,-6.53124 1.41797,-9.83984 -10e-6,-3.30858 -0.47266,-6.5742 -1.41797,-9.79688 -0.931,-3.22263 -2.34896,-6.48109 -4.25391,-9.77539"
       style="font-size:44px;stroke:#000000;stroke-width:1;font-family:Bravura"
       id="path3192" />
    <path
       d="m 386.02344,228.54297 4.5332,0 0,5.45703 -4.5332,0 0,-5.45703 m 0,-17.29492 4.5332,0 0,5.45703 -4.5332,0 0,-5.45703"
       style="font-size:44px;stroke:#000000;stroke-width:1;font-family:Bravura"
       id="path3194" />
  </g>
  <g
     style="font-size:43px;stroke:#000000;stroke-width:1;font-family:Bravura"
     id="text31">
    <path
       d="m 234.67871,210.0957 c -0.43394,-0.25193 -0.90985,-0.4339 -1.42773,-0.5459 -0.50393,-0.12595 -1.06382,-0.18894 -1.67969,-0.18896 -2.18361,2e-5 -3.86329,0.71389 -5.03906,2.1416 -1.1618,1.41376 -1.74269,3.45037 -1.74268,6.10986 l 0,12.3877 -3.88428,0 0,-23.51563 3.88428,0 0,3.65333 c 0.81184,-1.42772 1.86864,-2.48452 3.17041,-3.17041 1.30175,-0.69985 2.88345,-1.04979 4.74512,-1.04981 0.26593,2e-5 0.55988,0.021 0.88183,0.063 0.32193,0.028 0.67886,0.077 1.0708,0.14697 l 0.021,3.96826"
       style="font-size:43px;stroke:#000000;stroke-width:1;font-family:Bravura"
       id="path3197" />
    <path
       d="m 257.96338,217.27637 0,1.88965 -17.7627,0 c 0.16797,2.65951 0.96582,4.68913 2.39356,6.08886 1.44172,1.38575 3.44335,2.07862 6.00488,2.07862 1.48371,0 2.91844,-0.18197 4.3042,-0.5459 1.39972,-0.36393 2.78546,-0.90983 4.15723,-1.6377 l 0,3.65332 c -1.38577,0.58789 -2.8065,1.03581 -4.26221,1.34375 -1.45575,0.30794 -2.93247,0.46192 -4.43018,0.46192 -3.75131,0 -6.72575,-1.0918 -8.92334,-3.27539 -2.18359,-2.18359 -3.27539,-5.13704 -3.27539,-8.86036 0,-3.84926 1.03581,-6.90069 3.10743,-9.15429 2.0856,-2.26756 4.89207,-3.40135 8.41943,-3.40137 3.16339,2e-5 5.66193,1.02183 7.4956,3.06543 1.84764,2.02964 2.77146,4.79412 2.77149,8.29346 m -3.86328,-1.13379 c -0.028,-2.11359 -0.62291,-3.80028 -1.78467,-5.06006 -1.1478,-1.25975 -2.67352,-1.88963 -4.57715,-1.88965 -2.15561,2e-5 -3.88429,0.60891 -5.18603,1.82666 -1.28777,1.21779 -2.02963,2.93247 -2.22559,5.14404 l 13.77344,-0.021"
       style="font-size:43px;stroke:#000000;stroke-width:1;font-family:Bravura"
       id="path3199" />
  </g>
  <g
     style="font-size:44px;stroke:#000000;stroke-width:1;font-family:Bravura"
     id="text35">
    <path
       d="m 506.84766,146.9375 3.95312,0 4.94141,18.77734 4.91992,-18.77734 4.66211,0 4.9414,18.77734 4.91993,-18.77734 3.95312,0 -6.29492,24.0625 -4.66211,0 -5.17773,-19.72266 -5.19922,19.72266 -4.66211,0 -6.29492,-24.0625"
       style="font-size:44px;stroke:#000000;stroke-width:1;font-family:Bravura"
       id="path3202" />
    <path
       d="m 554.47852,149.70898 c -2.11981,3e-5 -3.79559,0.83075 -5.02735,2.49219 -1.23178,1.64715 -1.84766,3.91017 -1.84765,6.78906 -10e-6,2.87892 0.60871,5.1491 1.82617,6.81055 1.23176,1.64714 2.9147,2.47071 5.04883,2.4707 2.10545,1e-5 3.77407,-0.83072 5.00585,-2.49218 1.23176,-1.66145 1.84764,-3.92447 1.84766,-6.78907 -2e-5,-2.85024 -0.6159,-5.1061 -1.84766,-6.76757 -1.23178,-1.67576 -2.9004,-2.51365 -5.00585,-2.51368 m 0,-3.35156 c 3.43748,3e-5 6.13735,1.11721 8.0996,3.35156 1.96222,2.2344 2.94334,5.32815 2.94336,9.28125 -2e-5,3.93881 -0.98114,7.03256 -2.94336,9.28125 -1.96225,2.23438 -4.66212,3.35157 -8.0996,3.35157 -3.45184,0 -6.15887,-1.11719 -8.1211,-3.35157 -1.94792,-2.24869 -2.92188,-5.34244 -2.92187,-9.28125 -1e-5,-3.9531 0.97395,-7.04685 2.92187,-9.28125 1.96223,-2.23435 4.66926,-3.35153 8.1211,-3.35156"
       style="font-size:44px;stroke:#000000;stroke-width:1;font-family:Bravura"
       id="path3204" />
    <path
       d="m 585.99609,150.63281 c -0.44402,-0.25779 -0.931,-0.44399 -1.46093,-0.55859 -0.51564,-0.12889 -1.08856,-0.19334 -1.71875,-0.19336 -2.23439,2e-5 -3.95314,0.73049 -5.15625,2.19141 -1.18881,1.44663 -1.78321,3.53061 -1.78321,6.25195 l 0,12.67578 -3.97461,0 0,-24.0625 3.97461,0 0,3.73828 c 0.83072,-1.46091 1.9121,-2.54229 3.24414,-3.24414 1.33202,-0.71612 2.95051,-1.07419 4.85547,-1.07422 0.27212,3e-5 0.5729,0.0215 0.90235,0.0645 0.32941,0.0287 0.69464,0.0788 1.0957,0.1504 l 0.0215,4.06054"
       style="font-size:44px;stroke:#000000;stroke-width:1;font-family:Bravura"
       id="path3206" />
    <path
       d="m 590.03516,137.57031 3.97461,0 0,19.74414 11.79492,-10.37695 5.04883,0 -12.76172,11.25781 13.29882,12.80469 -5.15625,0 -12.2246,-11.75195 0,11.75195 -3.97461,0 0,-33.42969"
       style="font-size:44px;stroke:#000000;stroke-width:1;font-family:Bravura"
       id="path3208" />
    <path
       d="m 615.70898,146.9375 3.95313,0 0,24.0625 -3.95313,0 0,-24.0625 m 0,-9.36719 3.95313,0 0,5.00586 -3.95313,0 0,-5.00586"
       style="font-size:44px;stroke:#000000;stroke-width:1;font-family:Bravura"
       id="path3210" />
    <path
       d="m 647.91406,156.47656 0,14.52344 -3.95312,0 0,-14.39453 c -2e-5,-2.27733 -0.44403,-3.98175 -1.33203,-5.11328 -0.88804,-1.13149 -2.22007,-1.69725 -3.9961,-1.69727 -2.13412,2e-5 -3.81707,0.68036 -5.04883,2.04102 -1.23178,1.36069 -1.84766,3.21551 -1.84765,5.56445 l 0,13.59961 -3.97461,0 0,-24.0625 3.97461,0 0,3.73828 c 0.9453,-1.44659 2.05533,-2.52797 3.33008,-3.24414 1.28905,-0.71612 2.77147,-1.07419 4.44726,-1.07422 2.76431,3e-5 4.85545,0.8594 6.27344,2.57813 1.41794,1.70444 2.12693,4.21811 2.12695,7.54101"
       style="font-size:44px;stroke:#000000;stroke-width:1;font-family:Bravura"
       id="path3212" />
    <path
       d="m 671.67578,158.68945 c -2e-5,-2.86457 -0.59442,-5.08461 -1.7832,-6.66015 -1.1745,-1.5755 -2.82879,-2.36326 -4.96289,-2.36328 -2.11981,2e-5 -3.7741,0.78778 -4.96289,2.36328 -1.17449,1.57554 -1.76173,3.79558 -1.76172,6.66015 -10e-6,2.85027 0.58723,5.06316 1.76172,6.63867 1.18879,1.57553 2.84308,2.36329 4.96289,2.36329 2.1341,0 3.78839,-0.78776 4.96289,-2.36329 1.18878,-1.57551 1.78318,-3.7884 1.7832,-6.63867 m 3.95313,9.32422 c -3e-5,4.09635 -0.90953,7.13997 -2.72852,9.13086 -1.81903,2.0052 -4.60483,3.0078 -8.35742,3.00781 -1.38934,-1e-5 -2.69988,-0.10743 -3.93164,-0.32226 -1.23178,-0.20053 -2.42774,-0.51564 -3.58789,-0.94531 l 0,-3.84571 c 1.16015,0.63021 2.30598,1.0957 3.4375,1.39649 1.1315,0.30077 2.28449,0.45116 3.45898,0.45117 2.59243,-1e-5 4.53319,-0.68034 5.82227,-2.04102 1.28904,-1.34635 1.93357,-3.38737 1.93359,-6.12304 l 0,-1.95508 c -0.81642,1.41797 -1.862,2.47786 -3.13672,3.17969 -1.27475,0.70182 -2.80014,1.05273 -4.57617,1.05273 -2.95053,0 -5.32813,-1.12435 -7.13281,-3.37305 -1.80469,-2.24869 -2.70704,-5.22785 -2.70703,-8.9375 -1e-5,-3.72394 0.90234,-6.71026 2.70703,-8.95898 1.80468,-2.24868 4.18228,-3.37302 7.13281,-3.37305 1.77603,3e-5 3.30142,0.35094 4.57617,1.05274 1.27472,0.70184 2.3203,1.76174 3.13672,3.17968 l 0,-3.65234 3.95313,0 0,21.07617"
       style="font-size:44px;stroke:#000000;stroke-width:1;font-family:Bravura"
       id="path3214" />
    <path
       d="m 693.00977,137.57031 0,39.23047 -9.10938,0 0,-3.07226 5.13477,0 0,-33.08594 -5.13477,0 0,-3.07227 9.10938,0"
       style="font-size:44px;stroke:#000000;stroke-width:1;font-family:Bravura"
       id="path3216" />
  </g>
  <g
     style="font-size:44px;stroke:#000000;stroke-width:1;font-family:Bravura"
     id="text39">
    <path
       d="m 161.58984,221.9375 0,24.0625 -3.97461,0 0,-20.99023 -10.84961,0 0,20.99023 -3.9746,0 0,-20.99023 -3.78125,0 0,-3.07227 3.78125,0 0,-1.67578 c -1e-5,-2.62107 0.61588,-4.55466 1.84765,-5.80078 1.24609,-1.26039 3.15103,-1.89059 5.71485,-1.89063 l 3.9746,0 0,3.28711 -3.78125,0 c -1.41797,3e-5 -2.40626,0.28649 -2.96484,0.85938 -0.54428,0.57294 -0.81641,1.60419 -0.81641,3.09375 l 0,2.12695 14.82422,0 m -3.97461,-9.32422 3.97461,0 0,5.00586 -3.97461,0 0,-5.00586"
       style="font-size:44px;stroke:#000000;stroke-width:1;font-family:Bravura"
       id="path3219" />
    <path
       d="m 169.9043,212.57031 3.95312,0 0,33.42969 -3.95312,0 0,-33.42969"
       style="font-size:44px;stroke:#000000;stroke-width:1;font-family:Bravura"
       id="path3221" />
    <path
       d="m 202.68945,232.98047 0,1.93359 -18.17578,0 c 0.17187,2.72137 0.98828,4.79819 2.44922,6.23047 1.47525,1.41797 3.52343,2.12696 6.14453,2.12695 1.51821,1e-5 2.98631,-0.18619 4.4043,-0.55859 1.43227,-0.37239 2.85024,-0.93098 4.2539,-1.67578 l 0,3.73828 c -1.41799,0.60156 -2.87176,1.0599 -4.36132,1.375 -1.4896,0.3151 -3.00067,0.47266 -4.53321,0.47266 -3.83855,0 -6.88217,-1.11719 -9.13086,-3.35157 -2.23437,-2.23437 -3.35156,-5.2565 -3.35156,-9.0664 0,-3.93879 1.05989,-7.06118 3.17969,-9.36719 2.13411,-2.32029 5.00585,-3.48044 8.61523,-3.48047 3.23697,3e-5 5.7936,1.0456 7.66993,3.13672 1.8906,2.07684 2.83591,4.90562 2.83593,8.48633 m -3.95312,-1.16016 c -0.0287,-2.16274 -0.63739,-3.88865 -1.82617,-5.17773 -1.1745,-1.28904 -2.7357,-1.93357 -4.6836,-1.9336 -2.20574,3e-5 -3.97462,0.62307 -5.30664,1.86914 -1.31771,1.24612 -2.07683,3.00067 -2.27734,5.26368 l 14.09375,-0.0215"
       style="font-size:44px;stroke:#000000;stroke-width:1;font-family:Bravura"
       id="path3223" />
    <path
       d="m 209.69336,226.01953 27.54297,0 0,3.60938 -27.54297,0 0,-3.60938 m 0,8.76563 27.54297,0 0,3.65234 -27.54297,0 0,-3.65234"
       style="font-size:44px;stroke:#000000;stroke-width:1;font-family:Bravura"
       id="path3225" />
    <path
       d="m 253.07031,213.92383 3.65235,0 -11.17188,36.1582 -3.65234,0 11.17187,-36.1582"
       style="font-size:44px;stroke:#000000;stroke-width:1;font-family:Bravura"
       id="path3227" />
    <path
       d="m 264.82227,215.10547 0,6.83203 8.14257,0 0,3.07227 -8.14257,0 0,13.0625 c -10e-6,1.96224 0.26496,3.22266 0.79492,3.78125 0.54426,0.55859 1.63996,0.83789 3.28711,0.83789 l 4.06054,0 0,3.30859 -4.06054,0 c -3.05079,0 -5.15626,-0.56575 -6.31641,-1.69727 -1.16016,-1.14583 -1.74024,-3.22265 -1.74023,-6.23046 l 0,-13.0625 -2.90039,0 0,-3.07227 2.90039,0 0,-6.83203 3.97461,0"
       style="font-size:44px;stroke:#000000;stroke-width:1;font-family:Bravura"
       id="path3229" />
    <path
       d="m 296.91992,226.55664 c 0.98826,-1.77602 2.1699,-3.08657 3.54492,-3.93164 1.37498,-0.84503 2.99346,-1.26755 4.85547,-1.26758 2.50648,3e-5 4.44007,0.88089 5.80078,2.64258 1.36064,1.74742 2.04098,4.2396 2.04102,7.47656 l 0,14.52344 -3.97461,0 0,-14.39453 c -4e-5,-2.30597 -0.40824,-4.01756 -1.22461,-5.13477 -0.81644,-1.11716 -2.06253,-1.67576 -3.73828,-1.67578 -2.04821,2e-5 -3.66669,0.68036 -4.85547,2.04102 -1.18883,1.36069 -1.78323,3.21551 -1.7832,5.56445 l 0,13.59961 -3.97461,0 0,-14.39453 c -2e-5,-2.3203 -0.40822,-4.03188 -1.22461,-5.13477 -0.81643,-1.11716 -2.07684,-1.67576 -3.78125,-1.67578 -2.01955,2e-5 -3.62371,0.68752 -4.8125,2.0625 -1.18881,1.3607 -1.78321,3.20835 -1.7832,5.54297 l 0,13.59961 -3.97461,0 0,-24.0625 3.97461,0 0,3.73828 c 0.90233,-1.47524 1.98371,-2.56378 3.24414,-3.26562 1.2604,-0.7018 2.75714,-1.05271 4.49023,-1.05274 1.74738,3e-5 3.2298,0.44404 4.44727,1.33203 1.23175,0.88805 2.14125,2.17711 2.72851,3.86719"
       style="font-size:44px;stroke:#000000;stroke-width:1;font-family:Bravura"
       id="path3231" />
    <path
       d="m 324.89258,242.39062 0,12.76172 -3.97461,0 0,-33.21484 3.97461,0 0,3.65234 c 0.83072,-1.43227 1.87629,-2.49216 3.13672,-3.17968 1.27472,-0.7018 2.79295,-1.05271 4.55468,-1.05274 2.92186,3e-5 5.2923,1.16018 7.11133,3.48047 1.83331,2.32033 2.74998,5.37111 2.75,9.15234 -2e-5,3.78126 -0.91669,6.83204 -2.75,9.15235 -1.81903,2.32031 -4.18947,3.48047 -7.11133,3.48047 -1.76173,0 -3.27996,-0.34375 -4.55468,-1.03125 -1.26043,-0.70182 -2.306,-1.76888 -3.13672,-3.20118 m 13.44922,-8.40039 c -2e-5,-2.90753 -0.60159,-5.18487 -1.80469,-6.83203 -1.18882,-1.66143 -2.82879,-2.49216 -4.91992,-2.49218 -2.09116,2e-5 -3.73829,0.83075 -4.94141,2.49218 -1.18881,1.64716 -1.78321,3.9245 -1.7832,6.83203 -1e-5,2.90757 0.59439,5.19207 1.7832,6.85352 1.20312,1.64714 2.85025,2.47071 4.94141,2.4707 2.09113,1e-5 3.7311,-0.82356 4.91992,-2.4707 1.2031,-1.66145 1.80467,-3.94595 1.80469,-6.85352"
       style="font-size:44px;stroke:#000000;stroke-width:1;font-family:Bravura"
       id="path3233" />
    <path
       d="m 356.02344,213.92383 3.65234,0 -11.17187,36.1582 -3.65235,0 11.17188,-36.1582"
       style="font-size:44px;stroke:#000000;stroke-width:1;font-family:Bravura"
       id="path3235" />
    <path
       d="m 363.86523,221.9375 3.95313,0 0,24.0625 -3.95313,0 0,-24.0625 m 0,-9.36719 3.95313,0 0,5.00586 -3.95313,0 0,-5.00586"
       style="font-size:44px;stroke:#000000;stroke-width:1;font-family:Bravura"
       id="path3237" />
    <path
       d="m 394.80273,226.55664 c 0.98826,-1.77602 2.1699,-3.08657 3.54493,-3.93164 1.37497,-0.84503 2.99346,-1.26755 4.85546,-1.26758 2.50648,3e-5 4.44007,0.88089 5.80079,2.64258 1.36063,1.74742 2.04097,4.2396 2.04101,7.47656 l 0,14.52344 -3.97461,0 0,-14.39453 c -3e-5,-2.30597 -0.40824,-4.01756 -1.22461,-5.13477 -0.81644,-1.11716 -2.06253,-1.67576 -3.73828,-1.67578 -2.0482,2e-5 -3.66669,0.68036 -4.85547,2.04102 -1.18882,1.36069 -1.78322,3.21551 -1.7832,5.56445 l 0,13.59961 -3.97461,0 0,-14.39453 c -2e-5,-2.3203 -0.40822,-4.03188 -1.22461,-5.13477 -0.81642,-1.11716 -2.07684,-1.67576 -3.78125,-1.67578 -2.01954,2e-5 -3.62371,0.68752 -4.8125,2.0625 -1.18881,1.3607 -1.78321,3.20835 -1.7832,5.54297 l 0,13.59961 -3.97461,0 0,-24.0625 3.97461,0 0,3.73828 c 0.90233,-1.47524 1.98371,-2.56378 3.24414,-3.26562 1.2604,-0.7018 2.75715,-1.05271 4.49023,-1.05274 1.74738,3e-5 3.2298,0.44404 4.44727,1.33203 1.23175,0.88805 2.14125,2.17711 2.72851,3.86719"
       style="font-size:44px;stroke:#000000;stroke-width:1;font-family:Bravura"
       id="path3239" />
    <path
       d="m 432.89453,225.63281 c -0.44403,-0.25779 -0.93101,-0.44399 -1.46094,-0.55859 -0.51564,-0.12889 -1.08855,-0.19334 -1.71875,-0.19336 -2.23438,2e-5 -3.95313,0.73049 -5.15625,2.19141 -1.18881,1.44663 -1.78321,3.53061 -1.7832,6.25195 l 0,12.67578 -3.97461,0 0,-24.0625 3.97461,0 0,3.73828 c 0.83072,-1.46091 1.9121,-2.54229 3.24414,-3.24414 1.33202,-0.71612 2.95051,-1.07419 4.85547,-1.07422 0.27212,3e-5 0.5729,0.0215 0.90234,0.0645 0.32941,0.0287 0.69465,0.0788 1.09571,0.1504 l 0.0215,4.06054"
       style="font-size:44px;stroke:#000000;stroke-width:1;font-family:Bravura"
       id="path3241" />
    <path
       d="m 448.01953,233.9043 c -3.19402,1e-5 -5.40691,0.36524 -6.63867,1.0957 -1.23178,0.73048 -1.84766,1.97657 -1.84766,3.73828 0,1.40365 0.45833,2.52084 1.375,3.35156 0.93098,0.81641 2.1914,1.22462 3.78125,1.22461 2.1914,1e-5 3.94595,-0.77343 5.26367,-2.32031 1.33202,-1.56119 1.99803,-3.63085 1.99805,-6.20898 l 0,-0.88086 -3.93164,0 m 7.88477,-1.63282 0,13.72852 -3.95313,0 0,-3.65234 c -0.90236,1.46094 -2.02671,2.54232 -3.37305,3.24414 -1.34636,0.6875 -2.9935,1.03125 -4.9414,1.03125 -2.46355,0 -4.42579,-0.6875 -5.88672,-2.0625 -1.44662,-1.38932 -2.16992,-3.24414 -2.16992,-5.56446 0,-2.70702 0.90234,-4.74803 2.70703,-6.12304 1.819,-1.37499 4.52603,-2.06249 8.12109,-2.0625 l 5.54297,0 0,-0.38672 c -2e-5,-1.81899 -0.60158,-3.22264 -1.80469,-4.21094 -1.18881,-1.00258 -2.86459,-1.50388 -5.02734,-1.50391 -1.37501,3e-5 -2.7142,0.16474 -4.01758,0.49414 -1.30339,0.32945 -2.55664,0.82359 -3.75976,1.48243 l 0,-3.65235 c 1.44661,-0.55857 2.85025,-0.97393 4.21093,-1.24609 1.36067,-0.28643 2.68554,-0.42966 3.97461,-0.42969 3.48046,3e-5 6.08006,0.90237 7.79883,2.70703 1.71873,1.80471 2.5781,4.54039 2.57813,8.20703"
       style="font-size:44px;stroke:#000000;stroke-width:1;font-family:Bravura"
       id="path3243" />
    <path
       d="m 482.80273,226.55664 c 0.98826,-1.77602 2.1699,-3.08657 3.54493,-3.93164 1.37497,-0.84503 2.99346,-1.26755 4.85546,-1.26758 2.50648,3e-5 4.44007,0.88089 5.80079,2.64258 1.36063,1.74742 2.04097,4.2396 2.04101,7.47656 l 0,14.52344 -3.97461,0 0,-14.39453 c -3e-5,-2.30597 -0.40824,-4.01756 -1.22461,-5.13477 -0.81644,-1.11716 -2.06253,-1.67576 -3.73828,-1.67578 -2.0482,2e-5 -3.66669,0.68036 -4.85547,2.04102 -1.18882,1.36069 -1.78322,3.21551 -1.7832,5.56445 l 0,13.59961 -3.97461,0 0,-14.39453 c -2e-5,-2.3203 -0.40822,-4.03188 -1.22461,-5.13477 -0.81642,-1.11716 -2.07684,-1.67576 -3.78125,-1.67578 -2.01954,2e-5 -3.62371,0.68752 -4.8125,2.0625 -1.18881,1.3607 -1.78321,3.20835 -1.7832,5.54297 l 0,13.59961 -3.97461,0 0,-24.0625 3.97461,0 0,3.73828 c 0.90233,-1.47524 1.98371,-2.56378 3.24414,-3.26562 1.2604,-0.7018 2.75715,-1.05271 4.49023,-1.05274 1.74738,3e-5 3.2298,0.44404 4.44727,1.33203 1.23175,0.88805 2.14125,2.17711 2.72851,3.86719"
       style="font-size:44px;stroke:#000000;stroke-width:1;font-family:Bravura"
       id="path3245" />
    <path
       d="m 525.68555,226.55664 c 0.98825,-1.77602 2.16989,-3.08657 3.54492,-3.93164 1.37497,-0.84503 2.99346,-1.26755 4.85547,-1.26758 2.50647,3e-5 4.44007,0.88089 5.80078,2.64258 1.36064,1.74742 2.04098,4.2396 2.04101,7.47656 l 0,14.52344 -3.97461,0 0,-14.39453 c -3e-5,-2.30597 -0.40823,-4.01756 -1.2246,-5.13477 -0.81644,-1.11716 -2.06254,-1.67576 -3.73829,-1.67578 -2.0482,2e-5 -3.66669,0.68036 -4.85546,2.04102 -1.18883,1.36069 -1.78323,3.21551 -1.78321,5.56445 l 0,13.59961 -3.97461,0 0,-14.39453 c -2e-5,-2.3203 -0.40822,-4.03188 -1.22461,-5.13477 -0.81642,-1.11716 -2.07684,-1.67576 -3.78125,-1.67578 -2.01954,2e-5 -3.62371,0.68752 -4.8125,2.0625 -1.18881,1.3607 -1.78321,3.20835 -1.7832,5.54297 l 0,13.59961 -3.97461,0 0,-24.0625 3.97461,0 0,3.73828 c 0.90234,-1.47524 1.98371,-2.56378 3.24414,-3.26562 1.26041,-0.7018 2.75715,-1.05271 4.49024,-1.05274 1.74737,3e-5 3.22979,0.44404 4.44726,1.33203 1.23175,0.88805 2.14125,2.17711 2.72852,3.86719"
       style="font-size:44px;stroke:#000000;stroke-width:1;font-family:Bravura"
       id="path3247" />
    <path
       d="m 560.76953,233.9043 c -3.19402,1e-5 -5.40691,0.36524 -6.63867,1.0957 -1.23178,0.73048 -1.84766,1.97657 -1.84766,3.73828 0,1.40365 0.45833,2.52084 1.375,3.35156 0.93098,0.81641 2.1914,1.22462 3.78125,1.22461 2.1914,1e-5 3.94595,-0.77343 5.26367,-2.32031 1.33202,-1.56119 1.99803,-3.63085 1.99805,-6.20898 l 0,-0.88086 -3.93164,0 m 7.88477,-1.63282 0,13.72852 -3.95313,0 0,-3.65234 c -0.90236,1.46094 -2.02671,2.54232 -3.37305,3.24414 -1.34636,0.6875 -2.9935,1.03125 -4.9414,1.03125 -2.46355,0 -4.42579,-0.6875 -5.88672,-2.0625 -1.44662,-1.38932 -2.16992,-3.24414 -2.16992,-5.56446 0,-2.70702 0.90234,-4.74803 2.70703,-6.12304 1.819,-1.37499 4.52603,-2.06249 8.12109,-2.0625 l 5.54297,0 0,-0.38672 c -2e-5,-1.81899 -0.60158,-3.22264 -1.80469,-4.21094 -1.18881,-1.00258 -2.86459,-1.50388 -5.02734,-1.50391 -1.37501,3e-5 -2.7142,0.16474 -4.01758,0.49414 -1.30339,0.32945 -2.55664,0.82359 -3.75976,1.48243 l 0,-3.65235 c 1.44661,-0.55857 2.85025,-0.97393 4.21093,-1.24609 1.36067,-0.28643 2.68554,-0.42966 3.97461,-0.42969 3.48046,3e-5 6.08006,0.90237 7.79883,2.70703 1.71873,1.80471 2.5781,4.54039 2.57813,8.20703"
       style="font-size:44px;stroke:#000000;stroke-width:1;font-family:Bravura"
       id="path3249" />
    <path
       d="m 577.37695,240.54297 4.53321,0 0,5.45703 -4.53321,0 0,-5.45703"
       style="font-size:44px;stroke:#000000;stroke-width:1;font-family:Bravura"
       id="path3251" />
    <path
       d="m 606.16602,222.64648 0,3.73829 c -1.11721,-0.5729 -2.27737,-1.00259 -3.48047,-1.28907 -1.20314,-0.28643 -2.44924,-0.42966 -3.73828,-0.42968 -1.96225,2e-5 -3.43751,0.3008 -4.42579,0.90234 -0.97396,0.60158 -1.46094,1.50392 -1.46093,2.70703 -1e-5,0.91668 0.3509,1.63999 1.05273,2.16992 0.70182,0.51564 2.11262,1.00978 4.23242,1.48242 l 1.35352,0.30079 c 2.80727,0.60157 4.79816,1.45378 5.97265,2.55664 1.18879,1.08855 1.78319,2.61394 1.78321,4.57617 -2e-5,2.23438 -0.88804,4.00326 -2.66406,5.30664 -1.76174,1.30338 -4.18947,1.95508 -7.28321,1.95508 -1.28907,0 -2.63542,-0.12891 -4.03906,-0.38672 -1.38933,-0.24349 -2.85743,-0.61589 -4.4043,-1.11719 l 0,-4.08203 c 1.46094,0.75912 2.90039,1.33203 4.31836,1.71875 1.41796,0.3724 2.82161,0.5586 4.21094,0.55859 1.86197,1e-5 3.29426,-0.3151 4.29687,-0.94531 1.00259,-0.64453 1.50389,-1.54687 1.50391,-2.70703 -2e-5,-1.07421 -0.36525,-1.89778 -1.0957,-2.4707 -0.71616,-0.57291 -2.29884,-1.12434 -4.74805,-1.6543 l -1.375,-0.32227 c -2.44922,-0.51561 -4.2181,-1.30337 -5.30664,-2.36328 -1.08854,-1.0742 -1.63281,-2.5423 -1.63281,-4.40429 0,-2.26301 0.80208,-4.0104 2.40625,-5.24219 1.60416,-1.23175 3.8815,-1.84763 6.83203,-1.84766 1.46092,3e-5 2.83592,0.10745 4.125,0.32227 1.28904,0.21487 2.47785,0.53713 3.56641,0.96679"
       style="font-size:44px;stroke:#000000;stroke-width:1;font-family:Bravura"
       id="path3253" />
    <path
       d="m 610.93555,221.9375 4.18945,0 7.51953,20.19531 7.51953,-20.19531 4.18946,0 -9.02344,24.0625 -5.3711,0 -9.02343,-24.0625"
       style="font-size:44px;stroke:#000000;stroke-width:1;font-family:Bravura"
       id="path3255" />
    <path
       d="m 655.64453,233.68945 c -2e-5,-2.86457 -0.59442,-5.08461 -1.7832,-6.66015 -1.1745,-1.5755 -2.82879,-2.36326 -4.96289,-2.36328 -2.11981,2e-5 -3.7741,0.78778 -4.96289,2.36328 -1.17449,1.57554 -1.76173,3.79558 -1.76172,6.66015 -10e-6,2.85027 0.58723,5.06316 1.76172,6.63867 1.18879,1.57553 2.84308,2.36329 4.96289,2.36329 2.1341,0 3.78839,-0.78776 4.96289,-2.36329 1.18878,-1.57551 1.78318,-3.7884 1.7832,-6.63867 m 3.95313,9.32422 c -3e-5,4.09635 -0.90953,7.13997 -2.72852,9.13086 -1.81903,2.0052 -4.60483,3.0078 -8.35742,3.00781 -1.38934,-1e-5 -2.69988,-0.10743 -3.93164,-0.32226 -1.23178,-0.20053 -2.42774,-0.51564 -3.58789,-0.94531 l 0,-3.84571 c 1.16015,0.63021 2.30598,1.0957 3.4375,1.39649 1.1315,0.30077 2.28449,0.45116 3.45898,0.45117 2.59243,-1e-5 4.53319,-0.68034 5.82227,-2.04102 1.28904,-1.34635 1.93357,-3.38737 1.93359,-6.12304 l 0,-1.95508 c -0.81642,1.41797 -1.862,2.47786 -3.13672,3.17969 -1.27475,0.70182 -2.80014,1.05273 -4.57617,1.05273 -2.95053,0 -5.32813,-1.12435 -7.13281,-3.37305 -1.80469,-2.24869 -2.70704,-5.22785 -2.70703,-8.9375 -1e-5,-3.72394 0.90234,-6.71026 2.70703,-8.95898 1.80468,-2.24868 4.18228,-3.37302 7.13281,-3.37305 1.77603,3e-5 3.30142,0.35094 4.57617,1.05274 1.27472,0.70184 2.3203,1.76174 3.13672,3.17968 l 0,-3.65234 3.95313,0 0,21.07617"
       style="font-size:44px;stroke:#000000;stroke-width:1;font-family:Bravura"
       id="path3257" />
  </g>
  <path
     d="M 195 262 L 89 265"
     id="id2" />
  <g
     style="font-size:46px;stroke:#000000;stroke-width:1;font-family:Bravura"
     id="text44">
    <path
       d="m 193.78081,287.20083 -4.13115,0.11692 -5.71932,-19.47686 -4.58613,19.76852 -4.87207,0.13789 -5.71931,-19.47685 -4.58613,19.76851 -4.13116,0.11692 5.86674,-25.33236 4.87207,-0.13789 5.99424,20.45775 4.85005,-20.76466 4.87207,-0.13789 7.2901,24.96"
       style=""
       id="path3260" />
    <path
       d="m 153.74899,288.33379 -4.13116,0.11692 -0.71168,-25.14618 4.13115,-0.11692 0.71169,25.14618 m 0.27704,9.78905 -4.13116,0.11692 -0.14805,-5.2313 4.13116,-0.11692 0.14805,5.2313"
       style=""
       id="path3262" />
    <path
       d="m 124.34118,285.3462 0.38507,13.60588 -4.13116,0.11692 -0.98873,-34.93523 4.13116,-0.11692 0.10675,3.77193 c 0.8258,-1.52137 1.89438,-2.66762 3.20576,-3.43875 1.29686,-0.75574 2.8733,-1.15987 4.72931,-1.2124 3.03851,-0.086 5.55001,1.0563 7.53453,3.42689 1.96956,2.371 3.01026,5.53227 3.12209,9.48383 0.11184,3.95152 -0.74839,7.16659 -2.5807,9.64522 -1.84727,2.47901 -4.29015,3.76153 -7.32866,3.84755 -1.85601,0.0525 -3.45299,-0.26931 -4.79094,-0.96544 -1.35247,-0.68078 -2.48396,-1.75727 -3.39448,-3.22948 m 13.82891,-9.17712 c -0.086,-3.03851 -0.77472,-5.40832 -2.06621,-7.10943 -1.30602,-1.68574 -3.05169,-2.49768 -5.23702,-2.43583 -2.18531,0.0618 -3.88227,0.97122 -5.09088,2.72812 -1.20814,1.77187 -1.76923,4.17705 -1.68326,7.21555 0.086,3.03848 0.78203,5.40059 2.08803,7.08635 1.30647,1.70067 3.05235,2.5201 5.23766,2.45827 2.18533,-0.0619 3.88208,-0.97873 5.09024,-2.75057 1.19363,-1.7565 1.74745,-4.15398 1.66144,-7.19246"
       style=""
       id="path3264" />
    <path
       d="m 107.92457,296.77617 -0.20207,-7.13972 -8.509289,0.24083 -0.09087,-3.21063 8.509285,-0.24083 -0.38634,-13.65078 c -0.058,-2.05062 -0.37221,-3.35996 -0.94256,-3.92803 -0.58529,-0.56766 -1.7386,-0.82713 -3.45993,-0.77841 l -4.243414,0.1201 -0.09786,-3.4576 4.24342,-0.1201 c 3.18818,-0.0902 5.40521,0.43873 6.65107,1.58689 1.2463,1.16312 1.91393,3.31632 2.00288,6.45959 l 0.38634,13.65079 3.03102,-0.0858 0.0909,3.21063 -3.03101,0.0858 0.20207,7.13972 -4.15361,0.11755"
       style=""
       id="path3266" />
    <path
       d="m 122.90625,-15.183594 0,15.183594 -4.13281,0 0,-15.048828 c -2e-5,-2.380842 -0.46422,-4.162741 -1.39258,-5.345703 -0.9284,-1.182921 -2.32098,-1.774392 -4.17773,-1.774414 -2.23114,2.2e-5 -3.99058,0.711284 -5.27833,2.133789 -1.28776,1.422544 -1.93164,3.36167 -1.93164,5.817383 l 0,14.217773 -4.15527,0 0,-34.949219 4.15527,0 0,13.701172 c 0.98828,-1.512347 2.14876,-2.64288 3.48145,-3.391601 1.34764,-0.748673 2.89745,-1.123022 4.64941,-1.123047 2.88996,2.5e-5 5.07615,0.898462 6.5586,2.695312 1.48239,1.781923 2.2236,4.40985 2.22363,7.883789"
       style=""
       id="path3268" />
    <path
       d="m 146.37793,-20.888672 28.79492,0 0,3.773438 -28.79492,0 0,-3.773438 m 0,9.164063 28.79492,0 0,3.818359 -28.79492,0 0,-3.818359"
       style=""
       id="path3270" />
    <path
       d="m 209.31348,-15.924805 c -2.15627,1.6e-5 -3.85581,0.576513 -5.09864,1.729492 -1.22787,1.153008 -1.8418,2.740246 -1.84179,4.7617192 -1e-5,2.0214918 0.61392,3.6087298 1.84179,4.7617188 1.24283,1.1529983 2.94237,1.7294951 5.09864,1.7294922 2.15623,2.9e-6 3.85577,-0.5764939 5.09863,-1.7294922 1.24282,-1.1679629 1.86424,-2.7552009 1.86426,-4.7617188 -2e-5,-2.0214732 -0.62144,-3.6087112 -1.86426,-4.7617192 -1.22788,-1.152979 -2.92743,-1.729476 -5.09863,-1.729492 m -4.53711,-1.93164 c -1.94663,-0.479149 -3.46648,-1.385072 -4.55957,-2.717774 -1.07813,-1.33266 -1.61719,-2.957333 -1.61719,-4.874023 0,-2.680311 0.95084,-4.799124 2.85254,-6.356445 1.91666,-1.557259 4.5371,-2.335904 7.86133,-2.335938 3.33917,3.4e-5 5.95961,0.778679 7.86132,2.335938 1.90167,1.557321 2.85252,3.676134 2.85254,6.356445 -2e-5,1.91669 -0.54657,3.541363 -1.63964,4.874023 -1.07815,1.332702 -2.58303,2.238625 -4.51465,2.717774 2.18617,0.509132 3.88572,1.504899 5.09863,2.987304 1.22784,1.482436 1.84177,3.294283 1.8418,5.4355472 -3e-5,3.2493552 -0.9958,5.7425168 -2.98731,7.4794922 -1.97658,1.73697942 -4.81414,2.60546814 -8.51269,2.60546879 -3.69858,-6.5e-7 -6.54363,-0.86848937 -8.53516,-2.60546879 -1.97657,-1.7369754 -2.96485,-4.230137 -2.96484,-7.4794922 -1e-5,-2.1412642 0.61393,-3.9531112 1.84179,-5.4355472 1.22786,-1.482405 2.93489,-2.478172 5.1211,-2.987304 m -1.66211,-7.165039 c -1e-5,1.737002 0.53905,3.092144 1.61719,4.065429 1.09308,0.973328 2.62043,1.459981 4.58203,1.459961 1.94659,2e-5 3.46645,-0.486633 4.55957,-1.459961 1.10805,-0.973285 1.66209,-2.328427 1.66211,-4.065429 -2e-5,-1.736953 -0.55406,-3.092095 -1.66211,-4.06543 -1.09312,-0.973277 -2.61298,-1.45993 -4.55957,-1.459961 -1.9616,3.1e-5 -3.48895,0.486684 -4.58203,1.459961 -1.07814,0.973335 -1.6172,2.328477 -1.61719,4.06543"
       style=""
       id="path3272" />
    <path
       d="m 238.60254,-30.546875 c -2.33595,3.1e-5 -4.09539,1.153024 -5.27832,3.458984 -1.16798,2.291041 -1.75196,5.742535 -1.75195,10.354493 -1e-5,4.597017 0.58397,8.0485109 1.75195,10.3544918 1.18293,2.2910197 2.94237,3.4365263 5.27832,3.4365234 2.35089,2.9e-6 4.11033,-1.1455037 5.27832,-3.4365234 1.18292,-2.3059809 1.77439,-5.7574748 1.77441,-10.3544918 -2e-5,-4.611958 -0.59149,-8.063452 -1.77441,-10.354493 -1.16799,-2.30596 -2.92743,-3.458953 -5.27832,-3.458984 m 0,-3.59375 c 3.75844,3.4e-5 6.62595,1.489942 8.60254,4.469727 1.99151,2.96487 2.98728,7.277366 2.9873,12.9375 -2e-5,5.645193 -0.99579,9.9576886 -2.9873,12.9374996 -1.97659,2.96484454 -4.8441,4.44726494 -8.60254,4.44726559 -3.75848,-6.5e-7 -6.63347,-1.48242105 -8.625,-4.44726559 -1.97657,-2.979811 -2.96485,-7.2923066 -2.96484,-12.9374996 -1e-5,-5.660134 0.98827,-9.97263 2.96484,-12.9375 1.99153,-2.979785 4.86652,-4.469693 8.625,-4.469727"
       style=""
       id="path3274" />
    <path
       d="m 267.8916,-30.546875 c -2.33595,3.1e-5 -4.09539,1.153024 -5.27832,3.458984 -1.16798,2.291041 -1.75196,5.742535 -1.75195,10.354493 -1e-5,4.597017 0.58397,8.0485109 1.75195,10.3544918 1.18293,2.2910197 2.94237,3.4365263 5.27832,3.4365234 2.3509,2.9e-6 4.11033,-1.1455037 5.27832,-3.4365234 1.18292,-2.3059809 1.77439,-5.7574748 1.77442,-10.3544918 -3e-5,-4.611958 -0.5915,-8.063452 -1.77442,-10.354493 -1.16799,-2.30596 -2.92742,-3.458953 -5.27832,-3.458984 m 0,-3.59375 c 3.75845,3.4e-5 6.62596,1.489942 8.60254,4.469727 1.99151,2.96487 2.98728,7.277366 2.98731,12.9375 -3e-5,5.645193 -0.9958,9.9576886 -2.98731,12.9374996 -1.97658,2.96484454 -4.84409,4.44726494 -8.60254,4.44726559 -3.75847,-6.5e-7 -6.63347,-1.48242105 -8.625,-4.44726559 -1.97656,-2.979811 -2.96485,-7.2923066 -2.96484,-12.9374996 -10e-6,-5.660134 0.98828,-9.97263 2.96484,-12.9375 1.99153,-2.979785 4.86653,-4.469693 8.625,-4.469727"
       style=""
       id="path3276" />
  </g>
  <g
     style="font-size:43px;stroke:#000000;stroke-width:1;font-family:Bravura"
     id="text50">
    <path
       d="m 140.59961,281.80664 0,14.19336 -3.86328,0 0,-14.06738 c -2e-5,-2.22557 -0.43394,-3.89126 -1.30176,-4.99707 -0.86786,-1.10578 -2.16961,-1.65867 -3.90527,-1.65869 -2.08563,2e-5 -3.73032,0.66489 -4.93409,1.99462 -1.20378,1.32977 -1.80567,3.14244 -1.80566,5.43799 l 0,13.29053 -3.88428,0 0,-32.66992 3.88428,0 0,12.80762 c 0.92382,-1.41372 2.00862,-2.47052 3.2544,-3.17041 1.25975,-0.69985 2.70848,-1.04979 4.34619,-1.04981 2.70148,2e-5 4.74509,0.83987 6.13086,2.51953 1.38572,1.66571 2.07859,4.12225 2.07861,7.36963"
       style="font-size:43px;stroke:#000000;stroke-width:1;font-family:Bravura"
       id="path3279" />
    <path
       d="m 168.46143,283.27637 0,1.88965 -17.7627,0 c 0.16796,2.65951 0.96581,4.68913 2.39356,6.08886 1.44172,1.38575 3.44334,2.07862 6.00488,2.07862 1.48371,0 2.91844,-0.18197 4.3042,-0.5459 1.39972,-0.36393 2.78546,-0.90983 4.15722,-1.6377 l 0,3.65332 c -1.38576,0.58789 -2.80649,1.03581 -4.2622,1.34375 -1.45575,0.30794 -2.93247,0.46192 -4.43018,0.46192 -3.75131,0 -6.72576,-1.0918 -8.92334,-3.27539 -2.1836,-2.18359 -3.27539,-5.13704 -3.27539,-8.86036 0,-3.84926 1.0358,-6.90069 3.10742,-9.15429 2.08561,-2.26756 4.89208,-3.40135 8.41944,-3.40137 3.16339,2e-5 5.66192,1.02183 7.4956,3.06543 1.84763,2.02964 2.77146,4.79412 2.77149,8.29346 m -3.86329,-1.13379 c -0.028,-2.11359 -0.6229,-3.80028 -1.78466,-5.06006 -1.14781,-1.25975 -2.67352,-1.88963 -4.57715,-1.88965 -2.15561,2e-5 -3.88429,0.60891 -5.18604,1.82666 -1.28776,1.21779 -2.02963,2.93247 -2.22558,5.14404 l 13.77343,-0.021"
       style="font-size:43px;stroke:#000000;stroke-width:1;font-family:Bravura"
       id="path3281" />
    <path
       d="m 174.80225,272.48437 3.86328,0 0,23.51563 -3.86328,0 0,-23.51563 m 0,-9.15429 3.86328,0 0,4.89209 -3.86328,0 0,-4.89209"
       style="font-size:43px;stroke:#000000;stroke-width:1;font-family:Bravura"
       id="path3283" />
    <path
       d="m 202.20215,283.96924 c -2e-5,-2.79947 -0.58091,-4.96906 -1.74268,-6.50879 -1.1478,-1.53969 -2.7645,-2.30955 -4.8501,-2.30957 -2.07162,2e-5 -3.68832,0.76988 -4.85009,2.30957 -1.1478,1.53973 -1.72169,3.70932 -1.72168,6.50879 -1e-5,2.78549 0.57388,4.94808 1.72168,6.48779 1.16177,1.53972 2.77847,2.30957 4.85009,2.30957 2.0856,0 3.7023,-0.76985 4.8501,-2.30957 1.16177,-1.53971 1.74266,-3.7023 1.74268,-6.48779 m 3.86328,9.1123 c -2e-5,4.00326 -0.88886,6.9777 -2.6665,8.92334 -1.77769,1.95963 -4.50018,2.93945 -8.16748,2.93946 -1.35776,-1e-5 -2.63852,-0.10499 -3.84229,-0.31495 -1.20378,-0.19597 -2.37256,-0.50391 -3.50635,-0.92382 l 0,-3.7583 c 1.13379,0.61588 2.25358,1.07079 3.35938,1.36474 1.10578,0.29394 2.23257,0.44091 3.38037,0.44092 2.53351,-10e-6 4.43016,-0.66488 5.68994,-1.99463 1.25975,-1.31576 1.88963,-3.31038 1.88965,-5.98389 l 0,-1.91064 c -0.79787,1.38574 -1.81968,2.42155 -3.06543,3.10742 -1.24578,0.68587 -2.73651,1.02881 -4.47217,1.02881 -2.88347,0 -5.20704,-1.09879 -6.9707,-3.29639 -1.76368,-2.19758 -2.64551,-5.10904 -2.64551,-8.73437 0,-3.63931 0.88183,-6.55776 2.64551,-8.75537 1.76366,-2.19757 4.08723,-3.29637 6.9707,-3.29639 1.73566,2e-5 3.22639,0.34296 4.47217,1.02881 1.24575,0.68589 2.26756,1.7217 3.06543,3.10742 l 0,-3.56934 3.86328,0 0,20.59717"
       style="font-size:43px;stroke:#000000;stroke-width:1;font-family:Bravura"
       id="path3285" />
    <path
       d="m 233.57031,281.80664 0,14.19336 -3.86328,0 0,-14.06738 c -2e-5,-2.22557 -0.43394,-3.89126 -1.30176,-4.99707 -0.86785,-1.10578 -2.16961,-1.65867 -3.90527,-1.65869 -2.08562,2e-5 -3.73032,0.66489 -4.93408,1.99462 -1.20379,1.32977 -1.80567,3.14244 -1.80567,5.43799 l 0,13.29053 -3.88427,0 0,-32.66992 3.88427,0 0,12.80762 c 0.92382,-1.41372 2.00862,-2.47052 3.2544,-3.17041 1.25975,-0.69985 2.70848,-1.04979 4.34619,-1.04981 2.70148,2e-5 4.7451,0.83987 6.13086,2.51953 1.38572,1.66571 2.07859,4.12225 2.07861,7.36963"
       style="font-size:43px;stroke:#000000;stroke-width:1;font-family:Bravura"
       id="path3287" />
    <path
       d="m 245.13916,265.80762 0,6.67675 7.95752,0 0,3.00245 -7.95752,0 0,12.76562 c -1e-5,1.91765 0.25894,3.14942 0.77686,3.69531 0.53189,0.54591 1.60269,0.81885 3.2124,0.81885 l 3.96826,0 0,3.2334 -3.96826,0 c -2.98146,0 -5.03907,-0.5529 -6.17285,-1.65869 -1.1338,-1.11979 -1.70069,-3.14941 -1.70069,-6.08887 l 0,-12.76562 -2.83447,0 0,-3.00245 2.83447,0 0,-6.67675 3.88428,0"
       style="font-size:43px;stroke:#000000;stroke-width:1;font-family:Bravura"
       id="path3289" />
    <path
       d="m 272.39209,276.47363 26.91699,0 0,3.52735 -26.91699,0 0,-3.52735 m 0,8.56641 26.91699,0 0,3.56933 -26.91699,0 0,-3.56933"
       style="font-size:43px;stroke:#000000;stroke-width:1;font-family:Bravura"
       id="path3291" />
    <path
       d="m 331.74805,278.63623 c -1.90366,2e-5 -3.41538,0.6509 -4.53516,1.95264 -1.1058,1.30177 -1.6587,3.08644 -1.65869,5.354 -10e-6,2.25359 0.55289,4.03826 1.65869,5.354 1.11978,1.30177 2.6315,1.95264 4.53516,1.95264 1.90363,0 3.40835,-0.65087 4.51416,-1.95264 1.11977,-1.31574 1.67966,-3.10041 1.67968,-5.354 -2e-5,-2.26756 -0.55991,-4.05223 -1.67968,-5.354 -1.10581,-1.30174 -2.61053,-1.95262 -4.51416,-1.95264 m 8.41943,-13.29053 0,3.86328 c -1.06382,-0.50387 -2.14162,-0.8888 -3.2334,-1.15478 -1.07782,-0.26592 -2.14862,-0.3989 -3.2124,-0.39893 -2.79949,3e-5 -4.94109,0.94486 -6.42481,2.83448 -1.46973,1.88967 -2.30957,4.74513 -2.51953,8.5664 0.82584,-1.21775 1.86165,-2.14858 3.10743,-2.79248 1.24575,-0.65786 2.6175,-0.98679 4.11523,-0.98681 3.1494,2e-5 5.63393,0.95884 7.45361,2.87646 1.83364,1.90366 2.75047,4.50018 2.75049,7.78955 -2e-5,3.21941 -0.95185,5.80193 -2.85547,7.74756 -1.90366,1.94564 -4.43719,2.91846 -7.60058,2.91846 -3.62534,0 -6.39682,-1.38574 -8.31446,-4.15723 -1.91764,-2.78548 -2.87646,-6.81672 -2.87646,-12.09375 0,-4.95506 1.17578,-8.90232 3.52734,-11.8418 2.35156,-2.95342 5.50797,-4.43014 9.46924,-4.43017 1.06379,3e-5 2.13459,0.10501 3.2124,0.31494 1.09178,0.20999 2.22557,0.52493 3.40137,0.94482"
       style="font-size:43px;stroke:#000000;stroke-width:1;font-family:Bravura"
       id="path3293" />
    <path
       d="m 358.60205,267.44531 c -2.1836,3e-5 -3.8283,1.07783 -4.93408,3.2334 -1.09181,2.14163 -1.6377,5.36802 -1.6377,9.6792 0,4.29721 0.54589,7.52361 1.6377,9.6792 1.10578,2.1416 2.75048,3.2124 4.93408,3.2124 2.19758,0 3.84227,-1.0708 4.93408,-3.2124 1.10578,-2.15559 1.65867,-5.38199 1.65869,-9.6792 -2e-5,-4.31118 -0.55291,-7.53757 -1.65869,-9.6792 -1.09181,-2.15557 -2.7365,-3.23337 -4.93408,-3.2334 m 0,-3.35937 c 3.51333,3e-5 6.19383,1.39277 8.0415,4.17822 1.86163,2.77151 2.79246,6.80276 2.79249,12.09375 -3e-5,5.27703 -0.93086,9.30827 -2.79249,12.09375 -1.84767,2.77149 -4.52817,4.15723 -8.0415,4.15723 -3.51336,0 -6.20085,-1.38574 -8.0625,-4.15723 -1.84766,-2.78548 -2.77149,-6.81672 -2.77148,-12.09375 -1e-5,-5.29099 0.92382,-9.32224 2.77148,-12.09375 1.86165,-2.78545 4.54914,-4.17819 8.0625,-4.17822"
       style="font-size:43px;stroke:#000000;stroke-width:1;font-family:Bravura"
       id="path3295" />
    <path
       d="m 385.98096,267.44531 c -2.18361,3e-5 -3.8283,1.07783 -4.93409,3.2334 -1.0918,2.14163 -1.6377,5.36802 -1.63769,9.6792 -10e-6,4.29721 0.54589,7.52361 1.63769,9.6792 1.10579,2.1416 2.75048,3.2124 4.93409,3.2124 2.19757,0 3.84226,-1.0708 4.93408,-3.2124 1.10577,-2.15559 1.65867,-5.38199 1.65869,-9.6792 -2e-5,-4.31118 -0.55292,-7.53757 -1.65869,-9.6792 -1.09182,-2.15557 -2.73651,-3.23337 -4.93408,-3.2334 m 0,-3.35937 c 3.51333,3e-5 6.19382,1.39277 8.0415,4.17822 1.86163,2.77151 2.79246,6.80276 2.79248,12.09375 -2e-5,5.27703 -0.93085,9.30827 -2.79248,12.09375 -1.84768,2.77149 -4.52817,4.15723 -8.0415,4.15723 -3.51336,0 -6.20086,-1.38574 -8.0625,-4.15723 -1.84766,-2.78548 -2.77149,-6.81672 -2.77149,-12.09375 0,-5.29099 0.92383,-9.32224 2.77149,-12.09375 1.86164,-2.78545 4.54914,-4.17819 8.0625,-4.17822"
       style="font-size:43px;stroke:#000000;stroke-width:1;font-family:Bravura"
       id="path3297" />
  </g>
  <path
     d="M 482 280 L 726 390"
     id="id3" />
  <g
     style="font-size:44px;stroke:#000000;stroke-width:1;font-family:Bravura"
     id="text55">
    <path
       d="m 510.62453,256.23473 -1.35095,2.99667 -3.44715,-1.55404 c -1.2927,-0.58274 -2.31139,-0.72776 -3.05607,-0.43507 -0.73166,0.29863 -1.40357,1.12692 -2.01575,2.48486 l -0.87415,1.93902 5.93457,2.67542 -1.26266,2.80081 -5.93457,-2.67542 -8.62669,19.13557 -3.62342,-1.63351 8.62669,-19.13557 -3.44714,-1.55404 1.26265,-2.80081 3.44715,1.55404 0.68872,-1.52771 c 1.10077,-2.4417 2.46933,-3.96144 4.10569,-4.55921 1.64221,-0.61078 3.69724,-0.35991 6.16511,0.75261 l 3.40797,1.53638"
       style=""
       id="path3300" />
    <path
       d="m 517.13272,272.48395 c -1.93251,-0.87119 -3.80164,-0.80259 -5.60739,0.20581 -1.79989,0.99537 -3.29143,2.80531 -4.47461,5.42983 -1.1832,2.62454 -1.56127,4.94431 -1.13422,6.95931 0.44597,2.00784 1.64174,3.4503 3.5873,4.32739 1.91941,0.86532 3.78201,0.79377 5.5878,-0.21464 1.80575,-1.00842 3.29728,-2.81836 4.47461,-5.42983 1.17139,-2.59841 1.53705,-4.90807 1.09698,-6.92897 -0.43424,-2.03394 -1.61106,-3.48357 -3.53047,-4.3489 m 1.37745,-3.05543 c 3.13374,1.41278 5.1359,3.54086 6.00649,6.38425 0.87054,2.84341 0.49348,6.06703 -1.13117,9.67086 -1.61882,3.59077 -3.78473,6.00793 -6.49775,7.25149 -2.70718,1.23049 -5.62764,1.13935 -8.76139,-0.2734 -3.14683,-1.41866 -5.15553,-3.54968 -6.02608,-6.39308 -0.85163,-2.85057 -0.46804,-6.07124 1.15076,-9.66203 1.62467,-3.60382 3.78406,-6.02392 6.47817,-7.26032 2.70713,-1.23048 5.63412,-1.1364 8.78097,0.28223"
       style=""
       id="path3302" />
    <path
       d="m 545.4858,286.27942 c -0.29884,-0.4175 -0.66627,-0.78739 -1.10228,-1.10966 -0.41711,-0.32942 -0.91291,-0.62364 -1.48741,-0.88266 -2.03697,-0.91828 -3.90407,-0.95874 -5.60129,-0.12137 -1.67832,0.83023 -3.07668,2.48578 -4.19511,4.96667 l -5.20957,11.55577 -3.62342,-1.63351 9.88935,-21.93638 3.62342,1.63351 -1.53638,3.40798 c 1.35774,-0.99042 2.788,-1.53182 4.29079,-1.6242 1.50864,-0.10541 3.13129,0.23334 4.86794,1.01623 0.24806,0.11185 0.51344,0.25506 0.79612,0.4296 0.28852,0.16152 0.60088,0.35733 0.93708,0.58743 l -1.64924,3.71059"
       style=""
       id="path3304" />
    <path
       d="m 564.18693,302.77006 -0.79468,1.76275 -16.5698,-7.47 c -0.96176,2.55155 -1.07103,4.7804 -0.32782,6.68655 0.76213,1.89899 2.33795,3.3871 4.72746,4.46434 1.38406,0.62397 2.79897,1.05759 4.24471,1.30087 1.45877,0.24915 2.98102,0.32268 4.56676,0.22058 l -1.53638,3.40797 c -1.53993,-0.0344 -3.05362,-0.21401 -4.54107,-0.53893 -1.48749,-0.32495 -2.92979,-0.80234 -4.32691,-1.43219 -3.49939,-1.5776 -5.81493,-3.84695 -6.94663,-6.80808 -1.11866,-2.95525 -0.89508,-6.1695 0.67074,-9.64276 1.61879,-3.59076 3.86829,-6.00167 6.74852,-7.23271 2.89915,-1.23819 5.99396,-1.11559 9.28443,0.3678 2.95094,1.33037 4.85196,3.33429 5.70307,6.01179 0.87,2.67035 0.5692,5.63768 -0.9024,8.90202 m -3.12702,-2.68232 c 0.86272,-1.98343 1.01711,-3.80702 0.46316,-5.47077 -0.54094,-1.65785 -1.6993,-2.88706 -3.47508,-3.68764 -2.01086,-0.90651 -3.8795,-1.0655 -5.60595,-0.47697 -1.71342,0.59445 -3.12655,1.88199 -4.23941,3.86263 l 12.85728,5.77275"
       style=""
       id="path3306" />
    <path
       d="m 584.24544,312.59054 c 1.17728,-2.61147 1.54781,-4.87965 1.11159,-6.80455 -0.42322,-1.91899 -1.60758,-3.31704 -3.55311,-4.19414 -1.93251,-0.87119 -3.76439,-0.83293 -5.49565,0.11478 -1.71823,0.95363 -3.166,2.73618 -4.34329,5.34764 -1.17142,2.59842 -1.54554,4.85713 -1.12234,6.77613 0.43623,1.92489 1.6206,3.32294 3.5531,4.19414 1.94553,0.87709 3.77742,0.83883 5.49565,-0.11478 1.73126,-0.94773 3.18261,-2.7208 4.35405,-5.31922 m -0.22829,10.12502 c -1.68357,3.7344 -3.76359,6.1353 -6.24009,7.20269 -2.48241,1.08043 -5.43412,0.84952 -8.85514,-0.69273 -1.26657,-0.57101 -2.41717,-1.20755 -3.4518,-1.90964 -1.04053,-0.68906 -2.00131,-1.46784 -2.88236,-2.33636 l 1.58053,-3.5059 c 0.79864,1.05132 1.65191,1.94661 2.55983,2.68585 0.90791,0.73923 1.89722,1.3502 2.96793,1.83291 2.36337,1.06544 4.41225,1.24284 6.14665,0.53219 1.72848,-0.69762 3.15489,-2.2934 4.27923,-4.78734 l 0.80351,-1.78234 c -1.32705,0.95715 -2.71584,1.49368 -4.16637,1.60959 -1.45056,0.11591 -2.98539,-0.1911 -4.60449,-0.92102 -2.68982,-1.21263 -4.39525,-3.21479 -5.11629,-6.0065 -0.72105,-2.7917 -0.31927,-5.87848 1.20534,-9.26035 1.53049,-3.3949 3.58044,-5.74651 6.14986,-7.05483 2.5694,-1.30829 5.19901,-1.35613 7.88885,-0.14352 1.61909,0.72994 2.86548,1.67676 3.73917,2.84045 0.87364,1.16373 1.39122,2.55969 1.55275,4.18789 l 1.50107,-3.32963 3.60383,1.62468 -8.66201,19.21391"
       style=""
       id="path3308" />
    <path
       d="m 611.29488,315.94748 c -0.29884,-0.4175 -0.66627,-0.78739 -1.10227,-1.10966 -0.41711,-0.32942 -0.91292,-0.62364 -1.48742,-0.88266 -2.03697,-0.91828 -3.90406,-0.95874 -5.60129,-0.12137 -1.67831,0.83023 -3.07668,2.48578 -4.19511,4.96667 l -5.20956,11.55577 -3.62342,-1.63351 9.88935,-21.93638 3.62342,1.63351 -1.53639,3.40798 c 1.35774,-0.99042 2.788,-1.53182 4.29079,-1.6242 1.50864,-0.10541 3.13129,0.23334 4.86794,1.01623 0.24807,0.11186 0.51344,0.25506 0.79613,0.4296 0.28852,0.16152 0.60088,0.35733 0.93708,0.58743 l -1.64925,3.71059"
       style=""
       id="path3310" />
    <path
       d="m 623.13245,320.27069 c -1.93251,-0.87119 -3.80164,-0.80259 -5.60739,0.20581 -1.7999,0.99537 -3.29143,2.80531 -4.47461,5.42983 -1.1832,2.62454 -1.56128,4.94431 -1.13423,6.95931 0.44598,2.00784 1.64174,3.4503 3.5873,4.3274 1.91942,0.86531 3.78202,0.79376 5.5878,-0.21465 1.80575,-1.00841 3.29729,-2.81835 4.47461,-5.42983 1.1714,-2.59841 1.53706,-4.90806 1.09698,-6.92897 -0.43423,-2.03394 -1.61105,-3.48357 -3.53046,-4.3489 m 1.37744,-3.05543 c 3.13375,1.41278 5.13591,3.54087 6.0065,6.38425 0.87053,2.84341 0.49347,6.06703 -1.13118,9.67086 -1.61881,3.59077 -3.78473,6.00793 -6.49775,7.25149 -2.70717,1.23049 -5.62763,1.13936 -8.76138,-0.2734 -3.14684,-1.41865 -5.15553,-3.54968 -6.02609,-6.39308 -0.85162,-2.85057 -0.46803,-6.07124 1.15076,-9.66202 1.62467,-3.60382 3.78406,-6.02393 6.47817,-7.26033 2.70714,-1.23047 5.63413,-1.1364 8.78097,0.28223"
       style=""
       id="path3312" />
    <path
       d="m 633.93415,338.07841 5.98659,-13.27934 3.60383,1.62468 -5.92478,13.14224 c -0.93597,2.07612 -1.23463,3.81896 -0.89598,5.22851 0.34451,1.3965 1.32633,2.45971 2.94545,3.18964 1.94553,0.87709 3.75938,0.94853 5.44155,0.21432 1.69519,-0.72832 3.02549,-2.16319 3.9909,-4.3046 l 5.60691,-12.43714 3.60383,1.62468 -9.88935,21.93638 -3.60383,-1.62468 1.51872,-3.3688 c -1.47529,0.93745 -2.94113,1.47066 -4.39755,1.59963 -1.4375,0.12179 -2.9201,-0.16167 -4.4478,-0.85038 -2.52008,-1.13611 -4.07979,-2.78192 -4.67914,-4.93746 -0.59936,-2.15553 -0.21914,-4.74142 1.14065,-7.75768 m 15.29333,-9.71998 0,0"
       style=""
       id="path3314" />
    <path
       d="m 680.06892,353.36229 -5.96893,13.24017 -3.60384,-1.62467 5.91595,-13.12266 c 0.93594,-2.07611 1.23165,-3.81242 0.88716,-5.20892 -0.34455,-1.39649 -1.32637,-2.4597 -2.94546,-3.18964 -1.94556,-0.87708 -3.75941,-0.94852 -5.44155,-0.21432 -1.68217,0.73422 -3.00593,2.17203 -3.97131,4.31342 l -5.58925,12.39797 -3.62342,-1.63351 9.88935,-21.93637 3.62342,1.63351 -1.53638,3.40797 c 1.45631,-0.93027 2.91268,-1.4599 4.36913,-1.58888 1.46947,-0.12306 2.96807,0.15976 4.49581,0.84846 2.52004,1.13611 4.07322,2.77899 4.65955,4.92862 0.59215,2.1366 0.20541,4.71955 -1.16023,7.74885"
       style=""
       id="path3316" />
    <path
       d="m 704.15044,357.76144 5.35084,-11.86915 3.60383,1.62468 -13.73913,30.4759 -3.60383,-1.62468 1.4834,-3.29046 c -1.346,0.96431 -2.74426,1.50443 -4.19479,1.62034 -1.43161,0.10874 -2.95697,-0.20186 -4.57607,-0.93178 -2.65065,-1.19497 -4.33484,-3.22683 -5.05256,-6.09559 -0.70467,-2.86288 -0.27999,-6.01789 1.27406,-9.46504 1.55403,-3.44714 3.637,-5.85456 6.24891,-7.22228 2.62494,-1.3618 5.26274,-1.44523 7.91341,-0.25028 1.61909,0.72994 2.85895,1.67382 3.71958,2.83163 0.87953,1.15066 1.40364,2.54957 1.57235,4.19671 m -15.7329,2.12187 c -1.19497,2.65066 -1.59199,4.97759 -1.19106,6.98083 0.41986,1.99606 1.58298,3.42381 3.48937,4.28324 1.90636,0.85943 3.74643,0.78558 5.52022,-0.22155 1.77963,-1.02019 3.26694,-2.8556 4.46192,-5.50625 1.19494,-2.65064 1.58249,-4.97399 1.16264,-6.97006 -0.414,-2.00911 -1.57418,-3.44339 -3.48053,-4.30283 -1.9064,-0.85942 -3.74941,-0.77904 -5.52905,0.24113 -1.76073,1.01303 -3.23856,2.84486 -4.43351,5.49549"
       style=""
       id="path3318" />
    <path
       d="m 715.47084,363.33623 25.10932,11.31977 -1.48341,3.29046 -25.10931,-11.31978 1.4834,-3.29045 m -3.60255,7.99111 25.10932,11.31977 -1.50107,3.32963 -25.10931,-11.31978 1.50106,-3.32962"
       style=""
       id="path3320" />
    <path
       d="m 300.7168,-12.009766 c -2e-5,-2.907537 -0.60159,-5.184878 -1.80469,-6.832031 -1.18882,-1.661438 -2.82879,-2.492166 -4.91992,-2.492187 -2.09116,2.1e-5 -3.73829,0.830749 -4.94141,2.492187 -1.18881,1.647153 -1.78321,3.924494 -1.7832,6.832031 -1e-5,2.9075616 0.59439,5.1920645 1.7832,6.853516 1.20312,1.6471389 2.85025,2.4707058 4.94141,2.4707031 2.09113,2.7e-6 3.7311,-0.8235642 4.91992,-2.4707031 1.2031,-1.6614515 1.80467,-3.9459544 1.80469,-6.853516 m -13.44922,-8.40039 c 0.83072,-1.43227 1.87629,-2.492165 3.13672,-3.179688 1.27472,-0.701798 2.79295,-1.052709 4.55468,-1.052734 2.92186,2.5e-5 5.2923,1.16018 7.11133,3.480469 1.83331,2.320331 2.74998,5.371109 2.75,9.152343 -2e-5,3.7812586 -0.91669,6.8320368 -2.75,9.1523441 -1.81903,2.32031306 -4.18947,3.48046815 -7.11133,3.48046877 -1.76173,-6.2e-7 -3.27996,-0.34375027 -4.55468,-1.03125 -1.26043,-0.70182177 -2.306,-1.76887807 -3.13672,-3.20117187 l 0,3.609375 -3.97461,0 0,-33.429687 3.97461,0 0,13.019531"
       style=""
       id="path3322" />
    <path
       d="m 311.37305,-33.429687 3.95312,0 0,33.429687 -3.95312,0 0,-33.429687"
       style=""
       id="path3324" />
    <path
       d="m 334.51172,-12.095703 c -3.19402,1.2e-5 -5.40691,0.365246 -6.63867,1.095703 -1.23178,0.730479 -1.84767,1.9765715 -1.84766,3.7382813 -1e-5,1.4036516 0.45833,2.520838 1.375,3.3515624 0.93098,0.8164094 2.1914,1.2246121 3.78125,1.2246094 2.19139,2.7e-6 3.94595,-0.773434 5.26367,-2.3203125 1.33202,-1.5611913 1.99803,-3.6308507 1.99805,-6.2089846 l 0,-0.880859 -3.93164,0 m 7.88476,-1.632813 0,13.728516 -3.95312,0 0,-3.6523438 c -0.90236,1.4609397 -2.02671,2.5423189 -3.37305,3.24414067 -1.34637,0.68749973 -2.9935,1.03124938 -4.9414,1.03125 -2.46355,-6.2e-7 -4.42579,-0.68749993 -5.88672,-2.06249997 -1.44662,-1.3893201 -2.16993,-3.244136 -2.16992,-5.5644531 -10e-6,-2.7070216 0.90234,-4.7480348 2.70703,-6.1230468 1.819,-1.374986 4.52603,-2.062485 8.12109,-2.0625 l 5.54297,0 0,-0.386719 c -2e-5,-1.818993 -0.60158,-3.222637 -1.80469,-4.210937 -1.18882,-1.002584 -2.8646,-1.503885 -5.02734,-1.503907 -1.37501,2.2e-5 -2.7142,0.164735 -4.01758,0.494141 -1.30339,0.329448 -2.55665,0.823588 -3.75977,1.482422 l 0,-3.652344 c 1.44661,-0.55857 2.85026,-0.973934 4.21094,-1.246094 1.36067,-0.286433 2.68554,-0.429662 3.97461,-0.429687 3.48045,2.5e-5 6.08006,0.902367 7.79883,2.707031 1.71873,1.804708 2.5781,4.540382 2.57812,8.207031"
       style=""
       id="path3326" />
    <path
       d="m 367.87695,-23.138672 0,3.695313 c -1.1172,-0.615866 -2.24155,-1.074199 -3.37304,-1.375 -1.11721,-0.315083 -2.24872,-0.472635 -3.39454,-0.472657 -2.56381,2.2e-5 -4.55469,0.816427 -5.97265,2.449219 -1.41798,1.618507 -2.12696,3.895848 -2.12695,6.832031 -10e-6,2.9362074 0.70897,5.2207103 2.12695,6.853516 1.41796,1.6184931 3.40884,2.4277371 5.97265,2.4277344 1.14582,2.7e-6 2.27733,-0.1503878 3.39454,-0.4511719 1.13149,-0.3151007 2.25584,-0.780595 3.37304,-1.3964844 l 0,3.65234377 c -1.10288,0.51562541 -2.24871,0.90234378 -3.4375,1.16015626 -1.17449,0.257812 -2.42775,0.38671812 -3.75976,0.38671874 -3.62371,-6.2e-7 -6.50261,-1.13867135 -8.63672,-3.41601567 -2.13412,-2.2773386 -3.20118,-5.3496012 -3.20117,-9.2167972 -10e-6,-3.924463 1.07421,-7.011048 3.22265,-9.259765 2.16276,-2.248675 5.12044,-3.373022 8.87305,-3.373047 1.21743,2.5e-5 2.40623,0.128931 3.56641,0.386719 1.16013,0.243513 2.28448,0.615909 3.37304,1.117187"
       style=""
       id="path3328" />
    <path
       d="m 374.64453,-33.429687 3.97461,0 0,19.74414 11.79492,-10.376953 5.04883,0 -12.76172,11.257812 L 396,0 l -5.15625,0 -12.22461,-11.751953 0,11.751953 -3.97461,0 0,-33.429687"
       style=""
       id="path3330" />
  </g>
  <g
     style="font-size:49px;stroke:#000000;stroke-width:1;font-family:Bravura"
     id="text61">
    <path
       d="m 173.854,177.62549 c -2e-5,-3.23794 -0.66994,-5.77407 -2.00976,-7.6084 -1.32392,-1.85024 -3.15025,-2.77537 -5.47901,-2.77539 -2.32879,2e-5 -4.16309,0.92515 -5.50293,2.77539 -1.3239,1.83433 -1.98584,4.37046 -1.98584,7.6084 0,3.23796 0.66194,5.78207 1.98584,7.63232 1.33984,1.83432 3.17414,2.75147 5.50293,2.75147 2.32876,0 4.15509,-0.91715 5.47901,-2.75147 1.33982,-1.85025 2.00974,-4.39436 2.00976,-7.63232 m -14.97754,-9.35498 c 0.92513,-1.59503 2.08951,-2.77537 3.49317,-3.54102 1.41958,-0.78155 3.11033,-1.17233 5.07226,-1.17236 3.25389,3e-5 5.8937,1.29202 7.91944,3.87598 2.04164,2.584 3.06247,5.98146 3.0625,10.19238 -3e-5,4.21094 -1.02086,7.6084 -3.0625,10.19238 -2.02574,2.58399 -4.66555,3.87598 -7.91944,3.87598 -1.96193,0 -3.65268,-0.38282 -5.07226,-1.14844 -1.40366,-0.78157 -2.56804,-1.96989 -3.49317,-3.56494 l 0,4.01953 -4.42626,0 0,-37.22852 4.42626,0 0,14.49903"
       style="font-size:49px;stroke:#000000;stroke-width:1;font-family:Bravura"
       id="path3333" />
  </g>
  <path
     style="stroke:#000000;stroke-width:4"
     d="M 212,331 307,211"
     id="line63" />
  <path
     style=""
     d="m 669,540 c 0,4.41828 -3.58172,8 -8,8 -4.41828,0 -8,-3.58172 -8,-8 0,-4.41828 3.58172,-8 8,-8 4.41828,0 8,3.58172 8,8 z"
     id="circle65" />
  <path
     style=""
     d="m 529,472 c 0,4.97056 -4.02944,9 -9,9 -4.97056,0 -9,-4.02944 -9,-9 0,-4.97056 4.02944,-9 9,-9 4.97056,0 9,4.02944 9,9 z"
     id="circle67" />
  <path
     style=""
     d="m 560,470 c 0,4.97056 -4.02944,9 -9,9 -4.97056,0 -9,-4.02944 -9,-9 0,-4.97056 4.02944,-9 9,-9 4.97056,0 9,4.02944 9,9 z"
     id="circle69" />
  <path
     style=""
     d="m 545,494 c 0,5.52285 -4.47715,10 -10,10 -5.52285,0 -10,-4.47715 -10,-10 0,-5.52285 4.47715,-10 10,-10 5.52285,0 10,4.47715 10,10 z"
     id="circle71" />
  <path
     style=""
     d="m 601,436 c 0,4.41828 -3.58172,8 -8,8 -4.41828,0 -8,-3.58172 -8,-8 0,-4.41828 3.58172,-8 8,-8 4.41828,0 8,3.58172 8,8 z"
     id="circle73" />
  <path
     style=""
     d="m 559,424 c 0,4.97056 -4.02944,9 -9,9 -4.97056,0 -9,-4.02944 -9,-9 0,-4.97056 4.02944,-9 9,-9 4.97056,0 9,4.02944 9,9 z"
     id="circle75" />
  <path
     style=""
     d="m 468,411 c 0,4.97056 -4.02944,9 -9,9 -4.97056,0 -9,-4.02944 -9,-9 0,-4.97056 4.02944,-9 9,-9 4.97056,0 9,4.02944 9,9 z"
     id="circle77" />
  <path
     style=""
     d="m 507,464 c 0,5.52285 -4.47715,10 -10,10 -5.52285,0 -10,-4.47715 -10,-10 0,-5.52285 4.47715,-10 10,-10 5.52285,0 10,4.47715 10,10 z"
     id="circle79" />
  <path
     style=""
     d="m 662,463 c 0,3.86599 -3.13401,7 -7,7 -3.86599,0 -7,-3.13401 -7,-7 0,-3.86599 3.13401,-7 7,-7 3.86599,0 7,3.13401 7,7 z"
     id="circle81" />
  <path
     style=""
     d="m 691,504 c 0,4.41828 -3.58172,8 -8,8 -4.41828,0 -8,-3.58172 -8,-8 0,-4.41828 3.58172,-8 8,-8 4.41828,0 8,3.58172 8,8 z"
     id="circle83" />
  <path
     style=""
     d="m 441,504 c 0,4.41828 -3.58172,8 -8,8 -4.41828,0 -8,-3.58172 -8,-8 0,-4.41828 3.58172,-8 8,-8 4.41828,0 8,3.58172 8,8 z"
     id="circle85" />
  <path
     style=""
     d="m 442,527 c 0,4.41828 -3.58172,8 -8,8 -4.41828,0 -8,-3.58172 -8,-8 0,-4.41828 3.58172,-8 8,-8 4.41828,0 8,3.58172 8,8 z"
     id="circle87" />
  <path
     style=""
     d="m 588,460 c 0,4.97056 -4.02944,9 -9,9 -4.97056,0 -9,-4.02944 -9,-9 0,-4.97056 4.02944,-9 9,-9 4.97056,0 9,4.02944 9,9 z"
     id="circle89" />
  <path
     style=""
     d="m 627,490 c 0,4.97056 -4.02944,9 -9,9 -4.97056,0 -9,-4.02944 -9,-9 0,-4.97056 4.02944,-9 9,-9 4.97056,0 9,4.02944 9,9 z"
     id="circle91" />
  <path
     style=""
     d="m 629,428 c 0,4.97056 -4.02944,9 -9,9 -4.97056,0 -9,-4.02944 -9,-9 0,-4.97056 4.02944,-9 9,-9 4.97056,0 9,4.02944 9,9 z"
     id="circle93" />
  <path
     style=""
     d="m 464,431 c 0,4.97056 -4.02944,9 -9,9 -4.97056,0 -9,-4.02944 -9,-9 0,-4.97056 4.02944,-9 9,-9 4.97056,0 9,4.02944 9,9 z"
     id="circle95" />
  <path
     style=""
     d="m 583,408 c 0,4.97056 -4.02944,9 -9,9 -4.97056,0 -9,-4.02944 -9,-9 0,-4.97056 4.02944,-9 9,-9 4.97056,0 9,4.02944 9,9 z"
     id="circle97" />
  <path
     style=""
     d="m 531,492 c 0,4.97056 -4.02944,9 -9,9 -4.97056,0 -9,-4.02944 -9,-9 0,-4.97056 4.02944,-9 9,-9 4.97056,0 9,4.02944 9,9 z"
     id="circle99" />
  <path
     style=""
     d="m 708,407 c 0,4.97056 -4.02944,9 -9,9 -4.97056,0 -9,-4.02944 -9,-9 0,-4.97056 4.02944,-9 9,-9 4.97056,0 9,4.02944 9,9 z"
     id="circle101" />
</svg>
