<?xml version="1.0" encoding="UTF-8" standalone="no"?>
<?xml-stylesheet href="style.css" type="text/css" title="style" alternate="no" media="all"?><svg
   xmlns:dc="http://purl.org/dc/elements/1.1/"
   xmlns:cc="http://creativecommons.org/ns#"
   xmlns:rdf="http://www.w3.org/1999/02/22-rdf-syntax-ns#"
   xmlns:svg="http://www.w3.org/2000/svg"
   xmlns="http://www.w3.org/2000/svg"
   xmlns:xlink="http://www.w3.org/1999/xlink"
   xmlns:sodipodi="http://sodipodi.sourceforge.net/DTD/sodipodi-0.dtd"
   xmlns:inkscape="http://www.inkscape.org/namespaces/inkscape"
   height="600px"
   version="1.1"
   width="800px"
   id="svg2"
   inkscape:version="0.48.5 r10040"
   sodipodi:docname="imramma.svg">
  <metadata
     id="metadata25">
    <rdf:RDF>
      <cc:Work
         rdf:about="">
        <dc:format>image/svg+xml</dc:format>
        <dc:type
           rdf:resource="http://purl.org/dc/dcmitype/StillImage" />
      </cc:Work>
    </rdf:RDF>
  </metadata>
  <sodipodi:namedview
     pagecolor="#ffffff"
     bordercolor="#666666"
     borderopacity="1"
     objecttolerance="10"
     gridtolerance="10"
     guidetolerance="10"
     inkscape:pageopacity="0"
     inkscape:pageshadow="2"
     inkscape:window-width="640"
     inkscape:window-height="480"
     id="namedview23"
     showgrid="false"
     inkscape:zoom="0.295"
     inkscape:cx="400"
     inkscape:cy="300"
     inkscape:window-x="0"
     inkscape:window-y="27"
     inkscape:window-maximized="0"
     inkscape:current-layer="svg2" />
  <defs
     id="defs4">
    <style
       type="text/css"
       id="style6">@font-face {
  font-family: Bravura;
  src: local(&quot;Bravura Regular&quot;),
    local(&quot;BravuraRegular&quot;), 
    local(&quot;Bravura&quot;),
     url(Bravura.otf) format(&quot;opentype&quot;),
    url(Bravura.svg) format(&quot;svg&quot;);
}
</style>
  </defs>
  <image
     sodipodi:absref="/tmp/./data/Bravura.svg"
     xlink:href="./data/Bravura.svg"
     id="image8" />
  <path
     d="M 17 577 L  14 586 8 583 11 592 14 589 8 586 5 583 -1 586 -10 586 -19 583 -28 583 -28 580 -37 580 -43 577 -46 574 -52 574 -49 571 -49 568 -49 565 -52 568 -55 571 -64 571 -61 571 -70 577 -79 580 -88 589 -97 586 -103 586 -103 595 -103 592 -109 589 -106 586 -109 595 -112 604 -121 604 -118 604 -124 601 -133 604 -133 607 -133 613 -139 619 -136 616 -142 613 -148 616 -157 622 -163 625 -163 631 -172 631 -169 640 -178 637 -187 643 -190 652 -187 661 -187 670 -193 673 -193 676 -193 685 -202 691 -205 688 -208 688 -208 685 -214 685 -211 682 -208 679 -208 679 -205 676 -211 676 -211 673 -217 676 -220 673 -220 682 -229 691 -232 700 -229 700 -229 697 -235 697 -235 700 -232 706 -235 706 -235 703 -232 706 -232 709 -241 715 -244 715 -244 721 -244 727 -250 736 -250 739 -250 745 -256 754 -256 760 -262 763 -265 763 -262 772 -262 778 -268 778 -277 784 -277 790 -277 787 -283 790 -283 799 -283 802 -286 799 -292 808 -298 808 -298 808 -307 805 -304 814 -313 820 -316 820 -316 817 -322 826 -328 826 -331 835 -337 832 -346 832 -349 841 -349 841 -355 850 -355 859 -355 856 -361 865 -364 865 -373 874 -370 883 -373 880 -373 886 -382 895 -385 904 -385 901 -382 907 -379 907 -379 913 -388 913 -388 910 -391 919 -394 919 -400 922 -406 922 -403 919 -409 916 -406 919 -409 928 -406 934 -406 931 -403 928 -400 925 -400 934 -403 931 -409 937 -412 940 -418 937 -415 946 -424 949 -421 958 -424 964 -427 970 -427 979 -430 976 -439 979 -448 976 -457 979 -454 988 -454 988 -451 985 -460 988 -469 991 -466 988 -469 994 -466 1000 -466 1009 -466 1012 -472 1021 -472 1030 -478 1027 -481 1027 -487 1027 -484 1036 -490 1042 -490 1045 -496 1042 -493 1042 -490 1042 -493 1045 -493 1042 -490 1045 -487 1042 -487 1045 -487 1048 -484 1048 -481 1054 -478 1051 -481 1057 -487 1054 -487 1051 -487 1057 -487 1060 -496 1060 -499 1063 -508 1069 -511 1072 -517 1078 -526 1078 -535 1084 -544 1084 -550 1081 -556 1084 -556 1093 -565 1102 -565 1111 -565 1108 -568 1108 -571 1111 -571 1120 -571 1117 -574 1120 -583 1120 -586 1120 -586 1117 -592 1117 -589 1123 -589 1129 -595 1129 -604 1132 -607 1138 -613 1138 -613 1135 -610 1132 -616 1141 -613 1144 -619 1153 -616 1150 -622 1156 -625 1156 -622 1162 -631 1168 -640 1177 -637 1174 -646 1180 -652 1186 -661 1195 -667 1195 -676 1204 -685 1201 -688 1204 -685 1213 -682 1210 -691 1210 -694 1207 -694 1210 -691 1216 -688 1222 -694 1222 -700 1225 -697 1234 -706 1234 -706 1237 -706 1240"
     fill="white"
     stroke="black"
     stroke-width="5"
     id="path10" />
  <path
     style="stroke:#000000;stroke-width:13"
     d="M 104,580 207,159"
     id="line12" />
  <path
     d="M 404 481 L 456 1019"
     id="id1" />
  <g
     style="font-size:213px;stroke:#000000;stroke-width:1;font-family:Bravura"
     id="text17">
    <path
       d="m 594.14874,681.53577 -2.62296,-27.13754 9.75255,-0.94262 c 2.12012,-0.20492 3.65228,-2.06496 3.44736,-4.18507 -0.20492,-2.12012 -2.06495,-3.65228 -4.18507,-3.44737 l -9.75255,0.94263 -2.19263,-22.68528 9.75255,-0.94263 c 2.12012,-0.20492 3.65228,-2.06495 3.44737,-4.18507 -0.20492,-2.12012 -2.06495,-3.65228 -4.18507,-3.44736 l -9.75255,0.94262 -2.17214,-22.47327 9.75255,-0.94262 c 2.12012,-0.20492 3.65228,-2.06495 3.44736,-4.18507 -0.20492,-2.12012 -2.06495,-3.65228 -4.18507,-3.44736 l -9.75255,0.94262 -2.17213,-22.47327 9.75255,-0.94262 c 2.12012,-0.20492 3.65228,-2.06496 3.44736,-4.18507 -0.20492,-2.12012 -2.06495,-3.65228 -4.18507,-3.44737 l -9.75255,0.94263 -2.19263,-22.68528 9.75255,-0.94263 c 2.12012,-0.20492 3.65228,-2.06495 3.44736,-4.18507 -0.20491,-2.12012 -2.06495,-3.65228 -4.18506,-3.44736 l -9.75256,0.94263 -2.17213,-22.47328 9.75255,-0.94262 c 2.12012,-0.20492 3.65228,-2.06495 3.44736,-4.18507 -0.20492,-2.12012 -2.06495,-3.65228 -4.18507,-3.44736 l -9.75255,0.94262 -2.5205,-26.07747 c -0.28688,-2.96817 -2.82394,-4.86288 -5.58009,-4.59649 l -159.00899,15.3689 c -2.75616,0.26639 -4.88337,2.61192 -4.59649,5.58009 0.2664,2.75615 2.82394,4.86287 5.5801,4.59648 l 153.9207,-14.87709 2.0287,20.98919 -128.47927,12.41807 c -2.12012,0.20491 -3.65228,2.06495 -3.44736,4.18506 0.20492,2.12012 2.06495,3.65229 4.18507,3.44737 L 566.759,504.4293 l 2.17214,22.47327 -105.36996,10.18446 c -2.12012,0.20491 -3.65228,2.06495 -3.44736,4.18507 0.20492,2.12011 2.06495,3.65228 4.18507,3.44736 l 105.36996,-10.18445 2.19262,22.68528 -75.47626,7.2951 c -2.12012,0.20492 -3.65229,2.06495 -3.44737,4.18507 0.20492,2.12012 2.06495,3.65228 4.18507,3.44736 l 75.47627,-7.2951 2.17214,22.47327 -48.97477,4.73362 c -2.12012,0.20492 -3.65228,2.06495 -3.44737,4.18507 0.20492,2.12012 2.06496,3.65228 4.18507,3.44736 l 48.97477,-4.73362 2.17214,22.47327 -28.83363,2.7869 c -2.12012,0.20491 -3.65228,2.06495 -3.44736,4.18507 0.20492,2.12011 2.06495,3.65228 4.18507,3.44736 l 28.83363,-2.78689 2.19263,22.68528 -11.23664,1.08607 c -2.12012,0.20492 -3.65228,2.06495 -3.44736,4.18507 0.20492,2.12011 2.06495,3.65228 4.18507,3.44736 l 11.23663,-1.08607 2.13116,22.04925 -153.92071,14.87708 c -2.75615,0.2664 -4.86288,2.82394 -4.59648,5.5801 0.26639,2.75615 2.82394,4.86287 5.58009,4.59648 l 159.00899,-15.36889 c 2.75615,-0.2664 4.86288,-2.82394 4.59649,-5.58009"
       style=""
       id="path3006" />
  </g>
  <path
     style="fill:#ffffff;stroke:#000000;stroke-width:6"
     d="m 741,136 c 0,97.7544 -79.2456,177 -177,177 -97.7544,0 -177,-79.2456 -177,-177 0,-97.754401 79.2456,-177 177,-177 97.7544,0 177,79.245599 177,177 z"
     id="circle21" />
</svg>
