<?xml version="1.0" encoding="UTF-8" standalone="no"?>
<?xml-stylesheet href="style.css" type="text/css" title="style" alternate="no" media="all"?><svg
   xmlns:dc="http://purl.org/dc/elements/1.1/"
   xmlns:cc="http://creativecommons.org/ns#"
   xmlns:rdf="http://www.w3.org/1999/02/22-rdf-syntax-ns#"
   xmlns:svg="http://www.w3.org/2000/svg"
   xmlns="http://www.w3.org/2000/svg"
   xmlns:xlink="http://www.w3.org/1999/xlink"
   xmlns:sodipodi="http://sodipodi.sourceforge.net/DTD/sodipodi-0.dtd"
   xmlns:inkscape="http://www.inkscape.org/namespaces/inkscape"
   height="600px"
   version="1.1"
   width="800px"
   id="svg2"
   inkscape:version="0.48.5 r10040"
   sodipodi:docname="imramma.svg">
  <metadata
     id="metadata34">
    <rdf:RDF>
      <cc:Work
         rdf:about="">
        <dc:format>image/svg+xml</dc:format>
        <dc:type
           rdf:resource="http://purl.org/dc/dcmitype/StillImage" />
      </cc:Work>
    </rdf:RDF>
  </metadata>
  <sodipodi:namedview
     pagecolor="#ffffff"
     bordercolor="#666666"
     borderopacity="1"
     objecttolerance="10"
     gridtolerance="10"
     guidetolerance="10"
     inkscape:pageopacity="0"
     inkscape:pageshadow="2"
     inkscape:window-width="434"
     inkscape:window-height="415"
     id="namedview32"
     showgrid="false"
     inkscape:zoom="0.295"
     inkscape:cx="400"
     inkscape:cy="300"
     inkscape:window-x="0"
     inkscape:window-y="27"
     inkscape:window-maximized="0"
     inkscape:current-layer="svg2" />
  <defs
     id="defs4">
    <style
       type="text/css"
       id="style6">@font-face {
  font-family: Bravura;
  src: local(&quot;Bravura Regular&quot;),
    local(&quot;BravuraRegular&quot;), 
    local(&quot;Bravura&quot;),
     url(Bravura.otf) format(&quot;opentype&quot;),
    url(Bravura.svg) format(&quot;svg&quot;);
}
</style>
  </defs>
  <image
     sodipodi:absref="/tmp/./data/Bravura.svg"
     xlink:href="./data/Bravura.svg"
     id="image8" />
  <g
     style="font-size:50px;stroke:#000000;stroke-width:1;font-family:Bravura"
     id="text12">
    <path
       d="m 285.30762,122.80566 c -2.40887,3e-5 -4.31316,0.94404 -5.71289,2.83204 -1.39975,1.87176 -2.09962,4.44337 -2.09961,7.71484 -10e-6,3.27149 0.69172,5.85124 2.07519,7.73926 1.39973,1.87175 3.31216,2.80762 5.73731,2.80761 2.39256,1e-5 4.28871,-0.944 5.68847,-2.83203 1.39972,-1.88801 2.09959,-4.45962 2.09961,-7.71484 -2e-5,-3.23892 -0.69989,-5.80239 -2.09961,-7.69043 -1.39976,-1.90427 -3.29591,-2.85642 -5.68847,-2.85645 m 0,-3.80859 c 3.90623,3e-5 6.97426,1.26956 9.2041,3.80859 2.22979,2.53909 3.3447,6.05471 3.34473,10.54688 -3e-5,4.47592 -1.11494,7.99154 -3.34473,10.54687 -2.22984,2.53907 -5.29787,3.8086 -9.2041,3.8086 -3.92254,0 -6.99871,-1.26953 -9.22852,-3.8086 -2.21354,-2.55533 -3.32031,-6.07095 -3.32031,-10.54687 0,-4.49217 1.10677,-8.00779 3.32031,-10.54688 2.22981,-2.53903 5.30598,-3.80856 9.22852,-3.80859"
       style="font-size:50px;stroke:#000000;stroke-width:1;font-family:Bravura"
       id="path3017" />
    <path
       d="m 321.12305,123.85547 c -0.50458,-0.29295 -1.05797,-0.50453 -1.66016,-0.63477 -0.58596,-0.14646 -1.237,-0.2197 -1.95312,-0.21972 -2.53908,2e-5 -4.4922,0.8301 -5.85938,2.49023 -1.35092,1.6439 -2.02638,4.01206 -2.02637,7.10449 l 0,14.4043 -4.5166,0 0,-27.34375 4.5166,0 0,4.24805 c 0.944,-1.66013 2.17284,-2.88897 3.68653,-3.68653 1.51365,-0.81377 3.35285,-1.22067 5.51757,-1.2207 0.30923,3e-5 0.65103,0.0244 1.0254,0.0732 0.37432,0.0326 0.78936,0.0895 1.24511,0.1709 l 0.0244,4.61426"
       style="font-size:50px;stroke:#000000;stroke-width:1;font-family:Bravura"
       id="path3019" />
    <path
       d="m 346.29395,124.90527 c 1.12302,-2.0182 2.46579,-3.50746 4.02832,-4.46777 1.56246,-0.96026 3.40165,-1.4404 5.51757,-1.44043 2.84827,3e-5 5.04554,1.001 6.5918,3.00293 1.54618,1.9857 2.31929,4.81773 2.31934,8.49609 l 0,16.50391 -4.51661,0 0,-16.35742 c -3e-5,-2.62043 -0.4639,-4.56541 -1.3916,-5.83496 -0.92777,-1.26951 -2.34378,-1.90428 -4.24804,-1.9043 -2.32751,2e-5 -4.1667,0.77314 -5.51758,2.31934 -1.35094,1.54624 -2.0264,3.65399 -2.02637,6.32324 l 0,15.4541 -4.5166,0 0,-16.35742 c -2e-5,-2.6367 -0.46389,-4.58169 -1.3916,-5.83496 -0.92776,-1.26951 -2.36005,-1.90428 -4.29688,-1.9043 -2.29493,2e-5 -4.11785,0.78127 -5.46875,2.34375 -1.35092,1.54624 -2.02637,3.64585 -2.02636,6.29883 l 0,15.4541 -4.51661,0 0,-27.34375 4.51661,0 0,4.24805 c 1.02538,-1.67641 2.25422,-2.91339 3.68652,-3.71094 1.43228,-0.7975 3.13312,-1.19626 5.10254,-1.19629 1.98566,3e-5 3.67022,0.50459 5.05371,1.51367 1.39971,1.00914 2.43324,2.47398 3.10059,4.39453"
       style="font-size:50px;stroke:#000000;stroke-width:1;font-family:Bravura"
       id="path3021" />
    <path
       d="m 386.16211,133.25488 c -3.62957,2e-5 -6.14422,0.41506 -7.54395,1.24512 -1.39974,0.83009 -2.09961,2.2461 -2.09961,4.24805 0,1.59506 0.52083,2.86459 1.5625,3.80859 1.05794,0.92774 2.49023,1.39161 4.29688,1.3916 2.49022,1e-5 4.48403,-0.8789 5.98144,-2.63672 1.51366,-1.77408 2.27049,-4.12596 2.27051,-7.05566 l 0,-1.00098 -4.46777,0 m 8.95996,-1.85547 0,15.60059 -4.49219,0 0,-4.15039 c -1.02541,1.66016 -2.30308,2.889 -3.83301,3.68652 -1.52996,0.78125 -3.4017,1.17188 -5.61523,1.17188 -2.79949,0 -5.0293,-0.78125 -6.68945,-2.34375 -1.64389,-1.57878 -2.46583,-3.68652 -2.46582,-6.32324 -10e-6,-3.07617 1.02538,-5.3955 3.07617,-6.95801 2.06705,-1.56249 5.14322,-2.34373 9.22851,-2.34375 l 6.29883,0 0,-0.43946 c -2e-5,-2.06703 -0.68361,-3.66208 -2.05078,-4.78515 -1.35093,-1.1393 -3.25522,-1.70896 -5.71289,-1.70899 -1.56251,3e-5 -3.08432,0.1872 -4.56543,0.56153 -1.48113,0.37437 -2.90528,0.93589 -4.27246,1.68457 l 0,-4.15039 c 1.64387,-0.63474 3.23892,-1.10675 4.78516,-1.41602 1.54621,-0.32549 3.05174,-0.48825 4.5166,-0.48828 3.95506,3e-5 6.90916,1.02542 8.8623,3.07617 1.9531,2.05081 2.92966,5.15953 2.92969,9.32617"
       style="font-size:50px;stroke:#000000;stroke-width:1;font-family:Bravura"
       id="path3023" />
    <path
       d="m 408.84277,111.89258 0,7.76367 9.25293,0 0,3.49121 -9.25293,0 0,14.84375 c -10e-6,2.22983 0.3011,3.66212 0.90332,4.29688 0.61848,0.63477 1.8636,0.95215 3.73536,0.95214 l 4.61425,0 0,3.75977 -4.61425,0 c -3.46681,0 -5.85939,-0.6429 -7.17774,-1.92871 -1.31836,-1.30208 -1.97754,-3.6621 -1.97754,-7.08008 l 0,-14.84375 -3.2959,0 0,-3.49121 3.2959,0 0,-7.76367 4.5166,0"
       style="font-size:50px;stroke:#000000;stroke-width:1;font-family:Bravura"
       id="path3025" />
    <path
       d="m 434.81934,109.06055 c -2.18101,3.74352 -3.80047,7.44632 -4.8584,11.1084 -1.05795,3.66213 -1.58693,7.37306 -1.58692,11.13281 -10e-6,3.75978 0.52897,7.48699 1.58692,11.18164 1.0742,3.67838 2.69367,7.38118 4.8584,11.1084 l -3.90625,0 c -2.44142,-3.82488 -4.27247,-7.58464 -5.49317,-11.2793 -1.20443,-3.69465 -1.80664,-7.3649 -1.80664,-11.01074 0,-3.62954 0.60221,-7.28351 1.80664,-10.96192 1.20442,-3.67835 3.03547,-7.43811 5.49317,-11.27929 l 3.90625,0"
       style="font-size:50px;stroke:#000000;stroke-width:1;font-family:Bravura"
       id="path3027" />
    <path
       d="m 465.6543,119.65625 0,27.34375 -4.5166,0 0,-23.85254 -12.32911,0 0,23.85254 -4.5166,0 0,-23.85254 -4.29687,0 0,-3.49121 4.29687,0 0,-1.9043 c 0,-2.97848 0.69987,-5.17574 2.09961,-6.59179 1.41601,-1.43226 3.58072,-2.1484 6.49414,-2.14844 l 4.5166,0 0,3.73535 -4.29687,0 c -1.61134,3e-5 -2.73439,0.32556 -3.36914,0.97656 -0.6185,0.65108 -0.92775,1.82295 -0.92774,3.51563 l 0,2.41699 16.84571,0 m -4.5166,-10.5957 4.5166,0 0,5.68847 -4.5166,0 0,-5.68847"
       style="font-size:50px;stroke:#000000;stroke-width:1;font-family:Bravura"
       id="path3029" />
    <path
       d="m 475.10254,109.01172 4.49219,0 0,37.98828 -4.49219,0 0,-37.98828"
       style="font-size:50px;stroke:#000000;stroke-width:1;font-family:Bravura"
       id="path3031" />
    <path
       d="m 512.3584,132.20508 0,2.19726 -20.6543,0 c 0.19531,3.09246 1.12304,5.45248 2.7832,7.08008 1.67643,1.61133 4.0039,2.417 6.98243,2.41699 1.72524,1e-5 3.39353,-0.21158 5.00488,-0.63476 1.62758,-0.42317 3.23891,-1.05794 4.83398,-1.9043 l 0,4.24805 c -1.61135,0.68359 -3.26337,1.20443 -4.95605,1.5625 -1.69273,0.35807 -3.40985,0.53711 -5.15137,0.53711 -4.36199,0 -7.82065,-1.26953 -10.37597,-3.8086 -2.53907,-2.53905 -3.8086,-5.97329 -3.8086,-10.30273 0,-4.47589 1.20442,-8.02407 3.61328,-10.64453 2.42512,-2.63669 5.68847,-3.95505 9.79004,-3.95508 3.67837,3e-5 6.58364,1.18818 8.71582,3.56445 2.14841,2.36005 3.22263,5.57457 3.22266,9.64356 m -4.49219,-1.31836 c -0.0326,-2.45766 -0.72431,-4.41893 -2.07519,-5.88379 -1.33466,-1.46482 -3.10875,-2.19724 -5.32227,-2.19727 -2.50652,3e-5 -4.51661,0.70804 -6.03027,2.12403 -1.49741,1.41603 -2.36004,3.40985 -2.58789,5.98144 l 16.01562,-0.0244"
       style="font-size:50px;stroke:#000000;stroke-width:1;font-family:Bravura"
       id="path3033" />
    <path
       d="m 542.46094,130.49609 0,16.50391 -4.49219,0 0,-16.35742 c -2e-5,-2.58787 -0.50458,-4.52472 -1.51367,-5.81055 -1.00914,-1.28578 -2.52281,-1.92869 -4.54102,-1.92871 -2.42514,2e-5 -4.33758,0.77314 -5.7373,2.31934 -1.39975,1.54624 -2.09962,3.65399 -2.09961,6.32324 l 0,15.4541 -4.5166,0 0,-27.34375 4.5166,0 0,4.24805 c 1.07421,-1.64386 2.3356,-2.8727 3.78418,-3.68653 1.46483,-0.81377 3.1494,-1.22067 5.05371,-1.2207 3.14125,3e-5 5.51755,0.97659 7.12891,2.92969 1.6113,1.93687 2.41696,4.79331 2.41699,8.56933"
       style="font-size:50px;stroke:#000000;stroke-width:1;font-family:Bravura"
       id="path3035" />
    <path
       d="m 563.89648,133.25488 c -3.62957,2e-5 -6.14421,0.41506 -7.54394,1.24512 -1.39975,0.83009 -2.09962,2.2461 -2.09961,4.24805 -10e-6,1.59506 0.52083,2.86459 1.5625,3.80859 1.05793,0.92774 2.49022,1.39161 4.29687,1.3916 2.49022,1e-5 4.48404,-0.8789 5.98145,-2.63672 1.51365,-1.77408 2.27049,-4.12596 2.27051,-7.05566 l 0,-1.00098 -4.46778,0 m 8.95997,-1.85547 0,15.60059 -4.49219,0 0,-4.15039 c -1.02541,1.66016 -2.30308,2.889 -3.83301,3.68652 -1.52996,0.78125 -3.40171,1.17188 -5.61523,1.17188 -2.79949,0 -5.02931,-0.78125 -6.68946,-2.34375 -1.64388,-1.57878 -2.46582,-3.68652 -2.46582,-6.32324 0,-3.07617 1.02539,-5.3955 3.07617,-6.95801 2.06705,-1.56249 5.14322,-2.34373 9.22852,-2.34375 l 6.29883,0 0,-0.43946 c -2e-5,-2.06703 -0.68362,-3.66208 -2.05078,-4.78515 -1.35093,-1.1393 -3.25523,-1.70896 -5.71289,-1.70899 -1.56252,3e-5 -3.08432,0.1872 -4.56543,0.56153 -1.48113,0.37437 -2.90528,0.93589 -4.27246,1.68457 l 0,-4.15039 c 1.64387,-0.63474 3.23892,-1.10675 4.78515,-1.41602 1.54621,-0.32549 3.05175,-0.48825 4.5166,-0.48828 3.95506,3e-5 6.90916,1.02542 8.86231,3.07617 1.9531,2.05081 2.92966,5.15953 2.92969,9.32617"
       style="font-size:50px;stroke:#000000;stroke-width:1;font-family:Bravura"
       id="path3037" />
    <path
       d="m 603.42285,124.90527 c 1.12302,-2.0182 2.46579,-3.50746 4.02832,-4.46777 1.56247,-0.96026 3.40166,-1.4404 5.51758,-1.44043 2.84827,3e-5 5.04553,1.001 6.5918,3.00293 1.54618,1.9857 2.31929,4.81773 2.31933,8.49609 l 0,16.50391 -4.5166,0 0,-16.35742 c -4e-5,-2.62043 -0.46391,-4.56541 -1.3916,-5.83496 -0.92777,-1.26951 -2.34379,-1.90428 -4.24805,-1.9043 -2.3275,2e-5 -4.16669,0.77314 -5.51758,2.31934 -1.35093,1.54624 -2.02639,3.65399 -2.02636,6.32324 l 0,15.4541 -4.5166,0 0,-16.35742 c -3e-5,-2.6367 -0.46389,-4.58169 -1.39161,-5.83496 -0.92775,-1.26951 -2.36004,-1.90428 -4.29687,-1.9043 -2.29494,2e-5 -4.11785,0.78127 -5.46875,2.34375 -1.35092,1.54624 -2.02638,3.64585 -2.02637,6.29883 l 0,15.4541 -4.5166,0 0,-27.34375 4.5166,0 0,4.24805 c 1.02538,-1.67641 2.25422,-2.91339 3.68653,-3.71094 1.43227,-0.7975 3.13312,-1.19626 5.10253,-1.19629 1.98566,3e-5 3.67023,0.50459 5.05372,1.51367 1.39971,1.00914 2.43324,2.47398 3.10058,4.39453"
       style="font-size:50px;stroke:#000000;stroke-width:1;font-family:Bravura"
       id="path3039" />
    <path
       d="m 654.25293,132.20508 0,2.19726 -20.6543,0 c 0.19531,3.09246 1.12304,5.45248 2.78321,7.08008 1.67642,1.61133 4.00389,2.417 6.98242,2.41699 1.72524,1e-5 3.39353,-0.21158 5.00488,-0.63476 1.62758,-0.42317 3.23891,-1.05794 4.83398,-1.9043 l 0,4.24805 c -1.61135,0.68359 -3.26337,1.20443 -4.95605,1.5625 -1.69273,0.35807 -3.40985,0.53711 -5.15137,0.53711 -4.36199,0 -7.82064,-1.26953 -10.37597,-3.8086 -2.53907,-2.53905 -3.8086,-5.97329 -3.8086,-10.30273 0,-4.47589 1.20443,-8.02407 3.61328,-10.64453 2.42513,-2.63669 5.68847,-3.95505 9.79004,-3.95508 3.67837,3e-5 6.58364,1.18818 8.71582,3.56445 2.14841,2.36005 3.22263,5.57457 3.22266,9.64356 m -4.49219,-1.31836 c -0.0326,-2.45766 -0.7243,-4.41893 -2.07519,-5.88379 -1.33466,-1.46482 -3.10875,-2.19724 -5.32227,-2.19727 -2.50652,3e-5 -4.51661,0.70804 -6.03027,2.12403 -1.49741,1.41603 -2.36004,3.40985 -2.58789,5.98144 l 16.01562,-0.0244"
       style="font-size:50px;stroke:#000000;stroke-width:1;font-family:Bravura"
       id="path3041" />
    <path
       d="m 660.91797,109.06055 3.90625,0 c 2.44139,3.84118 4.26431,7.60094 5.46875,11.27929 1.22069,3.67841 1.83104,7.33238 1.83105,10.96192 -10e-6,3.64584 -0.61036,7.31609 -1.83105,11.01074 -1.20444,3.69466 -3.02736,7.45442 -5.46875,11.2793 l -3.90625,0 c 2.16471,-3.72722 3.77603,-7.43002 4.83398,-11.1084 1.07421,-3.69465 1.61132,-7.42186 1.61133,-11.18164 -10e-6,-3.75975 -0.53712,-7.47068 -1.61133,-11.13281 -1.05795,-3.66208 -2.66927,-7.36488 -4.83398,-11.1084"
       style="font-size:50px;stroke:#000000;stroke-width:1;font-family:Bravura"
       id="path3043" />
    <path
       d="m 680.44922,109.06055 3.90625,0 c 2.44139,3.84118 4.26431,7.60094 5.46875,11.27929 1.22069,3.67841 1.83104,7.33238 1.83105,10.96192 -10e-6,3.64584 -0.61036,7.31609 -1.83105,11.01074 -1.20444,3.69466 -3.02736,7.45442 -5.46875,11.2793 l -3.90625,0 c 2.16471,-3.72722 3.77603,-7.43002 4.83398,-11.1084 1.07421,-3.69465 1.61132,-7.42186 1.61133,-11.18164 -10e-6,-3.75975 -0.53712,-7.47068 -1.61133,-11.13281 -1.05795,-3.66208 -2.66927,-7.36488 -4.83398,-11.1084"
       style="font-size:50px;stroke:#000000;stroke-width:1;font-family:Bravura"
       id="path3045" />
  </g>
  <g
     style="font-size:48px;stroke:#000000;stroke-width:1;font-family:Bravura"
     id="text16">
    <path
       d="m 624.53906,106.88281 -6.82031,0 -1.96875,7.82813 6.86719,0 1.92187,-7.82813 m -3.51562,-13.335935 -2.4375,9.726565 6.84375,0 2.46093,-9.726565 3.75,0 -2.41406,9.726565 7.3125,0 0,3.60937 -8.22656,0 -1.92188,7.82813 7.45313,0 0,3.58594 -8.36719,0 -2.4375,9.70312 -3.75,0 2.41406,-9.70312 -6.86718,0 -2.41407,9.70312 -3.77343,0 2.4375,-9.70312 -7.38282,0 0,-3.58594 8.25,0 1.96875,-7.82813 -7.54687,0 0,-3.60937 8.46094,0 2.39062,-9.726565 3.79688,0"
       style="font-size:48px;stroke:#000000;stroke-width:1;font-family:Bravura"
       id="path3048" />
    <path
       d="m 654.91406,104.77344 c -2.31251,2e-5 -4.14063,0.90627 -5.48437,2.71875 -1.34376,1.79689 -2.01563,4.26564 -2.01563,7.40625 0,3.14063 0.66406,5.61719 1.99219,7.42969 1.34374,1.79687 3.17968,2.69531 5.50781,2.69531 2.29686,0 4.11717,-0.90625 5.46094,-2.71875 1.34373,-1.81249 2.0156,-4.28124 2.01562,-7.40625 -2e-5,-3.10936 -0.67189,-5.5703 -2.01562,-7.38281 -1.34377,-1.82811 -3.16408,-2.74217 -5.46094,-2.74219 m 0,-3.65625 c 3.74998,2e-5 6.69529,1.21877 8.83594,3.65625 2.1406,2.43752 3.21091,5.81251 3.21094,10.125 -3e-5,4.29688 -1.07034,7.67188 -3.21094,10.125 -2.14065,2.4375 -5.08596,3.65625 -8.83594,3.65625 -3.76563,0 -6.71876,-1.21875 -8.85937,-3.65625 -2.12501,-2.45312 -3.18751,-5.82812 -3.1875,-10.125 -1e-5,-4.31249 1.06249,-7.68748 3.1875,-10.125 2.14061,-2.43748 5.09374,-3.65623 8.85937,-3.65625"
       style="font-size:48px;stroke:#000000;stroke-width:1;font-family:Bravura"
       id="path3050" />
    <path
       d="m 690.82031,102.52344 0,4.07812 c -1.21877,-0.62498 -2.48439,-1.09373 -3.79687,-1.40625 -1.31252,-0.31247 -2.67189,-0.46872 -4.07813,-0.46875 -2.14063,3e-5 -3.75001,0.32815 -4.82812,0.98438 -1.06251,0.65627 -1.59376,1.64064 -1.59375,2.95312 -1e-5,1.00002 0.3828,1.78908 1.14843,2.36719 0.76562,0.56252 2.30468,1.10158 4.61719,1.61719 l 1.47656,0.32812 c 3.06249,0.65627 5.23436,1.58595 6.51563,2.78907 1.29685,1.18751 1.94529,2.85157 1.94531,4.99218 -2e-5,2.43751 -0.96877,4.36719 -2.90625,5.78907 -1.92189,1.42187 -4.57033,2.13281 -7.94531,2.13281 -1.40626,0 -2.87501,-0.14063 -4.40625,-0.42188 -1.51563,-0.26562 -3.11719,-0.67187 -4.80469,-1.21875 l 0,-4.45312 c 1.59375,0.82813 3.16406,1.45313 4.71094,1.875 1.54687,0.40625 3.07811,0.60938 4.59375,0.60937 2.03124,10e-6 3.59373,-0.34374 4.6875,-1.03125 1.09373,-0.70312 1.64061,-1.68749 1.64062,-2.95312 -10e-6,-1.17187 -0.39845,-2.07031 -1.19531,-2.69531 -0.78126,-0.62499 -2.50782,-1.22656 -5.17969,-1.80469 l -1.5,-0.35156 c -2.67188,-0.56249 -4.60156,-1.42187 -5.78906,-2.57813 -1.1875,-1.17186 -1.78125,-2.77342 -1.78125,-4.80469 0,-2.46873 0.875,-4.37497 2.625,-5.71875 1.75,-1.34372 4.23437,-2.0156 7.45313,-2.01562 1.59373,2e-5 3.09373,0.11721 4.5,0.35156 1.40623,0.2344 2.7031,0.58596 3.89062,1.05469"
       style="font-size:48px;stroke:#000000;stroke-width:1;font-family:Bravura"
       id="path3052" />
    <path
       d="m 699.72656,122.04688 4.94531,0 0,5.95312 -4.94531,0 0,-5.95312"
       style="font-size:48px;stroke:#000000;stroke-width:1;font-family:Bravura"
       id="path3054" />
    <path
       d="m 731.13281,102.52344 0,4.07812 c -1.21877,-0.62498 -2.48439,-1.09373 -3.79687,-1.40625 -1.31252,-0.31247 -2.67189,-0.46872 -4.07813,-0.46875 -2.14063,3e-5 -3.75001,0.32815 -4.82812,0.98438 -1.06251,0.65627 -1.59376,1.64064 -1.59375,2.95312 -1e-5,1.00002 0.3828,1.78908 1.14843,2.36719 0.76562,0.56252 2.30468,1.10158 4.61719,1.61719 l 1.47656,0.32812 c 3.06249,0.65627 5.23436,1.58595 6.51563,2.78907 1.29685,1.18751 1.94529,2.85157 1.94531,4.99218 -2e-5,2.43751 -0.96877,4.36719 -2.90625,5.78907 -1.92189,1.42187 -4.57033,2.13281 -7.94531,2.13281 -1.40626,0 -2.87501,-0.14063 -4.40625,-0.42188 -1.51563,-0.26562 -3.11719,-0.67187 -4.80469,-1.21875 l 0,-4.45312 c 1.59375,0.82813 3.16406,1.45313 4.71094,1.875 1.54687,0.40625 3.07811,0.60938 4.59375,0.60937 2.03124,10e-6 3.59373,-0.34374 4.6875,-1.03125 1.09373,-0.70312 1.64061,-1.68749 1.64062,-2.95312 -10e-6,-1.17187 -0.39845,-2.07031 -1.19531,-2.69531 -0.78126,-0.62499 -2.50782,-1.22656 -5.17969,-1.80469 l -1.5,-0.35156 c -2.67188,-0.56249 -4.60156,-1.42187 -5.78906,-2.57813 -1.1875,-1.17186 -1.78125,-2.77342 -1.78125,-4.80469 0,-2.46873 0.875,-4.37497 2.625,-5.71875 1.75,-1.34372 4.23437,-2.0156 7.45313,-2.01562 1.59373,2e-5 3.09373,0.11721 4.5,0.35156 1.40623,0.2344 2.7031,0.58596 3.89062,1.05469"
       style="font-size:48px;stroke:#000000;stroke-width:1;font-family:Bravura"
       id="path3056" />
    <path
       d="m 750.35156,130.4375 c -1.21876,3.12499 -2.40626,5.16405 -3.5625,6.11719 -1.15626,0.95311 -2.70313,1.42968 -4.64062,1.42968 l -3.44532,0 0,-3.60937 2.53125,0 c 1.1875,-1e-5 2.10937,-0.28126 2.76563,-0.84375 0.65624,-0.5625 1.3828,-1.89063 2.17969,-3.98438 l 0.77343,-1.96874 -10.61718,-25.82813 4.57031,0 8.20312,20.53125 8.20313,-20.53125 4.57031,0 -11.53125,28.6875"
       style="font-size:48px;stroke:#000000;stroke-width:1;font-family:Bravura"
       id="path3058" />
    <path
       d="m 784.57031,102.52344 0,4.07812 c -1.21877,-0.62498 -2.48439,-1.09373 -3.79687,-1.40625 -1.31252,-0.31247 -2.67189,-0.46872 -4.07813,-0.46875 -2.14063,3e-5 -3.75001,0.32815 -4.82812,0.98438 -1.06251,0.65627 -1.59376,1.64064 -1.59375,2.95312 -1e-5,1.00002 0.3828,1.78908 1.14843,2.36719 0.76562,0.56252 2.30468,1.10158 4.61719,1.61719 l 1.47656,0.32812 c 3.06249,0.65627 5.23436,1.58595 6.51563,2.78907 1.29685,1.18751 1.94529,2.85157 1.94531,4.99218 -2e-5,2.43751 -0.96877,4.36719 -2.90625,5.78907 -1.92189,1.42187 -4.57033,2.13281 -7.94531,2.13281 -1.40626,0 -2.87501,-0.14063 -4.40625,-0.42188 -1.51563,-0.26562 -3.11719,-0.67187 -4.80469,-1.21875 l 0,-4.45312 c 1.59375,0.82813 3.16406,1.45313 4.71094,1.875 1.54687,0.40625 3.07811,0.60938 4.59375,0.60937 2.03124,10e-6 3.59373,-0.34374 4.6875,-1.03125 1.09373,-0.70312 1.64061,-1.68749 1.64062,-2.95312 -10e-6,-1.17187 -0.39845,-2.07031 -1.19531,-2.69531 -0.78126,-0.62499 -2.50782,-1.22656 -5.17969,-1.80469 l -1.5,-0.35156 c -2.67188,-0.56249 -4.60156,-1.42187 -5.78906,-2.57813 -1.1875,-1.17186 -1.78125,-2.77342 -1.78125,-4.80469 0,-2.46873 0.875,-4.37497 2.625,-5.71875 1.75,-1.34372 4.23437,-2.0156 7.45313,-2.01562 1.59373,2e-5 3.09373,0.11721 4.5,0.35156 1.40623,0.2344 2.7031,0.58596 3.89062,1.05469"
       style="font-size:48px;stroke:#000000;stroke-width:1;font-family:Bravura"
       id="path3060" />
    <path
       d="m 797.13281,94.296875 0,7.453125 8.88281,0 0,3.35156 -8.88281,0 0,14.25 c -10e-6,2.14063 0.28906,3.51563 0.86719,4.125 0.59374,0.60938 1.78905,0.91407 3.58594,0.91407 l 4.42968,0 0,3.60937 -4.42968,0 c -3.32814,0 -5.62501,-0.61719 -6.89063,-1.85156 -1.26563,-1.25 -1.89844,-3.51562 -1.89844,-6.79688 l 0,-14.25 -3.16406,0 0,-3.35156 3.16406,0 0,-7.453125 4.33594,0"
       style="font-size:48px;stroke:#000000;stroke-width:1;font-family:Bravura"
       id="path3062" />
    <path
       d="m 834.16406,113.79688 0,2.10937 -19.82812,0 c 0.18749,2.96876 1.07811,5.23438 2.67187,6.79688 1.60937,1.54687 3.84374,2.32031 6.70313,2.32031 1.65623,0 3.25779,-0.20312 4.80468,-0.60938 1.56248,-0.40624 3.10936,-1.01562 4.64063,-1.82812 l 0,4.07812 c -1.5469,0.65625 -3.13284,1.15625 -4.75781,1.5 -1.62502,0.34375 -3.27346,0.51563 -4.94532,0.51563 -4.18751,0 -7.50782,-1.21875 -9.96093,-3.65625 -2.43751,-2.4375 -3.65626,-5.73437 -3.65625,-9.89063 -1e-5,-4.29686 1.15624,-7.7031 3.46875,-10.21875 2.32811,-2.53122 5.46092,-3.79685 9.39843,-3.79687 3.53124,2e-5 6.3203,1.14065 8.36719,3.42187 2.06248,2.26565 3.09373,5.35158 3.09375,9.25782 m -4.3125,-1.26563 c -0.0313,-2.35936 -0.69533,-4.24217 -1.99219,-5.64844 -1.28126,-1.40622 -2.98439,-2.10935 -5.10937,-2.10937 -2.40626,2e-5 -4.33595,0.67971 -5.78906,2.03906 -1.43751,1.35939 -2.26564,3.27346 -2.48438,5.74219 l 15.375,-0.0234"
       style="font-size:48px;stroke:#000000;stroke-width:1;font-family:Bravura"
       id="path3064" />
    <path
       d="m 861.67969,106.78906 c 1.0781,-1.93747 2.36716,-3.36716 3.86718,-4.28906 1.49997,-0.92185 3.2656,-1.38279 5.29688,-1.38281 2.73434,2e-5 4.84371,0.96096 6.32812,2.88281 1.48434,1.90627 2.22652,4.62502 2.22657,8.15625 l 0,15.84375 -4.33594,0 0,-15.70312 c -4e-5,-2.51561 -0.44535,-4.3828 -1.33594,-5.60157 -0.89066,-1.21872 -2.25003,-1.8281 -4.07812,-1.82812 -2.23441,2e-5 -4.00003,0.74221 -5.29688,2.22656 -1.2969,1.48439 -1.94534,3.50783 -1.94531,6.07031 l 0,14.83594 -4.33594,0 0,-15.70312 c -2e-5,-2.53124 -0.44533,-4.39842 -1.33594,-5.60157 -0.89064,-1.21872 -2.26564,-1.8281 -4.125,-1.82812 -2.20313,2e-5 -3.95313,0.75002 -5.25,2.25 -1.29688,1.48439 -1.94532,3.50001 -1.94531,6.04687 l 0,14.83594 -4.33594,0 0,-26.25 4.33594,0 0,4.07813 c 0.98437,-1.60936 2.16405,-2.79686 3.53906,-3.5625 1.37499,-0.7656 3.0078,-1.14842 4.89844,-1.14844 1.90623,2e-5 3.52342,0.4844 4.85156,1.45312 1.34373,0.96878 2.33592,2.37503 2.97657,4.21875"
       style="font-size:48px;stroke:#000000;stroke-width:1;font-family:Bravura"
       id="path3066" />
    <path
       d="m 898.38281,91.578125 c -2.09376,3.593783 -3.64845,7.148467 -4.66406,10.664065 -1.01563,3.51564 -1.52345,7.07814 -1.52344,10.6875 -10e-6,3.60938 0.50781,7.18751 1.52344,10.73437 1.03124,3.53125 2.58592,7.08594 4.66406,10.66406 l -3.75,0 c -2.34376,-3.67187 -4.10157,-7.28124 -5.27344,-10.82812 -1.15625,-3.54687 -1.73437,-7.0703 -1.73437,-10.57031 0,-3.48436 0.57812,-6.99217 1.73437,-10.52344 1.15625,-3.531221 2.91406,-7.140592 5.27344,-10.828125 l 3.75,0"
       style="font-size:48px;stroke:#000000;stroke-width:1;font-family:Bravura"
       id="path3068" />
    <path
       d="m 910.85156,93.007812 0,13.007818 -3.98437,0 0,-13.007818 3.98437,0"
       style="font-size:48px;stroke:#000000;stroke-width:1;font-family:Bravura"
       id="path3070" />
    <path
       d="m 919.99219,101.75 4.3125,0 0,26.25 -4.3125,0 0,-26.25 m 0,-10.21875 4.3125,0 0,5.460937 -4.3125,0 0,-5.460937"
       style="font-size:48px;stroke:#000000;stroke-width:1;font-family:Bravura"
       id="path3072" />
    <path
       d="m 955.125,112.15625 0,15.84375 -4.3125,0 0,-15.70312 c -2e-5,-2.48436 -0.4844,-4.34373 -1.45313,-5.57813 -0.96876,-1.23435 -2.42189,-1.85154 -4.35937,-1.85156 -2.32814,2e-5 -4.16407,0.74221 -5.50781,2.22656 -1.34376,1.48439 -2.01564,3.50783 -2.01563,6.07031 l 0,14.83594 -4.33594,0 0,-26.25 4.33594,0 0,4.07813 c 1.03124,-1.57811 2.24218,-2.75779 3.63281,-3.53907 1.40624,-0.78122 3.02343,-1.17185 4.85157,-1.17187 3.0156,2e-5 5.29685,0.93752 6.84375,2.8125 1.54685,1.85939 2.32028,4.60158 2.32031,8.22656"
       style="font-size:48px;stroke:#000000;stroke-width:1;font-family:Bravura"
       id="path3074" />
    <path
       d="m 963.60937,91.53125 4.33594,0 0,21.53906 12.86719,-11.32031 5.50781,0 -13.92187,12.28125 14.50781,13.96875 -5.625,0 -13.33594,-12.82031 0,12.82031 -4.33594,0 0,-36.46875"
       style="font-size:48px;stroke:#000000;stroke-width:1;font-family:Bravura"
       id="path3076" />
    <path
       d="m 1008.3516,102.52344 0,4.07812 c -1.2188,-0.62498 -2.4844,-1.09373 -3.7969,-1.40625 -1.3125,-0.31247 -2.6719,-0.46872 -4.0781,-0.46875 -2.14067,3e-5 -3.75005,0.32815 -4.82816,0.98438 -1.06251,0.65627 -1.59376,1.64064 -1.59375,2.95312 -1e-5,1.00002 0.3828,1.78908 1.14843,2.36719 0.76562,0.56252 2.30468,1.10158 4.61719,1.61719 l 1.47659,0.32812 c 3.0625,0.65627 5.2343,1.58595 6.5156,2.78907 1.2969,1.18751 1.9453,2.85157 1.9453,4.99218 0,2.43751 -0.9688,4.36719 -2.9062,5.78907 -1.9219,1.42187 -4.5704,2.13281 -7.94535,2.13281 -1.40626,0 -2.87501,-0.14063 -4.40625,-0.42188 -1.51563,-0.26562 -3.11719,-0.67187 -4.80469,-1.21875 l 0,-4.45312 c 1.59375,0.82813 3.16406,1.45313 4.71094,1.875 1.54687,0.40625 3.07811,0.60938 4.59375,0.60937 2.0312,10e-6 3.5937,-0.34374 4.6875,-1.03125 1.0937,-0.70312 1.6406,-1.68749 1.6406,-2.95312 0,-1.17187 -0.3984,-2.07031 -1.1953,-2.69531 -0.7813,-0.62499 -2.5078,-1.22656 -5.17968,-1.80469 l -1.5,-0.35156 c -2.67188,-0.56249 -4.60156,-1.42187 -5.78906,-2.57813 -1.1875,-1.17186 -1.78125,-2.77342 -1.78125,-4.80469 0,-2.46873 0.875,-4.37497 2.625,-5.71875 1.75,-1.34372 4.23437,-2.0156 7.45313,-2.01562 1.59376,2e-5 3.09376,0.11721 4.49996,0.35156 1.4063,0.2344 2.7031,0.58596 3.8907,1.05469"
       style="font-size:48px;stroke:#000000;stroke-width:1;font-family:Bravura"
       id="path3078" />
    <path
       d="m 1035.5391,102.75781 0,4.03125 c -1.2188,-0.67185 -2.4454,-1.17185 -3.6797,-1.5 -1.2188,-0.34372 -2.4532,-0.5156 -3.7031,-0.51562 -2.7969,2e-5 -4.9688,0.89064 -6.5157,2.67187 -1.5469,1.76565 -2.3203,4.25002 -2.3203,7.45313 0,3.20313 0.7734,5.69532 2.3203,7.47656 1.5469,1.76563 3.7188,2.64844 6.5157,2.64844 1.2499,0 2.4843,-0.16406 3.7031,-0.49219 1.2343,-0.34375 2.4609,-0.85156 3.6797,-1.52344 l 0,3.98438 c -1.2032,0.5625 -2.4532,0.98437 -3.75,1.26562 -1.2813,0.28125 -2.6485,0.42188 -4.1016,0.42188 -3.9531,0 -7.0938,-1.24219 -9.4219,-3.72656 -2.3281,-2.48437 -3.4922,-5.83593 -3.4922,-10.05469 0,-4.28124 1.1719,-7.64842 3.5157,-10.10156 2.3593,-2.4531 5.5859,-3.67967 9.6797,-3.67969 1.3281,2e-5 2.6249,0.14065 3.8906,0.42187 1.2656,0.26565 2.4921,0.6719 3.6797,1.21875"
       style="font-size:48px;stroke:#000000;stroke-width:1;font-family:Bravura"
       id="path3080" />
    <path
       d="m 1055.0156,114.80469 c -3.4844,1e-5 -5.8984,0.39845 -7.2422,1.19531 -1.3437,0.79689 -2.0156,2.15626 -2.0156,4.07813 0,1.53125 0.5,2.75 1.5,3.65625 1.0156,0.89062 2.3906,1.33594 4.125,1.33593 2.3906,10e-6 4.3047,-0.84374 5.7422,-2.53125 1.4531,-1.70312 2.1797,-3.96093 2.1797,-6.77343 l 0,-0.96094 -4.2891,0 m 8.6016,-1.78125 0,14.97656 -4.3125,0 0,-3.98437 c -0.9844,1.59375 -2.211,2.77343 -3.6797,3.53906 -1.4688,0.75 -3.2656,1.125 -5.3906,1.125 -2.6875,0 -4.8282,-0.75 -6.4219,-2.25 -1.5781,-1.51562 -2.3672,-3.53906 -2.3672,-6.07031 0,-2.95312 0.9844,-5.17968 2.9531,-6.67969 1.9844,-1.49999 4.9375,-2.24999 8.8594,-2.25 l 6.0469,0 0,-0.42188 c 0,-1.98435 -0.6563,-3.5156 -1.9688,-4.59375 -1.2969,-1.09372 -3.125,-1.6406 -5.4843,-1.64062 -1.5,2e-5 -2.961,0.17971 -4.3828,0.53906 -1.4219,0.3594 -2.7891,0.89846 -4.1016,1.61719 l 0,-3.98438 c 1.5781,-0.60935 3.1094,-1.06247 4.5937,-1.35937 1.4844,-0.31248 2.9297,-0.46873 4.336,-0.46875 3.7968,2e-5 6.6328,0.9844 8.5078,2.95312 1.875,1.96877 2.8125,4.95315 2.8125,8.95313"
       style="font-size:48px;stroke:#000000;stroke-width:1;font-family:Bravura"
       id="path3082" />
    <path
       d="m 1076.6953,124.0625 0,13.92187 -4.3359,0 0,-36.23437 4.3359,0 0,3.98438 c 0.9063,-1.56248 2.0469,-2.71873 3.4219,-3.46875 1.3906,-0.7656 3.0468,-1.14842 4.9687,-1.14844 3.1875,2e-5 5.7735,1.26565 7.7579,3.79687 1.9999,2.53127 2.9999,5.85939 3,9.98438 -1e-4,4.12501 -1.0001,7.45313 -3,9.98437 -1.9844,2.53125 -4.5704,3.79688 -7.7579,3.79688 -1.9219,0 -3.5781,-0.375 -4.9687,-1.125 -1.375,-0.76563 -2.5156,-1.92969 -3.4219,-3.49219 m 14.6719,-9.16406 c 0,-3.17186 -0.6563,-5.65623 -1.9688,-7.45313 -1.2969,-1.81248 -3.0859,-2.71872 -5.3671,-2.71875 -2.2813,3e-5 -4.0782,0.90627 -5.3907,2.71875 -1.2969,1.7969 -1.9453,4.28127 -1.9453,7.45313 0,3.17188 0.6484,5.66407 1.9453,7.47656 1.3125,1.79688 3.1094,2.69532 5.3907,2.69531 2.2812,10e-6 4.0702,-0.89843 5.3671,-2.69531 1.3125,-1.81249 1.9688,-4.30468 1.9688,-7.47656"
       style="font-size:48px;stroke:#000000;stroke-width:1;font-family:Bravura"
       id="path3084" />
    <path
       d="m 1125.4453,113.79688 0,2.10937 -19.8281,0 c 0.1875,2.96876 1.0781,5.23438 2.6719,6.79688 1.6093,1.54687 3.8437,2.32031 6.7031,2.32031 1.6562,0 3.2578,-0.20312 4.8047,-0.60938 1.5625,-0.40624 3.1093,-1.01562 4.6406,-1.82812 l 0,4.07812 c -1.5469,0.65625 -3.1328,1.15625 -4.7578,1.5 -1.625,0.34375 -3.2735,0.51563 -4.9453,0.51563 -4.1875,0 -7.5078,-1.21875 -9.961,-3.65625 -2.4375,-2.4375 -3.6562,-5.73437 -3.6562,-9.89063 0,-4.29686 1.1562,-7.7031 3.4687,-10.21875 2.3282,-2.53122 5.461,-3.79685 9.3985,-3.79687 3.5312,2e-5 6.3203,1.14065 8.3672,3.42187 2.0624,2.26565 3.0937,5.35158 3.0937,9.25782 m -4.3125,-1.26563 c -0.031,-2.35936 -0.6953,-4.24217 -1.9922,-5.64844 -1.2812,-1.40622 -2.9844,-2.10935 -5.1093,-2.10937 -2.4063,2e-5 -4.336,0.67971 -5.7891,2.03906 -1.4375,1.35939 -2.2656,3.27346 -2.4844,5.74219 l 15.375,-0.0234"
       style="font-size:48px;stroke:#000000;stroke-width:1;font-family:Bravura"
       id="path3086" />
    <path
       d="m 1167.8203,132.45312 0,3.375 -1.4531,0 c -3.8907,0 -6.5,-0.57813 -7.8281,-1.73437 -1.3126,-1.15625 -1.9688,-3.46094 -1.9688,-6.91406 l 0,-5.60156 c 0,-2.35937 -0.4219,-3.99218 -1.2656,-4.89844 -0.8438,-0.90624 -2.375,-1.35936 -4.5938,-1.35938 l -1.4296,0 0,-3.35156 1.4296,0 c 2.2344,2e-5 3.7657,-0.4453 4.5938,-1.33594 0.8437,-0.90623 1.2656,-2.52342 1.2656,-4.85156 l 0,-5.625 c 0,-3.453094 0.6562,-5.749966 1.9688,-6.890625 1.3281,-1.156214 3.9374,-1.734339 7.8281,-1.734375 l 1.4531,0 0,3.351562 -1.5937,0 c -2.2032,3.4e-5 -3.6407,0.343783 -4.3125,1.03125 -0.6719,0.687532 -1.0079,2.132843 -1.0078,4.335938 l 0,5.8125 c -1e-4,2.45314 -0.3594,4.23439 -1.0782,5.34375 -0.7031,1.10939 -1.9141,1.85939 -3.6328,2.25 1.7344,0.42189 2.9531,1.18751 3.6563,2.29688 0.7031,1.10938 1.0546,2.88282 1.0547,5.32031 l 0,5.8125 c -1e-4,2.20312 0.3359,3.64843 1.0078,4.33593 0.6718,0.6875 2.1093,1.03125 4.3125,1.03125 l 1.5937,0"
       style="font-size:48px;stroke:#000000;stroke-width:1;font-family:Bravura"
       id="path3088" />
    <path
       d="m 1189.1016,96.125 c -2.4376,3.2e-5 -4.2735,1.203156 -5.5078,3.609375 -1.2188,2.390655 -1.8282,5.992205 -1.8282,10.804685 0,4.79689 0.6094,8.39845 1.8282,10.80469 1.2343,2.39063 3.0702,3.58594 5.5078,3.58594 2.4531,0 4.289,-1.19531 5.5078,-3.58594 1.2343,-2.40624 1.8515,-6.0078 1.8515,-10.80469 0,-4.81248 -0.6172,-8.41403 -1.8515,-10.804685 -1.2188,-2.406219 -3.0547,-3.609343 -5.5078,-3.609375 m 0,-3.75 c 3.9218,3.6e-5 6.914,1.554722 8.9765,4.664062 2.0781,3.093778 3.1172,7.593778 3.1172,13.499998 0,5.89064 -1.0391,10.39063 -3.1172,13.5 -2.0625,3.09375 -5.0547,4.64063 -8.9765,4.64063 -3.9219,0 -6.9219,-1.54688 -9,-4.64063 -2.0625,-3.10937 -3.0938,-7.60936 -3.0938,-13.5 0,-5.90622 1.0313,-10.40622 3.0938,-13.499998 2.0781,-3.10934 5.0781,-4.664026 9,-4.664062"
       style="font-size:48px;stroke:#000000;stroke-width:1;font-family:Bravura"
       id="path3090" />
    <path
       d="m 1210.4063,132.45312 1.6406,0 c 2.1875,0 3.6093,-0.33594 4.2656,-1.00781 0.6719,-0.67188 1.0078,-2.125 1.0078,-4.35937 l 0,-5.8125 c 0,-2.43749 0.3516,-4.21093 1.0547,-5.32031 0.7031,-1.10937 1.9219,-1.87499 3.6563,-2.29688 -1.7344,-0.39061 -2.9532,-1.14061 -3.6563,-2.25 -0.7031,-1.10936 -1.0547,-2.89061 -1.0547,-5.34375 l 0,-5.8125 c 0,-2.21872 -0.3359,-3.664031 -1.0078,-4.335938 -0.6563,-0.687467 -2.0781,-1.031216 -4.2656,-1.03125 l -1.6406,0 0,-3.351562 1.4765,0 c 3.8906,3.6e-5 6.4844,0.578161 7.7813,1.734375 1.3124,1.140659 1.9687,3.437531 1.9687,6.890625 l 0,5.625 c 0,2.32814 0.4219,3.94533 1.2656,4.85156 0.8438,0.89064 2.375,1.33596 4.5938,1.33594 l 1.4531,0 0,3.35156 -1.4531,0 c -2.2188,2e-5 -3.75,0.45314 -4.5938,1.35938 -0.8437,0.90626 -1.2656,2.53907 -1.2656,4.89844 l 0,5.60156 c 0,3.45312 -0.6563,5.75781 -1.9687,6.91406 -1.2969,1.15624 -3.8907,1.73437 -7.7813,1.73437 l -1.4765,0 0,-3.375"
       style="font-size:48px;stroke:#000000;stroke-width:1;font-family:Bravura"
       id="path3092" />
    <path
       d="m 1252.5938,112.92969 12.6328,0 0,3.84375 -12.6328,0 0,-3.84375"
       style="font-size:48px;stroke:#000000;stroke-width:1;font-family:Bravura"
       id="path3094" />
    <path
       d="m 1269.9375,112.92969 12.6328,0 0,3.84375 -12.6328,0 0,-3.84375"
       style="font-size:48px;stroke:#000000;stroke-width:1;font-family:Bravura"
       id="path3096" />
    <path
       d="m 1311.9141,113.79688 0,2.10937 -19.8282,0 c 0.1875,2.96876 1.0782,5.23438 2.6719,6.79688 1.6094,1.54687 3.8437,2.32031 6.7031,2.32031 1.6563,0 3.2578,-0.20312 4.8047,-0.60938 1.5625,-0.40624 3.1094,-1.01562 4.6407,-1.82812 l 0,4.07812 c -1.5469,0.65625 -3.1329,1.15625 -4.7579,1.5 -1.625,0.34375 -3.2734,0.51563 -4.9453,0.51563 -4.1875,0 -7.5078,-1.21875 -9.9609,-3.65625 -2.4375,-2.4375 -3.6563,-5.73437 -3.6563,-9.89063 0,-4.29686 1.1563,-7.7031 3.4688,-10.21875 2.3281,-2.53122 5.4609,-3.79685 9.3984,-3.79687 3.5313,2e-5 6.3203,1.14065 8.3672,3.42187 2.0625,2.26565 3.0937,5.35158 3.0938,9.25782 m -4.3125,-1.26563 c -0.031,-2.35936 -0.6954,-4.24217 -1.9922,-5.64844 -1.2813,-1.40622 -2.9844,-2.10935 -5.1094,-2.10937 -2.4063,2e-5 -4.3359,0.67971 -5.7891,2.03906 -1.4375,1.35939 -2.2656,3.27346 -2.4843,5.74219 l 15.375,-0.0234"
       style="font-size:48px;stroke:#000000;stroke-width:1;font-family:Bravura"
       id="path3098" />
    <path
       d="m 1339.9688,101.75 -9.4922,12.77344 9.9843,13.47656 -5.0859,0 -7.6406,-10.3125 -7.6406,10.3125 -5.086,0 10.1953,-13.73437 -9.3281,-12.51563 5.0859,0 6.961,9.35156 6.9609,-9.35156 5.086,0"
       style="font-size:48px;stroke:#000000;stroke-width:1;font-family:Bravura"
       id="path3100" />
    <path
       d="m 1350.7266,124.0625 0,13.92187 -4.336,0 0,-36.23437 4.336,0 0,3.98438 c 0.9062,-1.56248 2.0468,-2.71873 3.4218,-3.46875 1.3906,-0.7656 3.0469,-1.14842 4.9688,-1.14844 3.1875,2e-5 5.7734,1.26565 7.7578,3.79687 2,2.53127 3,5.85939 3,9.98438 0,4.12501 -1,7.45313 -3,9.98437 -1.9844,2.53125 -4.5703,3.79688 -7.7578,3.79688 -1.9219,0 -3.5782,-0.375 -4.9688,-1.125 -1.375,-0.76563 -2.5156,-1.92969 -3.4218,-3.49219 m 14.6718,-9.16406 c 0,-3.17186 -0.6562,-5.65623 -1.9687,-7.45313 -1.2969,-1.81248 -3.086,-2.71872 -5.3672,-2.71875 -2.2813,3e-5 -4.0781,0.90627 -5.3906,2.71875 -1.2969,1.7969 -1.9453,4.28127 -1.9453,7.45313 0,3.17188 0.6484,5.66407 1.9453,7.47656 1.3125,1.79688 3.1093,2.69532 5.3906,2.69531 2.2812,10e-6 4.0703,-0.89843 5.3672,-2.69531 1.3125,-1.81249 1.9687,-4.30468 1.9687,-7.47656"
       style="font-size:48px;stroke:#000000;stroke-width:1;font-family:Bravura"
       id="path3102" />
    <path
       d="m 1387.1953,104.77344 c -2.3125,2e-5 -4.1406,0.90627 -5.4844,2.71875 -1.3437,1.79689 -2.0156,4.26564 -2.0156,7.40625 0,3.14063 0.6641,5.61719 1.9922,7.42969 1.3437,1.79687 3.1797,2.69531 5.5078,2.69531 2.2969,0 4.1172,-0.90625 5.461,-2.71875 1.3437,-1.81249 2.0156,-4.28124 2.0156,-7.40625 0,-3.10936 -0.6719,-5.5703 -2.0156,-7.38281 -1.3438,-1.82811 -3.1641,-2.74217 -5.461,-2.74219 m 0,-3.65625 c 3.75,2e-5 6.6953,1.21877 8.836,3.65625 2.1405,2.43752 3.2109,5.81251 3.2109,10.125 0,4.29688 -1.0704,7.67188 -3.2109,10.125 -2.1407,2.4375 -5.086,3.65625 -8.836,3.65625 -3.7656,0 -6.7187,-1.21875 -8.8594,-3.65625 -2.125,-2.45312 -3.1875,-5.82812 -3.1875,-10.125 0,-4.31249 1.0625,-7.68748 3.1875,-10.125 2.1407,-2.43748 5.0938,-3.65623 8.8594,-3.65625"
       style="font-size:48px;stroke:#000000;stroke-width:1;font-family:Bravura"
       id="path3104" />
    <path
       d="m 1421.5781,105.78125 c -0.4844,-0.28123 -1.0156,-0.48435 -1.5937,-0.60937 -0.5625,-0.14061 -1.1875,-0.21092 -1.875,-0.21094 -2.4375,2e-5 -4.3125,0.79689 -5.625,2.39062 -1.2969,1.57815 -1.9453,3.85158 -1.9453,6.82032 l 0,13.82812 -4.336,0 0,-26.25 4.336,0 0,4.07813 c 0.9062,-1.59373 2.0859,-2.77342 3.539,-3.53907 1.4531,-0.78122 3.2188,-1.17185 5.2969,-1.17187 0.2969,2e-5 0.625,0.0235 0.9844,0.0703 0.3593,0.0313 0.7578,0.086 1.1953,0.16406 l 0.023,4.42969"
       style="font-size:48px;stroke:#000000;stroke-width:1;font-family:Bravura"
       id="path3106" />
    <path
       d="m 1430.4141,94.296875 0,7.453125 8.8828,0 0,3.35156 -8.8828,0 0,14.25 c 0,2.14063 0.289,3.51563 0.8672,4.125 0.5937,0.60938 1.789,0.91407 3.5859,0.91407 l 4.4297,0 0,3.60937 -4.4297,0 c -3.3281,0 -5.625,-0.61719 -6.8906,-1.85156 -1.2657,-1.25 -1.8985,-3.51562 -1.8985,-6.79688 l 0,-14.25 -3.164,0 0,-3.35156 3.164,0 0,-7.453125 4.336,0"
       style="font-size:48px;stroke:#000000;stroke-width:1;font-family:Bravura"
       id="path3108" />
    <path
       d="m 1442.8125,112.92969 12.6328,0 0,3.84375 -12.6328,0 0,-3.84375"
       style="font-size:48px;stroke:#000000;stroke-width:1;font-family:Bravura"
       id="path3110" />
    <path
       d="m 1466.6016,94.296875 0,7.453125 8.8828,0 0,3.35156 -8.8828,0 0,14.25 c 0,2.14063 0.289,3.51563 0.8672,4.125 0.5937,0.60938 1.789,0.91407 3.5859,0.91407 l 4.4297,0 0,3.60937 -4.4297,0 c -3.3281,0 -5.625,-0.61719 -6.8906,-1.85156 -1.2657,-1.25 -1.8985,-3.51562 -1.8985,-6.79688 l 0,-14.25 -3.164,0 0,-3.35156 3.164,0 0,-7.453125 4.336,0"
       style="font-size:48px;stroke:#000000;stroke-width:1;font-family:Bravura"
       id="path3112" />
    <path
       d="m 1503.6328,113.79688 0,2.10937 -19.8281,0 c 0.1875,2.96876 1.0781,5.23438 2.6719,6.79688 1.6093,1.54687 3.8437,2.32031 6.7031,2.32031 1.6562,0 3.2578,-0.20312 4.8047,-0.60938 1.5625,-0.40624 3.1093,-1.01562 4.6406,-1.82812 l 0,4.07812 c -1.5469,0.65625 -3.1328,1.15625 -4.7578,1.5 -1.625,0.34375 -3.2735,0.51563 -4.9453,0.51563 -4.1875,0 -7.5078,-1.21875 -9.961,-3.65625 -2.4375,-2.4375 -3.6562,-5.73437 -3.6562,-9.89063 0,-4.29686 1.1562,-7.7031 3.4687,-10.21875 2.3282,-2.53122 5.461,-3.79685 9.3985,-3.79687 3.5312,2e-5 6.3203,1.14065 8.3672,3.42187 2.0624,2.26565 3.0937,5.35158 3.0937,9.25782 m -4.3125,-1.26563 c -0.031,-2.35936 -0.6953,-4.24217 -1.9922,-5.64844 -1.2812,-1.40622 -2.9844,-2.10935 -5.1093,-2.10937 -2.4063,2e-5 -4.336,0.67971 -5.7891,2.03906 -1.4375,1.35939 -2.2656,3.27346 -2.4844,5.74219 l 15.375,-0.0234"
       style="font-size:48px;stroke:#000000;stroke-width:1;font-family:Bravura"
       id="path3114" />
    <path
       d="m 1531.6875,101.75 -9.4922,12.77344 9.9844,13.47656 -5.0859,0 -7.6407,-10.3125 -7.6406,10.3125 -5.0859,0 10.1953,-13.73437 -9.3281,-12.51563 5.0859,0 6.9609,9.35156 6.961,-9.35156 5.0859,0"
       style="font-size:48px;stroke:#000000;stroke-width:1;font-family:Bravura"
       id="path3116" />
    <path
       d="m 1542.5391,94.296875 0,7.453125 8.8828,0 0,3.35156 -8.8828,0 0,14.25 c 0,2.14063 0.289,3.51563 0.8672,4.125 0.5937,0.60938 1.789,0.91407 3.5859,0.91407 l 4.4297,0 0,3.60937 -4.4297,0 c -3.3281,0 -5.625,-0.61719 -6.8906,-1.85156 -1.2657,-1.25 -1.8985,-3.51562 -1.8985,-6.79688 l 0,-14.25 -3.164,0 0,-3.35156 3.164,0 0,-7.453125 4.336,0"
       style="font-size:48px;stroke:#000000;stroke-width:1;font-family:Bravura"
       id="path3118" />
    <path
       d="m 1554.9375,112.92969 12.6328,0 0,3.84375 -12.6328,0 0,-3.84375"
       style="font-size:48px;stroke:#000000;stroke-width:1;font-family:Bravura"
       id="path3120" />
    <path
       d="m 1578.7266,94.296875 0,7.453125 8.8828,0 0,3.35156 -8.8828,0 0,14.25 c 0,2.14063 0.289,3.51563 0.8672,4.125 0.5937,0.60938 1.789,0.91407 3.5859,0.91407 l 4.4297,0 0,3.60937 -4.4297,0 c -3.3281,0 -5.625,-0.61719 -6.8906,-1.85156 -1.2657,-1.25 -1.8985,-3.51562 -1.8985,-6.79688 l 0,-14.25 -3.164,0 0,-3.35156 3.164,0 0,-7.453125 4.336,0"
       style="font-size:48px;stroke:#000000;stroke-width:1;font-family:Bravura"
       id="path3122" />
    <path
       d="m 1603.4766,104.77344 c -2.3125,2e-5 -4.1407,0.90627 -5.4844,2.71875 -1.3438,1.79689 -2.0156,4.26564 -2.0156,7.40625 0,3.14063 0.664,5.61719 1.9922,7.42969 1.3437,1.79687 3.1796,2.69531 5.5078,2.69531 2.2968,0 4.1171,-0.90625 5.4609,-2.71875 1.3437,-1.81249 2.0156,-4.28124 2.0156,-7.40625 0,-3.10936 -0.6719,-5.5703 -2.0156,-7.38281 -1.3438,-1.82811 -3.1641,-2.74217 -5.4609,-2.74219 m 0,-3.65625 c 3.7499,2e-5 6.6953,1.21877 8.8359,3.65625 2.1406,2.43752 3.2109,5.81251 3.2109,10.125 0,4.29688 -1.0703,7.67188 -3.2109,10.125 -2.1406,2.4375 -5.086,3.65625 -8.8359,3.65625 -3.7657,0 -6.7188,-1.21875 -8.8594,-3.65625 -2.125,-2.45312 -3.1875,-5.82812 -3.1875,-10.125 0,-4.31249 1.0625,-7.68748 3.1875,-10.125 2.1406,-2.43748 5.0937,-3.65623 8.8594,-3.65625"
       style="font-size:48px;stroke:#000000;stroke-width:1;font-family:Bravura"
       id="path3124" />
    <path
       d="m 1621.4063,112.92969 12.6328,0 0,3.84375 -12.6328,0 0,-3.84375"
       style="font-size:48px;stroke:#000000;stroke-width:1;font-family:Bravura"
       id="path3126" />
    <path
       d="m 1645.1016,124.0625 0,13.92187 -4.336,0 0,-36.23437 4.336,0 0,3.98438 c 0.9062,-1.56248 2.0468,-2.71873 3.4218,-3.46875 1.3906,-0.7656 3.0469,-1.14842 4.9688,-1.14844 3.1875,2e-5 5.7734,1.26565 7.7578,3.79687 2,2.53127 3,5.85939 3,9.98438 0,4.12501 -1,7.45313 -3,9.98437 -1.9844,2.53125 -4.5703,3.79688 -7.7578,3.79688 -1.9219,0 -3.5782,-0.375 -4.9688,-1.125 -1.375,-0.76563 -2.5156,-1.92969 -3.4218,-3.49219 m 14.6718,-9.16406 c 0,-3.17186 -0.6562,-5.65623 -1.9687,-7.45313 -1.2969,-1.81248 -3.086,-2.71872 -5.3672,-2.71875 -2.2813,3e-5 -4.0781,0.90627 -5.3906,2.71875 -1.2969,1.7969 -1.9453,4.28127 -1.9453,7.45313 0,3.17188 0.6484,5.66407 1.9453,7.47656 1.3125,1.79688 3.1093,2.69532 5.3906,2.69531 2.2812,10e-6 4.0703,-0.89843 5.3672,-2.69531 1.3125,-1.81249 1.9687,-4.30468 1.9687,-7.47656"
       style="font-size:48px;stroke:#000000;stroke-width:1;font-family:Bravura"
       id="path3128" />
    <path
       d="m 1683.3281,114.80469 c -3.4844,1e-5 -5.8984,0.39845 -7.2422,1.19531 -1.3437,0.79689 -2.0156,2.15626 -2.0156,4.07813 0,1.53125 0.5,2.75 1.5,3.65625 1.0156,0.89062 2.3906,1.33594 4.125,1.33593 2.3906,10e-6 4.3047,-0.84374 5.7422,-2.53125 1.4531,-1.70312 2.1797,-3.96093 2.1797,-6.77343 l 0,-0.96094 -4.2891,0 m 8.6016,-1.78125 0,14.97656 -4.3125,0 0,-3.98437 c -0.9844,1.59375 -2.211,2.77343 -3.6797,3.53906 -1.4688,0.75 -3.2656,1.125 -5.3906,1.125 -2.6875,0 -4.8282,-0.75 -6.4219,-2.25 -1.5781,-1.51562 -2.3672,-3.53906 -2.3672,-6.07031 0,-2.95312 0.9844,-5.17968 2.9531,-6.67969 1.9844,-1.49999 4.9375,-2.24999 8.8594,-2.25 l 6.0469,0 0,-0.42188 c 0,-1.98435 -0.6563,-3.5156 -1.9688,-4.59375 -1.2969,-1.09372 -3.125,-1.6406 -5.4843,-1.64062 -1.5,2e-5 -2.961,0.17971 -4.3828,0.53906 -1.4219,0.3594 -2.7891,0.89846 -4.1016,1.61719 l 0,-3.98438 c 1.5781,-0.60935 3.1094,-1.06247 4.5937,-1.35937 1.4844,-0.31248 2.9297,-0.46873 4.336,-0.46875 3.7968,2e-5 6.6328,0.9844 8.5078,2.95312 1.875,1.96877 2.8125,4.95315 2.8125,8.95313"
       style="font-size:48px;stroke:#000000;stroke-width:1;font-family:Bravura"
       id="path3130" />
    <path
       d="m 1705.1016,94.296875 0,7.453125 8.8828,0 0,3.35156 -8.8828,0 0,14.25 c 0,2.14063 0.289,3.51563 0.8672,4.125 0.5937,0.60938 1.789,0.91407 3.5859,0.91407 l 4.4297,0 0,3.60937 -4.4297,0 c -3.3281,0 -5.625,-0.61719 -6.8906,-1.85156 -1.2657,-1.25 -1.8985,-3.51562 -1.8985,-6.79688 l 0,-14.25 -3.164,0 0,-3.35156 3.164,0 0,-7.453125 4.336,0"
       style="font-size:48px;stroke:#000000;stroke-width:1;font-family:Bravura"
       id="path3132" />
    <path
       d="m 1741.5,112.15625 0,15.84375 -4.3125,0 0,-15.70312 c 0,-2.48436 -0.4844,-4.34373 -1.4531,-5.57813 -0.9688,-1.23435 -2.4219,-1.85154 -4.3594,-1.85156 -2.3281,2e-5 -4.1641,0.74221 -5.5078,2.22656 -1.3438,1.48439 -2.0156,3.50783 -2.0156,6.07031 l 0,14.83594 -4.336,0 0,-36.46875 4.336,0 0,14.29688 c 1.0312,-1.57811 2.2421,-2.75779 3.6328,-3.53907 1.4062,-0.78122 3.0234,-1.17185 4.8515,-1.17187 3.0156,2e-5 5.2969,0.93752 6.8438,2.8125 1.5468,1.85939 2.3203,4.60158 2.3203,8.22656"
       style="font-size:48px;stroke:#000000;stroke-width:1;font-family:Bravura"
       id="path3134" />
    <path
       d="m 1763.25,112.92969 12.6328,0 0,3.84375 -12.6328,0 0,-3.84375"
       style="font-size:48px;stroke:#000000;stroke-width:1;font-family:Bravura"
       id="path3136" />
    <path
       d="m 1780.5938,112.92969 12.6328,0 0,3.84375 -12.6328,0 0,-3.84375"
       style="font-size:48px;stroke:#000000;stroke-width:1;font-family:Bravura"
       id="path3138" />
    <path
       d="m 1822.5703,113.79688 0,2.10937 -19.8281,0 c 0.1875,2.96876 1.0781,5.23438 2.6719,6.79688 1.6093,1.54687 3.8437,2.32031 6.7031,2.32031 1.6562,0 3.2578,-0.20312 4.8047,-0.60938 1.5625,-0.40624 3.1093,-1.01562 4.6406,-1.82812 l 0,4.07812 c -1.5469,0.65625 -3.1328,1.15625 -4.7578,1.5 -1.625,0.34375 -3.2735,0.51563 -4.9453,0.51563 -4.1875,0 -7.5078,-1.21875 -9.961,-3.65625 -2.4375,-2.4375 -3.6562,-5.73437 -3.6562,-9.89063 0,-4.29686 1.1562,-7.7031 3.4687,-10.21875 2.3282,-2.53122 5.461,-3.79685 9.3985,-3.79687 3.5312,2e-5 6.3203,1.14065 8.3672,3.42187 2.0624,2.26565 3.0937,5.35158 3.0937,9.25782 m -4.3125,-1.26563 c -0.031,-2.35936 -0.6953,-4.24217 -1.9922,-5.64844 -1.2812,-1.40622 -2.9844,-2.10935 -5.1093,-2.10937 -2.4063,2e-5 -4.336,0.67971 -5.7891,2.03906 -1.4375,1.35939 -2.2656,3.27346 -2.4844,5.74219 l 15.375,-0.0234"
       style="font-size:48px;stroke:#000000;stroke-width:1;font-family:Bravura"
       id="path3140" />
    <path
       d="m 1850.625,101.75 -9.4922,12.77344 9.9844,13.47656 -5.0859,0 -7.6407,-10.3125 -7.6406,10.3125 -5.0859,0 10.1953,-13.73437 -9.3281,-12.51563 5.0859,0 6.9609,9.35156 6.961,-9.35156 5.0859,0"
       style="font-size:48px;stroke:#000000;stroke-width:1;font-family:Bravura"
       id="path3142" />
    <path
       d="m 1861.3828,124.0625 0,13.92187 -4.3359,0 0,-36.23437 4.3359,0 0,3.98438 c 0.9063,-1.56248 2.0469,-2.71873 3.4219,-3.46875 1.3906,-0.7656 3.0468,-1.14842 4.9687,-1.14844 3.1875,2e-5 5.7735,1.26565 7.7579,3.79687 1.9999,2.53127 2.9999,5.85939 3,9.98438 -1e-4,4.12501 -1.0001,7.45313 -3,9.98437 -1.9844,2.53125 -4.5704,3.79688 -7.7579,3.79688 -1.9219,0 -3.5781,-0.375 -4.9687,-1.125 -1.375,-0.76563 -2.5156,-1.92969 -3.4219,-3.49219 m 14.6719,-9.16406 c 0,-3.17186 -0.6563,-5.65623 -1.9688,-7.45313 -1.2969,-1.81248 -3.0859,-2.71872 -5.3671,-2.71875 -2.2813,3e-5 -4.0782,0.90627 -5.3907,2.71875 -1.2969,1.7969 -1.9453,4.28127 -1.9453,7.45313 0,3.17188 0.6484,5.66407 1.9453,7.47656 1.3125,1.79688 3.1094,2.69532 5.3907,2.69531 2.2812,10e-6 4.0702,-0.89843 5.3671,-2.69531 1.3125,-1.81249 1.9688,-4.30468 1.9688,-7.47656"
       style="font-size:48px;stroke:#000000;stroke-width:1;font-family:Bravura"
       id="path3144" />
    <path
       d="m 1897.8516,104.77344 c -2.3125,2e-5 -4.1407,0.90627 -5.4844,2.71875 -1.3438,1.79689 -2.0156,4.26564 -2.0156,7.40625 0,3.14063 0.664,5.61719 1.9922,7.42969 1.3437,1.79687 3.1796,2.69531 5.5078,2.69531 2.2968,0 4.1171,-0.90625 5.4609,-2.71875 1.3437,-1.81249 2.0156,-4.28124 2.0156,-7.40625 0,-3.10936 -0.6719,-5.5703 -2.0156,-7.38281 -1.3438,-1.82811 -3.1641,-2.74217 -5.4609,-2.74219 m 0,-3.65625 c 3.7499,2e-5 6.6953,1.21877 8.8359,3.65625 2.1406,2.43752 3.2109,5.81251 3.2109,10.125 0,4.29688 -1.0703,7.67188 -3.2109,10.125 -2.1406,2.4375 -5.086,3.65625 -8.8359,3.65625 -3.7657,0 -6.7188,-1.21875 -8.8594,-3.65625 -2.125,-2.45312 -3.1875,-5.82812 -3.1875,-10.125 0,-4.31249 1.0625,-7.68748 3.1875,-10.125 2.1406,-2.43748 5.0937,-3.65623 8.8594,-3.65625"
       style="font-size:48px;stroke:#000000;stroke-width:1;font-family:Bravura"
       id="path3146" />
    <path
       d="m 1932.2344,105.78125 c -0.4844,-0.28123 -1.0157,-0.48435 -1.5938,-0.60937 -0.5625,-0.14061 -1.1875,-0.21092 -1.875,-0.21094 -2.4375,2e-5 -4.3125,0.79689 -5.625,2.39062 -1.2969,1.57815 -1.9453,3.85158 -1.9453,6.82032 l 0,13.82812 -4.3359,0 0,-26.25 4.3359,0 0,4.07813 c 0.9063,-1.59373 2.0859,-2.77342 3.5391,-3.53907 1.4531,-0.78122 3.2187,-1.17185 5.2969,-1.17187 0.2968,2e-5 0.6249,0.0235 0.9843,0.0703 0.3594,0.0313 0.7578,0.086 1.1953,0.16406 l 0.024,4.42969"
       style="font-size:48px;stroke:#000000;stroke-width:1;font-family:Bravura"
       id="path3148" />
    <path
       d="m 1941.0703,94.296875 0,7.453125 8.8828,0 0,3.35156 -8.8828,0 0,14.25 c 0,2.14063 0.2891,3.51563 0.8672,4.125 0.5937,0.60938 1.7891,0.91407 3.5859,0.91407 l 4.4297,0 0,3.60937 -4.4297,0 c -3.3281,0 -5.625,-0.61719 -6.8906,-1.85156 -1.2656,-1.25 -1.8984,-3.51562 -1.8984,-6.79688 l 0,-14.25 -3.1641,0 0,-3.35156 3.1641,0 0,-7.453125 4.3359,0"
       style="font-size:48px;stroke:#000000;stroke-width:1;font-family:Bravura"
       id="path3150" />
    <path
       d="m 1953.4688,112.92969 12.6328,0 0,3.84375 -12.6328,0 0,-3.84375"
       style="font-size:48px;stroke:#000000;stroke-width:1;font-family:Bravura"
       id="path3152" />
    <path
       d="m 1977.1641,124.0625 0,13.92187 -4.336,0 0,-36.23437 4.336,0 0,3.98438 c 0.9062,-1.56248 2.0468,-2.71873 3.4218,-3.46875 1.3906,-0.7656 3.0469,-1.14842 4.9688,-1.14844 3.1875,2e-5 5.7734,1.26565 7.7578,3.79687 2,2.53127 3,5.85939 3,9.98438 0,4.12501 -1,7.45313 -3,9.98437 -1.9844,2.53125 -4.5703,3.79688 -7.7578,3.79688 -1.9219,0 -3.5782,-0.375 -4.9688,-1.125 -1.375,-0.76563 -2.5156,-1.92969 -3.4218,-3.49219 m 14.6718,-9.16406 c 0,-3.17186 -0.6562,-5.65623 -1.9687,-7.45313 -1.2969,-1.81248 -3.086,-2.71872 -5.3672,-2.71875 -2.2813,3e-5 -4.0781,0.90627 -5.3906,2.71875 -1.2969,1.7969 -1.9453,4.28127 -1.9453,7.45313 0,3.17188 0.6484,5.66407 1.9453,7.47656 1.3125,1.79688 3.1093,2.69532 5.3906,2.69531 2.2812,10e-6 4.0703,-0.89843 5.3672,-2.69531 1.3125,-1.81249 1.9687,-4.30468 1.9687,-7.47656"
       style="font-size:48px;stroke:#000000;stroke-width:1;font-family:Bravura"
       id="path3154" />
    <path
       d="m 2003.4609,91.53125 4.3125,0 0,36.46875 -4.3125,0 0,-36.46875"
       style="font-size:48px;stroke:#000000;stroke-width:1;font-family:Bravura"
       id="path3156" />
    <path
       d="m 2028.7031,114.80469 c -3.4844,1e-5 -5.8984,0.39845 -7.2422,1.19531 -1.3437,0.79689 -2.0156,2.15626 -2.0156,4.07813 0,1.53125 0.5,2.75 1.5,3.65625 1.0156,0.89062 2.3906,1.33594 4.125,1.33593 2.3906,10e-6 4.3047,-0.84374 5.7422,-2.53125 1.4531,-1.70312 2.1797,-3.96093 2.1797,-6.77343 l 0,-0.96094 -4.2891,0 m 8.6016,-1.78125 0,14.97656 -4.3125,0 0,-3.98437 c -0.9844,1.59375 -2.211,2.77343 -3.6797,3.53906 -1.4688,0.75 -3.2656,1.125 -5.3906,1.125 -2.6875,0 -4.8282,-0.75 -6.4219,-2.25 -1.5781,-1.51562 -2.3672,-3.53906 -2.3672,-6.07031 0,-2.95312 0.9844,-5.17968 2.9531,-6.67969 1.9844,-1.49999 4.9375,-2.24999 8.8594,-2.25 l 6.0469,0 0,-0.42188 c 0,-1.98435 -0.6563,-3.5156 -1.9688,-4.59375 -1.2969,-1.09372 -3.125,-1.6406 -5.4843,-1.64062 -1.5,2e-5 -2.961,0.17971 -4.3828,0.53906 -1.4219,0.3594 -2.7891,0.89846 -4.1016,1.61719 l 0,-3.98438 c 1.5781,-0.60935 3.1094,-1.06247 4.5937,-1.35937 1.4844,-0.31248 2.9297,-0.46873 4.336,-0.46875 3.7968,2e-5 6.6328,0.9844 8.5078,2.95312 1.875,1.96877 2.8125,4.95315 2.8125,8.95313"
       style="font-size:48px;stroke:#000000;stroke-width:1;font-family:Bravura"
       id="path3158" />
    <path
       d="m 2046.2109,101.75 4.3125,0 0,26.25 -4.3125,0 0,-26.25 m 0,-10.21875 4.3125,0 0,5.460937 -4.3125,0 0,-5.460937"
       style="font-size:48px;stroke:#000000;stroke-width:1;font-family:Bravura"
       id="path3160" />
  </g>
  <g
     style="font-size:48px;stroke:#000000;stroke-width:1;font-family:Bravura"
     id="text20">
    <path
       d="m 509.73437,108.78125 c -0.48439,-0.28123 -1.01564,-0.48435 -1.59375,-0.60937 -0.56251,-0.14061 -1.18751,-0.21092 -1.875,-0.21094 -2.43751,2e-5 -4.31251,0.79689 -5.625,2.39062 -1.29688,1.57815 -1.94532,3.85158 -1.94531,6.82032 l 0,13.82812 -4.33594,0 0,-26.25 4.33594,0 0,4.07813 c 0.90624,-1.59373 2.08593,-2.77342 3.53906,-3.53907 1.45312,-0.78122 3.21874,-1.17185 5.29688,-1.17187 0.29686,2e-5 0.62498,0.0235 0.98437,0.0703 0.35936,0.0313 0.7578,0.086 1.19532,0.16406 l 0.0234,4.42969"
       style="font-size:48px;stroke:#000000;stroke-width:1;font-family:Bravura"
       id="path3163" />
    <path
       d="m 526.23437,117.80469 c -3.48438,1e-5 -5.89844,0.39845 -7.24218,1.19531 -1.34376,0.79689 -2.01563,2.15626 -2.01563,4.07813 0,1.53125 0.49999,2.75 1.5,3.65625 1.01562,0.89062 2.39062,1.33594 4.125,1.33593 2.39061,1e-5 4.30467,-0.84374 5.74219,-2.53125 1.4531,-1.70312 2.17967,-3.96093 2.17969,-6.77343 l 0,-0.96094 -4.28907,0 m 8.60157,-1.78125 0,14.97656 -4.3125,0 0,-3.98437 c -0.9844,1.59375 -2.21096,2.77343 -3.67969,3.53906 -1.46877,0.75 -3.26564,1.125 -5.39063,1.125 -2.6875,0 -4.82813,-0.75 -6.42187,-2.25 -1.57813,-1.51562 -2.36719,-3.53906 -2.36719,-6.07031 0,-2.95312 0.98437,-5.17968 2.95313,-6.67969 1.98436,-1.49999 4.93749,-2.24999 8.85937,-2.25 l 6.04688,0 0,-0.42188 c -2e-5,-1.98435 -0.65627,-3.5156 -1.96875,-4.59375 -1.29689,-1.09372 -3.12502,-1.6406 -5.48438,-1.64062 -1.50001,2e-5 -2.96095,0.17971 -4.38281,0.53906 -1.42188,0.3594 -2.78907,0.89846 -4.10156,1.61719 l 0,-3.98438 c 1.57812,-0.60935 3.10936,-1.06247 4.59375,-1.35937 1.48436,-0.31248 2.92967,-0.46873 4.33593,-0.46875 3.79686,2e-5 6.6328,0.9844 8.50782,2.95312 1.87497,1.96877 2.81247,4.95315 2.8125,8.95313"
       style="font-size:48px;stroke:#000000;stroke-width:1;font-family:Bravura"
       id="path3165" />
    <path
       d="m 564.17969,109.78906 c 1.0781,-1.93747 2.36716,-3.36716 3.86718,-4.28906 1.49997,-0.92185 3.2656,-1.38279 5.29688,-1.38281 2.73434,2e-5 4.84371,0.96096 6.32812,2.88281 1.48434,1.90627 2.22652,4.62502 2.22657,8.15625 l 0,15.84375 -4.33594,0 0,-15.70312 c -4e-5,-2.51561 -0.44535,-4.3828 -1.33594,-5.60157 -0.89066,-1.21872 -2.25003,-1.8281 -4.07812,-1.82812 -2.23441,2e-5 -4.00003,0.74221 -5.29688,2.22656 -1.2969,1.48439 -1.94534,3.50783 -1.94531,6.07031 l 0,14.83594 -4.33594,0 0,-15.70312 c -2e-5,-2.53124 -0.44533,-4.39842 -1.33594,-5.60157 -0.89064,-1.21872 -2.26564,-1.8281 -4.125,-1.82812 -2.20313,2e-5 -3.95313,0.75002 -5.25,2.25 -1.29688,1.48439 -1.94532,3.50001 -1.94531,6.04687 l 0,14.83594 -4.33594,0 0,-26.25 4.33594,0 0,4.07813 c 0.98437,-1.60936 2.16405,-2.79686 3.53906,-3.5625 1.37499,-0.7656 3.0078,-1.14842 4.89844,-1.14844 1.90623,2e-5 3.52342,0.4844 4.85156,1.45312 1.34373,0.96878 2.33592,2.37503 2.97657,4.21875"
       style="font-size:48px;stroke:#000000;stroke-width:1;font-family:Bravura"
       id="path3167" />
    <path
       d="m 610.96094,109.78906 c 1.0781,-1.93747 2.36716,-3.36716 3.86718,-4.28906 1.49997,-0.92185 3.2656,-1.38279 5.29688,-1.38281 2.73434,2e-5 4.84371,0.96096 6.32812,2.88281 1.48434,1.90627 2.22652,4.62502 2.22657,8.15625 l 0,15.84375 -4.33594,0 0,-15.70312 c -4e-5,-2.51561 -0.44535,-4.3828 -1.33594,-5.60157 -0.89066,-1.21872 -2.25003,-1.8281 -4.07812,-1.82812 -2.23441,2e-5 -4.00003,0.74221 -5.29688,2.22656 -1.2969,1.48439 -1.94534,3.50783 -1.94531,6.07031 l 0,14.83594 -4.33594,0 0,-15.70312 c -2e-5,-2.53124 -0.44533,-4.39842 -1.33594,-5.60157 -0.89064,-1.21872 -2.26564,-1.8281 -4.125,-1.82812 -2.20313,2e-5 -3.95313,0.75002 -5.25,2.25 -1.29688,1.48439 -1.94532,3.50001 -1.94531,6.04687 l 0,14.83594 -4.33594,0 0,-26.25 4.33594,0 0,4.07813 c 0.98437,-1.60936 2.16405,-2.79686 3.53906,-3.5625 1.37499,-0.7656 3.0078,-1.14842 4.89844,-1.14844 1.90623,2e-5 3.52342,0.4844 4.85156,1.45312 1.34373,0.96878 2.33592,2.37503 2.97657,4.21875"
       style="font-size:48px;stroke:#000000;stroke-width:1;font-family:Bravura"
       id="path3169" />
    <path
       d="m 649.23437,117.80469 c -3.48438,1e-5 -5.89844,0.39845 -7.24218,1.19531 -1.34376,0.79689 -2.01563,2.15626 -2.01563,4.07813 0,1.53125 0.49999,2.75 1.5,3.65625 1.01562,0.89062 2.39062,1.33594 4.125,1.33593 2.39061,1e-5 4.30467,-0.84374 5.74219,-2.53125 1.4531,-1.70312 2.17967,-3.96093 2.17969,-6.77343 l 0,-0.96094 -4.28907,0 m 8.60157,-1.78125 0,14.97656 -4.3125,0 0,-3.98437 c -0.9844,1.59375 -2.21096,2.77343 -3.67969,3.53906 -1.46877,0.75 -3.26564,1.125 -5.39063,1.125 -2.6875,0 -4.82813,-0.75 -6.42187,-2.25 -1.57813,-1.51562 -2.36719,-3.53906 -2.36719,-6.07031 0,-2.95312 0.98437,-5.17968 2.95313,-6.67969 1.98436,-1.49999 4.93749,-2.24999 8.85937,-2.25 l 6.04688,0 0,-0.42188 c -2e-5,-1.98435 -0.65627,-3.5156 -1.96875,-4.59375 -1.29689,-1.09372 -3.12502,-1.6406 -5.48438,-1.64062 -1.50001,2e-5 -2.96095,0.17971 -4.38281,0.53906 -1.42188,0.3594 -2.78907,0.89846 -4.10156,1.61719 l 0,-3.98438 c 1.57812,-0.60935 3.10936,-1.06247 4.59375,-1.35937 1.48436,-0.31248 2.92967,-0.46873 4.33593,-0.46875 3.79686,2e-5 6.6328,0.9844 8.50782,2.95312 1.87497,1.96877 2.81247,4.95315 2.8125,8.95313"
       style="font-size:48px;stroke:#000000;stroke-width:1;font-family:Bravura"
       id="path3171" />
    <path
       d="m 667.35156,125.04688 4.94531,0 0,5.95312 -4.94531,0 0,-5.95312"
       style="font-size:48px;stroke:#000000;stroke-width:1;font-family:Bravura"
       id="path3173" />
    <path
       d="m 698.75781,105.52344 0,4.07812 c -1.21877,-0.62498 -2.48439,-1.09373 -3.79687,-1.40625 -1.31252,-0.31247 -2.67189,-0.46872 -4.07813,-0.46875 -2.14063,3e-5 -3.75001,0.32815 -4.82812,0.98438 -1.06251,0.65627 -1.59376,1.64064 -1.59375,2.95312 -1e-5,1.00002 0.3828,1.78908 1.14843,2.36719 0.76562,0.56252 2.30468,1.10158 4.61719,1.61719 l 1.47656,0.32812 c 3.06249,0.65627 5.23436,1.58595 6.51563,2.78907 1.29685,1.18751 1.94529,2.85157 1.94531,4.99218 -2e-5,2.43751 -0.96877,4.36719 -2.90625,5.78906 -1.92189,1.42188 -4.57033,2.13282 -7.94531,2.13282 -1.40626,0 -2.87501,-0.14063 -4.40625,-0.42188 -1.51563,-0.26562 -3.11719,-0.67187 -4.80469,-1.21875 l 0,-4.45312 c 1.59375,0.82813 3.16406,1.45313 4.71094,1.875 1.54687,0.40625 3.07811,0.60938 4.59375,0.60937 2.03124,1e-5 3.59373,-0.34374 4.6875,-1.03125 1.09373,-0.70312 1.64061,-1.68749 1.64062,-2.95312 -10e-6,-1.17187 -0.39845,-2.07031 -1.19531,-2.69531 -0.78126,-0.62499 -2.50782,-1.22656 -5.17969,-1.80469 l -1.5,-0.35156 c -2.67188,-0.56249 -4.60156,-1.42187 -5.78906,-2.57813 -1.1875,-1.17186 -1.78125,-2.77342 -1.78125,-4.80469 0,-2.46873 0.875,-4.37497 2.625,-5.71875 1.75,-1.34372 4.23437,-2.0156 7.45313,-2.01562 1.59373,2e-5 3.09373,0.11721 4.5,0.35156 1.40623,0.2344 2.7031,0.58596 3.89062,1.05469"
       style="font-size:48px;stroke:#000000;stroke-width:1;font-family:Bravura"
       id="path3175" />
    <path
       d="m 703.96094,104.75 4.57031,0 8.20312,22.03125 8.20313,-22.03125 4.57031,0 -9.84375,26.25 -5.85937,0 -9.84375,-26.25"
       style="font-size:48px;stroke:#000000;stroke-width:1;font-family:Bravura"
       id="path3177" />
    <path
       d="m 752.73437,117.57031 c -2e-5,-3.12498 -0.64845,-5.54685 -1.94531,-7.26562 -1.28127,-1.71873 -3.08595,-2.5781 -5.41406,-2.57813 -2.31251,3e-5 -4.1172,0.8594 -5.41406,2.57813 -1.28126,1.71877 -1.92188,4.14064 -1.92188,7.26562 0,3.10939 0.64062,5.52345 1.92188,7.24219 1.29686,1.71875 3.10155,2.57813 5.41406,2.57813 2.32811,0 4.13279,-0.85938 5.41406,-2.57813 1.29686,-1.71874 1.94529,-4.1328 1.94531,-7.24219 m 4.3125,10.17188 c -2e-5,4.46875 -0.99221,7.78906 -2.97656,9.96093 -1.98439,2.1875 -5.02345,3.28125 -9.11719,3.28125 -1.51563,0 -2.94532,-0.11719 -4.28906,-0.35156 -1.34376,-0.21876 -2.64844,-0.56251 -3.91406,-1.03125 l 0,-4.19531 c 1.26562,0.68749 2.51562,1.19531 3.75,1.52344 1.23436,0.32812 2.49218,0.49218 3.77344,0.49218 2.82811,0 4.94529,-0.74219 6.35156,-2.22656 1.40623,-1.46875 2.10935,-3.69531 2.10937,-6.67969 l 0,-2.13281 c -0.89064,1.54688 -2.03126,2.70313 -3.42187,3.46875 -1.39064,0.76563 -3.0547,1.14844 -4.99219,1.14844 -3.21876,0 -5.81251,-1.22656 -7.78125,-3.67969 -1.96875,-2.45312 -2.95313,-5.70311 -2.95312,-9.75 -1e-5,-4.06248 0.98437,-7.32029 2.95312,-9.77343 1.96874,-2.4531 4.56249,-3.67967 7.78125,-3.67969 1.93749,2e-5 3.60155,0.38284 4.99219,1.14844 1.39061,0.76564 2.53123,1.92189 3.42187,3.46875 l 0,-3.98438 4.3125,0 0,22.99219"
       style="font-size:48px;stroke:#000000;stroke-width:1;font-family:Bravura"
       id="path3179" />
  </g>
  <g
     style="font-size:41px;stroke:#000000;stroke-width:1;font-family:Bravura"
     id="text24">
    <path
       d="m 558.72168,257.57812 3.68359,0 4.6045,17.49708 4.58447,-17.49708 4.34424,0 4.60449,17.49708 4.58447,-17.49708 3.6836,0 -5.86573,22.42188 -4.34424,0 -4.8247,-18.37793 -4.84473,18.37793 -4.34424,0 -5.86572,-22.42188"
       style="font-size:41px;stroke:#000000;stroke-width:1;font-family:Bravura"
       id="path3182" />
    <path
       d="m 594.4165,257.57812 3.6836,0 0,22.42188 -3.6836,0 0,-22.42188 m 0,-8.72851 3.6836,0 0,4.66455 -3.6836,0 0,-4.66455"
       style="font-size:41px;stroke:#000000;stroke-width:1;font-family:Bravura"
       id="path3184" />
    <path
       d="m 620.54199,260.98145 0,-12.13184 3.6836,0 0,31.15039 -3.6836,0 0,-3.36328 c -0.7741,1.33464 -1.75506,2.32894 -2.94287,2.98291 -1.17449,0.64062 -2.5892,0.96094 -4.24414,0.96094 -2.70932,0 -4.91814,-1.08106 -6.62646,-3.24317 -1.69499,-2.1621 -2.54249,-5.00487 -2.54248,-8.52832 -1e-5,-3.52342 0.84749,-6.36619 2.54248,-8.52832 1.70832,-2.16209 3.91714,-3.24314 6.62646,-3.24316 1.65494,2e-5 3.06965,0.32701 4.24414,0.98095 1.18781,0.64065 2.16877,1.62828 2.94287,2.9629 m -12.55224,7.82763 c -10e-6,2.70932 0.55386,4.83806 1.66162,6.38623 1.12108,1.53484 2.65591,2.30225 4.60449,2.30225 1.94855,0 3.48338,-0.76741 4.60449,-2.30225 1.12108,-1.54817 1.68162,-3.67691 1.68164,-6.38623 -2e-5,-2.70929 -0.56056,-4.83136 -1.68164,-6.36621 -1.12111,-1.54816 -2.65594,-2.32224 -4.60449,-2.32226 -1.94858,2e-5 -3.48341,0.7741 -4.60449,2.32226 -1.10776,1.53485 -1.66163,3.65692 -1.66162,6.36621"
       style="font-size:41px;stroke:#000000;stroke-width:1;font-family:Bravura"
       id="path3186" />
    <path
       d="m 635.45654,251.21191 0,6.36621 7.58741,0 0,2.8628 -7.58741,0 0,12.17187 c 0,1.82846 0.2469,3.00294 0.74073,3.52344 0.50715,0.52051 1.52814,0.78077 3.06298,0.78076 l 3.7837,0 0,3.08301 -3.7837,0 c -2.84278,0 -4.80469,-0.52718 -5.88574,-1.58154 -1.08106,-1.06771 -1.62158,-3.00293 -1.62158,-5.80567 l 0,-12.17187 -2.70264,0 0,-2.8628 2.70264,0 0,-6.36621 3.70361,0"
       style="font-size:41px;stroke:#000000;stroke-width:1;font-family:Bravura"
       id="path3188" />
    <path
       d="m 666.54687,266.4668 0,13.5332 -3.68359,0 0,-13.41309 c -2e-5,-2.12205 -0.41375,-3.71027 -1.24121,-4.76464 -0.82749,-1.05435 -2.0687,-1.58153 -3.72363,-1.58155 -1.98862,2e-5 -3.55682,0.63397 -4.70459,1.90186 -1.1478,1.26792 -1.72169,2.99627 -1.72168,5.18506 l 0,12.67236 -3.70362,0 0,-31.15039 3.70362,0 0,12.21191 c 0.88085,-1.34796 1.91519,-2.35561 3.10303,-3.02295 1.20116,-0.66729 2.5825,-1.00095 4.14404,-1.00097 2.57583,2e-5 4.52439,0.8008 5.8457,2.40234 1.32127,1.58824 1.98191,3.93052 1.98193,7.02686"
       style="font-size:41px;stroke:#000000;stroke-width:1;font-family:Bravura"
       id="path3190" />
    <path
       d="m 687.46729,261.38184 25.66503,0 0,3.36328 -25.66503,0 0,-3.36328 m 0,8.16796 25.66503,0 0,3.40332 -25.66503,0 0,-3.40332"
       style="font-size:41px;stroke:#000000;stroke-width:1;font-family:Bravura"
       id="path3192" />
  </g>
  <path
     d="M 342 175 L  342 172 351 172 351 181 357 187 366 193 372 196 381 196 384 196 387 199 393 208 405 217 417 226 429 226 432 226 441 229 447 232 453 241 453 244 465 244 471 247 474 256 483 253 489 250 498 253 507 259 513 256 522 259 528 268 528 274 534 277 537 274 543 283 549 286 561 295 573 295 585 301 597 304 609 310 612 310 624 316 630 322 633 319 639 328 648 337 654 337 663 340 672 343 681 352 690 355 699 355 705 355 717 361 717 364 723 367 729 367 741 367 744 370 753 379 765 376 771 382 774 379 777 376 780 373 786 376 795 376 798 385 810 394 819 400 822 409 822 409 822 412 825 418 834 427 843 436 846 433 855 430 867 430 879 427 879 430 888 427 900 427 912 430 918 433 927 430 927 439 939 448 939 448 939 454 942 457 945 457 954 457 963 463 966 460 975 457 981 463 987 472 990 481 999 478 1008 481 1020 490 1032 493 1038 499 1044 505 1050 505 1062 505 1071 505 1074 514 1083 514 1095 514 1107 517 1116 517 1116 514 1122 517 1122 517 1131 517 1137 523 1137 523 1149 523 1161 523 1161 520 1167 526 1170 535 1173 544 1179 541 1188 541 1197 547 1200 547 1209 556 1218 562 1227 568 1233 565 1236 568 1245 571 1245 571 1248 571 1251 580 1260 580 1260 589 1260 592 1269 601 1269 610 1275 613 1281 613 1281 619 1284 622 1293 619 1299 619 1299 625 1311 625 1311 631 1317 637 1329 640 1332 637 1338 640 1338 646 1350 646 1353 655 1359 658 1365 661 1377 664 1389 661 1395 658 1401 658 1410 655 1419 655 1422 652 1431 658 1431 658 1434 655 1443 664 1443 667 1449 676 1458 673 1461 679 1470 688 1470 691 1470 694 1470 703 1479 706 1485 715 1488 712 1488 721 1494 730 1494 739 1506 742 1512 751 1518 760 1527 760 1533 757 1536 760 1542 757 1554 766 1554 775 1554 781 1557 787 1557 787 1557 793 1569 799 1575 808 1584 817 1590 826 1590 835 1593 841 1593 844 1605 853 1614 853 1623 853 1626 862 1629 865 1629 871 1638 874 1641 874 1644 871 1644 871 1650 880 1650 877 1650 874 1650 877 1659 880 1662 886 1671 889 1680 892 1683 901 1692 907 1704 904 1713 907 1716 910 1725 913 1725 913 1737 913 1737 919 1740 922 1743 919 1743 919 1743 925 1746 928 1755 931 1761 937 1767 943 1776 949 1776 952 1788 949 1797 946 1806 943 1812 940 1815 943 1815 949 1821 952 1830 955 1839 955 1839 964 1842 970 1848 970 1857 967 1860 964 1872 961 1881 967 1893 973 1905 970 1908 967 1908 970 1914 970 1923 976 1923 985 1926 985 1932 988 1938 985 1941 982 1944 991 1950 988"
     fill="white"
     stroke="black"
     stroke-width="4"
     id="path26" />
  <g
     style="font-size:193px;stroke:#000000;stroke-width:1;font-family:Bravura"
     id="text30">
    <path
       d="m 126.5,79.537 -96.5,0 0,6.176 96.5,0 0,-6.176 m 0,-48.25 -96.5,0 0,6.176 96.5,0 0,-6.176 m 0,96.5 -96.5,0 0,6.176 96.5,0 0,-6.176 m 0,-144.75 -96.5,0 0,6.176 96.5,0 0,-6.176"
       style="font-size:193px;stroke:#000000;stroke-width:1;font-family:Bravura"
       id="path3195" />
  </g>
</svg>
