<?xml version="1.0" encoding="UTF-8" standalone="no"?>
<?xml-stylesheet href="style.css" type="text/css" title="style" alternate="no" media="all"?><svg
   xmlns:dc="http://purl.org/dc/elements/1.1/"
   xmlns:cc="http://creativecommons.org/ns#"
   xmlns:rdf="http://www.w3.org/1999/02/22-rdf-syntax-ns#"
   xmlns:svg="http://www.w3.org/2000/svg"
   xmlns="http://www.w3.org/2000/svg"
   xmlns:xlink="http://www.w3.org/1999/xlink"
   xmlns:sodipodi="http://sodipodi.sourceforge.net/DTD/sodipodi-0.dtd"
   xmlns:inkscape="http://www.inkscape.org/namespaces/inkscape"
   height="600px"
   version="1.1"
   width="800px"
   id="svg2"
   inkscape:version="0.48.5 r10040"
   sodipodi:docname="imramma.svg">
  <metadata
     id="metadata61">
    <rdf:RDF>
      <cc:Work
         rdf:about="">
        <dc:format>image/svg+xml</dc:format>
        <dc:type
           rdf:resource="http://purl.org/dc/dcmitype/StillImage" />
      </cc:Work>
    </rdf:RDF>
  </metadata>
  <sodipodi:namedview
     pagecolor="#ffffff"
     bordercolor="#666666"
     borderopacity="1"
     objecttolerance="10"
     gridtolerance="10"
     guidetolerance="10"
     inkscape:pageopacity="0"
     inkscape:pageshadow="2"
     inkscape:window-width="434"
     inkscape:window-height="415"
     id="namedview59"
     showgrid="false"
     inkscape:zoom="0.295"
     inkscape:cx="400"
     inkscape:cy="300"
     inkscape:window-x="0"
     inkscape:window-y="27"
     inkscape:window-maximized="0"
     inkscape:current-layer="svg2" />
  <defs
     id="defs4">
    <style
       type="text/css"
       id="style6">@font-face {
  font-family: Bravura;
  src: local(&quot;Bravura Regular&quot;),
    local(&quot;BravuraRegular&quot;), 
    local(&quot;Bravura&quot;),
     url(Bravura.otf) format(&quot;opentype&quot;),
    url(Bravura.svg) format(&quot;svg&quot;);
}
</style>
  </defs>
  <image
     sodipodi:absref="/tmp/./data/Bravura.svg"
     xlink:href="./data/Bravura.svg"
     id="image8" />
  <g
     style="font-size:47px;stroke:#000000;stroke-width:1;font-family:Bravura"
     id="text12">
    <path
       d="m 276.92627,177.28369 0,3.94727 c -1.19338,-0.65786 -2.39439,-1.14744 -3.60303,-1.46875 -1.19338,-0.33657 -2.40203,-0.50486 -3.62597,-0.50489 -2.73862,3e-5 -4.86525,0.8721 -6.37989,2.61622 -1.51465,1.72885 -2.27198,4.16147 -2.27197,7.29785 -1e-5,3.1364 0.75732,5.57666 2.27197,7.3208 1.51464,1.72884 3.64127,2.59326 6.37989,2.59326 1.22394,0 2.43259,-0.16064 3.62597,-0.48193 1.20864,-0.33659 2.40965,-0.83382 3.60303,-1.4917 l 0,3.90136 c -1.17808,0.55079 -2.40204,0.96387 -3.67188,1.23926 -1.25457,0.27539 -2.59327,0.41309 -4.01611,0.41309 -3.87078,0 -6.94597,-1.21631 -9.22558,-3.64893 -2.27963,-2.43261 -3.41944,-5.71435 -3.41944,-9.84521 0,-4.19204 1.14746,-7.48908 3.44238,-9.89112 2.31022,-2.40199 5.46956,-3.603 9.47803,-3.60302 1.30044,2e-5 2.5703,0.13772 3.80957,0.41308 1.23924,0.26012 2.44025,0.6579 3.60303,1.19336"
       style="font-size:47px;stroke:#000000;stroke-width:1;font-family:Bravura"
       id="path3048" />
    <path
       d="m 288.49268,168.99902 0,7.29785 8.69775,0 0,3.28174 -8.69775,0 0,13.95313 c -1e-5,2.09603 0.28303,3.44239 0.84912,4.03906 0.58137,0.59668 1.75178,0.89502 3.51123,0.89502 l 4.3374,0 0,3.53418 -4.3374,0 c -3.2588,0 -5.50782,-0.60433 -6.74707,-1.81299 -1.23927,-1.22395 -1.85889,-3.44238 -1.85889,-6.65527 l 0,-13.95313 -3.09814,0 0,-3.28174 3.09814,0 0,-7.29785 4.24561,0"
       style="font-size:47px;stroke:#000000;stroke-width:1;font-family:Bravura"
       id="path3050" />
    <path
       d="m 314.40234,172.30371 -6.28808,17.05127 12.59912,0 -6.31104,-17.05127 m -2.61621,-4.56689 5.25537,0 13.05811,34.26318 -4.81934,0 -3.12109,-8.78955 -15.44482,0 -3.1211,8.78955 -4.88818,0 13.08105,-34.26318"
       style="font-size:47px;stroke:#000000;stroke-width:1;font-family:Bravura"
       id="path3052" />
    <path
       d="m 334.896,166.29102 4.22265,0 0,35.70898 -4.22265,0 0,-35.70898"
       style="font-size:47px;stroke:#000000;stroke-width:1;font-family:Bravura"
       id="path3054" />
    <path
       d="m 347.93115,166.29102 4.22266,0 0,35.70898 -4.22266,0 0,-35.70898"
       style="font-size:47px;stroke:#000000;stroke-width:1;font-family:Bravura"
       id="path3056" />
    <path
       d="m 373.79492,187.24365 12.36963,0 0,3.76367 -12.36963,0 0,-3.76367"
       style="font-size:47px;stroke:#000000;stroke-width:1;font-family:Bravura"
       id="path3058" />
    <path
       d="m 390.77734,187.24365 12.36963,0 0,3.76367 -12.36963,0 0,-3.76367"
       style="font-size:47px;stroke:#000000;stroke-width:1;font-family:Bravura"
       id="path3060" />
    <path
       d="m 405.57959,176.29687 4.4751,0 8.03222,21.57227 8.03223,-21.57227 4.4751,0 -9.63867,25.70313 -5.73731,0 -9.63867,-25.70313"
       style="font-size:47px;stroke:#000000;stroke-width:1;font-family:Bravura"
       id="path3062" />
    <path
       d="m 458.40869,188.09277 0,2.06543 -19.41504,0 c 0.18359,2.90691 1.05566,5.12534 2.61621,6.65528 1.57584,1.51465 3.76366,2.27197 6.56348,2.27197 1.62173,0 3.18992,-0.19889 4.70459,-0.59668 1.52993,-0.39778 3.04457,-0.99446 4.54394,-1.79004 l 0,3.99316 c -1.51467,0.64258 -3.06756,1.13217 -4.65869,1.46875 -1.59116,0.33659 -3.20525,0.50489 -4.84228,0.50489 -4.10027,0 -7.35141,-1.19336 -9.75342,-3.58008 -2.38672,-2.38671 -3.58008,-5.6149 -3.58008,-9.68457 0,-4.20734 1.13216,-7.54262 3.39649,-10.00586 2.27961,-2.47849 5.34715,-3.71775 9.20263,-3.71777 3.45767,2e-5 6.18862,1.11688 8.19287,3.35058 2.01951,2.21845 3.02927,5.24009 3.0293,9.06494 m -4.22265,-1.23925 c -0.0306,-2.31021 -0.68085,-4.15379 -1.95069,-5.53077 -1.25457,-1.37693 -2.92222,-2.0654 -5.00293,-2.06543 -2.35613,3e-5 -4.24561,0.66555 -5.66846,1.99659 -1.40756,1.33107 -2.21843,3.20525 -2.43261,5.62255 l 15.05469,-0.0229"
       style="font-size:47px;stroke:#000000;stroke-width:1;font-family:Bravura"
       id="path3064" />
    <path
       d="m 480.2334,180.24414 c -0.4743,-0.27537 -0.99449,-0.47426 -1.56055,-0.59668 -0.5508,-0.13767 -1.16278,-0.20652 -1.83594,-0.20654 -2.38673,2e-5 -4.22266,0.78029 -5.50781,2.34082 -1.26986,1.54526 -1.90479,3.77134 -1.90478,6.67822 l 0,13.54004 -4.24561,0 0,-25.70313 4.24561,0 0,3.99317 c 0.88736,-1.56052 2.04247,-2.71563 3.46533,-3.46533 1.42284,-0.76495 3.15168,-1.14744 5.18652,-1.14746 0.29067,2e-5 0.61196,0.023 0.96387,0.0688 0.35187,0.0306 0.742,0.0842 1.17041,0.16065 l 0.023,4.3374"
       style="font-size:47px;stroke:#000000;stroke-width:1;font-family:Bravura"
       id="path3066" />
    <path
       d="m 503.15967,189.17139 c -2e-5,-3.10578 -0.6426,-5.5384 -1.92774,-7.29785 -1.26987,-1.77472 -3.02166,-2.66209 -5.25537,-2.66211 -2.23373,2e-5 -3.99317,0.88739 -5.27832,2.66211 -1.26986,1.75945 -1.90479,4.19207 -1.90478,7.29785 -10e-6,3.1058 0.63492,5.54607 1.90478,7.3208 1.28515,1.75944 3.04459,2.63916 5.27832,2.63916 2.23371,0 3.9855,-0.87972 5.25537,-2.63916 1.28514,-1.77473 1.92772,-4.215 1.92774,-7.3208 m -14.36621,-8.97315 c 0.88736,-1.52992 2.00422,-2.66208 3.35058,-3.39648 1.36164,-0.74965 2.98339,-1.12449 4.86524,-1.12451 3.12107,2e-5 5.65313,1.23928 7.59619,3.71777 1.95831,2.47854 2.93747,5.73732 2.9375,9.77637 -3e-5,4.03907 -0.97919,7.29785 -2.9375,9.77636 -1.94306,2.47852 -4.47512,3.71778 -7.59619,3.71778 -1.88185,0 -3.5036,-0.36719 -4.86524,-1.10157 -1.34636,-0.74967 -2.46322,-1.88948 -3.35058,-3.41943 l 0,3.85547 -4.24561,0 0,-35.70898 4.24561,0 0,13.90722"
       style="font-size:47px;stroke:#000000;stroke-width:1;font-family:Bravura"
       id="path3068" />
    <path
       d="m 550.22852,168.86133 0,4.52099 c -1.75947,-0.84144 -3.41946,-1.46872 -4.97998,-1.88183 -1.56057,-0.41306 -3.06757,-0.6196 -4.521,-0.61963 -2.52443,3e-5 -4.47511,0.48961 -5.85205,1.46875 -1.36166,0.97919 -2.04249,2.37145 -2.04248,4.17676 -10e-6,1.51467 0.45132,2.66213 1.354,3.44238 0.91796,0.765 2.6468,1.38462 5.18653,1.85889 l 2.7998,0.57373 c 3.45766,0.65789 6.00502,1.82065 7.64209,3.48828 1.65232,1.65236 2.47849,3.87078 2.47852,6.65527 -3e-5,3.31999 -1.11689,5.83676 -3.35059,7.55029 -2.21845,1.71355 -5.47723,2.57032 -9.77637,2.57032 -1.62176,0 -3.35059,-0.1836 -5.18652,-0.55078 -1.82065,-0.36719 -3.71013,-0.91032 -5.66846,-1.6294 l 0,-4.77344 c 1.88183,1.05567 3.72542,1.85125 5.53076,2.38672 1.80533,0.53549 3.58007,0.80323 5.32422,0.80323 2.6468,0 4.68927,-0.52018 6.12744,-1.56055 1.43813,-1.04036 2.15721,-2.52441 2.15723,-4.45215 -2e-5,-1.68293 -0.5202,-2.99869 -1.56055,-3.94727 -1.02508,-0.94855 -2.71567,-1.65997 -5.07177,-2.13427 l -2.82276,-0.55078 c -3.45769,-0.68846 -5.95915,-1.76708 -7.50439,-3.23584 -1.54525,-1.46873 -2.31788,-3.51121 -2.31787,-6.12745 -10e-6,-3.02926 1.06331,-5.41598 3.18994,-7.16015 2.14192,-1.74411 5.08706,-2.61618 8.83545,-2.61621 1.60643,3e-5 3.24347,0.14538 4.91113,0.43603 1.66762,0.29073 3.37351,0.72676 5.11768,1.30811"
       style="font-size:47px;stroke:#000000;stroke-width:1;font-family:Bravura"
       id="path3070" />
    <path
       d="m 581.32471,188.09277 0,2.06543 -19.41504,0 c 0.18358,2.90691 1.05565,5.12534 2.61621,6.65528 1.57583,1.51465 3.76366,2.27197 6.56348,2.27197 1.62172,0 3.18992,-0.19889 4.70459,-0.59668 1.52992,-0.39778 3.04457,-0.99446 4.54394,-1.79004 l 0,3.99316 c -1.51467,0.64258 -3.06757,1.13217 -4.65869,1.46875 -1.59117,0.33659 -3.20526,0.50489 -4.84229,0.50489 -4.10027,0 -7.3514,-1.19336 -9.75341,-3.58008 -2.38673,-2.38671 -3.58008,-5.6149 -3.58008,-9.68457 0,-4.20734 1.13216,-7.54262 3.39648,-10.00586 2.27962,-2.47849 5.34716,-3.71775 9.20264,-3.71777 3.45766,2e-5 6.18862,1.11688 8.19287,3.35058 2.01951,2.21845 3.02927,5.24009 3.0293,9.06494 m -4.22266,-1.23925 c -0.0306,-2.31021 -0.68085,-4.15379 -1.95068,-5.53077 -1.25458,-1.37693 -2.92222,-2.0654 -5.00293,-2.06543 -2.35614,3e-5 -4.24562,0.66555 -5.66846,1.99659 -1.40756,1.33107 -2.21843,3.20525 -2.43262,5.62255 l 15.05469,-0.0229"
       style="font-size:47px;stroke:#000000;stroke-width:1;font-family:Bravura"
       id="path3072" />
    <path
       d="m 588.25537,166.29102 4.22266,0 0,35.70898 -4.22266,0 0,-35.70898"
       style="font-size:47px;stroke:#000000;stroke-width:1;font-family:Bravura"
       id="path3074" />
    <path
       d="m 623.27588,188.09277 0,2.06543 -19.41504,0 c 0.18359,2.90691 1.05566,5.12534 2.61621,6.65528 1.57584,1.51465 3.76366,2.27197 6.56348,2.27197 1.62172,0 3.18992,-0.19889 4.70459,-0.59668 1.52992,-0.39778 3.04457,-0.99446 4.54394,-1.79004 l 0,3.99316 c -1.51467,0.64258 -3.06757,1.13217 -4.65869,1.46875 -1.59116,0.33659 -3.20526,0.50489 -4.84228,0.50489 -4.10028,0 -7.35141,-1.19336 -9.75342,-3.58008 -2.38672,-2.38671 -3.58008,-5.6149 -3.58008,-9.68457 0,-4.20734 1.13216,-7.54262 3.39648,-10.00586 2.27962,-2.47849 5.34716,-3.71775 9.20264,-3.71777 3.45766,2e-5 6.18862,1.11688 8.19287,3.35058 2.01951,2.21845 3.02927,5.24009 3.0293,9.06494 m -4.22266,-1.23925 c -0.0306,-2.31021 -0.68085,-4.15379 -1.95068,-5.53077 -1.25458,-1.37693 -2.92222,-2.0654 -5.00293,-2.06543 -2.35613,3e-5 -4.24562,0.66555 -5.66846,1.99659 -1.40756,1.33107 -2.21843,3.20525 -2.43261,5.62255 l 15.05468,-0.0229"
       style="font-size:47px;stroke:#000000;stroke-width:1;font-family:Bravura"
       id="path3076" />
    <path
       d="m 648.70361,177.28369 0,3.94727 c -1.19338,-0.65786 -2.39439,-1.14744 -3.60302,-1.46875 -1.19338,-0.33657 -2.40204,-0.50486 -3.62598,-0.50489 -2.73862,3e-5 -4.86525,0.8721 -6.37988,2.61622 -1.51466,1.72885 -2.27198,4.16147 -2.27198,7.29785 0,3.1364 0.75732,5.57666 2.27198,7.3208 1.51463,1.72884 3.64126,2.59326 6.37988,2.59326 1.22394,0 2.4326,-0.16064 3.62598,-0.48193 1.20863,-0.33659 2.40964,-0.83382 3.60302,-1.4917 l 0,3.90136 c -1.17808,0.55079 -2.40204,0.96387 -3.67187,1.23926 -1.25458,0.27539 -2.59328,0.41309 -4.01612,0.41309 -3.87077,0 -6.94597,-1.21631 -9.22558,-3.64893 -2.27963,-2.43261 -3.41944,-5.71435 -3.41943,-9.84521 -1e-5,-4.19204 1.14745,-7.48908 3.44238,-9.89112 2.31021,-2.40199 5.46955,-3.603 9.47803,-3.60302 1.30043,2e-5 2.57029,0.13772 3.80957,0.41308 1.23923,0.26012 2.44024,0.6579 3.60302,1.19336"
       style="font-size:47px;stroke:#000000;stroke-width:1;font-family:Bravura"
       id="path3078" />
    <path
       d="m 660.27002,168.99902 0,7.29785 8.69775,0 0,3.28174 -8.69775,0 0,13.95313 c -1e-5,2.09603 0.28303,3.44239 0.84912,4.03906 0.58137,0.59668 1.75178,0.89502 3.51123,0.89502 l 4.3374,0 0,3.53418 -4.3374,0 c -3.2588,0 -5.50782,-0.60433 -6.74707,-1.81299 -1.23926,-1.22395 -1.85889,-3.44238 -1.85889,-6.65527 l 0,-13.95313 -3.09814,0 0,-3.28174 3.09814,0 0,-7.29785 4.24561,0"
       style="font-size:47px;stroke:#000000;stroke-width:1;font-family:Bravura"
       id="path3080" />
    <path
       d="m 674.54443,176.29687 4.22266,0 0,25.70313 -4.22266,0 0,-25.70313 m 0,-10.00585 4.22266,0 0,5.34716 -4.22266,0 0,-5.34716"
       style="font-size:47px;stroke:#000000;stroke-width:1;font-family:Bravura"
       id="path3082" />
    <path
       d="m 697.53955,179.25732 c -2.26433,3e-5 -4.05437,0.8874 -5.37012,2.66211 -1.31576,1.75946 -1.97364,4.17678 -1.97363,7.25196 -10e-6,3.0752 0.65022,5.50017 1.95068,7.2749 1.31575,1.75944 3.11344,2.63916 5.39307,2.63916 2.24901,0 4.0314,-0.88737 5.34717,-2.66211 1.31573,-1.77473 1.97361,-4.19205 1.97363,-7.25195 -2e-5,-3.04458 -0.6579,-5.45425 -1.97363,-7.22901 -1.31577,-1.79001 -3.09816,-2.68503 -5.34717,-2.68506 m 0,-3.58007 c 3.67186,2e-5 6.55581,1.19338 8.65186,3.58007 2.096,2.38674 3.14401,5.69143 3.14404,9.91407 -3e-5,4.20736 -1.04804,7.51205 -3.14404,9.91406 -2.09605,2.38672 -4.98,3.58008 -8.65186,3.58008 -3.68718,0 -6.57878,-1.19336 -8.6748,-3.58008 -2.08074,-2.40201 -3.1211,-5.7067 -3.1211,-9.91406 0,-4.22264 1.04036,-7.52733 3.1211,-9.91407 2.09602,-2.38669 4.98762,-3.58005 8.6748,-3.58007"
       style="font-size:47px;stroke:#000000;stroke-width:1;font-family:Bravura"
       id="path3084" />
    <path
       d="m 737.67773,186.48633 0,15.51367 -4.22265,0 0,-15.37598 c -2e-5,-2.4326 -0.47431,-4.25323 -1.42285,-5.46191 -0.94859,-1.20864 -2.37144,-1.81297 -4.26856,-1.81299 -2.27963,2e-5 -4.07732,0.72675 -5.39306,2.18018 -1.31577,1.45347 -1.97365,3.43475 -1.97364,5.94384 l 0,14.52686 -4.2456,0 0,-25.70313 4.2456,0 0,3.99317 c 1.00976,-1.54523 2.19547,-2.70033 3.55713,-3.46533 1.37694,-0.76495 2.96044,-1.14744 4.75049,-1.14746 2.95278,2e-5 5.1865,0.91799 6.70117,2.7539 1.51463,1.82066 2.27195,4.50572 2.27197,8.05518"
       style="font-size:47px;stroke:#000000;stroke-width:1;font-family:Bravura"
       id="path3086" />
    <path
       d="m 745.80176,167.73682 4.65869,0 0,20.81494 c -1e-5,3.67188 0.66552,6.31869 1.99658,7.94043 1.33104,1.60645 3.48827,2.40967 6.47168,2.40967 2.96808,0 5.11765,-0.80322 6.44873,-2.40967 1.33103,-1.62174 1.99656,-4.26855 1.99658,-7.94043 l 0,-20.81494 4.65869,0 0,21.38867 c -3e-5,4.46745 -1.10924,7.84099 -3.32763,10.1206 -2.20315,2.27963 -5.46194,3.41944 -9.77637,3.41944 -4.32976,0 -7.60385,-1.13981 -9.82226,-3.41944 -2.20313,-2.27961 -3.3047,-5.65315 -3.30469,-10.1206 l 0,-21.38867"
       style="font-size:47px;stroke:#000000;stroke-width:1;font-family:Bravura"
       id="path3088" />
    <path
       d="m 801.93555,186.48633 0,15.51367 -4.22266,0 0,-15.37598 c -2e-5,-2.4326 -0.4743,-4.25323 -1.42285,-5.46191 -0.94859,-1.20864 -2.37144,-1.81297 -4.26856,-1.81299 -2.27963,2e-5 -4.07732,0.72675 -5.39306,2.18018 -1.31577,1.45347 -1.97364,3.43475 -1.97363,5.94384 l 0,14.52686 -4.24561,0 0,-25.70313 4.24561,0 0,3.99317 c 1.00975,-1.54523 2.19546,-2.70033 3.55712,-3.46533 1.37694,-0.76495 2.96044,-1.14744 4.75049,-1.14746 2.95278,2e-5 5.1865,0.91799 6.70117,2.7539 1.51463,1.82066 2.27195,4.50572 2.27198,8.05518"
       style="font-size:47px;stroke:#000000;stroke-width:1;font-family:Bravura"
       id="path3090" />
    <path
       d="m 833.94971,197.11182 0,-9.20264 -7.57325,0 0,-3.80957 12.16309,0 0,14.71045 c -1.79007,1.26986 -3.7637,2.23372 -5.9209,2.8916 -2.15725,0.64258 -4.45982,0.96387 -6.90771,0.96387 -5.35483,0 -9.54689,-1.56055 -12.57617,-4.68164 -3.01401,-3.13639 -4.521,-7.49674 -4.521,-13.08106 0,-5.59958 1.50699,-9.95993 4.521,-13.08105 3.02928,-3.13636 7.22134,-4.70456 12.57617,-4.70459 2.2337,3e-5 4.35268,0.27542 6.35693,0.82617 2.0195,0.55081 3.87839,1.36169 5.57666,2.43262 l 0,4.93408 c -1.71357,-1.45342 -3.53421,-2.54734 -5.46191,-3.28174 -1.92776,-0.73434 -3.95494,-1.10153 -6.08155,-1.10156 -4.19207,3e-5 -7.34376,1.17044 -9.45507,3.51123 -2.09604,2.34084 -3.14405,5.82912 -3.14405,10.46484 0,4.62046 1.04801,8.10109 3.14405,10.4419 2.11131,2.34082 5.263,3.51123 9.45507,3.51123 1.63703,0 3.09813,-0.13769 4.3833,-0.41309 1.28514,-0.29069 2.44024,-0.73437 3.46534,-1.33105"
       style="font-size:47px;stroke:#000000;stroke-width:1;font-family:Bravura"
       id="path3092" />
    <path
       d="m 861.74121,180.24414 c -0.4743,-0.27537 -0.99448,-0.47426 -1.56055,-0.59668 -0.55079,-0.13767 -1.16277,-0.20652 -1.83593,-0.20654 -2.38674,2e-5 -4.22267,0.78029 -5.50782,2.34082 -1.26986,1.54526 -1.90479,3.77134 -1.90478,6.67822 l 0,13.54004 -4.24561,0 0,-25.70313 4.24561,0 0,3.99317 c 0.88736,-1.56052 2.04247,-2.71563 3.46533,-3.46533 1.42284,-0.76495 3.15168,-1.14744 5.18652,-1.14746 0.29068,2e-5 0.61197,0.023 0.96387,0.0688 0.35187,0.0306 0.74201,0.0842 1.17041,0.16065 l 0.023,4.3374"
       style="font-size:47px;stroke:#000000;stroke-width:1;font-family:Bravura"
       id="path3094" />
    <path
       d="m 875.1665,179.25732 c -2.26433,3e-5 -4.05437,0.8874 -5.37011,2.66211 -1.31577,1.75946 -1.97364,4.17678 -1.97364,7.25196 0,3.0752 0.65022,5.50017 1.95069,7.2749 1.31574,1.75944 3.11343,2.63916 5.39306,2.63916 2.24901,0 4.0314,-0.88737 5.34717,-2.66211 1.31574,-1.77473 1.97361,-4.19205 1.97363,-7.25195 -2e-5,-3.04458 -0.65789,-5.45425 -1.97363,-7.22901 -1.31577,-1.79001 -3.09816,-2.68503 -5.34717,-2.68506 m 0,-3.58007 c 3.67186,2e-5 6.55581,1.19338 8.65186,3.58007 2.096,2.38674 3.14402,5.69143 3.14404,9.91407 -2e-5,4.20736 -1.04804,7.51205 -3.14404,9.91406 -2.09605,2.38672 -4.98,3.58008 -8.65186,3.58008 -3.68718,0 -6.57878,-1.19336 -8.6748,-3.58008 -2.08073,-2.40201 -3.1211,-5.7067 -3.12109,-9.91406 -1e-5,-4.22264 1.04036,-7.52733 3.12109,-9.91407 2.09602,-2.38669 4.98762,-3.58005 8.6748,-3.58007"
       style="font-size:47px;stroke:#000000;stroke-width:1;font-family:Bravura"
       id="path3096" />
    <path
       d="m 893.50293,191.85645 0,-15.55958 4.22266,0 0,15.39893 c -10e-6,2.43263 0.47427,4.26091 1.42285,5.48486 0.94855,1.20867 2.3714,1.813 4.26855,1.81299 2.27961,1e-5 4.0773,-0.72672 5.39307,-2.18017 1.33103,-1.45345 1.99656,-3.43473 1.99658,-5.94385 l 0,-14.57276 4.22266,0 0,25.70313 -4.22266,0 0,-3.94727 c -1.02508,1.56055 -2.21844,2.72331 -3.58008,3.48829 -1.34637,0.74967 -2.91456,1.12451 -4.70459,1.12451 -2.95281,0 -5.19418,-0.91797 -6.72412,-2.75391 -1.52995,-1.83593 -2.29492,-4.52099 -2.29492,-8.05517 m 10.62549,-16.1792 0,0"
       style="font-size:47px;stroke:#000000;stroke-width:1;font-family:Bravura"
       id="path3098" />
    <path
       d="m 927.85791,198.14453 0,13.63184 -4.24561,0 0,-35.4795 4.24561,0 0,3.90137 c 0.88736,-1.52992 2.00422,-2.66208 3.35059,-3.39648 1.36164,-0.74965 2.98338,-1.12449 4.86523,-1.12451 3.12107,2e-5 5.65314,1.23928 7.59619,3.71777 1.95831,2.47854 2.93747,5.73732 2.9375,9.77637 -3e-5,4.03907 -0.97919,7.29785 -2.9375,9.77636 -1.94305,2.47852 -4.47512,3.71778 -7.59619,3.71778 -1.88185,0 -3.50359,-0.36719 -4.86523,-1.10157 -1.34637,-0.74967 -2.46323,-1.88948 -3.35059,-3.41943 m 14.36621,-8.97314 c -2e-5,-3.10578 -0.6426,-5.5384 -1.92773,-7.29785 -1.26988,-1.77472 -3.02167,-2.66209 -5.25537,-2.66211 -2.23374,2e-5 -3.99318,0.88739 -5.27832,2.66211 -1.26987,1.75945 -1.9048,4.19207 -1.90479,7.29785 -10e-6,3.1058 0.63492,5.54607 1.90479,7.3208 1.28514,1.75944 3.04458,2.63916 5.27832,2.63916 2.2337,0 3.98549,-0.87972 5.25537,-2.63916 1.28513,-1.77473 1.92771,-4.215 1.92773,-7.3208"
       style="font-size:47px;stroke:#000000;stroke-width:1;font-family:Bravura"
       id="path3100" />
    <path
       d="m 966.43555,187.24365 12.36963,0 0,3.76367 -12.36963,0 0,-3.76367"
       style="font-size:47px;stroke:#000000;stroke-width:1;font-family:Bravura"
       id="path3102" />
    <path
       d="m 983.41797,187.24365 12.36963,0 0,3.76367 -12.36963,0 0,-3.76367"
       style="font-size:47px;stroke:#000000;stroke-width:1;font-family:Bravura"
       id="path3104" />
    <path
       d="m 998.22021,176.29687 4.47509,0 8.0322,21.57227 8.0323,-21.57227 4.4751,0 -9.6387,25.70313 -5.7373,0 -9.63869,-25.70313"
       style="font-size:47px;stroke:#000000;stroke-width:1;font-family:Bravura"
       id="path3106" />
    <path
       d="m 1051.0493,188.09277 0,2.06543 -19.415,0 c 0.1836,2.90691 1.0556,5.12534 2.6162,6.65528 1.5758,1.51465 3.7636,2.27197 6.5635,2.27197 1.6217,0 3.1899,-0.19889 4.7046,-0.59668 1.5299,-0.39778 3.0445,-0.99446 4.5439,-1.79004 l 0,3.99316 c -1.5147,0.64258 -3.0676,1.13217 -4.6587,1.46875 -1.5912,0.33659 -3.2052,0.50489 -4.8423,0.50489 -4.1002,0 -7.3514,-1.19336 -9.7534,-3.58008 -2.3867,-2.38671 -3.5801,-5.6149 -3.5801,-9.68457 0,-4.20734 1.1322,-7.54262 3.3965,-10.00586 2.2796,-2.47849 5.3472,-3.71775 9.2026,-3.71777 3.4577,2e-5 6.1887,1.11688 8.1929,3.35058 2.0195,2.21845 3.0293,5.24009 3.0293,9.06494 m -4.2226,-1.23925 c -0.031,-2.31021 -0.6809,-4.15379 -1.9507,-5.53077 -1.2546,-1.37693 -2.9222,-2.0654 -5.003,-2.06543 -2.3561,3e-5 -4.2456,0.66555 -5.6684,1.99659 -1.4076,1.33107 -2.2184,3.20525 -2.4326,5.62255 l 15.0547,-0.0229"
       style="font-size:47px;stroke:#000000;stroke-width:1;font-family:Bravura"
       id="path3108" />
    <path
       d="m 1072.874,180.24414 c -0.4743,-0.27537 -0.9945,-0.47426 -1.5605,-0.59668 -0.5508,-0.13767 -1.1628,-0.20652 -1.836,-0.20654 -2.3867,2e-5 -4.2226,0.78029 -5.5078,2.34082 -1.2698,1.54526 -1.9048,3.77134 -1.9048,6.67822 l 0,13.54004 -4.2456,0 0,-25.70313 4.2456,0 0,3.99317 c 0.8874,-1.56052 2.0425,-2.71563 3.4654,-3.46533 1.4228,-0.76495 3.1517,-1.14744 5.1865,-1.14746 0.2907,2e-5 0.612,0.023 0.9639,0.0688 0.3518,0.0306 0.742,0.0842 1.1704,0.16065 l 0.023,4.3374"
       style="font-size:47px;stroke:#000000;stroke-width:1;font-family:Bravura"
       id="path3110" />
    <path
       d="m 1095.8003,189.17139 c 0,-3.10578 -0.6426,-5.5384 -1.9277,-7.29785 -1.2699,-1.77472 -3.0217,-2.66209 -5.2554,-2.66211 -2.2337,2e-5 -3.9932,0.88739 -5.2783,2.66211 -1.2699,1.75945 -1.9048,4.19207 -1.9048,7.29785 0,3.1058 0.6349,5.54607 1.9048,7.3208 1.2851,1.75944 3.0446,2.63916 5.2783,2.63916 2.2337,0 3.9855,-0.87972 5.2554,-2.63916 1.2851,-1.77473 1.9277,-4.215 1.9277,-7.3208 m -14.3662,-8.97315 c 0.8873,-1.52992 2.0042,-2.66208 3.3506,-3.39648 1.3616,-0.74965 2.9834,-1.12449 4.8652,-1.12451 3.1211,2e-5 5.6531,1.23928 7.5962,3.71777 1.9583,2.47854 2.9375,5.73732 2.9375,9.77637 0,4.03907 -0.9792,7.29785 -2.9375,9.77636 -1.9431,2.47852 -4.4751,3.71778 -7.5962,3.71778 -1.8818,0 -3.5036,-0.36719 -4.8652,-1.10157 -1.3464,-0.74967 -2.4633,-1.88948 -3.3506,-3.41943 l 0,3.85547 -4.2456,0 0,-35.70898 4.2456,0 0,13.90722"
       style="font-size:47px;stroke:#000000;stroke-width:1;font-family:Bravura"
       id="path3112" />
    <path
       d="m 1122.3296,167.73682 21.6641,0 0,3.90136 -17.0284,0 0,10.14356 16.3169,0 0,3.90137 -16.3169,0 0,12.41552 17.4414,0 0,3.90137 -22.0771,0 0,-34.26318"
       style="font-size:47px;stroke:#000000;stroke-width:1;font-family:Bravura"
       id="path3114" />
    <path
       d="m 1168.8018,180.19824 0,-13.90722 4.2226,0 0,35.70898 -4.2226,0 0,-3.85547 c -0.8874,1.52995 -2.0119,2.66976 -3.3736,3.41943 -1.3463,0.73438 -2.9681,1.10157 -4.8652,1.10157 -3.1058,0 -5.6379,-1.23926 -7.5962,-3.71778 -1.943,-2.47851 -2.9146,-5.73729 -2.9146,-9.77636 0,-4.03905 0.9716,-7.29783 2.9146,-9.77637 1.9583,-2.47849 4.4904,-3.71775 7.5962,-3.71777 1.8971,2e-5 3.5189,0.37486 4.8652,1.12451 1.3617,0.7344 2.4862,1.86656 3.3736,3.39648 m -14.3892,8.97315 c 0,3.1058 0.6349,5.54607 1.9048,7.3208 1.2851,1.75944 3.0446,2.63916 5.2783,2.63916 2.2337,0 3.9931,-0.87972 5.2783,-2.63916 1.2852,-1.77473 1.9277,-4.215 1.9278,-7.3208 -10e-5,-3.10578 -0.6426,-5.5384 -1.9278,-7.29785 -1.2852,-1.77472 -3.0446,-2.66209 -5.2783,-2.66211 -2.2337,2e-5 -3.9932,0.88739 -5.2783,2.66211 -1.2699,1.75945 -1.9048,4.19207 -1.9048,7.29785"
       style="font-size:47px;stroke:#000000;stroke-width:1;font-family:Bravura"
       id="path3116" />
    <path
       d="m 1181.7222,176.29687 4.2226,0 0,25.70313 -4.2226,0 0,-25.70313 m 0,-10.00585 4.2226,0 0,5.34716 -4.2226,0 0,-5.34716"
       style="font-size:47px;stroke:#000000;stroke-width:1;font-family:Bravura"
       id="path3118" />
    <path
       d="m 1198.9341,168.99902 0,7.29785 8.6977,0 0,3.28174 -8.6977,0 0,13.95313 c 0,2.09603 0.283,3.44239 0.8491,4.03906 0.5814,0.59668 1.7518,0.89502 3.5112,0.89502 l 4.3374,0 0,3.53418 -4.3374,0 c -3.2588,0 -5.5078,-0.60433 -6.747,-1.81299 -1.2393,-1.22395 -1.8589,-3.44238 -1.8589,-6.65527 l 0,-13.95313 -3.0982,0 0,-3.28174 3.0982,0 0,-7.29785 4.2456,0"
       style="font-size:47px;stroke:#000000;stroke-width:1;font-family:Bravura"
       id="path3120" />
    <path
       d="m 1233.9316,168.86133 0,4.52099 c -1.7594,-0.84144 -3.4194,-1.46872 -4.9799,-1.88183 -1.5606,-0.41306 -3.0676,-0.6196 -4.521,-0.61963 -2.5245,3e-5 -4.4751,0.48961 -5.8521,1.46875 -1.3616,0.97919 -2.0425,2.37145 -2.0425,4.17676 0,1.51467 0.4514,2.66213 1.354,3.44238 0.918,0.765 2.6468,1.38462 5.1866,1.85889 l 2.7998,0.57373 c 3.4576,0.65789 6.005,1.82065 7.6421,3.48828 1.6523,1.65236 2.4784,3.87078 2.4785,6.65527 -10e-5,3.31999 -1.1169,5.83676 -3.3506,7.55029 -2.2185,1.71355 -5.4772,2.57032 -9.7764,2.57032 -1.6217,0 -3.3506,-0.1836 -5.1865,-0.55078 -1.8207,-0.36719 -3.7101,-0.91032 -5.6685,-1.6294 l 0,-4.77344 c 1.8819,1.05567 3.7255,1.85125 5.5308,2.38672 1.8053,0.53549 3.5801,0.80323 5.3242,0.80323 2.6468,0 4.6893,-0.52018 6.1275,-1.56055 1.4381,-1.04036 2.1572,-2.52441 2.1572,-4.45215 0,-1.68293 -0.5202,-2.99869 -1.5606,-3.94727 -1.025,-0.94855 -2.7156,-1.65997 -5.0717,-2.13427 l -2.8228,-0.55078 c -3.4577,-0.68846 -5.9591,-1.76708 -7.5044,-3.23584 -1.5452,-1.46873 -2.3179,-3.51121 -2.3179,-6.12745 0,-3.02926 1.0634,-5.41598 3.19,-7.16015 2.1419,-1.74411 5.087,-2.61618 8.8354,-2.61621 1.6065,3e-5 3.2435,0.14538 4.9112,0.43603 1.6676,0.29073 3.3735,0.72676 5.1176,1.30811"
       style="font-size:47px;stroke:#000000;stroke-width:1;font-family:Bravura"
       id="path3122" />
    <path
       d="m 1265.0278,188.09277 0,2.06543 -19.415,0 c 0.1836,2.90691 1.0556,5.12534 2.6162,6.65528 1.5758,1.51465 3.7637,2.27197 6.5635,2.27197 1.6217,0 3.1899,-0.19889 4.7046,-0.59668 1.5299,-0.39778 3.0445,-0.99446 4.5439,-1.79004 l 0,3.99316 c -1.5147,0.64258 -3.0676,1.13217 -4.6587,1.46875 -1.5911,0.33659 -3.2052,0.50489 -4.8423,0.50489 -4.1002,0 -7.3514,-1.19336 -9.7534,-3.58008 -2.3867,-2.38671 -3.5801,-5.6149 -3.5801,-9.68457 0,-4.20734 1.1322,-7.54262 3.3965,-10.00586 2.2796,-2.47849 5.3472,-3.71775 9.2027,-3.71777 3.4576,2e-5 6.1886,1.11688 8.1928,3.35058 2.0195,2.21845 3.0293,5.24009 3.0293,9.06494 m -4.2226,-1.23925 c -0.031,-2.31021 -0.6809,-4.15379 -1.9507,-5.53077 -1.2546,-1.37693 -2.9222,-2.0654 -5.0029,-2.06543 -2.3562,3e-5 -4.2457,0.66555 -5.6685,1.99659 -1.4076,1.33107 -2.2184,3.20525 -2.4326,5.62255 l 15.0547,-0.0229"
       style="font-size:47px;stroke:#000000;stroke-width:1;font-family:Bravura"
       id="path3124" />
    <path
       d="m 1271.9585,166.29102 4.2227,0 0,35.70898 -4.2227,0 0,-35.70898"
       style="font-size:47px;stroke:#000000;stroke-width:1;font-family:Bravura"
       id="path3126" />
    <path
       d="m 1306.979,188.09277 0,2.06543 -19.415,0 c 0.1836,2.90691 1.0556,5.12534 2.6162,6.65528 1.5758,1.51465 3.7636,2.27197 6.5635,2.27197 1.6217,0 3.1899,-0.19889 4.7045,-0.59668 1.53,-0.39778 3.0446,-0.99446 4.544,-1.79004 l 0,3.99316 c -1.5147,0.64258 -3.0676,1.13217 -4.6587,1.46875 -1.5912,0.33659 -3.2053,0.50489 -4.8423,0.50489 -4.1003,0 -7.3514,-1.19336 -9.7534,-3.58008 -2.3867,-2.38671 -3.5801,-5.6149 -3.5801,-9.68457 0,-4.20734 1.1322,-7.54262 3.3965,-10.00586 2.2796,-2.47849 5.3472,-3.71775 9.2026,-3.71777 3.4577,2e-5 6.1887,1.11688 8.1929,3.35058 2.0195,2.21845 3.0293,5.24009 3.0293,9.06494 m -4.2227,-1.23925 c -0.031,-2.31021 -0.6808,-4.15379 -1.9506,-5.53077 -1.2546,-1.37693 -2.9223,-2.0654 -5.003,-2.06543 -2.3561,3e-5 -4.2456,0.66555 -5.6684,1.99659 -1.4076,1.33107 -2.2185,3.20525 -2.4326,5.62255 l 15.0546,-0.0229"
       style="font-size:47px;stroke:#000000;stroke-width:1;font-family:Bravura"
       id="path3128" />
    <path
       d="m 1332.4067,177.28369 0,3.94727 c -1.1933,-0.65786 -2.3944,-1.14744 -3.603,-1.46875 -1.1934,-0.33657 -2.402,-0.50486 -3.626,-0.50489 -2.7386,3e-5 -4.8652,0.8721 -6.3798,2.61622 -1.5147,1.72885 -2.272,4.16147 -2.272,7.29785 0,3.1364 0.7573,5.57666 2.272,7.3208 1.5146,1.72884 3.6412,2.59326 6.3798,2.59326 1.224,0 2.4326,-0.16064 3.626,-0.48193 1.2086,-0.33659 2.4097,-0.83382 3.603,-1.4917 l 0,3.90136 c -1.178,0.55079 -2.402,0.96387 -3.6718,1.23926 -1.2546,0.27539 -2.5933,0.41309 -4.0161,0.41309 -3.8708,0 -6.946,-1.21631 -9.2256,-3.64893 -2.2797,-2.43261 -3.4195,-5.71435 -3.4195,-9.84521 0,-4.19204 1.1475,-7.48908 3.4424,-9.89112 2.3102,-2.40199 5.4696,-3.603 9.478,-3.60302 1.3005,2e-5 2.5703,0.13772 3.8096,0.41308 1.2392,0.26012 2.4403,0.6579 3.603,1.19336"
       style="font-size:47px;stroke:#000000;stroke-width:1;font-family:Bravura"
       id="path3130" />
    <path
       d="m 1343.9731,168.99902 0,7.29785 8.6978,0 0,3.28174 -8.6978,0 0,13.95313 c 0,2.09603 0.2831,3.44239 0.8492,4.03906 0.5813,0.59668 1.7517,0.89502 3.5112,0.89502 l 4.3374,0 0,3.53418 -4.3374,0 c -3.2588,0 -5.5078,-0.60433 -6.7471,-1.81299 -1.2392,-1.22395 -1.8589,-3.44238 -1.8589,-6.65527 l 0,-13.95313 -3.0981,0 0,-3.28174 3.0981,0 0,-7.29785 4.2456,0"
       style="font-size:47px;stroke:#000000;stroke-width:1;font-family:Bravura"
       id="path3132" />
    <path
       d="m 1369.8828,172.30371 -6.2881,17.05127 12.5991,0 -6.311,-17.05127 m -2.6162,-4.56689 5.2554,0 13.0581,34.26318 -4.8194,0 -3.1211,-8.78955 -15.4448,0 -3.1211,8.78955 -4.8882,0 13.0811,-34.26318"
       style="font-size:47px;stroke:#000000;stroke-width:1;font-family:Bravura"
       id="path3134" />
    <path
       d="m 1390.3765,166.29102 4.2226,0 0,35.70898 -4.2226,0 0,-35.70898"
       style="font-size:47px;stroke:#000000;stroke-width:1;font-family:Bravura"
       id="path3136" />
    <path
       d="m 1403.4116,166.29102 4.2227,0 0,35.70898 -4.2227,0 0,-35.70898"
       style="font-size:47px;stroke:#000000;stroke-width:1;font-family:Bravura"
       id="path3138" />
    <path
       d="m 1429.2754,187.24365 12.3696,0 0,3.76367 -12.3696,0 0,-3.76367"
       style="font-size:47px;stroke:#000000;stroke-width:1;font-family:Bravura"
       id="path3140" />
    <path
       d="m 1446.2578,187.24365 12.3696,0 0,3.76367 -12.3696,0 0,-3.76367"
       style="font-size:47px;stroke:#000000;stroke-width:1;font-family:Bravura"
       id="path3142" />
    <path
       d="m 1461.0601,176.29687 4.4751,0 8.0322,21.57227 8.0322,-21.57227 4.4751,0 -9.6387,25.70313 -5.7373,0 -9.6386,-25.70313"
       style="font-size:47px;stroke:#000000;stroke-width:1;font-family:Bravura"
       id="path3144" />
    <path
       d="m 1513.8892,188.09277 0,2.06543 -19.4151,0 c 0.1836,2.90691 1.0557,5.12534 2.6162,6.65528 1.5759,1.51465 3.7637,2.27197 6.5635,2.27197 1.6217,0 3.1899,-0.19889 4.7046,-0.59668 1.5299,-0.39778 3.0446,-0.99446 4.5439,-1.79004 l 0,3.99316 c -1.5146,0.64258 -3.0675,1.13217 -4.6586,1.46875 -1.5912,0.33659 -3.2053,0.50489 -4.8423,0.50489 -4.1003,0 -7.3514,-1.19336 -9.7535,-3.58008 -2.3867,-2.38671 -3.58,-5.6149 -3.58,-9.68457 0,-4.20734 1.1321,-7.54262 3.3965,-10.00586 2.2796,-2.47849 5.3471,-3.71775 9.2026,-3.71777 3.4577,2e-5 6.1886,1.11688 8.1929,3.35058 2.0195,2.21845 3.0292,5.24009 3.0293,9.06494 m -4.2227,-1.23925 c -0.031,-2.31021 -0.6808,-4.15379 -1.9507,-5.53077 -1.2546,-1.37693 -2.9222,-2.0654 -5.0029,-2.06543 -2.3561,3e-5 -4.2456,0.66555 -5.6685,1.99659 -1.4075,1.33107 -2.2184,3.20525 -2.4326,5.62255 l 15.0547,-0.0229"
       style="font-size:47px;stroke:#000000;stroke-width:1;font-family:Bravura"
       id="path3146" />
    <path
       d="m 1535.7139,180.24414 c -0.4743,-0.27537 -0.9945,-0.47426 -1.5606,-0.59668 -0.5508,-0.13767 -1.1628,-0.20652 -1.8359,-0.20654 -2.3867,2e-5 -4.2227,0.78029 -5.5078,2.34082 -1.2699,1.54526 -1.9048,3.77134 -1.9048,6.67822 l 0,13.54004 -4.2456,0 0,-25.70313 4.2456,0 0,3.99317 c 0.8873,-1.56052 2.0425,-2.71563 3.4653,-3.46533 1.4229,-0.76495 3.1517,-1.14744 5.1865,-1.14746 0.2907,2e-5 0.612,0.023 0.9639,0.0688 0.3519,0.0306 0.742,0.0842 1.1704,0.16065 l 0.023,4.3374"
       style="font-size:47px;stroke:#000000;stroke-width:1;font-family:Bravura"
       id="path3148" />
    <path
       d="m 1558.6401,189.17139 c 0,-3.10578 -0.6426,-5.5384 -1.9277,-7.29785 -1.2699,-1.77472 -3.0217,-2.66209 -5.2554,-2.66211 -2.2337,2e-5 -3.9931,0.88739 -5.2783,2.66211 -1.2699,1.75945 -1.9048,4.19207 -1.9048,7.29785 0,3.1058 0.6349,5.54607 1.9048,7.3208 1.2852,1.75944 3.0446,2.63916 5.2783,2.63916 2.2337,0 3.9855,-0.87972 5.2554,-2.63916 1.2851,-1.77473 1.9277,-4.215 1.9277,-7.3208 m -14.3662,-8.97315 c 0.8874,-1.52992 2.0042,-2.66208 3.3506,-3.39648 1.3617,-0.74965 2.9834,-1.12449 4.8652,-1.12451 3.1211,2e-5 5.6532,1.23928 7.5962,3.71777 1.9583,2.47854 2.9375,5.73732 2.9375,9.77637 0,4.03907 -0.9792,7.29785 -2.9375,9.77636 -1.943,2.47852 -4.4751,3.71778 -7.5962,3.71778 -1.8818,0 -3.5035,-0.36719 -4.8652,-1.10157 -1.3464,-0.74967 -2.4632,-1.88948 -3.3506,-3.41943 l 0,3.85547 -4.2456,0 0,-35.70898 4.2456,0 0,13.90722"
       style="font-size:47px;stroke:#000000;stroke-width:1;font-family:Bravura"
       id="path3150" />
    <path
       d="m 1599.0767,170.88086 c -3.3659,3e-5 -6.0433,1.25459 -8.0323,3.76367 -1.9736,2.50914 -2.9604,5.92857 -2.9604,10.2583 0,4.31447 0.9868,7.72625 2.9604,10.23535 1.989,2.50912 4.6664,3.76368 8.0323,3.76368 3.3658,0 6.0279,-1.25456 7.9863,-3.76368 1.9736,-2.5091 2.9604,-5.92088 2.9604,-10.23535 0,-4.32973 -0.9868,-7.74916 -2.9604,-10.2583 -1.9584,-2.50908 -4.6205,-3.76364 -7.9863,-3.76367 m 0,-3.76367 c 4.804,3e-5 8.6441,1.61413 11.5205,4.84228 2.8762,3.21292 4.3144,7.52737 4.3144,12.94336 0,5.40073 -1.4382,9.71518 -4.3144,12.94336 -2.8764,3.21289 -6.7165,4.81934 -11.5205,4.81934 -4.8194,0 -8.6749,-1.60645 -11.5664,-4.81934 -2.8764,-3.21288 -4.3145,-7.52733 -4.3145,-12.94336 0,-5.41599 1.4381,-9.73044 4.3145,-12.94336 2.8915,-3.22815 6.747,-4.84225 11.5664,-4.84228"
       style="font-size:47px;stroke:#000000;stroke-width:1;font-family:Bravura"
       id="path3152" />
    <path
       d="m 1640.4312,189.17139 c -10e-5,-3.10578 -0.6426,-5.5384 -1.9278,-7.29785 -1.2699,-1.77472 -3.0216,-2.66209 -5.2554,-2.66211 -2.2337,2e-5 -3.9931,0.88739 -5.2783,2.66211 -1.2698,1.75945 -1.9048,4.19207 -1.9048,7.29785 0,3.1058 0.635,5.54607 1.9048,7.3208 1.2852,1.75944 3.0446,2.63916 5.2783,2.63916 2.2338,0 3.9855,-0.87972 5.2554,-2.63916 1.2852,-1.77473 1.9277,-4.215 1.9278,-7.3208 m -14.3663,-8.97315 c 0.8874,-1.52992 2.0043,-2.66208 3.3506,-3.39648 1.3617,-0.74965 2.9834,-1.12449 4.8653,-1.12451 3.121,2e-5 5.6531,1.23928 7.5962,3.71777 1.9583,2.47854 2.9374,5.73732 2.9375,9.77637 -10e-5,4.03907 -0.9792,7.29785 -2.9375,9.77636 -1.9431,2.47852 -4.4752,3.71778 -7.5962,3.71778 -1.8819,0 -3.5036,-0.36719 -4.8653,-1.10157 -1.3463,-0.74967 -2.4632,-1.88948 -3.3506,-3.41943 l 0,3.85547 -4.2456,0 0,-35.70898 4.2456,0 0,13.90722"
       style="font-size:47px;stroke:#000000;stroke-width:1;font-family:Bravura"
       id="path3154" />
    <path
       d="m 1651.814,176.29687 4.2226,0 0,26.16211 c 0,3.27409 -0.6273,5.64551 -1.8818,7.11426 -1.2393,1.46874 -3.2435,2.20312 -6.0127,2.20313 l -1.6065,0 0,-3.58008 1.1246,0 c 1.6064,-1e-5 2.7003,-0.37484 3.2817,-1.12451 0.5814,-0.73438 0.8721,-2.27198 0.8721,-4.6128 l 0,-26.16211 m 0,-10.00585 4.2226,0 0,5.34716 -4.2226,0 0,-5.34716"
       style="font-size:47px;stroke:#000000;stroke-width:1;font-family:Bravura"
       id="path3156" />
    <path
       d="m 1686.8345,188.09277 0,2.06543 -19.4151,0 c 0.1836,2.90691 1.0557,5.12534 2.6162,6.65528 1.5759,1.51465 3.7637,2.27197 6.5635,2.27197 1.6217,0 3.1899,-0.19889 4.7046,-0.59668 1.5299,-0.39778 3.0446,-0.99446 4.544,-1.79004 l 0,3.99316 c -1.5147,0.64258 -3.0676,1.13217 -4.6587,1.46875 -1.5912,0.33659 -3.2053,0.50489 -4.8423,0.50489 -4.1003,0 -7.3514,-1.19336 -9.7534,-3.58008 -2.3868,-2.38671 -3.5801,-5.6149 -3.5801,-9.68457 0,-4.20734 1.1321,-7.54262 3.3965,-10.00586 2.2796,-2.47849 5.3471,-3.71775 9.2026,-3.71777 3.4577,2e-5 6.1886,1.11688 8.1929,3.35058 2.0195,2.21845 3.0292,5.24009 3.0293,9.06494 m -4.2227,-1.23925 c -0.031,-2.31021 -0.6808,-4.15379 -1.9507,-5.53077 -1.2545,-1.37693 -2.9222,-2.0654 -5.0029,-2.06543 -2.3561,3e-5 -4.2456,0.66555 -5.6685,1.99659 -1.4075,1.33107 -2.2184,3.20525 -2.4326,5.62255 l 15.0547,-0.0229"
       style="font-size:47px;stroke:#000000;stroke-width:1;font-family:Bravura"
       id="path3158" />
    <path
       d="m 1712.2622,177.28369 0,3.94727 c -1.1934,-0.65786 -2.3944,-1.14744 -3.603,-1.46875 -1.1934,-0.33657 -2.4021,-0.50486 -3.626,-0.50489 -2.7386,3e-5 -4.8652,0.8721 -6.3799,2.61622 -1.5146,1.72885 -2.272,4.16147 -2.272,7.29785 0,3.1364 0.7574,5.57666 2.272,7.3208 1.5147,1.72884 3.6413,2.59326 6.3799,2.59326 1.2239,0 2.4326,-0.16064 3.626,-0.48193 1.2086,-0.33659 2.4096,-0.83382 3.603,-1.4917 l 0,3.90136 c -1.1781,0.55079 -2.402,0.96387 -3.6719,1.23926 -1.2545,0.27539 -2.5932,0.41309 -4.0161,0.41309 -3.8708,0 -6.946,-1.21631 -9.2256,-3.64893 -2.2796,-2.43261 -3.4194,-5.71435 -3.4194,-9.84521 0,-4.19204 1.1475,-7.48908 3.4424,-9.89112 2.3102,-2.40199 5.4695,-3.603 9.478,-3.60302 1.3004,2e-5 2.5703,0.13772 3.8096,0.41308 1.2392,0.26012 2.4402,0.6579 3.603,1.19336"
       style="font-size:47px;stroke:#000000;stroke-width:1;font-family:Bravura"
       id="path3160" />
    <path
       d="m 1723.8286,168.99902 0,7.29785 8.6978,0 0,3.28174 -8.6978,0 0,13.95313 c 0,2.09603 0.283,3.44239 0.8491,4.03906 0.5814,0.59668 1.7518,0.89502 3.5113,0.89502 l 4.3374,0 0,3.53418 -4.3374,0 c -3.2588,0 -5.5079,-0.60433 -6.7471,-1.81299 -1.2393,-1.22395 -1.8589,-3.44238 -1.8589,-6.65527 l 0,-13.95313 -3.0981,0 0,-3.28174 3.0981,0 0,-7.29785 4.2456,0"
       style="font-size:47px;stroke:#000000;stroke-width:1;font-family:Bravura"
       id="path3162" />
    <path
       d="m 1733.5361,167.73682 28.9849,0 0,3.90136 -12.1631,0 0,30.36182 -4.6587,0 0,-30.36182 -12.1631,0 0,-3.90136"
       style="font-size:47px;stroke:#000000;stroke-width:1;font-family:Bravura"
       id="path3164" />
    <path
       d="m 1768.8091,179.25732 c -2.2644,3e-5 -4.0544,0.8874 -5.3701,2.66211 -1.3158,1.75946 -1.9737,4.17678 -1.9737,7.25196 0,3.0752 0.6503,5.50017 1.9507,7.2749 1.3158,1.75944 3.1134,2.63916 5.3931,2.63916 2.249,0 4.0314,-0.88737 5.3472,-2.66211 1.3157,-1.77473 1.9736,-4.19205 1.9736,-7.25195 0,-3.04458 -0.6579,-5.45425 -1.9736,-7.22901 -1.3158,-1.79001 -3.0982,-2.68503 -5.3472,-2.68506 m 0,-3.58007 c 3.6718,2e-5 6.5558,1.19338 8.6518,3.58007 2.096,2.38674 3.1441,5.69143 3.1441,9.91407 0,4.20736 -1.0481,7.51205 -3.1441,9.91406 -2.096,2.38672 -4.98,3.58008 -8.6518,3.58008 -3.6872,0 -6.5788,-1.19336 -8.6748,-3.58008 -2.0808,-2.40201 -3.1211,-5.7067 -3.1211,-9.91406 0,-4.22264 1.0403,-7.52733 3.1211,-9.91407 2.096,-2.38669 4.9876,-3.58005 8.6748,-3.58007"
       style="font-size:47px;stroke:#000000;stroke-width:1;font-family:Bravura"
       id="path3166" />
    <path
       d="m 1792.4009,171.54639 0,12.87451 5.8291,0 c 2.1572,2e-5 3.8248,-0.55841 5.0029,-1.67529 1.178,-1.11685 1.7671,-2.70799 1.7671,-4.77344 0,-2.05011 -0.5891,-3.6336 -1.7671,-4.75049 -1.1781,-1.11683 -2.8457,-1.67526 -5.0029,-1.67529 l -5.8291,0 m -4.6358,-3.80957 10.4649,0 c 3.8401,3e-5 6.7394,0.8721 8.6977,2.61621 1.9736,1.72887 2.9605,4.26858 2.9605,7.61914 0,3.3812 -0.9869,5.93621 -2.9605,7.66504 -1.9583,1.72885 -4.8576,2.59327 -8.6977,2.59326 l -5.8291,0 0,13.76953 -4.6358,0 0,-34.26318"
       style="font-size:47px;stroke:#000000;stroke-width:1;font-family:Bravura"
       id="path3168" />
    <path
       d="m 1825.5166,189.07959 c -3.4118,1e-5 -5.7756,0.39015 -7.0913,1.17041 -1.3158,0.78028 -1.9736,2.11134 -1.9736,3.99316 0,1.49936 0.4895,2.69272 1.4687,3.58008 0.9945,0.87208 2.3408,1.30811 4.0391,1.30811 2.3408,0 4.215,-0.82617 5.6225,-2.47852 1.4229,-1.66763 2.1343,-3.87841 2.1343,-6.63232 l 0,-0.94092 -4.1997,0 m 8.4224,-1.74414 0,14.66455 -4.2227,0 0,-3.90137 c -0.9639,1.56055 -2.1649,2.71566 -3.603,3.46533 -1.4382,0.73438 -3.1976,1.10157 -5.2783,1.10157 -2.6316,0 -4.7276,-0.73438 -6.2881,-2.20313 -1.5453,-1.48404 -2.3179,-3.46532 -2.3179,-5.94385 0,-2.89159 0.9639,-5.07176 2.8916,-6.54052 1.943,-1.46874 4.8346,-2.20311 8.6748,-2.20313 l 5.9209,0 0,-0.41308 c 0,-1.94302 -0.6426,-3.44237 -1.9277,-4.49805 -1.2699,-1.07094 -3.0599,-1.60642 -5.3701,-1.60645 -1.4688,3e-5 -2.8993,0.17597 -4.2915,0.52784 -1.3923,0.35191 -2.731,0.87974 -4.0162,1.58349 l 0,-3.90136 c 1.5453,-0.59666 3.0446,-1.04034 4.4981,-1.33106 1.4534,-0.30596 2.8686,-0.45896 4.2456,-0.45898 3.7177,2e-5 6.4946,0.96389 8.3306,2.8916 1.8359,1.92775 2.7538,4.84995 2.7539,8.7666"
       style="font-size:47px;stroke:#000000;stroke-width:1;font-family:Bravura"
       id="path3170" />
    <path
       d="m 1846.8364,168.99902 0,7.29785 8.6978,0 0,3.28174 -8.6978,0 0,13.95313 c 0,2.09603 0.2831,3.44239 0.8491,4.03906 0.5814,0.59668 1.7518,0.89502 3.5113,0.89502 l 4.3374,0 0,3.53418 -4.3374,0 c -3.2588,0 -5.5078,-0.60433 -6.7471,-1.81299 -1.2393,-1.22395 -1.8589,-3.44238 -1.8589,-6.65527 l 0,-13.95313 -3.0981,0 0,-3.28174 3.0981,0 0,-7.29785 4.2456,0"
       style="font-size:47px;stroke:#000000;stroke-width:1;font-family:Bravura"
       id="path3172" />
    <path
       d="m 1882.4766,186.48633 0,15.51367 -4.2227,0 0,-15.37598 c 0,-2.4326 -0.4743,-4.25323 -1.4228,-5.46191 -0.9486,-1.20864 -2.3715,-1.81297 -4.2686,-1.81299 -2.2796,2e-5 -4.0773,0.72675 -5.3931,2.18018 -1.3157,1.45347 -1.9736,3.43475 -1.9736,5.94384 l 0,14.52686 -4.2456,0 0,-35.70898 4.2456,0 0,13.99902 c 1.0098,-1.54523 2.1955,-2.70033 3.5571,-3.46533 1.377,-0.76495 2.9605,-1.14744 4.7505,-1.14746 2.9528,2e-5 5.1865,0.91799 6.7012,2.7539 1.5146,1.82066 2.2719,4.50572 2.272,8.05518"
       style="font-size:47px;stroke:#000000;stroke-width:1;font-family:Bravura"
       id="path3174" />
    <path
       d="m 1903.7734,187.24365 12.3697,0 0,3.76367 -12.3697,0 0,-3.76367"
       style="font-size:47px;stroke:#000000;stroke-width:1;font-family:Bravura"
       id="path3176" />
    <path
       d="m 1920.7559,187.24365 12.3696,0 0,3.76367 -12.3696,0 0,-3.76367"
       style="font-size:47px;stroke:#000000;stroke-width:1;font-family:Bravura"
       id="path3178" />
    <path
       d="m 1935.5581,176.29687 4.4751,0 8.0322,21.57227 8.0323,-21.57227 4.4751,0 -9.6387,25.70313 -5.7373,0 -9.6387,-25.70313"
       style="font-size:47px;stroke:#000000;stroke-width:1;font-family:Bravura"
       id="path3180" />
    <path
       d="m 1988.3872,188.09277 0,2.06543 -19.415,0 c 0.1836,2.90691 1.0556,5.12534 2.6162,6.65528 1.5758,1.51465 3.7636,2.27197 6.5635,2.27197 1.6217,0 3.1899,-0.19889 4.7045,-0.59668 1.53,-0.39778 3.0446,-0.99446 4.544,-1.79004 l 0,3.99316 c -1.5147,0.64258 -3.0676,1.13217 -4.6587,1.46875 -1.5912,0.33659 -3.2053,0.50489 -4.8423,0.50489 -4.1003,0 -7.3514,-1.19336 -9.7534,-3.58008 -2.3867,-2.38671 -3.5801,-5.6149 -3.5801,-9.68457 0,-4.20734 1.1322,-7.54262 3.3965,-10.00586 2.2796,-2.47849 5.3472,-3.71775 9.2026,-3.71777 3.4577,2e-5 6.1887,1.11688 8.1929,3.35058 2.0195,2.21845 3.0293,5.24009 3.0293,9.06494 m -4.2226,-1.23925 c -0.031,-2.31021 -0.6809,-4.15379 -1.9507,-5.53077 -1.2546,-1.37693 -2.9223,-2.0654 -5.003,-2.06543 -2.3561,3e-5 -4.2456,0.66555 -5.6684,1.99659 -1.4076,1.33107 -2.2185,3.20525 -2.4326,5.62255 l 15.0547,-0.0229"
       style="font-size:47px;stroke:#000000;stroke-width:1;font-family:Bravura"
       id="path3182" />
    <path
       d="m 2010.2119,180.24414 c -0.4743,-0.27537 -0.9945,-0.47426 -1.5605,-0.59668 -0.5508,-0.13767 -1.1628,-0.20652 -1.836,-0.20654 -2.3867,2e-5 -4.2226,0.78029 -5.5078,2.34082 -1.2698,1.54526 -1.9048,3.77134 -1.9048,6.67822 l 0,13.54004 -4.2456,0 0,-25.70313 4.2456,0 0,3.99317 c 0.8874,-1.56052 2.0425,-2.71563 3.4654,-3.46533 1.4228,-0.76495 3.1516,-1.14744 5.1865,-1.14746 0.2907,2e-5 0.6119,0.023 0.9639,0.0688 0.3518,0.0306 0.742,0.0842 1.1704,0.16065 l 0.023,4.3374"
       style="font-size:47px;stroke:#000000;stroke-width:1;font-family:Bravura"
       id="path3184" />
    <path
       d="m 2033.1382,189.17139 c 0,-3.10578 -0.6426,-5.5384 -1.9278,-7.29785 -1.2698,-1.77472 -3.0216,-2.66209 -5.2553,-2.66211 -2.2338,2e-5 -3.9932,0.88739 -5.2783,2.66211 -1.2699,1.75945 -1.9048,4.19207 -1.9048,7.29785 0,3.1058 0.6349,5.54607 1.9048,7.3208 1.2851,1.75944 3.0445,2.63916 5.2783,2.63916 2.2337,0 3.9855,-0.87972 5.2553,-2.63916 1.2852,-1.77473 1.9278,-4.215 1.9278,-7.3208 m -14.3662,-8.97315 c 0.8873,-1.52992 2.0042,-2.66208 3.3506,-3.39648 1.3616,-0.74965 2.9833,-1.12449 4.8652,-1.12451 3.1211,2e-5 5.6531,1.23928 7.5962,3.71777 1.9583,2.47854 2.9375,5.73732 2.9375,9.77637 0,4.03907 -0.9792,7.29785 -2.9375,9.77636 -1.9431,2.47852 -4.4751,3.71778 -7.5962,3.71778 -1.8819,0 -3.5036,-0.36719 -4.8652,-1.10157 -1.3464,-0.74967 -2.4633,-1.88948 -3.3506,-3.41943 l 0,3.85547 -4.2456,0 0,-35.70898 4.2456,0 0,13.90722"
       style="font-size:47px;stroke:#000000;stroke-width:1;font-family:Bravura"
       id="path3186" />
  </g>
  <g
     style="font-size:40px;stroke:#000000;stroke-width:1;font-family:Bravura"
     id="text16">
    <path
       d="m 552.71094,179.00391 c -2.90366,1e-5 -4.91538,0.33204 -6.03516,0.99609 -1.1198,0.66407 -1.67969,1.79688 -1.67969,3.39844 0,1.27604 0.41666,2.29167 1.25,3.04687 0.84635,0.74219 1.99218,1.11329 3.4375,1.11328 1.99218,1e-5 3.58723,-0.70312 4.78516,-2.10937 1.21092,-1.41927 1.81639,-3.30077 1.81641,-5.64453 l 0,-0.80078 -3.57422,0 m 7.16797,-1.48438 0,12.48047 -3.59375,0 0,-3.32031 c -0.82033,1.32812 -1.84247,2.3112 -3.06641,2.94922 -1.22397,0.625 -2.72137,0.9375 -4.49219,0.9375 -2.23959,0 -4.02344,-0.625 -5.35156,-1.875 -1.31511,-1.26302 -1.97266,-2.94922 -1.97266,-5.0586 0,-2.46093 0.82031,-4.31639 2.46094,-5.5664 1.65364,-1.24999 4.11458,-1.87499 7.38281,-1.875 l 5.03907,0 0,-0.35157 c -2e-5,-1.65363 -0.5469,-2.92967 -1.64063,-3.82812 -1.08074,-0.91144 -2.60418,-1.36717 -4.57031,-1.36719 -1.25001,2e-5 -2.46746,0.14976 -3.65235,0.44922 -1.1849,0.2995 -2.32422,0.74872 -3.41796,1.34766 l 0,-3.32032 c 1.3151,-0.50779 2.59114,-0.88539 3.82812,-1.13281 1.23697,-0.26039 2.4414,-0.3906 3.61328,-0.39062 3.16405,2e-5 5.52733,0.82033 7.08985,2.46093 1.56248,1.64065 2.34373,4.12762 2.34375,7.46094"
       style="font-size:40px;stroke:#000000;stroke-width:1;font-family:Bravura"
       id="path3189" />
    <path
       d="m 570.85547,161.91406 0,6.21094 7.40234,0 0,2.79297 -7.40234,0 0,11.875 c -10e-6,1.78386 0.24088,2.92969 0.72265,3.4375 0.49479,0.50781 1.49088,0.76172 2.98829,0.76172 l 3.6914,0 0,3.00781 -3.6914,0 c -2.77345,0 -4.68751,-0.51432 -5.74219,-1.54297 -1.05469,-1.04166 -1.58204,-2.92968 -1.58203,-5.66406 l 0,-11.875 -2.63672,0 0,-2.79297 2.63672,0 0,-6.21094 3.61328,0"
       style="font-size:40px;stroke:#000000;stroke-width:1;font-family:Bravura"
       id="path3191" />
    <path
       d="m 592.94531,179.00391 c -2.90365,1e-5 -4.91537,0.33204 -6.03515,0.99609 -1.1198,0.66407 -1.6797,1.79688 -1.67969,3.39844 -10e-6,1.27604 0.41666,2.29167 1.25,3.04687 0.84634,0.74219 1.99218,1.11329 3.4375,1.11328 1.99217,1e-5 3.58722,-0.70312 4.78515,-2.10937 1.21093,-1.41927 1.81639,-3.30077 1.81641,-5.64453 l 0,-0.80078 -3.57422,0 m 7.16797,-1.48438 0,12.48047 -3.59375,0 0,-3.32031 c -0.82033,1.32812 -1.84246,2.3112 -3.06641,2.94922 -1.22397,0.625 -2.72136,0.9375 -4.49218,0.9375 -2.23959,0 -4.02345,-0.625 -5.35157,-1.875 -1.3151,-1.26302 -1.97265,-2.94922 -1.97265,-5.0586 0,-2.46093 0.82031,-4.31639 2.46094,-5.5664 1.65364,-1.24999 4.11457,-1.87499 7.38281,-1.875 l 5.03906,0 0,-0.35157 c -2e-5,-1.65363 -0.54689,-2.92967 -1.64062,-3.82812 -1.08075,-0.91144 -2.60418,-1.36717 -4.57032,-1.36719 -1.25001,2e-5 -2.46745,0.14976 -3.65234,0.44922 -1.1849,0.2995 -2.32422,0.74872 -3.41797,1.34766 l 0,-3.32032 c 1.3151,-0.50779 2.59114,-0.88539 3.82813,-1.13281 1.23697,-0.26039 2.44139,-0.3906 3.61328,-0.39062 3.16405,2e-5 5.52732,0.82033 7.08984,2.46093 1.56248,1.64065 2.34373,4.12762 2.34375,7.46094"
       style="font-size:40px;stroke:#000000;stroke-width:1;font-family:Bravura"
       id="path3193" />
    <path
       d="m 613.92187,160.83984 3.32032,0 -10.15625,32.8711 -3.32032,0 10.15625,-32.8711"
       style="font-size:40px;stroke:#000000;stroke-width:1;font-family:Bravura"
       id="path3195" />
  </g>
  <g
     style="font-size:40px;stroke:#000000;stroke-width:1;font-family:Bravura"
     id="text20">
    <path
       d="m 593.16406,261.44531 0,-11.83594 3.59375,0 0,30.39063 -3.59375,0 0,-3.28125 c -0.75522,1.30209 -1.71225,2.27214 -2.87109,2.91016 -1.14585,0.625 -2.52606,0.9375 -4.14063,0.9375 -2.64323,0 -4.79818,-1.05469 -6.46484,-3.16407 -1.65365,-2.10937 -2.48047,-4.8828 -2.48047,-8.32031 0,-3.43748 0.82682,-6.21092 2.48047,-8.32031 1.66666,-2.10935 3.82161,-3.16404 6.46484,-3.16406 1.61457,2e-5 2.99478,0.31903 4.14063,0.95703 1.15884,0.62502 2.11587,1.58856 2.87109,2.89062 m -12.24609,7.63672 c -10e-6,2.64324 0.54036,4.72006 1.62109,6.23047 1.09374,1.4974 2.59114,2.2461 4.49219,2.24609 1.90103,1e-5 3.39842,-0.74869 4.49219,-2.24609 1.09373,-1.51041 1.6406,-3.58723 1.64062,-6.23047 -2e-5,-2.64321 -0.54689,-4.71352 -1.64062,-6.21094 -1.09377,-1.51039 -2.59116,-2.2656 -4.49219,-2.26562 -1.90105,2e-5 -3.39845,0.75523 -4.49219,2.26562 -1.08073,1.49742 -1.6211,3.56773 -1.62109,6.21094"
       style="font-size:40px;stroke:#000000;stroke-width:1;font-family:Bravura"
       id="path3198" />
    <path
       d="m 603.78906,271.36719 0,-13.24219 3.59375,0 0,13.10547 c 0,2.07032 0.40364,3.62631 1.21094,4.66797 0.80728,1.02865 2.01822,1.54297 3.63281,1.54297 1.94009,0 3.47004,-0.61849 4.58985,-1.85547 1.13279,-1.23698 1.6992,-2.92317 1.69921,-5.0586 l 0,-12.40234 3.59375,0 0,21.875 -3.59375,0 0,-3.35938 c -0.87241,1.32813 -1.88803,2.31771 -3.04687,2.96875 -1.14585,0.63803 -2.48048,0.95704 -4.00391,0.95704 -2.51303,0 -4.42058,-0.78125 -5.72265,-2.34375 -1.30209,-1.5625 -1.95313,-3.84765 -1.95313,-6.85547 m 9.04297,-13.76953 0,0"
       style="font-size:40px;stroke:#000000;stroke-width:1;font-family:Bravura"
       id="path3200" />
    <path
       d="m 642.22656,261.48437 c -0.40366,-0.23435 -0.84637,-0.40362 -1.32812,-0.50781 -0.46877,-0.11717 -0.9896,-0.17576 -1.5625,-0.17578 -2.03126,2e-5 -3.59376,0.66408 -4.6875,1.99219 -1.08074,1.31512 -1.6211,3.20965 -1.6211,5.68359 l 0,11.52344 -3.61328,0 0,-21.875 3.61328,0 0,3.39844 c 0.7552,-1.32811 1.73828,-2.31118 2.94922,-2.94922 1.21093,-0.65102 2.68228,-0.97654 4.41406,-0.97656 0.24739,2e-5 0.52082,0.0195 0.82032,0.0586 0.29946,0.0261 0.63149,0.0716 0.99609,0.13672 l 0.0195,3.6914"
       style="font-size:40px;stroke:#000000;stroke-width:1;font-family:Bravura"
       id="path3202" />
    <path
       d="m 646.50391,261.83594 25.03906,0 0,3.28125 -25.03906,0 0,-3.28125 m 0,7.96875 25.03906,0 0,3.32031 -25.03906,0 0,-3.32031"
       style="font-size:40px;stroke:#000000;stroke-width:1;font-family:Bravura"
       id="path3204" />
    <path
       d="m 692.01172,264.27734 c 1.888,0.40366 3.35935,1.24351 4.41406,2.51953 1.06769,1.27606 1.60154,2.85158 1.60156,4.72657 -2e-5,2.87761 -0.9896,5.10417 -2.96875,6.67968 -1.97918,1.57553 -4.79168,2.36329 -8.4375,2.36329 -1.22396,0 -2.48698,-0.1237 -3.78906,-0.3711 -1.28907,-0.23437 -2.6237,-0.59245 -4.00391,-1.07422 l 0,-3.80859 c 1.09375,0.63802 2.29167,1.1198 3.59375,1.44531 1.30208,0.32553 2.66276,0.48829 4.08204,0.48828 2.47394,1e-5 4.35545,-0.48827 5.64453,-1.46484 1.30206,-0.97656 1.9531,-2.39583 1.95312,-4.25781 -2e-5,-1.71874 -0.60548,-3.05989 -1.8164,-4.02344 -1.19794,-0.97655 -2.87111,-1.46483 -5.01954,-1.46484 l -3.39843,0 0,-3.24219 3.55468,0 c 1.9401,2e-5 3.42447,-0.3841 4.45313,-1.15235 1.02863,-0.78123 1.54295,-1.90102 1.54297,-3.35937 -2e-5,-1.49737 -0.53387,-2.6432 -1.60156,-3.4375 -1.05471,-0.80727 -2.57163,-1.21091 -4.55079,-1.21094 -1.08073,3e-5 -2.23959,0.11722 -3.47656,0.35156 -1.23698,0.23441 -2.59766,0.59899 -4.08203,1.09375 l 0,-3.51562 c 1.49739,-0.41664 2.89713,-0.72914 4.19922,-0.9375 1.31509,-0.2083 2.55207,-0.31247 3.71094,-0.3125 2.99477,3e-5 5.36456,0.68362 7.10937,2.05078 1.74477,1.35419 2.61717,3.19013 2.61719,5.50781 -2e-5,1.61461 -0.46226,2.98179 -1.38672,4.10157 -0.9245,1.10678 -2.2396,1.87501 -3.94531,2.30468"
       style="font-size:40px;stroke:#000000;stroke-width:1;font-family:Bravura"
       id="path3206" />
    <path
       d="m 713.96484,253.4375 c -2.03126,3e-5 -3.5612,1.00263 -4.58984,3.00781 -1.01563,1.99221 -1.52344,4.99351 -1.52344,9.00391 0,3.99741 0.50781,6.9987 1.52344,9.0039 1.02864,1.9922 2.55858,2.98829 4.58984,2.98829 2.04426,0 3.57421,-0.99609 4.58985,-2.98829 1.02862,-2.0052 1.54295,-5.00649 1.54297,-9.0039 -2e-5,-4.0104 -0.51435,-7.0117 -1.54297,-9.00391 -1.01564,-2.00518 -2.54559,-3.00778 -4.58985,-3.00781 m 0,-3.125 c 3.26822,3e-5 5.7617,1.2956 7.48047,3.88672 1.73175,2.57815 2.59764,6.32814 2.59766,11.25 -2e-5,4.90886 -0.86591,8.65886 -2.59766,11.25 -1.71877,2.57812 -4.21225,3.86719 -7.48047,3.86719 -3.26823,0 -5.76823,-1.28907 -7.5,-3.86719 -1.71875,-2.59114 -2.57812,-6.34114 -2.57812,-11.25 0,-4.92186 0.85937,-8.67185 2.57812,-11.25 1.73177,-2.59112 4.23177,-3.88669 7.5,-3.88672"
       style="font-size:40px;stroke:#000000;stroke-width:1;font-family:Bravura"
       id="path3208" />
    <path
       d="m 739.43359,253.4375 c -2.03126,3e-5 -3.5612,1.00263 -4.58984,3.00781 -1.01563,1.99221 -1.52344,4.99351 -1.52344,9.00391 0,3.99741 0.50781,6.9987 1.52344,9.0039 1.02864,1.9922 2.55858,2.98829 4.58984,2.98829 2.04426,0 3.57421,-0.99609 4.58985,-2.98829 1.02862,-2.0052 1.54295,-5.00649 1.54297,-9.0039 -2e-5,-4.0104 -0.51435,-7.0117 -1.54297,-9.00391 -1.01564,-2.00518 -2.54559,-3.00778 -4.58985,-3.00781 m 0,-3.125 c 3.26822,3e-5 5.7617,1.2956 7.48047,3.88672 1.73175,2.57815 2.59764,6.32814 2.59766,11.25 -2e-5,4.90886 -0.86591,8.65886 -2.59766,11.25 -1.71877,2.57812 -4.21225,3.86719 -7.48047,3.86719 -3.26823,0 -5.76823,-1.28907 -7.5,-3.86719 -1.71875,-2.59114 -2.57812,-6.34114 -2.57812,-11.25 0,-4.92186 0.85937,-8.67185 2.57812,-11.25 1.73177,-2.59112 4.23177,-3.88669 7.5,-3.88672"
       style="font-size:40px;stroke:#000000;stroke-width:1;font-family:Bravura"
       id="path3210" />
  </g>
  <g
     style="font-size:45px;stroke:#000000;stroke-width:1;font-family:Bravura"
     id="text24">
    <path
       d="m 437.9292,173.11572 0,3.82324 c -1.1426,-0.58591 -2.32912,-1.02536 -3.55957,-1.31835 -1.23048,-0.29295 -2.5049,-0.43944 -3.82324,-0.43946 -2.00685,2e-5 -3.51564,0.30764 -4.52637,0.92285 -0.9961,0.61526 -1.49415,1.53811 -1.49414,2.76856 -10e-6,0.93752 0.35888,1.67726 1.07666,2.21924 0.71776,0.52736 2.16063,1.03273 4.32861,1.51611 l 1.38428,0.30762 c 2.87108,0.61525 4.90721,1.48683 6.1084,2.61474 1.2158,1.1133 1.82371,2.67335 1.82373,4.68018 -2e-5,2.28516 -0.90822,4.09424 -2.72461,5.42725 -1.80178,1.333 -4.28468,1.99951 -7.44873,1.99951 -1.31837,0 -2.69532,-0.13184 -4.13086,-0.39551 -1.4209,-0.24902 -2.92237,-0.62988 -4.5044,-1.14258 l 0,-4.1748 c 1.49414,0.77637 2.96631,1.3623 4.41651,1.75781 1.45019,0.38086 2.88573,0.57129 4.30664,0.57129 1.90428,0 3.36913,-0.32226 4.39453,-0.9668 1.02537,-0.65917 1.53807,-1.58202 1.53809,-2.76855 -2e-5,-1.09863 -0.37356,-1.94091 -1.12061,-2.52686 -0.73244,-0.58593 -2.35109,-1.14989 -4.85596,-1.69189 l -1.40625,-0.32959 c -2.50489,-0.52734 -4.31397,-1.333 -5.42724,-2.417 -1.11329,-1.09861 -1.66993,-2.60008 -1.66992,-4.50439 -1e-5,-2.31443 0.82031,-4.10154 2.46093,-5.36133 1.64062,-1.25974 3.96972,-1.88962 6.98731,-1.88965 1.49413,3e-5 2.90037,0.10989 4.21875,0.32959 1.31834,0.21975 2.53416,0.54934 3.64746,0.98877"
       style="font-size:45px;stroke:#000000;stroke-width:1;font-family:Bravura"
       id="path3213" />
    <path
       d="m 445.70752,162.81055 4.04297,0 0,34.18945 -4.04297,0 0,-34.18945"
       style="font-size:45px;stroke:#000000;stroke-width:1;font-family:Bravura"
       id="path3215" />
    <path
       d="m 458.18799,172.39062 4.04297,0 0,24.60938 -4.04297,0 0,-24.60938 m 0,-9.58007 4.04297,0 0,5.11963 -4.04297,0 0,-5.11963"
       style="font-size:45px;stroke:#000000;stroke-width:1;font-family:Bravura"
       id="path3217" />
    <path
       d="m 486.8623,176.12598 0,-13.31543 4.04297,0 0,34.18945 -4.04297,0 0,-3.69141 c -0.84962,1.46485 -1.92628,2.55616 -3.22998,3.27393 -1.28907,0.70312 -2.84181,1.05469 -4.6582,1.05469 -2.97364,0 -5.39796,-1.18653 -7.27295,-3.55957 -1.86035,-2.37304 -2.79053,-5.49316 -2.79053,-9.36035 0,-3.86718 0.93018,-6.98729 2.79053,-9.36036 1.87499,-2.37302 4.29931,-3.55954 7.27295,-3.55957 1.81639,3e-5 3.36913,0.35891 4.6582,1.07666 1.3037,0.70315 2.38036,1.78714 3.22998,3.25196 m -13.77685,8.59131 c -10e-6,2.97364 0.6079,5.31006 1.82373,7.00927 1.23046,1.68458 2.91503,2.52686 5.05371,2.52686 2.13866,0 3.82323,-0.84228 5.05371,-2.52686 1.23045,-1.69921 1.84568,-4.03563 1.8457,-7.00927 -2e-5,-2.97362 -0.61525,-5.30272 -1.8457,-6.98731 -1.23048,-1.6992 -2.91505,-2.54881 -5.05371,-2.54883 -2.13868,2e-5 -3.82325,0.84963 -5.05371,2.54883 -1.21583,1.68459 -1.82374,4.01369 -1.82373,6.98731"
       style="font-size:45px;stroke:#000000;stroke-width:1;font-family:Bravura"
       id="path3219" />
    <path
       d="m 520.28271,183.68457 0,1.97754 -18.58886,0 c 0.17577,2.78321 1.01073,4.90723 2.50488,6.37207 1.50878,1.4502 3.6035,2.1753 6.28418,2.17529 1.55272,1e-5 3.05418,-0.19042 4.50439,-0.57129 1.46483,-0.38085 2.91502,-0.95214 4.35059,-1.71386 l 0,3.82324 c -1.45022,0.61523 -2.93703,1.08398 -4.46045,1.40625 -1.52345,0.32226 -3.06886,0.4834 -4.63623,0.4834 -3.92579,0 -7.03858,-1.14258 -9.33838,-3.42774 -2.28516,-2.28515 -3.42773,-5.37597 -3.42773,-9.27246 0,-4.0283 1.08398,-7.22166 3.25195,-9.58008 2.18261,-2.37302 5.11962,-3.55954 8.81104,-3.55957 3.31052,3e-5 5.92527,1.06936 7.84423,3.20801 1.93357,2.12404 2.90037,5.01711 2.90039,8.6792 m -4.04296,-1.18652 c -0.0293,-2.2119 -0.65188,-3.97704 -1.86768,-5.29541 -1.20119,-1.31834 -2.79787,-1.97752 -4.79004,-1.97754 -2.25587,2e-5 -4.06495,0.63723 -5.42724,1.91162 -1.34767,1.27443 -2.12404,3.06886 -2.32911,5.3833 l 14.41407,-0.022"
       style="font-size:45px;stroke:#000000;stroke-width:1;font-family:Bravura"
       id="path3221" />
    <path
       d="m 545.61719,204.4707 0,3.14209 -23.37891,0 0,-3.14209 23.37891,0"
       style="font-size:45px;stroke:#000000;stroke-width:1;font-family:Bravura"
       id="path3223" />
    <path
       d="m 565.6123,176.12598 0,-13.31543 4.04297,0 0,34.18945 -4.04297,0 0,-3.69141 c -0.84962,1.46485 -1.92628,2.55616 -3.22998,3.27393 -1.28907,0.70312 -2.84181,1.05469 -4.6582,1.05469 -2.97364,0 -5.39796,-1.18653 -7.27295,-3.55957 -1.86035,-2.37304 -2.79053,-5.49316 -2.79053,-9.36035 0,-3.86718 0.93018,-6.98729 2.79053,-9.36036 1.87499,-2.37302 4.29931,-3.55954 7.27295,-3.55957 1.81639,3e-5 3.36913,0.35891 4.6582,1.07666 1.3037,0.70315 2.38036,1.78714 3.22998,3.25196 m -13.77685,8.59131 c -1e-5,2.97364 0.6079,5.31006 1.82373,7.00927 1.23046,1.68458 2.91503,2.52686 5.05371,2.52686 2.13866,0 3.82323,-0.84228 5.05371,-2.52686 1.23045,-1.69921 1.84568,-4.03563 1.8457,-7.00927 -2e-5,-2.97362 -0.61525,-5.30272 -1.8457,-6.98731 -1.23048,-1.6992 -2.91505,-2.54881 -5.05371,-2.54883 -2.13868,2e-5 -3.82325,0.84963 -5.05371,2.54883 -1.21583,1.68459 -1.82374,4.01369 -1.82373,6.98731"
       style="font-size:45px;stroke:#000000;stroke-width:1;font-family:Bravura"
       id="path3225" />
    <path
       d="m 577.56543,187.28809 0,-14.89747 4.04297,0 0,14.74366 c -10e-6,2.32911 0.45409,4.07959 1.3623,5.25146 0.9082,1.15723 2.2705,1.73584 4.08692,1.73584 2.1826,0 3.90379,-0.6958 5.16357,-2.0874 1.2744,-1.3916 1.9116,-3.28857 1.91162,-5.69092 l 0,-13.95264 4.04297,0 0,24.60938 -4.04297,0 0,-3.7793 c -0.98146,1.49415 -2.12404,2.60743 -3.42773,3.33985 -1.28908,0.71777 -2.79054,1.07666 -4.5044,1.07666 -2.82715,0 -4.97315,-0.87891 -6.43798,-2.63672 -1.46485,-1.75781 -2.19727,-4.32861 -2.19727,-7.7124 m 10.17334,-15.49073 0,0"
       style="font-size:45px;stroke:#000000;stroke-width:1;font-family:Bravura"
       id="path3227" />
    <path
       d="m 620.80762,176.16992 c -0.45412,-0.26365 -0.95217,-0.45408 -1.49414,-0.57129 -0.52736,-0.13181 -1.1133,-0.19773 -1.75782,-0.19775 -2.28517,2e-5 -4.04298,0.74709 -5.27343,2.24121 -1.21583,1.47951 -1.82374,3.61086 -1.82373,6.39404 l 0,12.96387 -4.06495,0 0,-24.60938 4.06495,0 0,3.82325 c 0.8496,-1.49412 1.95555,-2.60008 3.31787,-3.31787 1.36229,-0.7324 3.01756,-1.09861 4.96582,-1.09864 0.2783,3e-5 0.58592,0.022 0.92285,0.0659 0.3369,0.0293 0.71043,0.0806 1.1206,0.15381 l 0.022,4.15283"
       style="font-size:45px;stroke:#000000;stroke-width:1;font-family:Bravura"
       id="path3229" />
    <path
       d="m 625.61963,176.56543 28.16894,0 0,3.69141 -28.16894,0 0,-3.69141 m 0,8.96484 28.16894,0 0,3.73535 -28.16894,0 0,-3.73535"
       style="font-size:45px;stroke:#000000;stroke-width:1;font-family:Bravura"
       id="path3231" />
    <path
       d="m 667.19189,193.26465 15.49073,0 0,3.73535 -20.83008,0 0,-3.73535 c 1.68456,-1.74316 3.97704,-4.07958 6.87744,-7.00928 2.91503,-2.94432 4.74608,-4.84129 5.49316,-5.69092 1.42089,-1.59666 2.40965,-2.94431 2.96631,-4.04297 0.57127,-1.11326 0.85692,-2.20456 0.85694,-3.27392 -2e-5,-1.74314 -0.61526,-3.16404 -1.84571,-4.2627 -1.21583,-1.0986 -2.80519,-1.64792 -4.76806,-1.64795 -1.39162,3e-5 -2.86378,0.24173 -4.41651,0.7251 -1.53809,0.48343 -3.18604,1.21585 -4.94384,2.19727 l 0,-4.48242 c 1.7871,-0.71775 3.45702,-1.25974 5.00976,-1.62598 1.55273,-0.36618 2.97362,-0.54928 4.2627,-0.54932 3.39842,4e-5 6.10838,0.84964 8.12988,2.54883 2.02146,1.69925 3.0322,3.96975 3.03223,6.81152 -3e-5,1.34768 -0.25638,2.62942 -0.76905,3.84522 -0.49807,1.20119 -1.41359,2.62209 -2.74658,4.26269 -0.36623,0.42482 -1.53078,1.65529 -3.49365,3.69141 -1.96291,2.0215 -4.73146,4.85596 -8.30567,8.50342"
       style="font-size:45px;stroke:#000000;stroke-width:1;font-family:Bravura"
       id="path3233" />
    <path
       d="m 692.06494,164.19482 17.42432,0 0,3.73536 -13.35938,0 0,8.04199 c 0.64452,-0.21971 1.28906,-0.38084 1.9336,-0.4834 0.64452,-0.11717 1.28905,-0.17576 1.93359,-0.17578 3.66209,2e-5 6.56248,1.00344 8.70117,3.01025 2.13865,2.00685 3.20799,4.72414 3.20801,8.15186 -2e-5,3.53028 -1.09866,6.27686 -3.2959,8.23974 -2.19728,1.94825 -5.29542,2.92237 -9.29443,2.92237 -1.37697,0 -2.78321,-0.11719 -4.21875,-0.35157 -1.42091,-0.23437 -2.89307,-0.58593 -4.41651,-1.05468 l 0,-4.46045 c 1.31836,0.71778 2.68066,1.25244 4.08692,1.604 1.40624,0.35157 2.89305,0.52735 4.46045,0.52735 2.53416,0 4.541,-0.6665 6.02051,-1.99952 1.47947,-1.333 2.21921,-3.14208 2.21923,-5.42724 -2e-5,-2.28515 -0.73976,-4.09423 -2.21923,-5.42725 -1.47951,-1.33299 -3.48635,-1.99949 -6.02051,-1.99951 -1.18654,2e-5 -2.37306,0.13185 -3.55957,0.39551 -1.17189,0.26369 -2.37306,0.67384 -3.60352,1.23047 l 0,-16.4795"
       style="font-size:45px;stroke:#000000;stroke-width:1;font-family:Bravura"
       id="path3235" />
  </g>
  <g
     style="font-size:40px;stroke:#000000;stroke-width:1;font-family:Bravura"
     id="text28">
    <path
       d="m 454.76953,114.125 3.59375,0 0,21.875 -3.59375,0 0,-21.875 m 0,-8.51562 3.59375,0 0,4.55078 -3.59375,0 0,-4.55078"
       style="font-size:40px;stroke:#000000;stroke-width:1;font-family:Bravura"
       id="path3238" />
    <path
       d="m 484.04687,122.79688 0,13.20312 -3.59375,0 0,-13.08594 c -1e-5,-2.07029 -0.40366,-3.61977 -1.21093,-4.64843 -0.80731,-1.02863 -2.01825,-1.54295 -3.63282,-1.54297 -1.94011,2e-5 -3.47006,0.6185 -4.58984,1.85547 -1.1198,1.23699 -1.67969,2.92319 -1.67969,5.05859 l 0,12.36328 -3.61328,0 0,-21.875 3.61328,0 0,3.39844 c 0.85937,-1.31509 1.86848,-2.29816 3.02735,-2.94922 1.17186,-0.65102 2.51952,-0.97654 4.04297,-0.97656 2.513,2e-5 4.41404,0.78127 5.70312,2.34375 1.28904,1.54949 1.93357,3.83465 1.93359,6.85547"
       style="font-size:40px;stroke:#000000;stroke-width:1;font-family:Bravura"
       id="path3240" />
    <path
       d="m 491.25391,114.125 3.59375,0 0,21.875 -3.59375,0 0,-21.875 m 0,-8.51562 3.59375,0 0,4.55078 -3.59375,0 0,-4.55078"
       style="font-size:40px;stroke:#000000;stroke-width:1;font-family:Bravura"
       id="path3242" />
    <path
       d="m 505.90234,107.91406 0,6.21094 7.40235,0 0,2.79297 -7.40235,0 0,11.875 c 0,1.78386 0.24088,2.92969 0.72266,3.4375 0.49478,0.50781 1.49088,0.76172 2.98828,0.76172 l 3.69141,0 0,3.00781 -3.69141,0 c -2.77344,0 -4.68751,-0.51432 -5.74219,-1.54297 -1.05469,-1.04166 -1.58203,-2.92968 -1.58203,-5.66406 l 0,-11.875 -2.63672,0 0,-2.79297 2.63672,0 0,-6.21094 3.61328,0"
       style="font-size:40px;stroke:#000000;stroke-width:1;font-family:Bravura"
       id="path3244" />
    <path
       d="m 534.67187,142.64062 0,2.79297 -20.78125,0 0,-2.79297 20.78125,0"
       style="font-size:40px;stroke:#000000;stroke-width:1;font-family:Bravura"
       id="path3246" />
    <path
       d="m 551.99609,114.76953 0,3.39844 c -1.01564,-0.52082 -2.07032,-0.91144 -3.16406,-1.17188 -1.09376,-0.26039 -2.22657,-0.3906 -3.39844,-0.39062 -1.78386,2e-5 -3.125,0.27346 -4.02343,0.82031 -0.88543,0.54689 -1.32813,1.36721 -1.32813,2.46094 0,0.83335 0.31901,1.4909 0.95703,1.97266 0.63802,0.46876 1.92057,0.91798 3.84766,1.34765 l 1.23047,0.27344 c 2.55207,0.54689 4.36196,1.32162 5.42968,2.32422 1.08072,0.98959 1.62108,2.37631 1.6211,4.16015 -2e-5,2.03126 -0.80731,3.63933 -2.42188,4.82422 -1.60157,1.1849 -3.8086,1.77735 -6.62109,1.77735 -1.17188,0 -2.39584,-0.11719 -3.67188,-0.35157 -1.26302,-0.22135 -2.59765,-0.55989 -4.0039,-1.01562 l 0,-3.71094 c 1.32812,0.69011 2.63671,1.21094 3.92578,1.5625 1.28906,0.33855 2.5651,0.50782 3.82812,0.50781 1.6927,1e-5 2.99478,-0.28645 3.90625,-0.85937 0.91145,-0.58593 1.36718,-1.40625 1.36719,-2.46094 -10e-6,-0.97655 -0.33204,-1.72525 -0.99609,-2.24609 -0.65106,-0.52083 -2.08986,-1.02213 -4.31641,-1.50391 l -1.25,-0.29297 c -2.22657,-0.46874 -3.83464,-1.18488 -4.82422,-2.14843 -0.98958,-0.97655 -1.48437,-2.31119 -1.48437,-4.00391 0,-2.05727 0.72916,-3.64581 2.1875,-4.76563 1.45833,-1.11977 3.52864,-1.67966 6.21094,-1.67968 1.32811,2e-5 2.57811,0.0977 3.75,0.29297 1.17186,0.19533 2.25258,0.4883 3.24218,0.8789"
       style="font-size:40px;stroke:#000000;stroke-width:1;font-family:Bravura"
       id="path3248" />
    <path
       d="m 558.91016,105.60938 3.59375,0 0,30.39062 -3.59375,0 0,-30.39062"
       style="font-size:40px;stroke:#000000;stroke-width:1;font-family:Bravura"
       id="path3250" />
    <path
       d="m 588.71484,124.16406 0,1.75782 -16.52343,0 c 0.15624,2.47396 0.89843,4.36198 2.22656,5.66406 1.34114,1.28906 3.20311,1.93359 5.58594,1.93359 1.38019,0 2.71482,-0.16927 4.0039,-0.50781 1.30207,-0.33854 2.59113,-0.84635 3.86719,-1.52344 l 0,3.39844 c -1.28908,0.54687 -2.6107,0.96354 -3.96484,1.25 -1.35419,0.28646 -2.72788,0.42969 -4.1211,0.42969 -3.48959,0 -6.25652,-1.01563 -8.30078,-3.04688 -2.03125,-2.03124 -3.04688,-4.77864 -3.04687,-8.24219 -10e-6,-3.58071 0.96353,-6.41925 2.89062,-8.51562 1.9401,-2.10935 4.55077,-3.16404 7.83203,-3.16406 2.94269,2e-5 5.26691,0.95054 6.97266,2.85156 1.71873,1.88804 2.5781,4.45965 2.57812,7.71484 m -3.59375,-1.05468 c -0.0261,-1.96614 -0.57944,-3.53514 -1.66015,-4.70704 -1.06773,-1.17185 -2.487,-1.75779 -4.25782,-1.75781 -2.00521,2e-5 -3.61329,0.56643 -4.82421,1.69922 -1.19793,1.13283 -1.88803,2.72788 -2.07032,4.78516 l 12.8125,-0.0195"
       style="font-size:40px;stroke:#000000;stroke-width:1;font-family:Bravura"
       id="path3252" />
    <path
       d="m 613.32422,124.16406 0,1.75782 -16.52344,0 c 0.15625,2.47396 0.89843,4.36198 2.22656,5.66406 1.34114,1.28906 3.20312,1.93359 5.58594,1.93359 1.38019,0 2.71483,-0.16927 4.00391,-0.50781 1.30206,-0.33854 2.59112,-0.84635 3.86718,-1.52344 l 0,3.39844 c -1.28908,0.54687 -2.61069,0.96354 -3.96484,1.25 -1.35418,0.28646 -2.72788,0.42969 -4.12109,0.42969 -3.4896,0 -6.25652,-1.01563 -8.30078,-3.04688 -2.03126,-2.03124 -3.04688,-4.77864 -3.04688,-8.24219 0,-3.58071 0.96354,-6.41925 2.89063,-8.51562 1.94009,-2.10935 4.55077,-3.16404 7.83203,-3.16406 2.94269,2e-5 5.26691,0.95054 6.97265,2.85156 1.71873,1.88804 2.57811,4.45965 2.57813,7.71484 m -3.59375,-1.05468 c -0.0261,-1.96614 -0.57945,-3.53514 -1.66016,-4.70704 -1.06772,-1.17185 -2.48699,-1.75779 -4.25781,-1.75781 -2.00522,2e-5 -3.61329,0.56643 -4.82422,1.69922 -1.19792,1.13283 -1.88803,2.72788 -2.07031,4.78516 l 12.8125,-0.0195"
       style="font-size:40px;stroke:#000000;stroke-width:1;font-family:Bravura"
       id="path3254" />
    <path
       d="m 622.69922,132.71875 0,11.60156 -3.61328,0 0,-30.19531 3.61328,0 0,3.32031 c 0.7552,-1.30206 1.70572,-2.2656 2.85156,-2.89062 1.15884,-0.638 2.53905,-0.95701 4.14063,-0.95703 2.65623,2e-5 4.81118,1.05471 6.46484,3.16406 1.66664,2.10939 2.49998,4.88283 2.5,8.32031 -2e-5,3.43751 -0.83336,6.21094 -2.5,8.32031 -1.65366,2.10938 -3.80861,3.16407 -6.46484,3.16407 -1.60158,0 -2.98179,-0.3125 -4.14063,-0.9375 -1.14584,-0.63802 -2.09636,-1.60807 -2.85156,-2.91016 m 12.22656,-7.63672 c -2e-5,-2.64321 -0.54689,-4.71352 -1.64062,-6.21094 -1.08075,-1.51039 -2.57163,-2.2656 -4.47266,-2.26562 -1.90105,2e-5 -3.39845,0.75523 -4.49219,2.26562 -1.08073,1.49742 -1.6211,3.56773 -1.62109,6.21094 -10e-6,2.64324 0.54036,4.72006 1.62109,6.23047 1.09374,1.4974 2.59114,2.2461 4.49219,2.24609 1.90103,1e-5 3.39191,-0.74869 4.47266,-2.24609 1.09373,-1.51041 1.6406,-3.58723 1.64062,-6.23047"
       style="font-size:40px;stroke:#000000;stroke-width:1;font-family:Bravura"
       id="path3256" />
    <path
       d="m 645.08203,117.83594 25.03906,0 0,3.28125 -25.03906,0 0,-3.28125 m 0,7.96875 25.03906,0 0,3.32031 -25.03906,0 0,-3.32031"
       style="font-size:40px;stroke:#000000;stroke-width:1;font-family:Bravura"
       id="path3258" />
    <path
       d="m 682.03516,132.67969 13.76953,0 0,3.32031 -18.51563,0 0,-3.32031 c 1.49739,-1.54948 3.53515,-3.6263 6.11328,-6.23047 2.59114,-2.61718 4.21874,-4.30337 4.88282,-5.05859 1.263,-1.41926 2.14191,-2.61718 2.63671,-3.59375 0.5078,-0.98957 0.76171,-1.95962 0.76172,-2.91016 -10e-6,-1.54946 -0.54689,-2.81248 -1.64062,-3.78906 -1.08075,-0.97654 -2.4935,-1.46482 -4.23828,-1.46485 -1.23699,3e-5 -2.54558,0.21487 -3.92578,0.64453 -1.3672,0.42972 -2.83204,1.08076 -4.39454,1.95313 l 0,-3.98438 c 1.58854,-0.63799 3.07292,-1.11976 4.45313,-1.44531 1.3802,-0.32549 2.64322,-0.48825 3.78906,-0.48828 3.02082,3e-5 5.42967,0.75524 7.22656,2.26563 1.79686,1.51044 2.6953,3.52866 2.69532,6.05468 -2e-5,1.19794 -0.22789,2.33726 -0.6836,3.41797 -0.44272,1.06773 -1.25653,2.33075 -2.4414,3.78906 -0.32554,0.37762 -1.3607,1.47137 -3.10547,3.28125 -1.74481,1.79689 -4.20574,4.31642 -7.38281,7.5586"
       style="font-size:40px;stroke:#000000;stroke-width:1;font-family:Bravura"
       id="path3260" />
  </g>
  <g
     style="font-size:43px;stroke:#000000;stroke-width:1;font-family:Bravura"
     id="text32">
    <path
       d="m 445.69531,150.33008 8.90235,0 0,3.00244 -5.03907,0 0,32.33398 5.03907,0 0,3.00245 -8.90235,0 0,-38.33887"
       style="font-size:43px;stroke:#000000;stroke-width:1;font-family:Bravura"
       id="path3263" />
    <path
       d="m 460.60254,159.48437 3.86328,0 4.8291,18.35059 4.80811,-18.35059 4.55615,0 4.8291,18.35059 4.80811,-18.35059 3.86328,0 L 486.00781,183 481.45166,183 476.3916,163.72559 471.31055,183 l -4.55616,0 -6.15185,-23.51563"
       style="font-size:43px;stroke:#000000;stroke-width:1;font-family:Bravura"
       id="path3265" />
    <path
       d="m 507.15088,162.19287 c -2.07163,2e-5 -3.70932,0.81187 -4.91309,2.43555 -1.20378,1.60972 -1.80567,3.8213 -1.80566,6.63476 -10e-6,2.81349 0.59488,5.03207 1.78467,6.65577 1.20376,1.6097 2.84846,2.41455 4.93408,2.41455 2.0576,0 3.6883,-0.81185 4.89209,-2.43555 1.20376,-1.62369 1.80564,-3.83528 1.80566,-6.63477 -2e-5,-2.78546 -0.6019,-4.99005 -1.80566,-6.61377 -1.20379,-1.63767 -2.83449,-2.45652 -4.89209,-2.45654 m 0,-3.27539 c 3.35936,2e-5 5.99786,1.09182 7.91553,3.27539 1.91762,2.18361 2.87644,5.20705 2.87646,9.07031 -2e-5,3.8493 -0.95884,6.87273 -2.87646,9.07032 -1.91767,2.18359 -4.55617,3.27539 -7.91553,3.27539 -3.37338,0 -6.01889,-1.0918 -7.93652,-3.27539 -1.90365,-2.19759 -2.85548,-5.22102 -2.85547,-9.07032 -10e-6,-3.86326 0.95182,-6.8867 2.85547,-9.07031 1.91763,-2.18357 4.56314,-3.27537 7.93652,-3.27539"
       style="font-size:43px;stroke:#000000;stroke-width:1;font-family:Bravura"
       id="path3267" />
    <path
       d="m 537.95215,163.0957 c -0.43394,-0.25193 -0.90985,-0.4339 -1.42774,-0.5459 -0.50392,-0.12595 -1.06381,-0.18894 -1.67968,-0.18896 -2.18361,2e-5 -3.8633,0.71389 -5.03907,2.1416 -1.16179,1.41376 -1.74268,3.45037 -1.74267,6.10986 l 0,12.3877 -3.88428,0 0,-23.51563 3.88428,0 0,3.65333 c 0.81184,-1.42772 1.86864,-2.48452 3.17041,-3.17041 1.30174,-0.69985 2.88345,-1.04979 4.74512,-1.04981 0.26593,2e-5 0.55988,0.021 0.88183,0.063 0.32192,0.028 0.67886,0.077 1.0708,0.14697 l 0.021,3.96826"
       style="font-size:43px;stroke:#000000;stroke-width:1;font-family:Bravura"
       id="path3269" />
    <path
       d="m 541.89941,150.33008 3.88428,0 0,19.29541 11.52686,-10.14112 4.93408,0 -12.47168,11.00196 12.99658,12.51367 -5.03906,0 -11.94678,-11.48486 0,11.48486 -3.88428,0 0,-32.66992"
       style="font-size:43px;stroke:#000000;stroke-width:1;font-family:Bravura"
       id="path3271" />
    <path
       d="m 566.98975,159.48437 3.86328,0 0,23.51563 -3.86328,0 0,-23.51563 m 0,-9.15429 3.86328,0 0,4.89209 -3.86328,0 0,-4.89209"
       style="font-size:43px;stroke:#000000;stroke-width:1;font-family:Bravura"
       id="path3273" />
    <path
       d="m 598.46289,168.80664 0,14.19336 -3.86328,0 0,-14.06738 c -2e-5,-2.22557 -0.43394,-3.89126 -1.30176,-4.99707 -0.86785,-1.10578 -2.16961,-1.65867 -3.90527,-1.65869 -2.08563,2e-5 -3.73032,0.66489 -4.93408,1.99462 -1.20379,1.32977 -1.80568,3.14244 -1.80567,5.43799 l 0,13.29053 -3.88428,0 0,-23.51563 3.88428,0 0,3.65333 c 0.92382,-1.41372 2.00862,-2.47052 3.2544,-3.17041 1.25975,-0.69985 2.70848,-1.04979 4.34619,-1.04981 2.70148,2e-5 4.7451,0.83987 6.13086,2.51953 1.38572,1.66571 2.07859,4.12225 2.07861,7.36963"
       style="font-size:43px;stroke:#000000;stroke-width:1;font-family:Bravura"
       id="path3275" />
    <path
       d="m 621.68457,170.96924 c -2e-5,-2.79947 -0.58091,-4.96906 -1.74268,-6.50879 -1.1478,-1.53969 -2.7645,-2.30955 -4.85009,-2.30957 -2.07163,2e-5 -3.68833,0.76988 -4.8501,2.30957 -1.14779,1.53973 -1.72169,3.70932 -1.72168,6.50879 -1e-5,2.78549 0.57389,4.94808 1.72168,6.48779 1.16177,1.53972 2.77847,2.30957 4.8501,2.30957 2.08559,0 3.70229,-0.76985 4.85009,-2.30957 1.16177,-1.53971 1.74266,-3.7023 1.74268,-6.48779 m 3.86328,9.1123 c -2e-5,4.00326 -0.88886,6.9777 -2.6665,8.92334 -1.77769,1.95963 -4.50018,2.93945 -8.16748,2.93946 -1.35776,-1e-5 -2.63852,-0.10499 -3.84229,-0.31495 -1.20378,-0.19597 -2.37256,-0.50391 -3.50635,-0.92382 l 0,-3.7583 c 1.13379,0.61588 2.25358,1.07079 3.35938,1.36474 1.10578,0.29394 2.23257,0.44091 3.38037,0.44092 2.53351,-1e-5 4.43016,-0.66488 5.68994,-1.99463 1.25975,-1.31576 1.88963,-3.31038 1.88965,-5.98389 l 0,-1.91064 c -0.79787,1.38574 -1.81968,2.42155 -3.06543,3.10742 -1.24578,0.68587 -2.7365,1.02881 -4.47217,1.02881 -2.88347,0 -5.20704,-1.09879 -6.9707,-3.29639 -1.76368,-2.19758 -2.64551,-5.10904 -2.64551,-8.73437 0,-3.63931 0.88183,-6.55776 2.64551,-8.75537 1.76366,-2.19757 4.08723,-3.29637 6.9707,-3.29639 1.73567,2e-5 3.22639,0.34296 4.47217,1.02881 1.24575,0.68589 2.26756,1.7217 3.06543,3.10742 l 0,-3.56934 3.86328,0 0,20.59717"
       style="font-size:43px;stroke:#000000;stroke-width:1;font-family:Bravura"
       id="path3277" />
    <path
       d="m 642.53369,150.33008 0,38.33887 -8.90234,0 0,-3.00245 5.01806,0 0,-32.33398 -5.01806,0 0,-3.00244 8.90234,0"
       style="font-size:43px;stroke:#000000;stroke-width:1;font-family:Bravura"
       id="path3279" />
  </g>
  <g
     style="font-size:49px;stroke:#000000;stroke-width:1;font-family:Bravura"
     id="text36">
    <path
       d="m 162.27051,191.20312 0,26.79688 -4.42627,0 0,-23.37549 -12.08252,0 0,23.37549 -4.42627,0 0,-23.37549 -4.21094,0 0,-3.42139 4.21094,0 0,-1.86621 c -1e-5,-2.91891 0.68587,-5.07223 2.05762,-6.45996 1.38768,-1.40361 3.5091,-2.10543 6.36425,-2.10547 l 4.42627,0 0,3.66065 -4.21093,0 c -1.57912,3e-5 -2.6797,0.31904 -3.30176,0.95703 -0.60613,0.63805 -0.90919,1.78649 -0.90918,3.44531 l 0,2.36865 16.50879,0 m -4.42627,-10.38378 4.42627,0 0,5.5747 -4.42627,0 0,-5.5747"
       style="font-size:49px;stroke:#000000;stroke-width:1;font-family:Bravura"
       id="path3282" />
    <path
       d="m 171.52979,180.77148 4.40234,0 0,37.22852 -4.40234,0 0,-37.22852"
       style="font-size:49px;stroke:#000000;stroke-width:1;font-family:Bravura"
       id="path3284" />
    <path
       d="m 208.04053,203.50098 0,2.15332 -20.24121,0 c 0.1914,3.03061 1.10057,5.34343 2.72754,6.93847 1.64289,1.57911 3.92381,2.36866 6.84277,2.36866 1.69074,0 3.32566,-0.20736 4.90478,-0.62207 1.59503,-0.41471 3.17413,-1.03678 4.73731,-1.86622 l 0,4.16309 c -1.57913,0.66992 -3.1981,1.18034 -4.85693,1.53125 -1.65888,0.35091 -3.34166,0.52637 -5.04834,0.52637 -4.27476,0 -7.66424,-1.24414 -10.16846,-3.73242 -2.48829,-2.48828 -3.73243,-5.85384 -3.73242,-10.09668 -1e-5,-4.38638 1.18033,-7.86359 3.54101,-10.43164 2.37662,-2.58396 5.5747,-3.87595 9.59424,-3.87598 3.6048,3e-5 6.45196,1.16441 8.5415,3.49316 2.10545,2.31285 3.15818,5.46307 3.15821,9.45069 m -4.40235,-1.292 c -0.0319,-2.40851 -0.70982,-4.33054 -2.03369,-5.76611 -1.30796,-1.43552 -3.04657,-2.1533 -5.21582,-2.15332 -2.45639,2e-5 -4.42628,0.69387 -5.90967,2.08154 -1.46745,1.38772 -2.31283,3.34166 -2.53613,5.86182 l 15.69531,-0.0239"
       style="font-size:49px;stroke:#000000;stroke-width:1;font-family:Bravura"
       id="path3286" />
    <path
       d="m 215.84033,195.74902 30.67285,0 0,4.01953 -30.67285,0 0,-4.01953 m 0,9.76172 30.67285,0 0,4.06738 -30.67285,0 0,-4.06738"
       style="font-size:49px;stroke:#000000;stroke-width:1;font-family:Bravura"
       id="path3288" />
    <path
       d="m 264.14648,182.27881 4.06739,0 -12.44141,40.26709 -4.06738,0 12.4414,-40.26709"
       style="font-size:49px;stroke:#000000;stroke-width:1;font-family:Bravura"
       id="path3290" />
    <path
       d="m 277.23389,183.59473 0,7.60839 9.06787,0 0,3.42139 -9.06787,0 0,14.54688 c -10e-6,2.18522 0.29507,3.58887 0.88525,4.21093 0.60611,0.62208 1.82632,0.93311 3.66065,0.93311 l 4.52197,0 0,3.68457 -4.52197,0 c -3.39748,0 -5.7422,-0.63004 -7.03418,-1.89014 -1.292,-1.27604 -1.938,-3.58886 -1.93799,-6.93847 l 0,-14.54688 -3.22998,0 0,-3.42139 3.22998,0 0,-7.60839 4.42627,0"
       style="font-size:49px;stroke:#000000;stroke-width:1;font-family:Bravura"
       id="path3292" />
    <path
       d="m 312.979,196.34717 c 1.10056,-1.97784 2.41648,-3.43731 3.94776,-4.37842 1.53122,-0.94105 3.33362,-1.41159 5.40722,-1.41162 2.79131,3e-5 4.94463,0.98098 6.45997,2.94287 1.51525,1.94599 2.2729,4.72137 2.27294,8.32617 l 0,16.17383 -4.42627,0 0,-16.03027 c -3e-5,-2.56802 -0.45462,-4.4741 -1.36376,-5.71827 -0.90922,-1.24411 -2.29692,-1.86618 -4.16309,-1.86621 -2.28096,3e-5 -4.08336,0.75768 -5.40723,2.27295 -1.32392,1.51532 -1.98586,3.58091 -1.98584,6.19678 l 0,15.14502 -4.42627,0 0,-16.03027 c -2e-5,-2.58397 -0.45461,-4.49005 -1.36377,-5.71827 -0.9092,-1.24411 -2.31284,-1.86618 -4.21093,-1.86621 -2.24904,3e-5 -4.0355,0.76565 -5.35938,2.29688 -1.3239,1.51532 -1.98585,3.57293 -1.98584,6.17285 l 0,15.14502 -4.42627,0 0,-26.79688 4.42627,0 0,4.16309 c 1.00487,-1.64288 2.20914,-2.85512 3.61279,-3.63672 1.40364,-0.78155 3.07046,-1.17233 5.00049,-1.17236 1.94595,3e-5 3.59682,0.49449 4.95264,1.4834 1.37172,0.98895 2.38458,2.4245 3.03857,4.30664"
       style="font-size:49px;stroke:#000000;stroke-width:1;font-family:Bravura"
       id="path3294" />
    <path
       d="m 344.13037,213.98047 0,14.21191 -4.42627,0 0,-36.98926 4.42627,0 0,4.06739 c 0.92512,-1.59503 2.08951,-2.77537 3.49317,-3.54102 1.41958,-0.78155 3.11033,-1.17233 5.07226,-1.17236 3.25389,3e-5 5.89369,1.29202 7.91943,3.87598 2.04164,2.584 3.06248,5.98146 3.0625,10.19238 -2e-5,4.21094 -1.02086,7.6084 -3.0625,10.19238 -2.02574,2.58399 -4.66554,3.87598 -7.91943,3.87598 -1.96193,0 -3.65268,-0.38282 -5.07226,-1.14844 -1.40366,-0.78157 -2.56805,-1.96989 -3.49317,-3.56494 m 14.97754,-9.35498 c -2e-5,-3.23794 -0.66994,-5.77407 -2.00977,-7.6084 -1.32391,-1.85024 -3.15024,-2.77537 -5.479,-2.77539 -2.32879,2e-5 -4.1631,0.92515 -5.50293,2.77539 -1.3239,1.83433 -1.98585,4.37046 -1.98584,7.6084 -1e-5,3.23796 0.66194,5.78207 1.98584,7.63232 1.33983,1.83432 3.17414,2.75147 5.50293,2.75147 2.32876,0 4.15509,-0.91715 5.479,-2.75147 1.33983,-1.85025 2.00975,-4.39436 2.00977,-7.63232"
       style="font-size:49px;stroke:#000000;stroke-width:1;font-family:Bravura"
       id="path3296" />
    <path
       d="m 378.79883,182.27881 4.06738,0 -12.44141,40.26709 -4.06738,0 12.44141,-40.26709"
       style="font-size:49px;stroke:#000000;stroke-width:1;font-family:Bravura"
       id="path3298" />
    <path
       d="m 387.53174,191.20312 4.40234,0 0,26.79688 -4.40234,0 0,-26.79688 m 0,-10.43164 4.40234,0 0,5.57471 -4.40234,0 0,-5.57471"
       style="font-size:49px;stroke:#000000;stroke-width:1;font-family:Bravura"
       id="path3300" />
    <path
       d="m 421.98486,196.34717 c 1.10056,-1.97784 2.41648,-3.43731 3.94776,-4.37842 1.53122,-0.94105 3.33362,-1.41159 5.40722,-1.41162 2.79131,3e-5 4.94463,0.98098 6.45996,2.94287 1.51526,1.94599 2.27291,4.72137 2.27295,8.32617 l 0,16.17383 -4.42627,0 0,-16.03027 c -3e-5,-2.56802 -0.45462,-4.4741 -1.36377,-5.71827 -0.90921,-1.24411 -2.29691,-1.86618 -4.16308,-1.86621 -2.28096,3e-5 -4.08336,0.75768 -5.40723,2.27295 -1.32392,1.51532 -1.98586,3.58091 -1.98584,6.19678 l 0,15.14502 -4.42627,0 0,-16.03027 c -2e-5,-2.58397 -0.45461,-4.49005 -1.36377,-5.71827 -0.9092,-1.24411 -2.31284,-1.86618 -4.21093,-1.86621 -2.24904,3e-5 -4.0355,0.76565 -5.35938,2.29688 -1.3239,1.51532 -1.98585,3.57293 -1.98584,6.17285 l 0,15.14502 -4.42627,0 0,-26.79688 4.42627,0 0,4.16309 c 1.00487,-1.64288 2.20914,-2.85512 3.61279,-3.63672 1.40364,-0.78155 3.07046,-1.17233 5.00049,-1.17236 1.94595,3e-5 3.59682,0.49449 4.95264,1.4834 1.37172,0.98895 2.38458,2.4245 3.03857,4.30664"
       style="font-size:49px;stroke:#000000;stroke-width:1;font-family:Bravura"
       id="path3302" />
    <path
       d="m 464.40527,195.31836 c -0.49448,-0.28709 -1.0368,-0.49444 -1.62695,-0.62207 -0.57424,-0.14353 -1.21226,-0.21531 -1.91406,-0.21533 -2.4883,2e-5 -4.40236,0.8135 -5.74219,2.44043 -1.3239,1.61102 -1.98585,3.93182 -1.98584,6.9624 l 0,14.11621 -4.42627,0 0,-26.79688 4.42627,0 0,4.16309 c 0.92512,-1.62693 2.12938,-2.83119 3.61279,-3.61279 1.48339,-0.7975 3.28579,-1.19626 5.40723,-1.19629 0.30304,3e-5 0.638,0.0239 1.00488,0.0718 0.36685,0.0319 0.77358,0.0877 1.22022,0.16748 l 0.0239,4.52197"
       style="font-size:49px;stroke:#000000;stroke-width:1;font-family:Bravura"
       id="path3304" />
  </g>
  <path
     style=""
     d="m 223,278 c 0,2.20914 -1.79086,4 -4,4 -2.20914,0 -4,-1.79086 -4,-4 0,-2.20914 1.79086,-4 4,-4 2.20914,0 4,1.79086 4,4 z"
     id="circle38" />
  <path
     style=""
     d="m 222,260 c 0,1.10457 -0.89543,2 -2,2 -1.10457,0 -2,-0.89543 -2,-2 0,-1.10457 0.89543,-2 2,-2 1.10457,0 2,0.89543 2,2 z"
     id="circle40" />
  <path
     style=""
     d="m 219,263 c 0,2.20914 -1.79086,4 -4,4 -2.20914,0 -4,-1.79086 -4,-4 0,-2.20914 1.79086,-4 4,-4 2.20914,0 4,1.79086 4,4 z"
     id="circle42" />
  <path
     style=""
     d="m 218,284 c 0,2.20914 -1.79086,4 -4,4 -2.20914,0 -4,-1.79086 -4,-4 0,-2.20914 1.79086,-4 4,-4 2.20914,0 4,1.79086 4,4 z"
     id="circle44" />
  <path
     style=""
     d="m 221,308 c 0,1.65685 -1.34315,3 -3,3 -1.65685,0 -3,-1.34315 -3,-3 0,-1.65685 1.34315,-3 3,-3 1.65685,0 3,1.34315 3,3 z"
     id="circle46" />
  <path
     style=""
     d="m 213,289 c 0,1.65685 -1.34315,3 -3,3 -1.65685,0 -3,-1.34315 -3,-3 0,-1.65685 1.34315,-3 3,-3 1.65685,0 3,1.34315 3,3 z"
     id="circle48" />
  <path
     style=""
     d="m 220,242 c 0,2.20914 -1.79086,4 -4,4 -2.20914,0 -4,-1.79086 -4,-4 0,-2.20914 1.79086,-4 4,-4 2.20914,0 4,1.79086 4,4 z"
     id="circle50" />
  <path
     d="M 133 63 L 719 65"
     id="id1" />
  <g
     style="font-size:196px;stroke:#000000;stroke-width:1;font-family:Bravura"
     id="text55">
    <path
       d="m 178.56003,94.711679 c -7.41717,-9.041358 -13.46839,-16.314073 -13.43093,-27.289998 0.003,-0.783995 0.20202,-1.763322 0.20469,-2.547316 0.82279,-11.365247 7.91087,-20.74913 13.03426,-28.767683 0.59134,-0.977986 0.79068,-1.957314 0.79403,-2.937307 0.007,-1.959987 -0.77129,-3.726654 -0.77129,-3.726654 0,0 -28.8901,-34.5948052 -32.2107,-37.9381544 -0.97665,-0.983338 -2.34664,-1.5760186 -3.52263,-1.5800316 -1.95999,-0.0067 -3.92466,1.3586158 -3.93403,4.1025971 -0.003,0.9799933 0.18931,1.9606587 0.7733,3.1386575 0.77663,2.15866101 11.91445,12.1927485 11.86629,26.3046524 -0.0248,7.25195 -2.99351,15.669884 -11.84489,24.851719 -1.96667,1.953297 -2.75803,4.106612 -2.76338,5.674601 -0.009,2.743982 1.94393,4.710662 1.94393,4.710662 l 9.56381,11.79271 c 3.1226,3.930676 5.85388,7.664028 8.38782,11.788696 0.38932,0.785332 1.16997,1.768004 1.16662,2.747997 -6.6e-4,0.195999 -0.002,0.587997 -0.19867,0.783327 -0.39467,0.782657 -1.17934,0.97598 -2.15933,0.972636 -1.17599,-0.004 -2.35065,-0.400025 -3.13398,-0.5987 -0.97999,-0.0033 -2.15398,-0.595355 -3.13397,-0.598699 -8.42795,-0.02877 -16.10067,8.373108 -16.13613,18.761039 -0.0334,9.79993 8.36174,19.43266 22.63219,30.45742 1.56397,1.18134 3.52196,1.77603 5.08994,1.78138 1.372,0.005 2.74533,-0.38263 2.944,-1.16596 0.19801,-0.58733 0.39534,-0.97866 0.39668,-1.37065 0.006,-1.76399 -1.55662,-3.33734 -3.11993,-4.71468 -2.54798,-0.009 -4.68591,-5.30802 -5.07188,-7.07335 -0.58265,-1.57 -0.77263,-3.33466 -0.76661,-5.09865 0.0207,-6.07595 2.98414,-12.92589 9.26011,-14.08047 0.98067,-0.19266 1.96066,-0.18931 3.13665,-0.1853 5.68396,0.0194 12.14458,2.19746 15.27654,3.38416 0.196,6.7e-4 0.39133,0.19733 0.58733,0.198 0.58733,0.19801 0.97933,0.19935 1.37132,0.20069 0.588,0.002 0.98067,-0.19266 0.98267,-0.78066 0.008,-2.35198 -5.06587,-8.837339 -7.21383,-11.196681"
       style=""
       id="path3314" />
  </g>
</svg>
