<?xml version="1.0" encoding="UTF-8" standalone="no"?>
<?xml-stylesheet href="style.css" type="text/css" title="style" alternate="no" media="all"?><svg
   xmlns:dc="http://purl.org/dc/elements/1.1/"
   xmlns:cc="http://creativecommons.org/ns#"
   xmlns:rdf="http://www.w3.org/1999/02/22-rdf-syntax-ns#"
   xmlns:svg="http://www.w3.org/2000/svg"
   xmlns="http://www.w3.org/2000/svg"
   xmlns:xlink="http://www.w3.org/1999/xlink"
   xmlns:sodipodi="http://sodipodi.sourceforge.net/DTD/sodipodi-0.dtd"
   xmlns:inkscape="http://www.inkscape.org/namespaces/inkscape"
   height="600px"
   version="1.1"
   width="800px"
   id="svg2"
   inkscape:version="0.48.5 r10040"
   sodipodi:docname="imramma.svg">
  <metadata
     id="metadata69">
    <rdf:RDF>
      <cc:Work
         rdf:about="">
        <dc:format>image/svg+xml</dc:format>
        <dc:type
           rdf:resource="http://purl.org/dc/dcmitype/StillImage" />
      </cc:Work>
    </rdf:RDF>
  </metadata>
  <sodipodi:namedview
     pagecolor="#ffffff"
     bordercolor="#666666"
     borderopacity="1"
     objecttolerance="10"
     gridtolerance="10"
     guidetolerance="10"
     inkscape:pageopacity="0"
     inkscape:pageshadow="2"
     inkscape:window-width="434"
     inkscape:window-height="415"
     id="namedview67"
     showgrid="false"
     inkscape:zoom="0.295"
     inkscape:cx="400"
     inkscape:cy="300"
     inkscape:window-x="0"
     inkscape:window-y="27"
     inkscape:window-maximized="0"
     inkscape:current-layer="svg2" />
  <defs
     id="defs4">
    <style
       type="text/css"
       id="style6">@font-face {
  font-family: Bravura;
  src: local(&quot;Bravura Regular&quot;),
    local(&quot;BravuraRegular&quot;), 
    local(&quot;Bravura&quot;),
     url(Bravura.otf) format(&quot;opentype&quot;),
    url(Bravura.svg) format(&quot;svg&quot;);
}
</style>
  </defs>
  <image
     sodipodi:absref="/tmp/./data/Bravura.svg"
     xlink:href="./data/Bravura.svg"
     id="image8" />
  <path
     style="stroke:#000000;stroke-width:3"
     d="M 629,264 403,186"
     id="line10" />
  <path
     style=""
     d="m 257,302 c 0,2.20914 -1.79086,4 -4,4 -2.20914,0 -4,-1.79086 -4,-4 0,-2.20914 1.79086,-4 4,-4 2.20914,0 4,1.79086 4,4 z"
     id="circle12" />
  <path
     style=""
     d="m 317,381 c 0,2.20914 -1.79086,4 -4,4 -2.20914,0 -4,-1.79086 -4,-4 0,-2.20914 1.79086,-4 4,-4 2.20914,0 4,1.79086 4,4 z"
     id="circle14" />
  <path
     style=""
     d="m 330,410 c 0,2.20914 -1.79086,4 -4,4 -2.20914,0 -4,-1.79086 -4,-4 0,-2.20914 1.79086,-4 4,-4 2.20914,0 4,1.79086 4,4 z"
     id="circle16" />
  <path
     style=""
     d="m 312,326 c 0,2.20914 -1.79086,4 -4,4 -2.20914,0 -4,-1.79086 -4,-4 0,-2.20914 1.79086,-4 4,-4 2.20914,0 4,1.79086 4,4 z"
     id="circle18" />
  <path
     style=""
     d="m 271,432 c 0,1.65685 -1.34315,3 -3,3 -1.65685,0 -3,-1.34315 -3,-3 0,-1.65685 1.34315,-3 3,-3 1.65685,0 3,1.34315 3,3 z"
     id="circle20" />
  <path
     style=""
     d="m 291,307 c 0,2.20914 -1.79086,4 -4,4 -2.20914,0 -4,-1.79086 -4,-4 0,-2.20914 1.79086,-4 4,-4 2.20914,0 4,1.79086 4,4 z"
     id="circle22" />
  <path
     style=""
     d="m 316,290 c 0,1.65685 -1.34315,3 -3,3 -1.65685,0 -3,-1.34315 -3,-3 0,-1.65685 1.34315,-3 3,-3 1.65685,0 3,1.34315 3,3 z"
     id="circle24" />
  <path
     style=""
     d="m 329,246 c 0,1.65685 -1.34315,3 -3,3 -1.65685,0 -3,-1.34315 -3,-3 0,-1.65685 1.34315,-3 3,-3 1.65685,0 3,1.34315 3,3 z"
     id="circle26" />
  <path
     style=""
     d="m 254,316 c 0,2.20914 -1.79086,4 -4,4 -2.20914,0 -4,-1.79086 -4,-4 0,-2.20914 1.79086,-4 4,-4 2.20914,0 4,1.79086 4,4 z"
     id="circle28" />
  <path
     style=""
     d="m 253,334 c 0,2.20914 -1.79086,4 -4,4 -2.20914,0 -4,-1.79086 -4,-4 0,-2.20914 1.79086,-4 4,-4 2.20914,0 4,1.79086 4,4 z"
     id="circle30" />
  <path
     style=""
     d="m 279,282 c 0,2.20914 -1.79086,4 -4,4 -2.20914,0 -4,-1.79086 -4,-4 0,-2.20914 1.79086,-4 4,-4 2.20914,0 4,1.79086 4,4 z"
     id="circle32" />
  <path
     style=""
     d="m 350,430 c 0,2.20914 -1.79086,4 -4,4 -2.20914,0 -4,-1.79086 -4,-4 0,-2.20914 1.79086,-4 4,-4 2.20914,0 4,1.79086 4,4 z"
     id="circle34" />
  <path
     style=""
     d="m 313,399 c 0,2.20914 -1.79086,4 -4,4 -2.20914,0 -4,-1.79086 -4,-4 0,-2.20914 1.79086,-4 4,-4 2.20914,0 4,1.79086 4,4 z"
     id="circle36" />
  <path
     style=""
     d="m 234,286 c 0,1.65685 -1.34315,3 -3,3 -1.65685,0 -3,-1.34315 -3,-3 0,-1.65685 1.34315,-3 3,-3 1.65685,0 3,1.34315 3,3 z"
     id="circle38" />
  <path
     style=""
     d="m 237,259 c 0,2.20914 -1.79086,4 -4,4 -2.20914,0 -4,-1.79086 -4,-4 0,-2.20914 1.79086,-4 4,-4 2.20914,0 4,1.79086 4,4 z"
     id="circle40" />
  <path
     style=""
     d="m 313,297 c 0,2.20914 -1.79086,4 -4,4 -2.20914,0 -4,-1.79086 -4,-4 0,-2.20914 1.79086,-4 4,-4 2.20914,0 4,1.79086 4,4 z"
     id="circle42" />
  <path
     style=""
     d="m 302,369 c 0,2.20914 -1.79086,4 -4,4 -2.20914,0 -4,-1.79086 -4,-4 0,-2.20914 1.79086,-4 4,-4 2.20914,0 4,1.79086 4,4 z"
     id="circle44" />
  <path
     style=""
     d="m 265,310 c 0,2.20914 -1.79086,4 -4,4 -2.20914,0 -4,-1.79086 -4,-4 0,-2.20914 1.79086,-4 4,-4 2.20914,0 4,1.79086 4,4 z"
     id="circle46" />
  <path
     style=""
     d="m 261,326 c 0,2.20914 -1.79086,4 -4,4 -2.20914,0 -4,-1.79086 -4,-4 0,-2.20914 1.79086,-4 4,-4 2.20914,0 4,1.79086 4,4 z"
     id="circle48" />
  <path
     style=""
     d="m 341,368 c 0,1.65685 -1.34315,3 -3,3 -1.65685,0 -3,-1.34315 -3,-3 0,-1.65685 1.34315,-3 3,-3 1.65685,0 3,1.34315 3,3 z"
     id="circle50" />
  <path
     style=""
     d="m 265,282 c 0,1.65685 -1.34315,3 -3,3 -1.65685,0 -3,-1.34315 -3,-3 0,-1.65685 1.34315,-3 3,-3 1.65685,0 3,1.34315 3,3 z"
     id="circle52" />
  <path
     style=""
     d="m 367,224 c 0,2.20914 -1.79086,4 -4,4 -2.20914,0 -4,-1.79086 -4,-4 0,-2.20914 1.79086,-4 4,-4 2.20914,0 4,1.79086 4,4 z"
     id="circle54" />
  <path
     style=""
     d="m 232,406 c 0,1.65685 -1.34315,3 -3,3 -1.65685,0 -3,-1.34315 -3,-3 0,-1.65685 1.34315,-3 3,-3 1.65685,0 3,1.34315 3,3 z"
     id="circle56" />
  <path
     style=""
     d="m 333,356 c 0,1.65685 -1.34315,3 -3,3 -1.65685,0 -3,-1.34315 -3,-3 0,-1.65685 1.34315,-3 3,-3 1.65685,0 3,1.34315 3,3 z"
     id="circle58" />
  <path
     d="M 790 17 L 349 523"
     id="id1" />
  <g
     style="font-size:115px;stroke:#000000;stroke-width:1;font-family:Bravura"
     id="text63">
    <path
       d="m 775.00866,51.529008 c 0.0978,0.237811 0.27122,0.388928 0.35792,0.464486 0.52017,0.453348 1.15804,0.246548 1.53583,-0.186925 0.37779,-0.433474 0.31097,-1.406991 0.19087,-1.969307 -0.31817,-2.260401 0.13038,-5.225502 1.64154,-6.959395 0.75558,-0.866947 1.85794,-1.431663 2.88475,-1.909683 2.0536,-0.95604 4.04278,-1.663136 5.82516,-3.008102 0.54004,-0.44461 1.08009,-0.889221 1.45788,-1.322695 l 0.83114,-0.953642 c 0.79618,3.287201 -1.52778,9.804389 -2.45435,11.742683 -1.07769,2.111683 -4.93269,11.260728 0.46705,17.492292 0.26008,0.226674 0.44461,0.540044 0.7047,0.766718 1.30041,1.13337 3.16316,2.146637 4.65684,2.533165 5.16347,1.601796 11.01092,-1.081803 14.6377,-5.243147 1.43561,-1.647198 2.52443,-3.596634 3.0398,-5.588213 1.04188,-3.820904 0.88751,-10.820055 -2.84036,-14.069049 -0.43348,-0.37779 -0.94251,-0.668886 -1.45154,-0.959981 -1.93829,-0.926571 -3.07407,-0.848613 -5.03858,1.405448 -2.34229,2.687534 -1.4308,4.092131 -0.0858,5.874511 0.27122,0.388927 0.70469,0.766718 0.96477,0.993392 1.6472,1.435602 2.92295,1.022005 3.70321,1.702027 0.17339,0.151116 0.34678,0.302232 0.44461,0.540043 0.86694,0.75558 1.70528,3.469335 -1.24149,6.850427 -3.47566,3.987954 -6.31192,3.04151 -8.21921,1.379234 -1.04033,-0.906696 -1.7673,-1.99792 -2.22305,-2.700216 -1.88741,-2.560233 -3.03037,-6.149676 -2.69079,-9.514833 0.72371,-6.081305 2.26349,-9.773382 3.35625,-15.227949 1.29717,-6.039157 -0.24826,-10.7421 -3.89184,-15.137999 -0.17339,-0.151116 -0.27122,-0.388927 -0.44461,-0.540043 -0.34678,-0.302232 -0.68242,-0.442212 -1.32029,-0.235412 -0.23781,0.09783 -0.47563,0.195663 -0.62674,0.369052 -0.37779,0.433473 -0.17099,1.071349 -0.12645,1.72036 0.15352,1.049073 0.55598,2.162572 0.47168,3.309477 0.0247,1.546969 -0.22187,2.705014 -1.20413,3.832045 -2.26674,2.60084 -8.05696,1.368102 -11.83486,5.702835 l -0.83114,0.953642 c -2.33116,2.849787 -5.95794,7.011148 -0.64644,17.894754"
       style=""
       id="path3074" />
  </g>
</svg>
